<svg xmlns="http://www.w3.org/2000/svg" xmlns:xlink="http://www.w3.org/1999/xlink" contentStyleType="text/css" data-diagram-type="ACTIVITY" height="1262px" preserveAspectRatio="none" style="width:795px;height:1262px;background:#FFFFFF;" version="1.1" viewBox="0 0 795 1262" width="795px" zoomAndPan="magnify"><defs/><g><ellipse cx="298.6426" cy="15" fill="#FFFFFF" rx="10" ry="10" style="stroke:#000000;stroke-width:1;"/><path d="M451.4873,47.5693 L451.4873,80.168 L431.4873,84.168 L451.4873,88.168 L451.4873,120.7666 A0,0 0 0 0 451.4873,120.7666 L682.5376,120.7666 A0,0 0 0 0 682.5376,120.7666 L682.5376,57.5693 L672.5376,47.5693 L451.4873,47.5693 A0,0 0 0 0 451.4873,47.5693" fill="#FFFFFF" style="stroke:#000000;stroke-width:1;"/><path d="M672.5376,47.5693 L672.5376,57.5693 L682.5376,57.5693 L672.5376,47.5693" fill="#FFFFFF" style="stroke:#000000;stroke-width:1;"/><text fill="#000000" font-family="Verdana" font-size="13" font-weight="bold" lengthAdjust="spacing" textLength="93.7295" x="457.4873" y="65.6392">Initialization</text><text fill="#000000" font-family="Verdana" font-size="13" lengthAdjust="spacing" textLength="210.0503" x="457.4873" y="81.4385">&#8226; Weights: small random values</text><text fill="#000000" font-family="Verdana" font-size="13" lengthAdjust="spacing" textLength="156.9585" x="457.4873" y="97.2378">&#8226; Biases: typically zeros</text><text fill="#000000" font-family="Verdana" font-size="13" lengthAdjust="spacing" textLength="183.4727" x="457.4873" y="113.0371">&#8226; Learning rate: 0.001 - 0.1</text><rect fill="#FFFFFF" height="78.3359" rx="12.5" ry="12.5" style="stroke:#000000;stroke-width:1;" width="265.6895" x="165.7979" y="45"/><text fill="#000000" font-family="Verdana" font-size="12" lengthAdjust="spacing" textLength="105.6035" x="175.7979" y="67.0645">Initialize Network</text><text fill="#000000" font-family="Verdana" font-size="12" lengthAdjust="spacing" textLength="245.6895" x="175.7979" y="81.6484">Set random weights W(l) and biases b(l)</text><text fill="#000000" font-family="Verdana" font-size="12" lengthAdjust="spacing" textLength="124.752" x="175.7979" y="96.2324">Set learning rate eta</text><text fill="#000000" font-family="Verdana" font-size="12" lengthAdjust="spacing" textLength="96.5039" x="175.7979" y="110.8164">Set max epochs</text><rect fill="#FFFFFF" height="34.584" rx="12.5" ry="12.5" style="stroke:#000000;stroke-width:1;" width="81.6406" x="257.8223" y="143.3359"/><text fill="#000000" font-family="Verdana" font-size="12" lengthAdjust="spacing" textLength="61.6406" x="267.8223" y="165.4004">epoch = 1</text><path d="M463.2793,264.3403 L463.2793,296.939 L443.2793,300.939 L463.2793,304.939 L463.2793,337.5376 A0,0 0 0 0 463.2793,337.5376 L686.4585,337.5376 A0,0 0 0 0 686.4585,337.5376 L686.4585,274.3403 L676.4585,264.3403 L463.2793,264.3403 A0,0 0 0 0 463.2793,264.3403" fill="#FFFFFF" style="stroke:#000000;stroke-width:1;"/><path d="M676.4585,264.3403 L676.4585,274.3403 L686.4585,274.3403 L676.4585,264.3403" fill="#FFFFFF" style="stroke:#000000;stroke-width:1;"/><text fill="#000000" font-family="Verdana" font-size="13" font-weight="bold" lengthAdjust="spacing" textLength="98.8901" x="469.2793" y="282.4102">Forward Pass</text><text fill="#000000" font-family="Verdana" font-size="13" lengthAdjust="spacing" textLength="181.6255" x="469.2793" y="298.2095">&#8226; Input &#8594; Hidden &#8594; Output</text><text fill="#000000" font-family="Verdana" font-size="13" lengthAdjust="spacing" textLength="202.1792" x="469.2793" y="314.0088">&#8226; Cache z^(l) and a^(l) values</text><text fill="#000000" font-family="Verdana" font-size="13" lengthAdjust="spacing" textLength="183.4854" x="469.2793" y="329.8081">&#8226; No parameter updates yet</text><rect fill="#FFFFFF" height="92.9199" rx="12.5" ry="12.5" style="stroke:#000000;stroke-width:1;" width="289.2734" x="154.0059" y="254.479"/><text fill="#000000" font-family="Verdana" font-size="12" lengthAdjust="spacing" textLength="125.0508" x="164.0059" y="276.5435">Forward Propagation</text><text fill="#000000" font-family="Verdana" font-size="12" lengthAdjust="spacing" textLength="151.7871" x="164.0059" y="291.1274">For each layer l = 1 to L:</text><text fill="#000000" font-family="Verdana" font-size="12" lengthAdjust="spacing" textLength="269.2734" x="164.0059" y="305.7114">&#8226; Compute: z^(l) = W^(l) * a^(l-1) + b^(l)</text><text fill="#000000" font-family="Verdana" font-size="12" lengthAdjust="spacing" textLength="215.1445" x="164.0059" y="320.2954">&#8226; Apply activation: a^(l) = &#963;(z^(l))</text><text fill="#000000" font-family="Verdana" font-size="12" lengthAdjust="spacing" textLength="192.8613" x="164.0059" y="334.8794">&#8226; Store activations for backprop</text><path d="M422.0381,369.9683 L422.0381,402.5669 L402.0381,406.5669 L422.0381,410.5669 L422.0381,443.1655 A0,0 0 0 0 422.0381,443.1655 L633.2329,443.1655 A0,0 0 0 0 633.2329,443.1655 L633.2329,379.9683 L623.2329,369.9683 L422.0381,369.9683 A0,0 0 0 0 422.0381,369.9683" fill="#FFFFFF" style="stroke:#000000;stroke-width:1;"/><path d="M623.2329,369.9683 L623.2329,379.9683 L633.2329,379.9683 L623.2329,369.9683" fill="#FFFFFF" style="stroke:#000000;stroke-width:1;"/><text fill="#000000" font-family="Verdana" font-size="13" font-weight="bold" lengthAdjust="spacing" textLength="100.2549" x="428.0381" y="388.0381">Loss Function</text><text fill="#000000" font-family="Verdana" font-size="13" lengthAdjust="spacing" textLength="183.5552" x="428.0381" y="403.8374">&#8226; Quantifies prediction error</text><text fill="#000000" font-family="Verdana" font-size="13" lengthAdjust="spacing" textLength="153.7021" x="428.0381" y="419.6367">&#8226; Must be differentiable</text><text fill="#000000" font-family="Verdana" font-size="13" lengthAdjust="spacing" textLength="190.1948" x="428.0381" y="435.436">&#8226; Drives the learning process</text><rect fill="#FFFFFF" height="78.3359" rx="12.5" ry="12.5" style="stroke:#000000;stroke-width:1;" width="206.791" x="195.2471" y="367.3989"/><text fill="#000000" font-family="Verdana" font-size="12" lengthAdjust="spacing" textLength="95.8652" x="205.2471" y="389.4634">Compute Loss L</text><text fill="#000000" font-family="Verdana" font-size="12" lengthAdjust="spacing" textLength="158.4492" x="205.2471" y="404.0474">Calculate prediction error:</text><text fill="#000000" font-family="Verdana" font-size="12" lengthAdjust="spacing" textLength="128.7656" x="205.2471" y="418.6313">&#8226; MSE: L = &#189;(&#375; - y)&#178;</text><text fill="#000000" font-family="Verdana" font-size="12" lengthAdjust="spacing" textLength="186.791" x="205.2471" y="433.2153">&#8226; Cross-entropy: L = -y*log(&#375;)</text><path d="M514.5693,489.5725 L514.5693,530.0708 L494.5693,534.0708 L514.5693,538.0708 L514.5693,578.5691 A0,0 0 0 0 514.5693,578.5691 L762.7202,578.5691 A0,0 0 0 0 762.7202,578.5691 L762.7202,499.5725 L752.7202,489.5725 L514.5693,489.5725 A0,0 0 0 0 514.5693,489.5725" fill="#FFFFFF" style="stroke:#000000;stroke-width:1;"/><path d="M752.7202,489.5725 L752.7202,499.5725 L762.7202,499.5725 L752.7202,489.5725" fill="#FFFFFF" style="stroke:#000000;stroke-width:1;"/><text fill="#000000" font-family="Verdana" font-size="13" font-weight="bold" lengthAdjust="spacing" textLength="146.8911" x="520.5693" y="507.6423">Chain Rule in Action</text><text fill="#000000" font-family="Verdana" font-size="13" lengthAdjust="spacing" textLength="217.6104" x="520.5693" y="523.4417">&#8226; Gradients computed backwards</text><text fill="#000000" font-family="Verdana" font-size="13" lengthAdjust="spacing" textLength="211.1484" x="520.5693" y="539.241">&#8226; &#948; (delta) = error responsibility</text><text fill="#000000" font-family="Verdana" font-size="13" lengthAdjust="spacing" textLength="176.103" x="520.5693" y="555.0403">&#8226; Reuse cached activations</text><text fill="#000000" font-family="Verdana" font-size="13" lengthAdjust="spacing" textLength="227.1509" x="520.5693" y="570.8396">&#8226; &#10752; denotes element-wise product</text><rect fill="#FFFFFF" height="136.6719" rx="12.5" ry="12.5" style="stroke:#000000;stroke-width:1;" width="391.8535" x="102.7158" y="465.7349"/><text fill="#000000" font-family="Verdana" font-size="12" lengthAdjust="spacing" textLength="134.5371" x="112.7158" y="487.7993">Backward Propagation</text><text fill="#000000" font-family="Verdana" font-size="12" lengthAdjust="spacing" textLength="151.7871" x="112.7158" y="502.3833">For each layer l = L to 1:</text><text fill="#000000" font-family="Verdana" font-size="12" lengthAdjust="spacing" textLength="200.3203" x="112.7158" y="516.9673">1. Compute error terms (deltas):</text><text fill="#000000" font-family="Verdana" font-size="12" lengthAdjust="spacing" textLength="263.8535" x="125.3721" y="531.5513">&#8226; Output layer: &#948;^(L) = (&#375; - y) &#10752; &#963;'(z^(L))</text><text fill="#000000" font-family="Verdana" font-size="12" lengthAdjust="spacing" textLength="359.1973" x="125.3721" y="546.1353">&#8226; Hidden layers: &#948;^(l) = (W^(l+1))^T &#948;^(l+1) &#8857; &#963;'(z^(l))</text><text fill="#000000" font-family="Verdana" font-size="12" lengthAdjust="spacing" textLength="136.459" x="112.7158" y="560.7192">2. Compute gradients:</text><text fill="#000000" font-family="Verdana" font-size="12" lengthAdjust="spacing" textLength="212.0684" x="125.3721" y="575.3032">&#8226; &#8706;L/&#8706;W^(l) = &#948;^(l) * (a^(l-1))^T</text><text fill="#000000" font-family="Verdana" font-size="12" lengthAdjust="spacing" textLength="119.2031" x="125.3721" y="589.8872">&#8226; &#8706;L/&#8706;b^(l) = &#948;^(l)</text><path d="M432.1602,624.9761 L432.1602,657.5747 L412.1602,661.5747 L432.1602,665.5747 L432.1602,698.1733 A0,0 0 0 0 432.1602,698.1733 L679.5112,698.1733 A0,0 0 0 0 679.5112,698.1733 L679.5112,634.9761 L669.5112,624.9761 L432.1602,624.9761 A0,0 0 0 0 432.1602,624.9761" fill="#FFFFFF" style="stroke:#000000;stroke-width:1;"/><path d="M669.5112,624.9761 L669.5112,634.9761 L679.5112,634.9761 L669.5112,624.9761" fill="#FFFFFF" style="stroke:#000000;stroke-width:1;"/><text fill="#000000" font-family="Verdana" font-size="13" font-weight="bold" lengthAdjust="spacing" textLength="133.1802" x="438.1602" y="643.0459">Parameter Update</text><text fill="#000000" font-family="Verdana" font-size="13" lengthAdjust="spacing" textLength="151.6328" x="438.1602" y="658.8452">&#8226; SGD: W := W - &#951;&#8711;W</text><text fill="#000000" font-family="Verdana" font-size="13" lengthAdjust="spacing" textLength="211.5166" x="438.1602" y="674.6445">&#8226; Adam: Adaptive learning rates</text><text fill="#000000" font-family="Verdana" font-size="13" lengthAdjust="spacing" textLength="226.3511" x="438.1602" y="690.4438">&#8226; Momentum: accelerates learning</text><rect fill="#FFFFFF" height="78.3359" rx="12.5" ry="12.5" style="stroke:#000000;stroke-width:1;" width="227.0352" x="185.125" y="622.4067"/><text fill="#000000" font-family="Verdana" font-size="12" lengthAdjust="spacing" textLength="115.8809" x="195.125" y="644.4712">Update Parameters</text><text fill="#000000" font-family="Verdana" font-size="12" lengthAdjust="spacing" textLength="98.7715" x="195.125" y="659.0552">For each layer l:</text><text fill="#000000" font-family="Verdana" font-size="12" lengthAdjust="spacing" textLength="207.0352" x="195.125" y="673.6392">&#8226; W^(l) := W^(l) - &#951; * &#8706;L/&#8706;W^(l)</text><text fill="#000000" font-family="Verdana" font-size="12" lengthAdjust="spacing" textLength="193.8691" x="195.125" y="688.2231">&#8226; b^(l) := b^(l) - &#951; * &#8706;L/&#8706;b^(l)</text><rect fill="#FFFFFF" height="78.3359" rx="12.5" ry="12.5" style="stroke:#000000;stroke-width:1;" width="186.7695" x="205.2578" y="720.7427"/><text fill="#000000" font-family="Verdana" font-size="12" lengthAdjust="spacing" textLength="118.9395" x="215.2578" y="742.8071">Check Convergence</text><text fill="#000000" font-family="Verdana" font-size="12" lengthAdjust="spacing" textLength="162.9844" x="215.2578" y="757.3911">&#8226; Increment epoch counter</text><text fill="#000000" font-family="Verdana" font-size="12" lengthAdjust="spacing" textLength="166.7695" x="215.2578" y="771.9751">&#8226; Evaluate on validation set</text><text fill="#000000" font-family="Verdana" font-size="12" lengthAdjust="spacing" textLength="149.4199" x="215.2578" y="786.5591">&#8226; Check stopping criteria</text><rect fill="#FFFFFF" height="34.584" rx="12.5" ry="12.5" style="stroke:#000000;stroke-width:1;" width="130.3203" x="233.4824" y="867.7629"/><text fill="#000000" font-family="Verdana" font-size="12" lengthAdjust="spacing" textLength="110.3203" x="243.4824" y="889.8274">Training Complete</text><ellipse cx="298.6426" cy="941.5549" fill="none" rx="11" ry="11" style="stroke:#000000;stroke-width:1;"/><ellipse cx="298.6426" cy="941.5549" fill="#FFFFFF" rx="6" ry="6" style="stroke:#000000;stroke-width:1;"/><polygon fill="#FFFFFF" points="174.0225,819.0786,423.2627,819.0786,435.2627,831.0786,423.2627,843.0786,174.0225,843.0786,162.0225,831.0786,174.0225,819.0786" style="stroke:#000000;stroke-width:1;"/><text fill="#000000" font-family="Verdana" font-size="11" lengthAdjust="spacing" textLength="19.0513" x="302.6426" y="854.1377">Yes</text><text fill="#000000" font-family="Verdana" font-size="11" lengthAdjust="spacing" textLength="249.2402" x="174.0225" y="835.4534">Loss converged or validation loss increasing?</text><rect fill="#FFFFFF" height="34.584" rx="12.5" ry="12.5" style="stroke:#000000;stroke-width:1;" width="135.6523" x="230.8164" y="994.5549"/><text fill="#000000" font-family="Verdana" font-size="12" lengthAdjust="spacing" textLength="115.6523" x="240.8164" y="1016.6194">epoch = epoch + 1</text><polygon fill="#FFFFFF" points="236.2305,197.9199,361.0547,197.9199,373.0547,209.9199,361.0547,221.9199,236.2305,221.9199,224.2305,209.9199,236.2305,197.9199" style="stroke:#000000;stroke-width:1;"/><text fill="#000000" font-family="Verdana" font-size="11" lengthAdjust="spacing" textLength="18.7935" x="302.6426" y="232.979">yes</text><text fill="#000000" font-family="Verdana" font-size="11" lengthAdjust="spacing" textLength="124.8242" x="236.2305" y="214.2947">epoch &#8804; max_epochs?</text><text fill="#000000" font-family="Verdana" font-size="11" lengthAdjust="spacing" textLength="13.6372" x="210.5933" y="207.6104">no</text><rect fill="#FFFFFF" height="49.168" rx="12.5" ry="12.5" style="stroke:#000000;stroke-width:1;" width="153.7109" x="221.7871" y="1071.1389"/><text fill="#000000" font-family="Verdana" font-size="12" lengthAdjust="spacing" textLength="110.3203" x="231.7871" y="1093.2034">Training Complete</text><text fill="#000000" font-family="Verdana" font-size="12" lengthAdjust="spacing" textLength="133.7109" x="231.7871" y="1107.7874">(Max epochs reached)</text><path d="M15,1140.3069 L15,1245.1028 L277.6426,1245.1028 L277.6426,1150.3069 L267.6426,1140.3069 L15,1140.3069" fill="#FFFFFF" style="stroke:#000000;stroke-width:1;"/><path d="M267.6426,1140.3069 L267.6426,1150.3069 L277.6426,1150.3069 L267.6426,1140.3069" fill="#FFFFFF" style="stroke:#000000;stroke-width:1;"/><text fill="#000000" font-family="Verdana" font-size="13" font-weight="bold" lengthAdjust="spacing" textLength="103.3906" x="21" y="1158.3767">Key Concepts:</text><text fill="#000000" font-family="Verdana" font-size="13" lengthAdjust="spacing" textLength="241.6426" x="21" y="1174.176">&#8226; Forward pass: compute predictions</text><text fill="#000000" font-family="Verdana" font-size="13" lengthAdjust="spacing" textLength="213.3511" x="21" y="1189.9753">&#8226; Loss: measure prediction error</text><text fill="#000000" font-family="Verdana" font-size="13" lengthAdjust="spacing" textLength="241.4966" x="21" y="1205.7747">&#8226; Backward pass: compute gradients</text><text fill="#000000" font-family="Verdana" font-size="13" lengthAdjust="spacing" textLength="188.4365" x="21" y="1221.574">&#8226; Update: adjust parameters</text><text fill="#000000" font-family="Verdana" font-size="13" lengthAdjust="spacing" textLength="183.4346" x="21" y="1237.3733">&#8226; Repeat: until convergence</text><path d="M319.6426,1148.2065 L319.6426,1237.2031 L618.124,1237.2031 L618.124,1158.2065 L608.124,1148.2065 L319.6426,1148.2065" fill="#FFFFFF" style="stroke:#000000;stroke-width:1;"/><path d="M608.124,1148.2065 L608.124,1158.2065 L618.124,1158.2065 L608.124,1148.2065" fill="#FFFFFF" style="stroke:#000000;stroke-width:1;"/><text fill="#000000" font-family="Verdana" font-size="13" font-weight="bold" lengthAdjust="spacing" textLength="190.3027" x="325.6426" y="1166.2764">Mathematical Foundation:</text><text fill="#000000" font-family="Verdana" font-size="13" lengthAdjust="spacing" textLength="277.4814" x="325.6426" y="1182.0757">&#8226; Chain rule enables gradient computation</text><text fill="#000000" font-family="Verdana" font-size="13" lengthAdjust="spacing" textLength="273.7871" x="325.6426" y="1197.875">&#8226; Sigmoid derivative: &#963;'(z) = &#963;(z)(1-&#963;(z))</text><text fill="#000000" font-family="Verdana" font-size="13" lengthAdjust="spacing" textLength="217.0645" x="325.6426" y="1213.6743">&#8226; Learning rate controls step size</text><text fill="#000000" font-family="Verdana" font-size="13" lengthAdjust="spacing" textLength="252.897" x="325.6426" y="1229.4736">&#8226; Batch processing improves efficiency</text><ellipse cx="298.6426" cy="1192.7048" fill="none" rx="11" ry="11" style="stroke:#000000;stroke-width:1;"/><ellipse cx="298.6426" cy="1192.7048" fill="#FFFFFF" rx="6" ry="6" style="stroke:#000000;stroke-width:1;"/><line style="stroke:#000000;stroke-width:1;" x1="298.6426" x2="298.6426" y1="25" y2="45"/><polygon fill="#000000" points="294.6426,35,298.6426,45,302.6426,35,298.6426,39" style="stroke:#000000;stroke-width:1;"/><line style="stroke:#000000;stroke-width:1;" x1="298.6426" x2="298.6426" y1="123.3359" y2="143.3359"/><polygon fill="#000000" points="294.6426,133.3359,298.6426,143.3359,302.6426,133.3359,298.6426,137.3359" style="stroke:#000000;stroke-width:1;"/><line style="stroke:#000000;stroke-width:1;" x1="298.6426" x2="298.6426" y1="347.3989" y2="367.3989"/><polygon fill="#000000" points="294.6426,357.3989,298.6426,367.3989,302.6426,357.3989,298.6426,361.3989" style="stroke:#000000;stroke-width:1;"/><line style="stroke:#000000;stroke-width:1;" x1="298.6426" x2="298.6426" y1="445.7349" y2="465.7349"/><polygon fill="#000000" points="294.6426,455.7349,298.6426,465.7349,302.6426,455.7349,298.6426,459.7349" style="stroke:#000000;stroke-width:1;"/><line style="stroke:#000000;stroke-width:1;" x1="298.6426" x2="298.6426" y1="602.4067" y2="622.4067"/><polygon fill="#000000" points="294.6426,612.4067,298.6426,622.4067,302.6426,612.4067,298.6426,616.4067" style="stroke:#000000;stroke-width:1;"/><line style="stroke:#000000;stroke-width:1;" x1="298.6426" x2="298.6426" y1="700.7427" y2="720.7427"/><polygon fill="#000000" points="294.6426,710.7427,298.6426,720.7427,302.6426,710.7427,298.6426,714.7427" style="stroke:#000000;stroke-width:1;"/><line style="stroke:#000000;stroke-width:1;" x1="298.6426" x2="298.6426" y1="902.3469" y2="930.5549"/><polygon fill="#000000" points="294.6426,920.5549,298.6426,930.5549,302.6426,920.5549,298.6426,924.5549" style="stroke:#000000;stroke-width:1;"/><line style="stroke:#000000;stroke-width:1;" x1="298.6426" x2="298.6426" y1="843.0786" y2="867.7629"/><polygon fill="#000000" points="294.6426,857.7629,298.6426,867.7629,302.6426,857.7629,298.6426,861.7629" style="stroke:#000000;stroke-width:1;"/><line style="stroke:#000000;stroke-width:1;" x1="435.2627" x2="447.2627" y1="831.0786" y2="831.0786"/><polygon fill="#000000" points="443.2627,900.5549,447.2627,910.5549,451.2627,900.5549,447.2627,904.5549" style="stroke:#000000;stroke-width:1;"/><line style="stroke:#000000;stroke-width:1;" x1="447.2627" x2="447.2627" y1="831.0786" y2="974.5549"/><line style="stroke:#000000;stroke-width:1;" x1="447.2627" x2="298.6426" y1="974.5549" y2="974.5549"/><line style="stroke:#000000;stroke-width:1;" x1="298.6426" x2="298.6426" y1="974.5549" y2="994.5549"/><polygon fill="#000000" points="294.6426,984.5549,298.6426,994.5549,302.6426,984.5549,298.6426,988.5549" style="stroke:#000000;stroke-width:1;"/><line style="stroke:#000000;stroke-width:1;" x1="298.6426" x2="298.6426" y1="799.0786" y2="819.0786"/><polygon fill="#000000" points="294.6426,809.0786,298.6426,819.0786,302.6426,809.0786,298.6426,813.0786" style="stroke:#000000;stroke-width:1;"/><line style="stroke:#000000;stroke-width:1;" x1="298.6426" x2="298.6426" y1="221.9199" y2="254.479"/><polygon fill="#000000" points="294.6426,244.479,298.6426,254.479,302.6426,244.479,298.6426,248.479" style="stroke:#000000;stroke-width:1;"/><line style="stroke:#000000;stroke-width:1;" x1="298.6426" x2="298.6426" y1="1029.1389" y2="1039.1389"/><line style="stroke:#000000;stroke-width:1;" x1="298.6426" x2="774.7202" y1="1039.1389" y2="1039.1389"/><polygon fill="#000000" points="770.7202,640.8628,774.7202,630.8628,778.7202,640.8628,774.7202,636.8628" style="stroke:#000000;stroke-width:1;"/><line style="stroke:#000000;stroke-width:1;" x1="774.7202" x2="774.7202" y1="209.9199" y2="1039.1389"/><line style="stroke:#000000;stroke-width:1;" x1="774.7202" x2="373.0547" y1="209.9199" y2="209.9199"/><polygon fill="#000000" points="383.0547,205.9199,373.0547,209.9199,383.0547,213.9199,379.0547,209.9199" style="stroke:#000000;stroke-width:1;"/><line style="stroke:#000000;stroke-width:1;" x1="224.2305" x2="90.7158" y1="209.9199" y2="209.9199"/><polygon fill="#000000" points="86.7158,626.8628,90.7158,636.8628,94.7158,626.8628,90.7158,630.8628" style="stroke:#000000;stroke-width:1;"/><line style="stroke:#000000;stroke-width:1;" x1="90.7158" x2="90.7158" y1="209.9199" y2="1051.1389"/><line style="stroke:#000000;stroke-width:1;" x1="90.7158" x2="298.6426" y1="1051.1389" y2="1051.1389"/><line style="stroke:#000000;stroke-width:1;" x1="298.6426" x2="298.6426" y1="1051.1389" y2="1071.1389"/><polygon fill="#000000" points="294.6426,1061.1389,298.6426,1071.1389,302.6426,1061.1389,298.6426,1065.1389" style="stroke:#000000;stroke-width:1;"/><line style="stroke:#000000;stroke-width:1;" x1="298.6426" x2="298.6426" y1="177.9199" y2="197.9199"/><polygon fill="#000000" points="294.6426,187.9199,298.6426,197.9199,302.6426,187.9199,298.6426,191.9199" style="stroke:#000000;stroke-width:1;"/><line style="stroke:#000000;stroke-width:1;" x1="298.6426" x2="298.6426" y1="1120.3069" y2="1181.7048"/><polygon fill="#000000" points="294.6426,1171.7048,298.6426,1181.7048,302.6426,1171.7048,298.6426,1175.7048" style="stroke:#000000;stroke-width:1;"/><!--SRC=[TLPFZzj45B_xKpp4OPEiKXgsjDIh2krccxOYkq2tQCMbQ68_9yEEFTRCU4Dwga22mf4RLyI1CwhK4vTANCjto2VXlHdRSNRJH8gTcT-yz-Rt_kuvwHJ2iKWkIwDBCHTEwWAEr5mRwHOvJ9HU9WjXNBJd5fWZb4h88jg34ynaWM3TIg6DxAKiIc543Ybceb9keWjt9WX_PAHGqTu6C2DTSwEh8XrhfGryEBdFtuu8aJXv9Ttg-0RIVpf8kn2fNifY3fbG5ZixXNQuw_pzyRthA6rID3NYvCxndKyFkhOOevVrvYV-iyFG4oboNQGtz3syExctPU_r0rtL1mTtxux7qGVRD9yxuXve3KJZayZoMaIRJmhfY5tv0gDuymvdw9RQN4RdwC288jKvB57E5yx2HK_rWPPW9eL52pFwxt4AXIcOI2CS0ZhXLtFnFM2fauKzZ9WhC2mc0XWCMdq-OWO3Mbo__0CkWg8OR2wKQjHV2LLHb0J8iLSTWrkLCY7G2bwWqStkj6j83BTltRuzWY4zHn6ItMn55CNUA7W0eqFcuPIu0cVebmyghSjekP0Krxs0M__o9r_bst2Lp_eWBVHMQFiHATs3YJPBOLBuSfC1j1xlNgPLG452bLYX0SL6WDCmZUiBZ7LULcpwY-TCzWEuyCy127eEHttOXnclrF2ZiYG6V61u5R77yRd_Vknv4Gtot6c37QI5Z6oPrQbxIAWj5x6JsYi8QxsBWgGd1La8wvz-WySoJR7mhrzKZbPRp9ZkYFKTE622LQqZ0-XCWmziT4H5LQRaCWihP2aRPp75DIamrPPFnzt_CAMLiL19fJZsIeEfJ7mPGae-q_1wUlumXYdnylQVthzlA2HM_RT_DvnJ_DWX5ew8M0NKS3LGUax8_avclE99LIHjz0P9NrMYS3AJT8_hXhIOqyewc26aCilGa5OfPWhRxHCZh-WuvsoRLUIX1FtLjtdXah4hzjwplYFufXny8oPfTAkbsTiBv9IS0Zr5vOJjnzv0Rs5mTH0ImxlNptjJ3hY6LbZ_zPAYRu_3R-h3hpvNHui_PyD17waz3l7zKR___5bOf7TO__fx8oJ4yCSR- -P6f9A8insZrgz-c7v4FnUrq5hw07fruf3qc-ZP5dgdgySBBWzFAwe7z3owxl57ZIsG1EjIdrFC_YRGtxskUMHTWLs3jgGab3EfgAAtoATOMOI4ioVj9ciBO7A9HSsfWefgVU66Isavy7LQ9JTpvskVLvJ3TQBv1DgrU3qwcim9ZCPD9Hh2kpT4wnRVDNBM86UxaBFtKjoQKHlReVVyqKaC5rwxbxT-zVD5ktcKYZpctv9umkqcj67iL3D95I55aX1bVhS5twmr2qmkoPd55Pev5WdoUoeRByHXVxpPZvggc1ZlZj3ow5HLq9NgtOTS-fXoAWVqAjCmALbVx7mDycAjqsN9LqYeLoFDFeV1g1DCfEK3fPQa8VEkCbJvcmE4aXdqV5rgR4-1O1rbYZSbcoai7Q56HaMcWDuttCgOhVXPqmGvqnHvvD2livB0aypOdhP_XkU-xwEqMtVDGbDdl2ahwfssym25lmznYWSldBhmH1P2UJ_OC2mepCAiy3ckcEy4IyhuTbHecbD9pIbkagzJTTk9GFD-JdUk3EwgodweQ0hcjhIsqDIm49uKIEbtNCJBRlg4x2rHk1Z8yr9rOwWpV5mRX4u5Jspa89fbw4uq_OK-tjupr1_3zGSBxXIsDQksiodlFb_aFDSofH9XVEcu8cjz6Mr6WdvlDFJF_gw9YMscBgWi-HnBi3mRDWmvSdNTY1WkS_h3dGgpJ2PaJhBQtF9_]--></g></svg>
