<svg xmlns="http://www.w3.org/2000/svg" xmlns:xlink="http://www.w3.org/1999/xlink" contentStyleType="text/css" data-diagram-type="ACTIVITY" height="3943.75px" preserveAspectRatio="none" style="width:2484px;height:3943px;background:#FFFFFF;" version="1.1" viewBox="0 0 2484 3943" width="2484.375px" zoomAndPan="magnify"><defs/><g><ellipse cx="933.2581" cy="46.875" fill="#FFFFFF" rx="31.25" ry="31.25" style="stroke:#000000;stroke-width:3.125;"/><path d="M1410.8978,148.6542 L1410.8978,250.5249 L1348.3978,263.0249 L1410.8978,275.5249 L1410.8978,377.3956 A0,0 0 0 0 1410.8978,377.3956 L2132.93,377.3956 A0,0 0 0 0 2132.93,377.3956 L2132.93,179.9042 L2101.68,148.6542 L1410.8978,148.6542 A0,0 0 0 0 1410.8978,148.6542" fill="#FFFFFF" style="stroke:#000000;stroke-width:3.125;"/><path d="M2101.68,148.6542 L2101.68,179.9042 L2132.93,179.9042 L2101.68,148.6542" fill="#FFFFFF" style="stroke:#000000;stroke-width:3.125;"/><text fill="#000000" font-family="Verdana" font-size="40.625" font-weight="bold" lengthAdjust="spacing" textLength="292.9047" x="1429.6478" y="205.1224">Initialization</text><text fill="#000000" font-family="Verdana" font-size="40.625" lengthAdjust="spacing" textLength="656.4072" x="1429.6478" y="254.4952">&#8226; Weights: small random values</text><text fill="#000000" font-family="Verdana" font-size="40.625" lengthAdjust="spacing" textLength="490.4953" x="1429.6478" y="303.8681">&#8226; Biases: typically zeros</text><text fill="#000000" font-family="Verdana" font-size="40.625" lengthAdjust="spacing" textLength="573.3521" x="1429.6478" y="353.241">&#8226; Learning rate: 0.001 - 0.1</text><rect fill="#FFFFFF" height="244.7998" rx="39.0625" ry="39.0625" style="stroke:#000000;stroke-width:3.125;" width="830.2795" x="518.1183" y="140.625"/><text fill="#000000" font-family="Verdana" font-size="37.5" lengthAdjust="spacing" textLength="330.011" x="549.3683" y="209.5764">Initialize Network</text><text fill="#000000" font-family="Verdana" font-size="37.5" lengthAdjust="spacing" textLength="767.7795" x="549.3683" y="255.1514">Set random weights W(l) and biases b(l)</text><text fill="#000000" font-family="Verdana" font-size="37.5" lengthAdjust="spacing" textLength="389.8499" x="549.3683" y="300.7263">Set learning rate eta</text><text fill="#000000" font-family="Verdana" font-size="37.5" lengthAdjust="spacing" textLength="301.5747" x="549.3683" y="346.3013">Set max epochs</text><rect fill="#FFFFFF" height="108.075" rx="39.0625" ry="39.0625" style="stroke:#000000;stroke-width:3.125;" width="255.127" x="805.6946" y="447.9248"/><text fill="#000000" font-family="Verdana" font-size="37.5" lengthAdjust="spacing" textLength="192.627" x="836.9446" y="516.8762">epoch = 1</text><path d="M1447.7478,826.0635 L1447.7478,927.9343 L1385.2478,940.4343 L1447.7478,952.9343 L1447.7478,1054.805 A0,0 0 0 0 1447.7478,1054.805 L2145.1828,1054.805 A0,0 0 0 0 2145.1828,1054.805 L2145.1828,857.3135 L2113.9328,826.0635 L1447.7478,826.0635 A0,0 0 0 0 1447.7478,826.0635" fill="#FFFFFF" style="stroke:#000000;stroke-width:3.125;"/><path d="M2113.9328,826.0635 L2113.9328,857.3135 L2145.1828,857.3135 L2113.9328,826.0635" fill="#FFFFFF" style="stroke:#000000;stroke-width:3.125;"/><text fill="#000000" font-family="Verdana" font-size="40.625" font-weight="bold" lengthAdjust="spacing" textLength="309.0317" x="1466.4978" y="882.5317">Forward Pass</text><text fill="#000000" font-family="Verdana" font-size="40.625" lengthAdjust="spacing" textLength="567.5797" x="1466.4978" y="931.9046">&#8226; Input &#8594; Hidden &#8594; Output</text><text fill="#000000" font-family="Verdana" font-size="40.625" lengthAdjust="spacing" textLength="631.81" x="1466.4978" y="981.2775">&#8226; Cache z^(l) and a^(l) values</text><text fill="#000000" font-family="Verdana" font-size="40.625" lengthAdjust="spacing" textLength="573.3917" x="1466.4978" y="1030.6503">&#8226; No parameter updates yet</text><rect fill="#FFFFFF" height="290.3748" rx="39.0625" ry="39.0625" style="stroke:#000000;stroke-width:3.125;" width="903.9795" x="481.2683" y="795.2469"/><text fill="#000000" font-family="Verdana" font-size="37.5" lengthAdjust="spacing" textLength="390.7837" x="512.5183" y="864.1983">Forward Propagation</text><text fill="#000000" font-family="Verdana" font-size="37.5" lengthAdjust="spacing" textLength="474.3347" x="512.5183" y="909.7733">For each layer l = 1 to L:</text><text fill="#000000" font-family="Verdana" font-size="37.5" lengthAdjust="spacing" textLength="841.4795" x="512.5183" y="955.3482">&#8226; Compute: z^(l) = W^(l) * a^(l-1) + b^(l)</text><text fill="#000000" font-family="Verdana" font-size="37.5" lengthAdjust="spacing" textLength="672.3267" x="512.5183" y="1000.9232">&#8226; Apply activation: a^(l) = &#963;(z^(l))</text><text fill="#000000" font-family="Verdana" font-size="37.5" lengthAdjust="spacing" textLength="602.6917" x="512.5183" y="1046.4981">&#8226; Store activations for backprop</text><path d="M1318.869,1156.1508 L1318.869,1258.0215 L1256.369,1270.5215 L1318.869,1283.0215 L1318.869,1384.8923 A0,0 0 0 0 1318.869,1384.8923 L1978.8528,1384.8923 A0,0 0 0 0 1978.8528,1384.8923 L1978.8528,1187.4008 L1947.6028,1156.1508 L1318.869,1156.1508 A0,0 0 0 0 1318.869,1156.1508" fill="#FFFFFF" style="stroke:#000000;stroke-width:3.125;"/><path d="M1947.6028,1156.1508 L1947.6028,1187.4008 L1978.8528,1187.4008 L1947.6028,1156.1508" fill="#FFFFFF" style="stroke:#000000;stroke-width:3.125;"/><text fill="#000000" font-family="Verdana" font-size="40.625" font-weight="bold" lengthAdjust="spacing" textLength="313.2965" x="1337.619" y="1212.619">Loss Function</text><text fill="#000000" font-family="Verdana" font-size="40.625" lengthAdjust="spacing" textLength="573.6099" x="1337.619" y="1261.9919">&#8226; Quantifies prediction error</text><text fill="#000000" font-family="Verdana" font-size="40.625" lengthAdjust="spacing" textLength="480.3192" x="1337.619" y="1311.3647">&#8226; Must be differentiable</text><text fill="#000000" font-family="Verdana" font-size="40.625" lengthAdjust="spacing" textLength="594.3588" x="1337.619" y="1360.7376">&#8226; Drives the learning process</text><rect fill="#FFFFFF" height="244.7998" rx="39.0625" ry="39.0625" style="stroke:#000000;stroke-width:3.125;" width="646.2219" x="610.1471" y="1148.1216"/><text fill="#000000" font-family="Verdana" font-size="37.5" lengthAdjust="spacing" textLength="299.5789" x="641.3971" y="1217.0731">Compute Loss L</text><text fill="#000000" font-family="Verdana" font-size="37.5" lengthAdjust="spacing" textLength="495.1538" x="641.3971" y="1262.648">Calculate prediction error:</text><text fill="#000000" font-family="Verdana" font-size="37.5" lengthAdjust="spacing" textLength="402.3926" x="641.3971" y="1308.223">&#8226; MSE: L = &#189;(&#375; - y)&#178;</text><text fill="#000000" font-family="Verdana" font-size="37.5" lengthAdjust="spacing" textLength="583.7219" x="641.3971" y="1353.7979">&#8226; Cross-entropy: L = -y*log(&#375;)</text><path d="M1608.0292,1529.9141 L1608.0292,1656.4713 L1545.5292,1668.9713 L1608.0292,1681.4713 L1608.0292,1808.0284 A0,0 0 0 0 1608.0292,1808.0284 L2383.5007,1808.0284 A0,0 0 0 0 2383.5007,1808.0284 L2383.5007,1561.1641 L2352.2507,1529.9141 L1608.0292,1529.9141 A0,0 0 0 0 1608.0292,1529.9141" fill="#FFFFFF" style="stroke:#000000;stroke-width:3.125;"/><path d="M2352.2507,1529.9141 L2352.2507,1561.1641 L2383.5007,1561.1641 L2352.2507,1529.9141" fill="#FFFFFF" style="stroke:#000000;stroke-width:3.125;"/><text fill="#000000" font-family="Verdana" font-size="40.625" font-weight="bold" lengthAdjust="spacing" textLength="459.0347" x="1626.7792" y="1586.3823">Chain Rule in Action</text><text fill="#000000" font-family="Verdana" font-size="40.625" lengthAdjust="spacing" textLength="680.0323" x="1626.7792" y="1635.7552">&#8226; Gradients computed backwards</text><text fill="#000000" font-family="Verdana" font-size="40.625" lengthAdjust="spacing" textLength="659.8389" x="1626.7792" y="1685.128">&#8226; &#948; (delta) = error responsibility</text><text fill="#000000" font-family="Verdana" font-size="40.625" lengthAdjust="spacing" textLength="550.322" x="1626.7792" y="1734.5009">&#8226; Reuse cached activations</text><text fill="#000000" font-family="Verdana" font-size="40.625" lengthAdjust="spacing" textLength="709.8465" x="1626.7792" y="1783.8737">&#8226; &#10752; denotes element-wise product</text><rect fill="#FFFFFF" height="427.0996" rx="39.0625" ry="39.0625" style="stroke:#000000;stroke-width:3.125;" width="1224.5422" x="320.9869" y="1455.4214"/><text fill="#000000" font-family="Verdana" font-size="37.5" lengthAdjust="spacing" textLength="420.4285" x="352.2369" y="1524.3729">Backward Propagation</text><text fill="#000000" font-family="Verdana" font-size="37.5" lengthAdjust="spacing" textLength="474.3347" x="352.2369" y="1569.9478">For each layer l = L to 1:</text><text fill="#000000" font-family="Verdana" font-size="37.5" lengthAdjust="spacing" textLength="626.001" x="352.2369" y="1615.5228">1. Compute error terms (deltas):</text><text fill="#000000" font-family="Verdana" font-size="37.5" lengthAdjust="spacing" textLength="824.5422" x="391.7877" y="1661.0977">&#8226; Output layer: &#948;^(L) = (&#375; - y) &#10752; &#963;'(z^(L))</text><text fill="#000000" font-family="Verdana" font-size="37.5" lengthAdjust="spacing" textLength="1122.4915" x="391.7877" y="1706.6727">&#8226; Hidden layers: &#948;^(l) = (W^(l+1))^T &#948;^(l+1) &#8857; &#963;'(z^(l))</text><text fill="#000000" font-family="Verdana" font-size="37.5" lengthAdjust="spacing" textLength="426.4343" x="352.2369" y="1752.2476">2. Compute gradients:</text><text fill="#000000" font-family="Verdana" font-size="37.5" lengthAdjust="spacing" textLength="662.7136" x="391.7877" y="1797.8226">&#8226; &#8706;L/&#8706;W^(l) = &#948;^(l) * (a^(l-1))^T</text><text fill="#000000" font-family="Verdana" font-size="37.5" lengthAdjust="spacing" textLength="372.5098" x="391.7877" y="1843.3975">&#8226; &#8706;L/&#8706;b^(l) = &#948;^(l)</text><path d="M1350.5005,1953.0502 L1350.5005,2054.921 L1288.0005,2067.421 L1350.5005,2079.921 L1350.5005,2181.7917 A0,0 0 0 0 1350.5005,2181.7917 L2123.4726,2181.7917 A0,0 0 0 0 2123.4726,2181.7917 L2123.4726,1984.3002 L2092.2226,1953.0502 L1350.5005,1953.0502 A0,0 0 0 0 1350.5005,1953.0502" fill="#FFFFFF" style="stroke:#000000;stroke-width:3.125;"/><path d="M2092.2226,1953.0502 L2092.2226,1984.3002 L2123.4726,1984.3002 L2092.2226,1953.0502" fill="#FFFFFF" style="stroke:#000000;stroke-width:3.125;"/><text fill="#000000" font-family="Verdana" font-size="40.625" font-weight="bold" lengthAdjust="spacing" textLength="416.188" x="1369.2505" y="2009.5184">Parameter Update</text><text fill="#000000" font-family="Verdana" font-size="40.625" lengthAdjust="spacing" textLength="473.8525" x="1369.2505" y="2058.8913">&#8226; SGD: W := W - &#951;&#8711;W</text><text fill="#000000" font-family="Verdana" font-size="40.625" lengthAdjust="spacing" textLength="660.9894" x="1369.2505" y="2108.2642">&#8226; Adam: Adaptive learning rates</text><text fill="#000000" font-family="Verdana" font-size="40.625" lengthAdjust="spacing" textLength="707.3471" x="1369.2505" y="2157.637">&#8226; Momentum: accelerates learning</text><rect fill="#FFFFFF" height="244.7998" rx="39.0625" ry="39.0625" style="stroke:#000000;stroke-width:3.125;" width="709.4849" x="578.5156" y="1945.0211"/><text fill="#000000" font-family="Verdana" font-size="37.5" lengthAdjust="spacing" textLength="362.1277" x="609.7656" y="2013.9725">Update Parameters</text><text fill="#000000" font-family="Verdana" font-size="37.5" lengthAdjust="spacing" textLength="308.6609" x="609.7656" y="2059.5474">For each layer l:</text><text fill="#000000" font-family="Verdana" font-size="37.5" lengthAdjust="spacing" textLength="646.9849" x="609.7656" y="2105.1224">&#8226; W^(l) := W^(l) - &#951; * &#8706;L/&#8706;W^(l)</text><text fill="#000000" font-family="Verdana" font-size="37.5" lengthAdjust="spacing" textLength="605.8411" x="609.7656" y="2150.6973">&#8226; b^(l) := b^(l) - &#951; * &#8706;L/&#8706;b^(l)</text><rect fill="#FFFFFF" height="244.7998" rx="39.0625" ry="39.0625" style="stroke:#000000;stroke-width:3.125;" width="583.6548" x="641.4307" y="2252.3209"/><text fill="#000000" font-family="Verdana" font-size="37.5" lengthAdjust="spacing" textLength="371.6858" x="672.6807" y="2321.2723">Check Convergence</text><text fill="#000000" font-family="Verdana" font-size="37.5" lengthAdjust="spacing" textLength="509.3262" x="672.6807" y="2366.8472">&#8226; Increment epoch counter</text><text fill="#000000" font-family="Verdana" font-size="37.5" lengthAdjust="spacing" textLength="521.1548" x="672.6807" y="2412.4222">&#8226; Evaluate on validation set</text><text fill="#000000" font-family="Verdana" font-size="37.5" lengthAdjust="spacing" textLength="466.9373" x="672.6807" y="2457.9971">&#8226; Check stopping criteria</text><rect fill="#FFFFFF" height="108.075" rx="39.0625" ry="39.0625" style="stroke:#000000;stroke-width:3.125;" width="407.251" x="729.6326" y="2711.7592"/><text fill="#000000" font-family="Verdana" font-size="37.5" lengthAdjust="spacing" textLength="344.751" x="760.8826" y="2780.7106">Training Complete</text><ellipse cx="933.2581" cy="2942.3592" fill="none" rx="34.375" ry="34.375" style="stroke:#000000;stroke-width:3.125;"/><ellipse cx="933.2581" cy="2942.3592" fill="#FFFFFF" rx="18.75" ry="18.75" style="stroke:#000000;stroke-width:3.125;"/><polygon fill="#FFFFFF" points="543.8202,2559.6207,1322.6959,2559.6207,1360.1959,2597.1207,1322.6959,2634.6207,543.8202,2634.6207,506.3202,2597.1207,543.8202,2559.6207" style="stroke:#000000;stroke-width:3.125;"/><text fill="#000000" font-family="Verdana" font-size="34.375" lengthAdjust="spacing" textLength="59.5352" x="945.7581" y="2669.1803">Yes</text><text fill="#000000" font-family="Verdana" font-size="34.375" lengthAdjust="spacing" textLength="778.8757" x="543.8202" y="2610.7918">Loss converged or validation loss increasing?</text><rect fill="#FFFFFF" height="108.075" rx="39.0625" ry="39.0625" style="stroke:#000000;stroke-width:3.125;" width="423.9136" x="721.3013" y="3107.9842"/><text fill="#000000" font-family="Verdana" font-size="37.5" lengthAdjust="spacing" textLength="361.4136" x="752.5513" y="3176.9356">epoch = epoch + 1</text><polygon fill="#FFFFFF" points="738.2202,618.4998,1128.2959,618.4998,1165.7959,655.9998,1128.2959,693.4998,738.2202,693.4998,700.7202,655.9998,738.2202,618.4998" style="stroke:#000000;stroke-width:3.125;"/><text fill="#000000" font-family="Verdana" font-size="34.375" lengthAdjust="spacing" textLength="58.7296" x="945.7581" y="728.0594">yes</text><text fill="#000000" font-family="Verdana" font-size="34.375" lengthAdjust="spacing" textLength="390.0757" x="738.2202" y="669.6709">epoch &#8804; max_epochs?</text><text fill="#000000" font-family="Verdana" font-size="34.375" lengthAdjust="spacing" textLength="42.6163" x="658.1039" y="648.7823">no</text><rect fill="#FFFFFF" height="153.6499" rx="39.0625" ry="39.0625" style="stroke:#000000;stroke-width:3.125;" width="480.3467" x="693.0847" y="3347.3091"/><text fill="#000000" font-family="Verdana" font-size="37.5" lengthAdjust="spacing" textLength="344.751" x="724.3347" y="3416.2605">Training Complete</text><text fill="#000000" font-family="Verdana" font-size="37.5" lengthAdjust="spacing" textLength="417.8467" x="724.3347" y="3461.8355">(Max epochs reached)</text><path d="M46.875,3563.459 L46.875,3890.9462 L867.6331,3890.9462 L867.6331,3594.709 L836.3831,3563.459 L46.875,3563.459" fill="#FFFFFF" style="stroke:#000000;stroke-width:3.125;"/><path d="M836.3831,3563.459 L836.3831,3594.709 L867.6331,3594.709 L836.3831,3563.459" fill="#FFFFFF" style="stroke:#000000;stroke-width:3.125;"/><text fill="#000000" font-family="Verdana" font-size="40.625" font-weight="bold" lengthAdjust="spacing" textLength="323.0957" x="65.625" y="3619.9272">Key Concepts:</text><text fill="#000000" font-family="Verdana" font-size="40.625" lengthAdjust="spacing" textLength="755.1331" x="65.625" y="3669.3001">&#8226; Forward pass: compute predictions</text><text fill="#000000" font-family="Verdana" font-size="40.625" lengthAdjust="spacing" textLength="666.7221" x="65.625" y="3718.6729">&#8226; Loss: measure prediction error</text><text fill="#000000" font-family="Verdana" font-size="40.625" lengthAdjust="spacing" textLength="754.6768" x="65.625" y="3768.0458">&#8226; Backward pass: compute gradients</text><text fill="#000000" font-family="Verdana" font-size="40.625" lengthAdjust="spacing" textLength="588.8641" x="65.625" y="3817.4187">&#8226; Update: adjust parameters</text><text fill="#000000" font-family="Verdana" font-size="40.625" lengthAdjust="spacing" textLength="573.233" x="65.625" y="3866.7915">&#8226; Repeat: until convergence</text><path d="M998.8831,3588.1454 L998.8831,3866.2598 L1931.6376,3866.2598 L1931.6376,3619.3954 L1900.3876,3588.1454 L998.8831,3588.1454" fill="#FFFFFF" style="stroke:#000000;stroke-width:3.125;"/><path d="M1900.3876,3588.1454 L1900.3876,3619.3954 L1931.6376,3619.3954 L1900.3876,3588.1454" fill="#FFFFFF" style="stroke:#000000;stroke-width:3.125;"/><text fill="#000000" font-family="Verdana" font-size="40.625" font-weight="bold" lengthAdjust="spacing" textLength="594.696" x="1017.6331" y="3644.6136">Mathematical Foundation:</text><text fill="#000000" font-family="Verdana" font-size="40.625" lengthAdjust="spacing" textLength="867.1295" x="1017.6331" y="3693.9865">&#8226; Chain rule enables gradient computation</text><text fill="#000000" font-family="Verdana" font-size="40.625" lengthAdjust="spacing" textLength="855.5847" x="1017.6331" y="3743.3594">&#8226; Sigmoid derivative: &#963;'(z) = &#963;(z)(1-&#963;(z))</text><text fill="#000000" font-family="Verdana" font-size="40.625" lengthAdjust="spacing" textLength="678.3264" x="1017.6331" y="3792.7322">&#8226; Learning rate controls step size</text><text fill="#000000" font-family="Verdana" font-size="40.625" lengthAdjust="spacing" textLength="790.303" x="1017.6331" y="3842.1051">&#8226; Batch processing improves efficiency</text><ellipse cx="933.2581" cy="3727.2026" fill="none" rx="34.375" ry="34.375" style="stroke:#000000;stroke-width:3.125;"/><ellipse cx="933.2581" cy="3727.2026" fill="#FFFFFF" rx="18.75" ry="18.75" style="stroke:#000000;stroke-width:3.125;"/><line style="stroke:#000000;stroke-width:3.125;" x1="933.2581" x2="933.2581" y1="78.125" y2="140.625"/><polygon fill="#000000" points="920.7581,109.375,933.2581,140.625,945.7581,109.375,933.2581,121.875" style="stroke:#000000;stroke-width:3.125;"/><line style="stroke:#000000;stroke-width:3.125;" x1="933.2581" x2="933.2581" y1="385.4248" y2="447.9248"/><polygon fill="#000000" points="920.7581,416.6748,933.2581,447.9248,945.7581,416.6748,933.2581,429.1748" style="stroke:#000000;stroke-width:3.125;"/><line style="stroke:#000000;stroke-width:3.125;" x1="933.2581" x2="933.2581" y1="1085.6216" y2="1148.1216"/><polygon fill="#000000" points="920.7581,1116.8716,933.2581,1148.1216,945.7581,1116.8716,933.2581,1129.3716" style="stroke:#000000;stroke-width:3.125;"/><line style="stroke:#000000;stroke-width:3.125;" x1="933.2581" x2="933.2581" y1="1392.9214" y2="1455.4214"/><polygon fill="#000000" points="920.7581,1424.1714,933.2581,1455.4214,945.7581,1424.1714,933.2581,1436.6714" style="stroke:#000000;stroke-width:3.125;"/><line style="stroke:#000000;stroke-width:3.125;" x1="933.2581" x2="933.2581" y1="1882.5211" y2="1945.0211"/><polygon fill="#000000" points="920.7581,1913.7711,933.2581,1945.0211,945.7581,1913.7711,933.2581,1926.2711" style="stroke:#000000;stroke-width:3.125;"/><line style="stroke:#000000;stroke-width:3.125;" x1="933.2581" x2="933.2581" y1="2189.8209" y2="2252.3209"/><polygon fill="#000000" points="920.7581,2221.0709,933.2581,2252.3209,945.7581,2221.0709,933.2581,2233.5709" style="stroke:#000000;stroke-width:3.125;"/><line style="stroke:#000000;stroke-width:3.125;" x1="933.2581" x2="933.2581" y1="2819.8341" y2="2907.9842"/><polygon fill="#000000" points="920.7581,2876.7342,933.2581,2907.9842,945.7581,2876.7342,933.2581,2889.2342" style="stroke:#000000;stroke-width:3.125;"/><line style="stroke:#000000;stroke-width:3.125;" x1="933.2581" x2="933.2581" y1="2634.6207" y2="2711.7592"/><polygon fill="#000000" points="920.7581,2680.5092,933.2581,2711.7592,945.7581,2680.5092,933.2581,2693.0092" style="stroke:#000000;stroke-width:3.125;"/><line style="stroke:#000000;stroke-width:3.125;" x1="1360.1959" x2="1397.6959" y1="2597.1207" y2="2597.1207"/><polygon fill="#000000" points="1385.1959,2814.2342,1397.6959,2845.4842,1410.1959,2814.2342,1397.6959,2826.7342" style="stroke:#000000;stroke-width:3.125;"/><line style="stroke:#000000;stroke-width:3.125;" x1="1397.6959" x2="1397.6959" y1="2597.1207" y2="3045.4842"/><line style="stroke:#000000;stroke-width:3.125;" x1="1397.6959" x2="933.2581" y1="3045.4842" y2="3045.4842"/><line style="stroke:#000000;stroke-width:3.125;" x1="933.2581" x2="933.2581" y1="3045.4842" y2="3107.9842"/><polygon fill="#000000" points="920.7581,3076.7342,933.2581,3107.9842,945.7581,3076.7342,933.2581,3089.2342" style="stroke:#000000;stroke-width:3.125;"/><line style="stroke:#000000;stroke-width:3.125;" x1="933.2581" x2="933.2581" y1="2497.1207" y2="2559.6207"/><polygon fill="#000000" points="920.7581,2528.3707,933.2581,2559.6207,945.7581,2528.3707,933.2581,2540.8707" style="stroke:#000000;stroke-width:3.125;"/><line style="stroke:#000000;stroke-width:3.125;" x1="933.2581" x2="933.2581" y1="693.4998" y2="795.2469"/><polygon fill="#000000" points="920.7581,763.9969,933.2581,795.2469,945.7581,763.9969,933.2581,776.4969" style="stroke:#000000;stroke-width:3.125;"/><line style="stroke:#000000;stroke-width:3.125;" x1="933.2581" x2="933.2581" y1="3216.0591" y2="3247.3091"/><line style="stroke:#000000;stroke-width:3.125;" x1="933.2581" x2="2421.0007" y1="3247.3091" y2="3247.3091"/><polygon fill="#000000" points="2408.5007,2002.6962,2421.0007,1971.4462,2433.5007,2002.6962,2421.0007,1990.1962" style="stroke:#000000;stroke-width:3.125;"/><line style="stroke:#000000;stroke-width:3.125;" x1="2421.0007" x2="2421.0007" y1="655.9998" y2="3247.3091"/><line style="stroke:#000000;stroke-width:3.125;" x1="2421.0007" x2="1165.7959" y1="655.9998" y2="655.9998"/><polygon fill="#000000" points="1197.0459,643.4998,1165.7959,655.9998,1197.0459,668.4998,1184.5459,655.9998" style="stroke:#000000;stroke-width:3.125;"/><line style="stroke:#000000;stroke-width:3.125;" x1="700.7202" x2="283.4869" y1="655.9998" y2="655.9998"/><polygon fill="#000000" points="270.9869,1958.9462,283.4869,1990.1962,295.9869,1958.9462,283.4869,1971.4462" style="stroke:#000000;stroke-width:3.125;"/><line style="stroke:#000000;stroke-width:3.125;" x1="283.4869" x2="283.4869" y1="655.9998" y2="3284.8091"/><line style="stroke:#000000;stroke-width:3.125;" x1="283.4869" x2="933.2581" y1="3284.8091" y2="3284.8091"/><line style="stroke:#000000;stroke-width:3.125;" x1="933.2581" x2="933.2581" y1="3284.8091" y2="3347.3091"/><polygon fill="#000000" points="920.7581,3316.0591,933.2581,3347.3091,945.7581,3316.0591,933.2581,3328.5591" style="stroke:#000000;stroke-width:3.125;"/><line style="stroke:#000000;stroke-width:3.125;" x1="933.2581" x2="933.2581" y1="555.9998" y2="618.4998"/><polygon fill="#000000" points="920.7581,587.2498,933.2581,618.4998,945.7581,587.2498,933.2581,599.7498" style="stroke:#000000;stroke-width:3.125;"/><line style="stroke:#000000;stroke-width:3.125;" x1="933.2581" x2="933.2581" y1="3500.959" y2="3692.8276"/><polygon fill="#000000" points="920.7581,3661.5776,933.2581,3692.8276,945.7581,3661.5776,933.2581,3674.0776" style="stroke:#000000;stroke-width:3.125;"/><!--SRC=[TLPFZzj45B_xKpp4OPDKAHksjDIh2krccxOYMw1RjE9IDB6Vas777cjcl25xga22mf4RLyI1CwhK4vTANCjto2VXlHdRSNRJH8gTcT-yz-Rt_kuvwHJ2iKWkIgDBCHTEwWAEr5mRwHOvJ9HU9WjXNBJd5fWZb4h88jg34ynaWM3TIg6Dx8KiIc543Ybceb9keWltL13-o4YXehqDO4QwvaPNHJhMIXluS7AVlnqH8d7oKhhLyGsa_tIGTY5IlPJ573AXB7Ps2krmr_dxutlNKTgaQ6h4oPtZEvyUT6qnHY_hpK_yPuUX9rBakaXlw7juTt9lozxh1xgg3mxktXsFkqoM4WxszwCFjea_S-GDe3KGZPSYosiHRJuff2E-vHL6yUOTdg9RQdCHdQ438ufKvx14ELyu2-SzrGTQWfaK5YtCwB_7AHIcO6gDS0ZeX5_DnVU0fKuMzZ1Yzi2mc0XWC6Zr-HWQ36Xn_V8FE0-AOh2vKAfHVobKHN4J8CTUTGnkLSg4G2kuGgERtMdNa1ZsR-_lZs18pr64P3TR4KMnDmeUmEYGUJWbhi0P-kM3IkioMYuaHNeluDQ__CbN-JPSvRC-I0kz5Tf-H4htOABDKfWKljpa1At7kvTf5L2GK2LMQ42n4U0qJEFw0cETbnMRVlM2oNu0v_uv047FuQWFjs36ApNyg2o90HygNaNiSNpklnzxNaI3F7FQO0Tf8IDRPdKo7n9goqNifFOAmbhleY3fIK4Mmlgdt-2nJ5Ci_EiNbQFL5ZEcEs9z1mwOO5Nho01wgi57BpgYeYfJSfc55RAKZREOufeKc6hBf-FkVvZIobYef58SUwN1L2Q-C26besbuFJrx6CEKU7dxJ-_VDnGIg_xRlnlEANxi40j7HAm2QhWQA3qdP7ydCrxnf2gIDdg3fAygKJYPIRh7TKDQp6bb7SmGKfbbQ4Yh53E5xVQ9aPTqd7EspIhoK8B-wjkyS17P5NllMTyHV5CElX6JDBhTqkpj1N9AJe6UedB2zcDleBSmk3e8YU7TwnUzAGTSGoki_tf9qRV7uJVruLUVgwF5dxFXe8_K7eVuhL6__-9vMAHtMF_wUoCanF376_lcHgIIYBCTezQlVfX-H3_djT1Q-W1wTUAGz9lesHPwfwl72ouFpogg1_GykkxnHuqja0JhKfzJpFucqD-zhdbaNO5TWxQa99GpgQZ6jyXdM5c4XBCdxIPh2s1oYKNDgOAAQdtXXajfEV1rMYKtS-ThdrUKmtMY-GJQjNWzEfhC2Op6JIKQmhitHEiMtpLorY1dkv2pzrBScb4Rsw7txD593ETUkvUtVlNpURjvb8eyvj-IUCBj9hHXx5GpIHKXHP8GPNwt1T-iDGjCBiYPnIMQEHO9ydig6o_4ON-ysO-QgfWOxuxGykXKLT2Lwjs7NFgOSYe7z2hJC3jPN-ny3V9YhTDboLT8g5SZJKE7mQWJJAJb0wMMf27phZ9K-Pi3X98Pz7nTQcnFWM0TPOet9PifB1sXHaP5fe3UDzpAcAtuUTC4ETCKUUJGhxEIm9FCs9wsVuRdBTz7QRVkceMcpdXJLjGxRUS12dyVuXGFNZXruOaiXF9-i65OK9Y5MU5pN37V2PQKyUseq3IdaffJt2HVf-gs4u7c_PpkN1dSLPNzKD4Kp6rfRQ6fOI4yAP3IxxY8bztq2TbRed0naEUbwiPGP_YuDWYT2fxOo44qoz2TQ1uCVRozPwW_XkiF5jmfR6jMRMTJtds-o7ckPKebmlZISKdM-ZBQZ0JztcZed_rT4nFRJ5rGMV8vbc1vDcmOSkJgkX4nNERqXpiLPfbCo9najRdb_m00]--></g></svg>
