<svg xmlns="http://www.w3.org/2000/svg" xmlns:xlink="http://www.w3.org/1999/xlink" contentStyleType="text/css" data-diagram-type="CLASS" height="5078.125px" preserveAspectRatio="none" style="width:1318px;height:5078px;background:#FFFFFF;" version="1.1" viewBox="0 0 1318 5078" width="1318.75px" zoomAndPan="magnify"><defs/><g><!--cluster Forward Pass--><g class="cluster" data-entity="Forward Pass" data-source-line="12" data-uid="ent0002" id="cluster_Forward Pass"><path d="M267.1875,34.375 L555.5725,34.375 A11.7188,11.7188 0 0 1 563.385,42.1875 L585.26,98.7 L1064.0625,98.7 A7.8125,7.8125 0 0 1 1071.875,106.5125 L1071.875,667.1875 A7.8125,7.8125 0 0 1 1064.0625,675 L267.1875,675 A7.8125,7.8125 0 0 1 259.375,667.1875 L259.375,42.1875 A7.8125,7.8125 0 0 1 267.1875,34.375" fill="#FFFFFF" style="stroke:#000000;stroke-width:3.125;"/><line style="stroke:#000000;stroke-width:3.125;" x1="259.375" x2="585.26" y1="98.7" y2="98.7"/><text fill="#000000" font-family="Verdana" font-size="37.5" font-weight="bold" lengthAdjust="spacing" textLength="285.26" x="271.875" y="78.3264">Forward Pass</text></g><!--cluster Backpropagation Error Terms (?)--><g class="cluster" data-entity="Backpropagation Error Terms ..." data-source-line="27" data-uid="ent0004" id="cluster_Backpropagation Error Terms ..."><path d="M157.8125,750 L860.5469,750 A11.7188,11.7188 0 0 1 868.3594,757.8125 L890.2344,814.325 L1173.4375,814.325 A7.8125,7.8125 0 0 1 1181.25,822.1375 L1181.25,1829.6875 A7.8125,7.8125 0 0 1 1173.4375,1837.5 L157.8125,1837.5 A7.8125,7.8125 0 0 1 150,1829.6875 L150,757.8125 A7.8125,7.8125 0 0 1 157.8125,750" fill="#FFFFFF" style="stroke:#000000;stroke-width:3.125;"/><line style="stroke:#000000;stroke-width:3.125;" x1="150" x2="890.2344" y1="814.325" y2="814.325"/><text fill="#000000" font-family="Verdana" font-size="37.5" font-weight="bold" lengthAdjust="spacing" textLength="699.6094" x="162.5" y="793.9514">Backpropagation Error Terms (&#948;)</text></g><!--cluster Gradients--><g class="cluster" data-entity="Gradients" data-source-line="50" data-uid="ent0007" id="cluster_Gradients"><path d="M79.6875,1912.5 L286.9019,1912.5 A11.7188,11.7188 0 0 1 294.7144,1920.3125 L316.5894,1976.825 L1251.5625,1976.825 A7.8125,7.8125 0 0 1 1259.375,1984.6375 L1259.375,2810.9375 A7.8125,7.8125 0 0 1 1251.5625,2818.75 L79.6875,2818.75 A7.8125,7.8125 0 0 1 71.875,2810.9375 L71.875,1920.3125 A7.8125,7.8125 0 0 1 79.6875,1912.5" fill="#FFFFFF" style="stroke:#000000;stroke-width:3.125;"/><line style="stroke:#000000;stroke-width:3.125;" x1="71.875" x2="316.5894" y1="1976.825" y2="1976.825"/><text fill="#000000" font-family="Verdana" font-size="37.5" font-weight="bold" lengthAdjust="spacing" textLength="204.0894" x="84.375" y="1956.4514">Gradients</text></g><!--cluster Parameter Updates--><g class="cluster" data-entity="Parameter Updates" data-source-line="69" data-uid="ent0010" id="cluster_Parameter Updates"><path d="M76.5625,2893.75 L486.1084,2893.75 A11.7188,11.7188 0 0 1 493.9209,2901.5625 L515.7959,2958.075 L1254.6875,2958.075 A7.8125,7.8125 0 0 1 1262.5,2965.8875 L1262.5,3570.3125 A7.8125,7.8125 0 0 1 1254.6875,3578.125 L76.5625,3578.125 A7.8125,7.8125 0 0 1 68.75,3570.3125 L68.75,2901.5625 A7.8125,7.8125 0 0 1 76.5625,2893.75" fill="#FFFFFF" style="stroke:#000000;stroke-width:3.125;"/><line style="stroke:#000000;stroke-width:3.125;" x1="68.75" x2="515.7959" y1="2958.075" y2="2958.075"/><text fill="#000000" font-family="Verdana" font-size="37.5" font-weight="bold" lengthAdjust="spacing" textLength="406.4209" x="81.25" y="2937.7014">Parameter Updates</text></g><!--cluster Matrix Dimensions--><g class="cluster" data-entity="Matrix Dimensions" data-source-line="85" data-uid="ent0012" id="cluster_Matrix Dimensions"><path d="M70.3125,3653.125 L465.4846,3653.125 A11.7188,11.7188 0 0 1 473.2971,3660.9375 L495.1721,3717.45 L1260.9375,3717.45 A7.8125,7.8125 0 0 1 1268.75,3725.2625 L1268.75,4195.3125 A7.8125,7.8125 0 0 1 1260.9375,4203.125 L70.3125,4203.125 A7.8125,7.8125 0 0 1 62.5,4195.3125 L62.5,3660.9375 A7.8125,7.8125 0 0 1 70.3125,3653.125" fill="#FFFFFF" style="stroke:#000000;stroke-width:3.125;"/><line style="stroke:#000000;stroke-width:3.125;" x1="62.5" x2="495.1721" y1="3717.45" y2="3717.45"/><text fill="#000000" font-family="Verdana" font-size="37.5" font-weight="bold" lengthAdjust="spacing" textLength="392.0471" x="75" y="3697.0764">Matrix Dimensions</text></g><!--cluster Algorithm Summary--><g class="cluster" data-entity="Algorithm Summary" data-source-line="98" data-uid="ent0014" id="cluster_Algorithm Summary"><path d="M42.1875,4278.125 L467.7734,4278.125 A11.7188,11.7188 0 0 1 475.5859,4285.9375 L497.4609,4342.45 L1289.0625,4342.45 A7.8125,7.8125 0 0 1 1296.875,4350.2625 L1296.875,5048.4375 A7.8125,7.8125 0 0 1 1289.0625,5056.25 L42.1875,5056.25 A7.8125,7.8125 0 0 1 34.375,5048.4375 L34.375,4285.9375 A7.8125,7.8125 0 0 1 42.1875,4278.125" fill="#FFFFFF" style="stroke:#000000;stroke-width:3.125;"/><line style="stroke:#000000;stroke-width:3.125;" x1="34.375" x2="497.4609" y1="4342.45" y2="4342.45"/><text fill="#000000" font-family="Verdana" font-size="37.5" font-weight="bold" lengthAdjust="spacing" textLength="422.4609" x="46.875" y="4322.0764">Algorithm Summary</text></g><g class="entity" data-entity="forward" data-source-line="14" data-uid="ent0003" id="entity_forward"><path d="M310.9375,137.5 L310.9375,624.4995 L1020.4895,624.4995 L1020.4895,168.75 L989.2395,137.5 L310.9375,137.5" fill="#FFFFE0" style="stroke:#808080;stroke-width:3.125;"/><path d="M989.2395,137.5 L989.2395,168.75 L1020.4895,168.75 L989.2395,137.5" fill="#FFFFE0" style="stroke:#808080;stroke-width:3.125;"/><text fill="#000000" font-family="Verdana" font-size="37.5" font-weight="bold" lengthAdjust="spacing" textLength="300.3479" x="329.6875" y="190.8264">Forward Pass:</text><text fill="#000000" font-family="Verdana" font-size="37.5" lengthAdjust="spacing" textLength="597.8027" x="329.6875" y="236.4014">z^(l) = W^(l) &#183; a^(l-1) + b^(l)</text><text fill="#000000" font-family="Verdana" font-size="37.5" lengthAdjust="spacing" textLength="307.0496" x="329.6875" y="281.9763">a^(l) = &#963;(z^(l))</text><text fill="#000000" font-family="Verdana" font-size="37.5" lengthAdjust="spacing" textLength="13.1836" x="329.6875" y="327.5513">&#160;</text><text fill="#000000" font-family="Verdana" font-size="37.5" lengthAdjust="spacing" textLength="138.5193" x="329.6875" y="373.1262">Where:</text><text fill="#000000" font-family="Verdana" font-size="37.5" lengthAdjust="spacing" textLength="628.0518" x="329.6875" y="418.7012">&#8226; z^(l) = pre-activation at layer l</text><text fill="#000000" font-family="Verdana" font-size="37.5" lengthAdjust="spacing" textLength="552.1362" x="329.6875" y="464.2761">&#8226; a^(l) = activation at layer l</text><text fill="#000000" font-family="Verdana" font-size="37.5" lengthAdjust="spacing" textLength="643.927" x="329.6875" y="509.8511">&#8226; W^(l) = weight matrix at layer l</text><text fill="#000000" font-family="Verdana" font-size="37.5" lengthAdjust="spacing" textLength="576.0864" x="329.6875" y="555.426">&#8226; b^(l) = bias vector at layer l</text><text fill="#000000" font-family="Verdana" font-size="37.5" lengthAdjust="spacing" textLength="462.6526" x="329.6875" y="601.001">&#8226; &#963; = activation function</text></g><g class="entity" data-entity="output_error" data-source-line="29" data-uid="ent0005" id="entity_output_error"><path d="M285.9375,853.125 L285.9375,1294.5496 L1044.7815,1294.5496 L1044.7815,884.375 L1013.5315,853.125 L285.9375,853.125" fill="#FFFFE0" style="stroke:#808080;stroke-width:3.125;"/><path d="M1013.5315,853.125 L1013.5315,884.375 L1044.7815,884.375 L1013.5315,853.125" fill="#FFFFE0" style="stroke:#808080;stroke-width:3.125;"/><text fill="#000000" font-family="Verdana" font-size="37.5" font-weight="bold" lengthAdjust="spacing" textLength="488.0676" x="304.6875" y="906.4514">Output Layer Error (L):</text><text fill="#000000" font-family="Verdana" font-size="37.5" lengthAdjust="spacing" textLength="525.6592" x="304.6875" y="952.0264">&#948;^(L) = &#8711;_a C &#8857; &#963;'(z^(L))</text><text fill="#000000" font-family="Verdana" font-size="37.5" lengthAdjust="spacing" textLength="13.1836" x="304.6875" y="997.6013">&#160;</text><text fill="#000000" font-family="Verdana" font-size="37.5" lengthAdjust="spacing" textLength="468.5303" x="304.6875" y="1043.1763">For Mean Squared Error:</text><text fill="#000000" font-family="Verdana" font-size="37.5" lengthAdjust="spacing" textLength="610.2173" x="304.6875" y="1088.7512">&#948;^(L) = (a^(L) - y) &#8857; &#963;'(z^(L))</text><text fill="#000000" font-family="Verdana" font-size="37.5" lengthAdjust="spacing" textLength="693.219" x="304.6875" y="1134.3262">&#948;^(L) = (a^(L) - y) &#8857; &#963;(z)(1 - &#963;(z))</text><text fill="#000000" font-family="Verdana" font-size="37.5" lengthAdjust="spacing" textLength="13.1836" x="304.6875" y="1179.9011">&#160;</text><text fill="#000000" font-family="Verdana" font-size="37.5" lengthAdjust="spacing" textLength="358.1177" x="304.6875" y="1225.4761">For Cross-Entropy:</text><text fill="#000000" font-family="Verdana" font-size="37.5" lengthAdjust="spacing" textLength="668.4265" x="304.6875" y="1271.051">&#948;^(L) = a^(L) - y  (if &#963; = softmax)</text></g><g class="entity" data-entity="hidden_error" data-source-line="41" data-uid="ent0006" id="entity_hidden_error"><path d="M201.5625,1481.25 L201.5625,1785.9497 L1129.3762,1785.9497 L1129.3762,1512.5 L1098.1262,1481.25 L201.5625,1481.25" fill="#FFFFE0" style="stroke:#808080;stroke-width:3.125;"/><path d="M1098.1262,1481.25 L1098.1262,1512.5 L1129.3762,1512.5 L1098.1262,1481.25" fill="#FFFFE0" style="stroke:#808080;stroke-width:3.125;"/><text fill="#000000" font-family="Verdana" font-size="37.5" font-weight="bold" lengthAdjust="spacing" textLength="561.6211" x="220.3125" y="1534.5764">Hidden Layer Error (l &lt; L):</text><text fill="#000000" font-family="Verdana" font-size="37.5" lengthAdjust="spacing" textLength="862.1887" x="220.3125" y="1580.1514">&#948;^(l) = ((W^(l+1))^T &#183; &#948;^(l+1)) &#8857; &#963;'(z^(l))</text><text fill="#000000" font-family="Verdana" font-size="37.5" lengthAdjust="spacing" textLength="13.1836" x="220.3125" y="1625.7263">&#160;</text><text fill="#000000" font-family="Verdana" font-size="37.5" lengthAdjust="spacing" textLength="689.9048" x="220.3125" y="1671.3013">Error propagates backward through:</text><text fill="#000000" font-family="Verdana" font-size="37.5" lengthAdjust="spacing" textLength="629.2786" x="220.3125" y="1716.8762">&#8226; Weight transpose multiplication</text><text fill="#000000" font-family="Verdana" font-size="37.5" lengthAdjust="spacing" textLength="736.0657" x="220.3125" y="1762.4512">&#8226; Element-wise product with derivative</text></g><g class="entity" data-entity="weight_grad" data-source-line="52" data-uid="ent0008" id="entity_weight_grad"><path d="M121.875,2015.625 L121.875,2320.3247 L1207.9834,2320.3247 L1207.9834,2046.875 L1176.7334,2015.625 L121.875,2015.625" fill="#FFFFE0" style="stroke:#808080;stroke-width:3.125;"/><path d="M1176.7334,2015.625 L1176.7334,2046.875 L1207.9834,2046.875 L1176.7334,2015.625" fill="#FFFFE0" style="stroke:#808080;stroke-width:3.125;"/><text fill="#000000" font-family="Verdana" font-size="37.5" font-weight="bold" lengthAdjust="spacing" textLength="382.0496" x="140.625" y="2068.9514">Weight Gradients:</text><text fill="#000000" font-family="Verdana" font-size="37.5" lengthAdjust="spacing" textLength="681.6101" x="140.625" y="2114.5264">&#8711;_{W^(l)} C = &#948;^(l) &#183; (a^(l-1))^T</text><text fill="#000000" font-family="Verdana" font-size="37.5" lengthAdjust="spacing" textLength="13.1836" x="140.625" y="2160.1013">&#160;</text><text fill="#000000" font-family="Verdana" font-size="37.5" lengthAdjust="spacing" textLength="672.1252" x="140.625" y="2205.6763">&#8226; &#948;^(l): error term (column vector)</text><text fill="#000000" font-family="Verdana" font-size="37.5" lengthAdjust="spacing" textLength="1020.4834" x="140.625" y="2251.2512">&#8226; (a^(l-1))^T: previous layer activations (row vector)</text><text fill="#000000" font-family="Verdana" font-size="37.5" lengthAdjust="spacing" textLength="682.5073" x="140.625" y="2296.8262">&#8226; Result: matrix same size as W^(l)</text></g><g class="entity" data-entity="bias_grad" data-source-line="61" data-uid="ent0009" id="entity_bias_grad"><path d="M320.3125,2509.375 L320.3125,2768.4998 L1011.2427,2768.4998 L1011.2427,2540.625 L979.9927,2509.375 L320.3125,2509.375" fill="#FFFFE0" style="stroke:#808080;stroke-width:3.125;"/><path d="M979.9927,2509.375 L979.9927,2540.625 L1011.2427,2540.625 L979.9927,2509.375" fill="#FFFFE0" style="stroke:#808080;stroke-width:3.125;"/><text fill="#000000" font-family="Verdana" font-size="37.5" font-weight="bold" lengthAdjust="spacing" textLength="320.6726" x="339.0625" y="2562.7014">Bias Gradients:</text><text fill="#000000" font-family="Verdana" font-size="37.5" lengthAdjust="spacing" textLength="401.6052" x="339.0625" y="2608.2764">&#8711;_{b^(l)} C = &#948;^(l)</text><text fill="#000000" font-family="Verdana" font-size="37.5" lengthAdjust="spacing" textLength="13.1836" x="339.0625" y="2653.8513">&#160;</text><text fill="#000000" font-family="Verdana" font-size="37.5" lengthAdjust="spacing" textLength="625.3052" x="339.0625" y="2699.4263">&#8226; Bias gradient equals error term</text><text fill="#000000" font-family="Verdana" font-size="37.5" lengthAdjust="spacing" textLength="612.1765" x="339.0625" y="2745.0012">&#8226; Same size as bias vector b^(l)</text></g><g class="entity" data-entity="updates" data-source-line="71" data-uid="ent0011" id="entity_updates"><path d="M118.75,2996.875 L118.75,3529.4495 L1212.9883,3529.4495 L1212.9883,3028.125 L1181.7383,2996.875 L118.75,2996.875" fill="#FFFFE0" style="stroke:#808080;stroke-width:3.125;"/><path d="M1181.7383,2996.875 L1181.7383,3028.125 L1212.9883,3028.125 L1181.7383,2996.875" fill="#FFFFE0" style="stroke:#808080;stroke-width:3.125;"/><text fill="#000000" font-family="Verdana" font-size="37.5" font-weight="bold" lengthAdjust="spacing" textLength="528.0945" x="137.5" y="3050.2014">Parameter Update Rules:</text><text fill="#000000" font-family="Verdana" font-size="37.5" lengthAdjust="spacing" textLength="13.1836" x="137.5" y="3095.7764">&#160;</text><text fill="#000000" font-family="Verdana" font-size="37.5" font-weight="bold" lengthAdjust="spacing" textLength="187.3901" x="137.5" y="3141.3513">Weights:</text><text fill="#000000" font-family="Verdana" font-size="37.5" lengthAdjust="spacing" textLength="924.9207" x="137.5" y="3186.9263">W^(l)_{new} = W^(l)_{old} - &#951; &#183; &#8711;_{W^(l)} C</text><text fill="#000000" font-family="Verdana" font-size="37.5" lengthAdjust="spacing" textLength="1028.6133" x="137.5" y="3232.5012">W^(l)_{new} = W^(l)_{old} - &#951; &#183; &#948;^(l) &#183; (a^(l-1))^T</text><text fill="#000000" font-family="Verdana" font-size="37.5" lengthAdjust="spacing" textLength="13.1836" x="137.5" y="3278.0762">&#160;</text><text fill="#000000" font-family="Verdana" font-size="37.5" font-weight="bold" lengthAdjust="spacing" textLength="150.9155" x="137.5" y="3323.6511">Biases:</text><text fill="#000000" font-family="Verdana" font-size="37.5" lengthAdjust="spacing" textLength="883.7769" x="137.5" y="3369.2261">b^(l)_{new} = b^(l)_{old} - &#951; &#183; &#8711;_{b^(l)} C</text><text fill="#000000" font-family="Verdana" font-size="37.5" lengthAdjust="spacing" textLength="734.8938" x="137.5" y="3414.801">b^(l)_{new} = b^(l)_{old} - &#951; &#183; &#948;^(l)</text><text fill="#000000" font-family="Verdana" font-size="37.5" lengthAdjust="spacing" textLength="13.1836" x="137.5" y="3460.376">&#160;</text><text fill="#000000" font-family="Verdana" font-size="37.5" lengthAdjust="spacing" textLength="456.5552" x="137.5" y="3505.9509">Where &#951; = learning rate</text></g><g class="entity" data-entity="dimensions" data-source-line="87" data-uid="ent0013" id="entity_dimensions"><path d="M112.5,3756.25 L112.5,4152.0996 L1218.4021,4152.0996 L1218.4021,3787.5 L1187.1521,3756.25 L112.5,3756.25" fill="#FFFFE0" style="stroke:#808080;stroke-width:3.125;"/><path d="M1187.1521,3756.25 L1187.1521,3787.5 L1218.4021,3787.5 L1187.1521,3756.25" fill="#FFFFE0" style="stroke:#808080;stroke-width:3.125;"/><text fill="#000000" font-family="Verdana" font-size="37.5" font-weight="bold" lengthAdjust="spacing" textLength="351.1414" x="131.25" y="3809.5764">Key Dimensions:</text><text fill="#000000" font-family="Verdana" font-size="37.5" lengthAdjust="spacing" textLength="1040.2771" x="131.25" y="3855.1514">&#8226; W^(l): (n^(l) &#215; n^(l-1)) - weights from layer l-1 to l</text><text fill="#000000" font-family="Verdana" font-size="37.5" lengthAdjust="spacing" textLength="717.4438" x="131.25" y="3900.7263">&#8226; b^(l): (n^(l) &#215; 1) - biases at layer l</text><text fill="#000000" font-family="Verdana" font-size="37.5" lengthAdjust="spacing" textLength="801.947" x="131.25" y="3946.3013">&#8226; a^(l): (n^(l) &#215; 1) - activations at layer l</text><text fill="#000000" font-family="Verdana" font-size="37.5" lengthAdjust="spacing" textLength="814.7095" x="131.25" y="3991.8762">&#8226; &#948;^(l): (n^(l) &#215; 1) - error terms at layer l</text><text fill="#000000" font-family="Verdana" font-size="37.5" lengthAdjust="spacing" textLength="877.8625" x="131.25" y="4037.4512">&#8226; z^(l): (n^(l) &#215; 1) - pre-activations at layer l</text><text fill="#000000" font-family="Verdana" font-size="37.5" lengthAdjust="spacing" textLength="13.1836" x="131.25" y="4083.0261">&#160;</text><text fill="#000000" font-family="Verdana" font-size="37.5" lengthAdjust="spacing" textLength="827.4902" x="131.25" y="4128.6011">Where n^(l) = number of neurons in layer l</text></g><g class="entity" data-entity="algorithm" data-source-line="100" data-uid="ent0015" id="entity_algorithm"><path d="M85.9375,4381.25 L85.9375,5004.9744 L1244.0613,5004.9744 L1244.0613,4412.5 L1212.8113,4381.25 L85.9375,4381.25" fill="#FFFFE0" style="stroke:#808080;stroke-width:3.125;"/><path d="M1212.8113,4381.25 L1212.8113,4412.5 L1244.0613,4412.5 L1212.8113,4381.25" fill="#FFFFE0" style="stroke:#808080;stroke-width:3.125;"/><text fill="#000000" font-family="Verdana" font-size="37.5" font-weight="bold" lengthAdjust="spacing" textLength="593.0786" x="104.6875" y="4434.5764">Backpropagation Algorithm:</text><text fill="#000000" font-family="Verdana" font-size="37.5" lengthAdjust="spacing" textLength="13.1836" x="104.6875" y="4480.1514">&#160;</text><text fill="#000000" font-family="Verdana" font-size="37.5" lengthAdjust="spacing" textLength="37.4817" x="104.6875" y="4525.7263">1.</text><text fill="#000000" font-family="Verdana" font-size="37.5" font-weight="bold" lengthAdjust="spacing" textLength="300.3479" x="155.3528" y="4525.7263">Forward Pass:</text><text fill="#000000" font-family="Verdana" font-size="37.5" lengthAdjust="spacing" textLength="527.3804" x="468.8843" y="4525.7263">Compute all a^(l) and z^(l)</text><text fill="#000000" font-family="Verdana" font-size="37.5" lengthAdjust="spacing" textLength="37.4817" x="104.6875" y="4571.3013">2.</text><text fill="#000000" font-family="Verdana" font-size="37.5" font-weight="bold" lengthAdjust="spacing" textLength="280.8838" x="155.3528" y="4571.3013">Output Error:</text><text fill="#000000" font-family="Verdana" font-size="37.5" lengthAdjust="spacing" textLength="293.7927" x="449.4202" y="4571.3013">Calculate &#948;^(L)</text><text fill="#000000" font-family="Verdana" font-size="37.5" lengthAdjust="spacing" textLength="37.4817" x="104.6875" y="4616.8762">3.</text><text fill="#000000" font-family="Verdana" font-size="37.5" font-weight="bold" lengthAdjust="spacing" textLength="331.0547" x="155.3528" y="4616.8762">Backpropagate:</text><text fill="#000000" font-family="Verdana" font-size="37.5" lengthAdjust="spacing" textLength="697.5952" x="499.5911" y="4616.8762">Calculate &#948;^(l) for l = L-1, L-2, ..., 2</text><text fill="#000000" font-family="Verdana" font-size="37.5" lengthAdjust="spacing" textLength="37.4817" x="104.6875" y="4662.4512">4.</text><text fill="#000000" font-family="Verdana" font-size="37.5" font-weight="bold" lengthAdjust="spacing" textLength="419.4763" x="155.3528" y="4662.4512">Compute Gradients:</text><text fill="#000000" font-family="Verdana" font-size="37.5" lengthAdjust="spacing" textLength="603.1311" x="588.0127" y="4662.4512">&#8711;_{W^(l)} C and &#8711;_{b^(l)} C</text><text fill="#000000" font-family="Verdana" font-size="37.5" lengthAdjust="spacing" textLength="37.4817" x="104.6875" y="4708.0261">5.</text><text fill="#000000" font-family="Verdana" font-size="37.5" font-weight="bold" lengthAdjust="spacing" textLength="421.5088" x="155.3528" y="4708.0261">Update Parameters:</text><text fill="#000000" font-family="Verdana" font-size="37.5" lengthAdjust="spacing" textLength="433.2275" x="590.0452" y="4708.0261">Apply gradient descent</text><text fill="#000000" font-family="Verdana" font-size="37.5" lengthAdjust="spacing" textLength="13.1836" x="104.6875" y="4753.6011">&#160;</text><text fill="#000000" font-family="Verdana" font-size="37.5" font-weight="bold" lengthAdjust="spacing" textLength="197.0764" x="104.6875" y="4799.176">Notation:</text><text fill="#000000" font-family="Verdana" font-size="37.5" lengthAdjust="spacing" textLength="1045.5872" x="104.6875" y="4844.751">&#8226; &#8857; = element-wise multiplication (Hadamard product)</text><text fill="#000000" font-family="Verdana" font-size="37.5" lengthAdjust="spacing" textLength="492.9016" x="104.6875" y="4890.3259">&#8226; &#183; = matrix multiplication</text><text fill="#000000" font-family="Verdana" font-size="37.5" lengthAdjust="spacing" textLength="464.502" x="104.6875" y="4935.9009">&#8226; ^T = matrix transpose</text><text fill="#000000" font-family="Verdana" font-size="37.5" lengthAdjust="spacing" textLength="721.344" x="104.6875" y="4981.4758">&#8226; &#963;' = derivative of activation function</text></g><!--link forward to output_error--><g class="link" data-entity-1="forward" data-entity-2="output_error" data-source-line="116" data-uid="lnk16" id="link_forward_output_error"><path codeLine="116" d="M665.625,625.25 C665.625,699.375 665.625,761.7188 665.625,834.1875" fill="none" id="forward-to-output_error" style="stroke:#000000;stroke-width:3.125;"/><polygon fill="#000000" points="665.625,852.9375,678.125,824.8125,665.625,837.3125,653.125,824.8125,665.625,852.9375" style="stroke:#000000;stroke-width:3.125;"/></g><!--link output_error to hidden_error--><g class="link" data-entity-1="output_error" data-entity-2="hidden_error" data-source-line="117" data-uid="lnk17" id="link_output_error_hidden_error"><path codeLine="117" d="M665.625,1294.1875 C665.625,1356.7188 665.625,1404.75 665.625,1462.2188" fill="none" id="output_error-to-hidden_error" style="stroke:#000000;stroke-width:3.125;"/><polygon fill="#000000" points="665.625,1480.9688,678.125,1452.8438,665.625,1465.3438,653.125,1452.8438,665.625,1480.9688" style="stroke:#000000;stroke-width:3.125;"/></g><!--link hidden_error to weight_grad--><g class="link" data-entity-1="hidden_error" data-entity-2="weight_grad" data-source-line="118" data-uid="lnk18" id="link_hidden_error_weight_grad"><path codeLine="118" d="M665.625,1788.8438 C665.625,1859.8438 665.625,1925.5312 665.625,1996.4375" fill="none" id="hidden_error-to-weight_grad" style="stroke:#000000;stroke-width:3.125;"/><polygon fill="#000000" points="665.625,2015.1875,678.125,1987.0625,665.625,1999.5625,653.125,1987.0625,665.625,2015.1875" style="stroke:#000000;stroke-width:3.125;"/></g><!--link weight_grad to bias_grad--><g class="link" data-entity-1="weight_grad" data-entity-2="bias_grad" data-source-line="119" data-uid="lnk19" id="link_weight_grad_bias_grad"><path codeLine="119" d="M665.625,2322.5313 C665.625,2382.875 665.625,2432.875 665.625,2490.5938" fill="none" id="weight_grad-to-bias_grad" style="stroke:#000000;stroke-width:3.125;"/><polygon fill="#000000" points="665.625,2509.3438,678.125,2481.2188,665.625,2493.7188,653.125,2481.2188,665.625,2509.3438" style="stroke:#000000;stroke-width:3.125;"/></g><!--link bias_grad to updates--><g class="link" data-entity-1="bias_grad" data-entity-2="updates" data-source-line="120" data-uid="lnk20" id="link_bias_grad_updates"><path codeLine="120" d="M665.625,2770.0625 C665.625,2835.75 665.625,2899.5313 665.625,2978" fill="none" id="bias_grad-to-updates" style="stroke:#000000;stroke-width:3.125;"/><polygon fill="#000000" points="665.625,2996.75,678.125,2968.625,665.625,2981.125,653.125,2968.625,665.625,2996.75" style="stroke:#000000;stroke-width:3.125;"/></g><!--link updates to dimensions--><g class="link" data-entity-1="updates" data-entity-2="dimensions" data-source-line="121" data-uid="lnk21" id="link_updates_dimensions"><path codeLine="121" d="M665.625,3528.875 C665.625,3604.4375 665.625,3666.7187 665.625,3737.4063" fill="none" id="updates-to-dimensions" style="stroke:#000000;stroke-width:3.125;"/><polygon fill="#000000" points="665.625,3756.1563,678.125,3728.0313,665.625,3740.5313,653.125,3728.0313,665.625,3756.1563" style="stroke:#000000;stroke-width:3.125;"/></g><!--link dimensions to algorithm--><g class="link" data-entity-1="dimensions" data-entity-2="algorithm" data-source-line="122" data-uid="lnk22" id="link_dimensions_algorithm"><path codeLine="122" d="M665.625,4153.2188 C665.625,4223.1875 665.625,4285.125 665.625,4362.3438" fill="none" id="dimensions-to-algorithm" style="stroke:#000000;stroke-width:3.125;"/><polygon fill="#000000" points="665.625,4381.0938,678.125,4352.9688,665.625,4365.4688,653.125,4352.9688,665.625,4381.0938" style="stroke:#000000;stroke-width:3.125;"/></g><!--SRC=[ZLRDRjms4BxlKqnpg2N7kyWwxMLH5qXSfm7Yf4MSOczUK19tbp15gYJbpQvXe40E2Ve2HQzzXW2vftVd7Vma7LAKH6dNSIyInVbcDFDnVlYDMTASGi494mDzmKH15CaX8Ud5GibIPCUIImMh9JCqa6TqJafkdabXpjY6mlWm4AQSQDsAne58I4EVzcnpjbYQDULShlf8gJAgAjH2aVKWzA1WyFZHey5Wpp33ARoYfI8SNsObrGNOdnHA5cH139C2leLVhHerLC5lHKOCXMTIvIMwEXWK22OB2WzmQqLKXbYj7y3L09mRG3JCAmdk0EplXxZ9_hxRtPn7F8OZcBhtvqz0S34Sn_0G4hlbGCI3lhoB73uUkEtfaYewSSlRF_vfJ1MA3abgs6KL0p70oHe3u0sojlTrrDIZLjHI3JanYhtT1KmyC64OyYLD3HA_0_RbNVUNyrAaTe40AZB7sU0weBL_62TAeU4tLEKQefkFSPTgMPgYD3DgGPxlNzmMd3e_AkteDAwPl_buZb_eqks7zpC2nt3xvz_euvwb-BIc68yCNb8YuEptaYYQLMOcNGCHSOiXhEE-aNjmqIQEnhZXLi4lZvNKUdWY38Q_xlsjCG8GiNd5gfPpavEtSKXbmCsIPHaL7MwUkwqkDnn-W2u_xbYZo6R2mt4Sdx-n6Ue4zZCCjadAobPzRbIxfk3ItYonV1VBDc6dLM8PHOGkfAQ0XMLOmLbAV5vKk1EEpKQOuOeX1YrdPMfWnSmI6ufosNH9xqgYdnN962ht2hFAwHcsXxeulJCDlgR1PiULAuLhp96ZcXRa8VAbYhGC6byhyGGSru1z8uSebRpCXQ-Ck846-XDRj9TCbjfNJLiccEjAhhQKNrEDP4tggjJOf43Rned1JNtZs9KAjaR3i9_QcjqTTD8FketIQIsy5b2i3Qw3a1lSMUXMs1wIlelXcVLxRk_iochJ1x3Le5-NdBf0EWVRXER8cLq9khgks-xiIlBi6algvfCzryw9_q-ThsH5nJ5j74WwnfAx74X21-xN2K_8pGMxVmIS4YMOM812QkxY-sMLGpynh39jKwxBTzRi-tXUq7K0RdAc7XaJY8HZuz-_G7WoqC-gv70cAfdNis4u1YFxaoJK7rlDnF5tvo3RmeV5iqEfBj6ULfk-ExKsEvMwixQZ61o5y9rKb7c2CZa7WVSEYsSY-D7Emtd25r9XhylXhCnpejRTmo6rkCwrtj1ir9kA68-sho9mB7CSbMYHStyx8EZCfhc178xQULgDGAj4U8fN8LIhXfD3FXxrlA3RK3G_jrSufEHqE3x0n-41Z4QZ0pXqDhwpDcgNmkRKwyRMn-rY-Tvg-sRGT0Ud_QGe-BhjMndLARxhCdqbZUCiJ6WxuOw0XWEeEwGWUauoabik_MHgU_HdMu6-GTynsd2YDf1c3WOtfZqKjqFEPixz5oX_wOJXyCVkhIZySDBElI3ySD9mHWPh9sl7IBDo-tLlzc-t5_IFTkaaRVB-1m00]--></g></svg>
