<svg xmlns="http://www.w3.org/2000/svg" xmlns:xlink="http://www.w3.org/1999/xlink" contentStyleType="text/css" data-diagram-type="ACTIVITY" height="2568.75px" preserveAspectRatio="none" style="width:1012px;height:2568px;background:#FFFFFF;" version="1.1" viewBox="0 0 1012 2568" width="1012.5px" zoomAndPan="magnify"><defs/><g><ellipse cx="491.5039" cy="46.875" fill="#FFFFFF" rx="31.25" ry="31.25" style="stroke:#000000;stroke-width:3.125;"/><rect fill="#FFFFFF" height="108.075" rx="39.0625" ry="39.0625" style="stroke:#000000;stroke-width:3.125;" width="489.9048" x="246.5515" y="140.625"/><text fill="#000000" font-family="Verdana" font-size="37.5" lengthAdjust="spacing" textLength="427.4048" x="277.8015" y="209.5764">INPUT: SortArray[1:n]</text><rect fill="#FFFFFF" height="108.075" rx="39.0625" ry="39.0625" style="stroke:#000000;stroke-width:3.125;" width="160.498" x="411.2549" y="311.2"/><text fill="#000000" font-family="Verdana" font-size="37.5" lengthAdjust="spacing" textLength="97.998" x="442.5049" y="380.1514">i &#8592; 1</text><rect fill="#FFFFFF" height="108.075" rx="39.0625" ry="39.0625" style="stroke:#000000;stroke-width:3.125;" width="163.1165" x="409.9457" y="658.522"/><text fill="#000000" font-family="Verdana" font-size="37.5" lengthAdjust="spacing" textLength="100.6165" x="441.1957" y="727.4734">j &#8592; 1</text><rect fill="#FFFFFF" height="108.075" rx="39.0625" ry="39.0625" style="stroke:#000000;stroke-width:3.125;" width="460.1501" x="261.4288" y="1157.9826"/><text fill="#000000" font-family="Verdana" font-size="37.5" lengthAdjust="spacing" textLength="397.6501" x="292.6788" y="1226.9341">Temp &#8592; SortArray[j]</text><rect fill="#FFFFFF" height="108.075" rx="39.0625" ry="39.0625" style="stroke:#000000;stroke-width:3.125;" width="664.2578" x="159.375" y="1328.5576"/><text fill="#000000" font-family="Verdana" font-size="37.5" lengthAdjust="spacing" textLength="601.7578" x="190.625" y="1397.509">SortArray[j] &#8592; SortArray[j + 1]</text><rect fill="#FFFFFF" height="108.075" rx="39.0625" ry="39.0625" style="stroke:#000000;stroke-width:3.125;" width="541.0461" x="220.9808" y="1526.6815"/><text fill="#000000" font-family="Verdana" font-size="37.5" lengthAdjust="spacing" textLength="478.5461" x="252.2308" y="1595.6329">SortArray[j + 1] &#8592; Temp</text><polygon fill="#FFFFFF" points="209.446,1005.8441,773.5619,1005.8441,811.0619,1043.3441,773.5619,1080.8441,209.446,1080.8441,171.946,1043.3441,209.446,1005.8441" style="stroke:#000000;stroke-width:3.125;"/><text fill="#000000" font-family="Verdana" font-size="34.375" lengthAdjust="spacing" textLength="58.7296" x="504.0039" y="1115.4037">yes</text><text fill="#000000" font-family="Verdana" font-size="34.375" lengthAdjust="spacing" textLength="564.1159" x="209.446" y="1057.0152">SortArray[j] &gt; SortArray[j + 1]?</text><text fill="#000000" font-family="Verdana" font-size="34.375" lengthAdjust="spacing" textLength="42.6163" x="811.0619" y="1036.1267">no</text><polygon fill="#FFFFFF" points="491.5039,1697.2565,529.0039,1734.7565,491.5039,1772.2565,454.0039,1734.7565,491.5039,1697.2565" style="stroke:#000000;stroke-width:3.125;"/><rect fill="#FFFFFF" height="108.075" rx="39.0625" ry="39.0625" style="stroke:#000000;stroke-width:3.125;" width="233.0811" x="374.9634" y="1834.7565"/><text fill="#000000" font-family="Verdana" font-size="37.5" lengthAdjust="spacing" textLength="170.5811" x="406.2134" y="1903.7079">j &#8592; j + 1</text><polygon fill="#FFFFFF" points="414.5798,829.097,568.428,829.097,605.928,866.597,568.428,904.097,414.5798,904.097,377.0798,866.597,414.5798,829.097" style="stroke:#000000;stroke-width:3.125;"/><text fill="#000000" font-family="Verdana" font-size="34.375" lengthAdjust="spacing" textLength="58.7296" x="504.0039" y="938.6566">yes</text><text fill="#000000" font-family="Verdana" font-size="34.375" lengthAdjust="spacing" textLength="153.8483" x="414.5798" y="880.2681">j &#8804; n - i?</text><text fill="#000000" font-family="Verdana" font-size="34.375" lengthAdjust="spacing" textLength="42.6163" x="334.4635" y="859.3796">no</text><rect fill="#FFFFFF" height="108.075" rx="39.0625" ry="39.0625" style="stroke:#000000;stroke-width:3.125;" width="227.8442" x="377.5818" y="2074.0814"/><text fill="#000000" font-family="Verdana" font-size="37.5" lengthAdjust="spacing" textLength="165.3442" x="408.8318" y="2143.0328">i &#8592; i + 1</text><polygon fill="#FFFFFF" points="409.5695,481.7749,573.4383,481.7749,610.9383,519.2749,573.4383,556.7749,409.5695,556.7749,372.0695,519.2749,409.5695,481.7749" style="stroke:#000000;stroke-width:3.125;"/><text fill="#000000" font-family="Verdana" font-size="34.375" lengthAdjust="spacing" textLength="58.7296" x="504.0039" y="591.3345">yes</text><text fill="#000000" font-family="Verdana" font-size="34.375" lengthAdjust="spacing" textLength="163.8687" x="409.5695" y="532.946">i &#8804; n - 1?</text><text fill="#000000" font-family="Verdana" font-size="34.375" lengthAdjust="spacing" textLength="42.6163" x="329.4533" y="512.0575">no</text><rect fill="#FFFFFF" height="108.075" rx="39.0625" ry="39.0625" style="stroke:#000000;stroke-width:3.125;" width="339.8315" x="321.5881" y="2313.4064"/><text fill="#000000" font-family="Verdana" font-size="37.5" lengthAdjust="spacing" textLength="277.3315" x="352.8381" y="2382.3578">Array is sorted</text><ellipse cx="491.5039" cy="2518.3563" fill="none" rx="34.375" ry="34.375" style="stroke:#000000;stroke-width:3.125;"/><ellipse cx="491.5039" cy="2518.3563" fill="#FFFFFF" rx="18.75" ry="18.75" style="stroke:#000000;stroke-width:3.125;"/><line style="stroke:#000000;stroke-width:3.125;" x1="491.5039" x2="491.5039" y1="78.125" y2="140.625"/><polygon fill="#000000" points="479.0039,109.375,491.5039,140.625,504.0039,109.375,491.5039,121.875" style="stroke:#000000;stroke-width:3.125;"/><line style="stroke:#000000;stroke-width:3.125;" x1="491.5039" x2="491.5039" y1="248.7" y2="311.2"/><polygon fill="#000000" points="479.0039,279.95,491.5039,311.2,504.0039,279.95,491.5039,292.45" style="stroke:#000000;stroke-width:3.125;"/><line style="stroke:#000000;stroke-width:3.125;" x1="491.5039" x2="491.5039" y1="1266.0576" y2="1328.5576"/><polygon fill="#000000" points="479.0039,1297.3076,491.5039,1328.5576,504.0039,1297.3076,491.5039,1309.8076" style="stroke:#000000;stroke-width:3.125;"/><line style="stroke:#000000;stroke-width:3.125;" x1="491.5039" x2="491.5039" y1="1436.6325" y2="1526.6815"/><polygon fill="#000000" points="479.0039,1495.4315,491.5039,1526.6815,504.0039,1495.4315,491.5039,1507.9315" style="stroke:#000000;stroke-width:3.125;"/><line style="stroke:#000000;stroke-width:3.125;" x1="491.5039" x2="491.5039" y1="1080.8441" y2="1157.9826"/><polygon fill="#000000" points="479.0039,1126.7326,491.5039,1157.9826,504.0039,1126.7326,491.5039,1139.2326" style="stroke:#000000;stroke-width:3.125;"/><line style="stroke:#000000;stroke-width:3.125;" x1="811.0619" x2="854.8828" y1="1043.3441" y2="1043.3441"/><polygon fill="#000000" points="842.3828,1351.3451,854.8828,1382.5951,867.3828,1351.3451,854.8828,1363.8451" style="stroke:#000000;stroke-width:3.125;"/><line style="stroke:#000000;stroke-width:3.125;" x1="854.8828" x2="854.8828" y1="1043.3441" y2="1734.7565"/><line style="stroke:#000000;stroke-width:3.125;" x1="854.8828" x2="529.0039" y1="1734.7565" y2="1734.7565"/><polygon fill="#000000" points="560.2539,1722.2565,529.0039,1734.7565,560.2539,1747.2565,547.7539,1734.7565" style="stroke:#000000;stroke-width:3.125;"/><line style="stroke:#000000;stroke-width:3.125;" x1="491.5039" x2="491.5039" y1="1634.7565" y2="1697.2565"/><polygon fill="#000000" points="479.0039,1666.0065,491.5039,1697.2565,504.0039,1666.0065,491.5039,1678.5065" style="stroke:#000000;stroke-width:3.125;"/><line style="stroke:#000000;stroke-width:3.125;" x1="491.5039" x2="491.5039" y1="1772.2565" y2="1834.7565"/><polygon fill="#000000" points="479.0039,1803.5065,491.5039,1834.7565,504.0039,1803.5065,491.5039,1816.0065" style="stroke:#000000;stroke-width:3.125;"/><line style="stroke:#000000;stroke-width:3.125;" x1="491.5039" x2="491.5039" y1="904.097" y2="1005.8441"/><polygon fill="#000000" points="479.0039,974.5941,491.5039,1005.8441,504.0039,974.5941,491.5039,987.0941" style="stroke:#000000;stroke-width:3.125;"/><line style="stroke:#000000;stroke-width:3.125;" x1="491.5039" x2="491.5039" y1="1942.8314" y2="1974.0814"/><line style="stroke:#000000;stroke-width:3.125;" x1="491.5039" x2="911.1328" y1="1974.0814" y2="1974.0814"/><polygon fill="#000000" points="898.6328,1464.1815,911.1328,1432.9315,923.6328,1464.1815,911.1328,1451.6815" style="stroke:#000000;stroke-width:3.125;"/><line style="stroke:#000000;stroke-width:3.125;" x1="911.1328" x2="911.1328" y1="866.597" y2="1974.0814"/><line style="stroke:#000000;stroke-width:3.125;" x1="911.1328" x2="605.928" y1="866.597" y2="866.597"/><polygon fill="#000000" points="637.178,854.097,605.928,866.597,637.178,879.097,624.678,866.597" style="stroke:#000000;stroke-width:3.125;"/><line style="stroke:#000000;stroke-width:3.125;" x1="377.0798" x2="115.625" y1="866.597" y2="866.597"/><polygon fill="#000000" points="103.125,1420.4315,115.625,1451.6815,128.125,1420.4315,115.625,1432.9315" style="stroke:#000000;stroke-width:3.125;"/><line style="stroke:#000000;stroke-width:3.125;" x1="115.625" x2="115.625" y1="866.597" y2="2011.5814"/><line style="stroke:#000000;stroke-width:3.125;" x1="115.625" x2="491.5039" y1="2011.5814" y2="2011.5814"/><line style="stroke:#000000;stroke-width:3.125;" x1="491.5039" x2="491.5039" y1="2011.5814" y2="2074.0814"/><polygon fill="#000000" points="479.0039,2042.8314,491.5039,2074.0814,504.0039,2042.8314,491.5039,2055.3314" style="stroke:#000000;stroke-width:3.125;"/><line style="stroke:#000000;stroke-width:3.125;" x1="491.5039" x2="491.5039" y1="766.597" y2="829.097"/><polygon fill="#000000" points="479.0039,797.847,491.5039,829.097,504.0039,797.847,491.5039,810.347" style="stroke:#000000;stroke-width:3.125;"/><line style="stroke:#000000;stroke-width:3.125;" x1="491.5039" x2="491.5039" y1="556.7749" y2="658.522"/><polygon fill="#000000" points="479.0039,627.272,491.5039,658.522,504.0039,627.272,491.5039,639.772" style="stroke:#000000;stroke-width:3.125;"/><line style="stroke:#000000;stroke-width:3.125;" x1="491.5039" x2="491.5039" y1="2182.1564" y2="2213.4064"/><line style="stroke:#000000;stroke-width:3.125;" x1="491.5039" x2="948.6328" y1="2213.4064" y2="2213.4064"/><polygon fill="#000000" points="936.1328,1405.793,948.6328,1374.543,961.1328,1405.793,948.6328,1393.293" style="stroke:#000000;stroke-width:3.125;"/><line style="stroke:#000000;stroke-width:3.125;" x1="948.6328" x2="948.6328" y1="519.2749" y2="2213.4064"/><line style="stroke:#000000;stroke-width:3.125;" x1="948.6328" x2="610.9383" y1="519.2749" y2="519.2749"/><polygon fill="#000000" points="642.1883,506.7749,610.9383,519.2749,642.1883,531.7749,629.6883,519.2749" style="stroke:#000000;stroke-width:3.125;"/><line style="stroke:#000000;stroke-width:3.125;" x1="372.0695" x2="59.375" y1="519.2749" y2="519.2749"/><polygon fill="#000000" points="46.875,1362.043,59.375,1393.293,71.875,1362.043,59.375,1374.543" style="stroke:#000000;stroke-width:3.125;"/><line style="stroke:#000000;stroke-width:3.125;" x1="59.375" x2="59.375" y1="519.2749" y2="2250.9064"/><line style="stroke:#000000;stroke-width:3.125;" x1="59.375" x2="491.5039" y1="2250.9064" y2="2250.9064"/><line style="stroke:#000000;stroke-width:3.125;" x1="491.5039" x2="491.5039" y1="2250.9064" y2="2313.4064"/><polygon fill="#000000" points="479.0039,2282.1564,491.5039,2313.4064,504.0039,2282.1564,491.5039,2294.6564" style="stroke:#000000;stroke-width:3.125;"/><line style="stroke:#000000;stroke-width:3.125;" x1="491.5039" x2="491.5039" y1="419.2749" y2="481.7749"/><polygon fill="#000000" points="479.0039,450.5249,491.5039,481.7749,504.0039,450.5249,491.5039,463.0249" style="stroke:#000000;stroke-width:3.125;"/><line style="stroke:#000000;stroke-width:3.125;" x1="491.5039" x2="491.5039" y1="2421.4813" y2="2483.9813"/><polygon fill="#000000" points="479.0039,2452.7313,491.5039,2483.9813,504.0039,2452.7313,491.5039,2465.2313" style="stroke:#000000;stroke-width:3.125;"/><!--SRC=[RP11QiCm44NtEiNlpg4KRB9J8ANBR48WoIfu8R12nhLb8Gb2BX38heVeoNAIZYMdiKj1Yq7__Vapyn9EkjMmZI8Z_2SPgvngKLd2FC-53ye58UHglTdl9BQT2n_EgSkXaAPSi42uNxzGS7a-KQEHySVj6mPlADvd88_ielrC0B9-e02_0Qz_SPhY01sHFGFh4ijHVerN52LRU7upCd7EJhSsHetDYuSwwVY7YZt_8wCGwRvv8dJZUNxJfLnjAZh6QjWpUdgIbM7NnFQdI5UZX4m18MDcVmhF0-YAJ-j3PyKF]--></g></svg>
