<svg xmlns="http://www.w3.org/2000/svg" xmlns:xlink="http://www.w3.org/1999/xlink" contentStyleType="text/css" data-diagram-type="ACTIVITY" height="2771.875px" preserveAspectRatio="none" style="width:1875px;height:2771px;background:#FFFFFF;" version="1.1" viewBox="0 0 1875 2771" width="1875px" zoomAndPan="magnify"><defs/><g><ellipse cx="284.6222" cy="46.875" fill="#FFFFFF" rx="31.25" ry="31.25" style="stroke:#000000;stroke-width:3.125;"/><path d="M522.2748,109.375 L522.2748,211.2457 L459.7748,223.7457 L522.2748,236.2457 L522.2748,338.1165 A0,0 0 0 0 522.2748,338.1165 L1144.8273,338.1165 A0,0 0 0 0 1144.8273,338.1165 L1144.8273,140.625 L1113.5773,109.375 L522.2748,109.375 A0,0 0 0 0 522.2748,109.375" fill="#FFFFFF" style="stroke:#000000;stroke-width:3.125;"/><path d="M1113.5773,109.375 L1113.5773,140.625 L1144.8273,140.625 L1113.5773,109.375" fill="#FFFFFF" style="stroke:#000000;stroke-width:3.125;"/><text fill="#000000" font-family="Verdana" font-size="40.625" lengthAdjust="spacing" textLength="346.2448" x="541.0248" y="165.8432">- Determine task</text><text fill="#000000" font-family="Verdana" font-size="40.625" lengthAdjust="spacing" textLength="484.6832" x="541.0248" y="215.2161">- Set number of classes</text><text fill="#000000" font-family="Verdana" font-size="40.625" lengthAdjust="spacing" textLength="412.4786" x="541.0248" y="264.5889">- Choose image size</text><text fill="#000000" font-family="Verdana" font-size="40.625" lengthAdjust="spacing" textLength="556.9275" x="541.0248" y="313.9618">- Define performance goals</text><rect fill="#FFFFFF" height="108.075" rx="39.0625" ry="39.0625" style="stroke:#000000;stroke-width:3.125;" width="350.3052" x="109.4696" y="169.7083"/><text fill="#000000" font-family="Verdana" font-size="37.5" lengthAdjust="spacing" textLength="287.8052" x="140.7196" y="238.6597">Define Problem</text><path d="M612.9944,369.3665 L612.9944,471.2372 L550.4944,483.7372 L612.9944,496.2372 L612.9944,598.1079 A0,0 0 0 0 612.9944,598.1079 L1528.4515,598.1079 A0,0 0 0 0 1528.4515,598.1079 L1528.4515,400.6165 L1497.2015,369.3665 L612.9944,369.3665 A0,0 0 0 0 612.9944,369.3665" fill="#FFFFFF" style="stroke:#000000;stroke-width:3.125;"/><path d="M1497.2015,369.3665 L1497.2015,400.6165 L1528.4515,400.6165 L1497.2015,369.3665" fill="#FFFFFF" style="stroke:#000000;stroke-width:3.125;"/><text fill="#000000" font-family="Verdana" font-size="40.625" lengthAdjust="spacing" textLength="491.9037" x="631.7444" y="425.8347">- Gather labeled images</text><text fill="#000000" font-family="Verdana" font-size="40.625" lengthAdjust="spacing" textLength="849.8322" x="631.7444" y="475.2075">- Split into train/val/test (e.g., 80-10-10)</text><text fill="#000000" font-family="Verdana" font-size="40.625" lengthAdjust="spacing" textLength="772.1329" x="631.7444" y="524.5804">- Normalize, resize, handle imbalance</text><text fill="#000000" font-family="Verdana" font-size="40.625" lengthAdjust="spacing" textLength="547.7631" x="631.7444" y="573.9532">- Apply data augmentation</text><rect fill="#FFFFFF" height="108.075" rx="39.0625" ry="39.0625" style="stroke:#000000;stroke-width:3.125;" width="531.7444" x="18.75" y="429.6997"/><text fill="#000000" font-family="Verdana" font-size="37.5" lengthAdjust="spacing" textLength="469.2444" x="50" y="498.6511">Collect and Prepare Data</text><path d="M611.1267,674.334 L611.1267,702.1454 L548.6267,714.6454 L611.1267,727.1454 L611.1267,754.9568 A0,0 0 0 0 611.1267,754.9568 L1855.452,754.9568 A0,0 0 0 0 1855.452,754.9568 L1855.452,705.584 L1824.202,674.334 L611.1267,674.334 A0,0 0 0 0 611.1267,674.334" fill="#FFFFFF" style="stroke:#000000;stroke-width:3.125;"/><path d="M1824.202,674.334 L1824.202,705.584 L1855.452,705.584 L1824.202,674.334" fill="#FFFFFF" style="stroke:#000000;stroke-width:3.125;"/><text fill="#000000" font-family="Verdana" font-size="40.625" lengthAdjust="spacing" textLength="1178.7003" x="629.8767" y="730.8022">Input Layer &#8594; Conv Layers &#8594; Pooling &#8594; Dense &#8594; Output</text><rect fill="#FFFFFF" height="108.075" rx="39.0625" ry="39.0625" style="stroke:#000000;stroke-width:3.125;" width="528.009" x="20.6177" y="660.6079"/><text fill="#000000" font-family="Verdana" font-size="37.5" lengthAdjust="spacing" textLength="465.509" x="51.8677" y="729.5593">Design CNN Architecture</text><path d="M606.4026,799.9329 L606.4026,926.49 L543.9026,938.99 L606.4026,951.49 L606.4026,1078.0472 A0,0 0 0 0 606.4026,1078.0472 L1254.8019,1078.0472 A0,0 0 0 0 1254.8019,1078.0472 L1254.8019,831.1829 L1223.5519,799.9329 L606.4026,799.9329 A0,0 0 0 0 606.4026,799.9329" fill="#FFFFFF" style="stroke:#000000;stroke-width:3.125;"/><path d="M1223.5519,799.9329 L1223.5519,831.1829 L1254.8019,831.1829 L1223.5519,799.9329" fill="#FFFFFF" style="stroke:#000000;stroke-width:3.125;"/><text fill="#000000" font-family="Verdana" font-size="40.625" lengthAdjust="spacing" textLength="582.7744" x="625.1526" y="856.4011">- Learning rate (e.g., 0.001)</text><text fill="#000000" font-family="Verdana" font-size="40.625" lengthAdjust="spacing" textLength="412.9349" x="625.1526" y="905.7739">- Batch size (16-64)</text><text fill="#000000" font-family="Verdana" font-size="40.625" lengthAdjust="spacing" textLength="507.9117" x="625.1526" y="955.1468">- Optimizer (Adam/SGD)</text><text fill="#000000" font-family="Verdana" font-size="40.625" lengthAdjust="spacing" textLength="300.9979" x="625.1526" y="1004.5197">- Loss function</text><text fill="#000000" font-family="Verdana" font-size="40.625" lengthAdjust="spacing" textLength="375.1862" x="625.1526" y="1053.8925">- Epochs (50-100)</text><rect fill="#FFFFFF" height="108.075" rx="39.0625" ry="39.0625" style="stroke:#000000;stroke-width:3.125;" width="518.5608" x="25.3418" y="884.9525"/><text fill="#000000" font-family="Verdana" font-size="37.5" lengthAdjust="spacing" textLength="456.0608" x="56.5918" y="953.904">Select Hyperparameters</text><path d="M571.5851,1109.2972 L571.5851,1211.1679 L509.0851,1223.6679 L571.5851,1236.1679 L571.5851,1338.0386 A0,0 0 0 0 571.5851,1338.0386 L1076.5274,1338.0386 A0,0 0 0 0 1076.5274,1338.0386 L1076.5274,1140.5472 L1045.2774,1109.2972 L571.5851,1109.2972 A0,0 0 0 0 571.5851,1109.2972" fill="#FFFFFF" style="stroke:#000000;stroke-width:3.125;"/><path d="M1045.2774,1109.2972 L1045.2774,1140.5472 L1076.5274,1140.5472 L1045.2774,1109.2972" fill="#FFFFFF" style="stroke:#000000;stroke-width:3.125;"/><text fill="#000000" font-family="Verdana" font-size="40.625" lengthAdjust="spacing" textLength="197.7097" x="590.3351" y="1165.7654">- Dropout</text><text fill="#000000" font-family="Verdana" font-size="40.625" lengthAdjust="spacing" textLength="439.3173" x="590.3351" y="1215.1382">- Batch normalization</text><text fill="#000000" font-family="Verdana" font-size="40.625" lengthAdjust="spacing" textLength="364.4745" x="590.3351" y="1264.5111">- L2 weight decay</text><text fill="#000000" font-family="Verdana" font-size="40.625" lengthAdjust="spacing" textLength="324.2462" x="590.3351" y="1313.884">- Early stopping</text><rect fill="#FFFFFF" height="108.075" rx="39.0625" ry="39.0625" style="stroke:#000000;stroke-width:3.125;" width="448.9258" x="60.1593" y="1169.6304"/><text fill="#000000" font-family="Verdana" font-size="37.5" lengthAdjust="spacing" textLength="386.4258" x="91.4093" y="1238.5818">Apply Regularization</text><path d="M515.9943,1369.2886 L515.9943,1446.4729 L453.4943,1458.9729 L515.9943,1471.4729 L515.9943,1548.6572 A0,0 0 0 0 515.9943,1548.6572 L1153.6224,1548.6572 A0,0 0 0 0 1153.6224,1548.6572 L1153.6224,1400.5386 L1122.3724,1369.2886 L515.9943,1369.2886 A0,0 0 0 0 515.9943,1369.2886" fill="#FFFFFF" style="stroke:#000000;stroke-width:3.125;"/><path d="M1122.3724,1369.2886 L1122.3724,1400.5386 L1153.6224,1400.5386 L1122.3724,1369.2886" fill="#FFFFFF" style="stroke:#000000;stroke-width:3.125;"/><text fill="#000000" font-family="Verdana" font-size="40.625" lengthAdjust="spacing" textLength="368.5211" x="534.7443" y="1425.7568">- Define optimizer</text><text fill="#000000" font-family="Verdana" font-size="40.625" lengthAdjust="spacing" textLength="371.7941" x="534.7443" y="1475.1297">- Set loss function</text><text fill="#000000" font-family="Verdana" font-size="40.625" lengthAdjust="spacing" textLength="572.0032" x="534.7443" y="1524.5026">- Choose evaluation metrics</text><rect fill="#FFFFFF" height="108.075" rx="39.0625" ry="39.0625" style="stroke:#000000;stroke-width:3.125;" width="337.7441" x="115.7501" y="1404.9355"/><text fill="#000000" font-family="Verdana" font-size="37.5" lengthAdjust="spacing" textLength="275.2441" x="147.0001" y="1473.8869">Compile Model</text><path d="M487.97,1579.9072 L487.97,1657.0915 L425.47,1669.5915 L487.97,1682.0915 L487.97,1759.2758 A0,0 0 0 0 487.97,1759.2758 L1511.1984,1759.2758 A0,0 0 0 0 1511.1984,1759.2758 L1511.1984,1611.1572 L1479.9484,1579.9072 L487.97,1579.9072 A0,0 0 0 0 487.97,1579.9072" fill="#FFFFFF" style="stroke:#000000;stroke-width:3.125;"/><path d="M1479.9484,1579.9072 L1479.9484,1611.1572 L1511.1984,1611.1572 L1479.9484,1579.9072" fill="#FFFFFF" style="stroke:#000000;stroke-width:3.125;"/><text fill="#000000" font-family="Verdana" font-size="40.625" lengthAdjust="spacing" textLength="447.7081" x="506.72" y="1636.3754">- Train on training set</text><text fill="#000000" font-family="Verdana" font-size="40.625" lengthAdjust="spacing" textLength="442.1936" x="506.72" y="1685.7483">- Validate each epoch</text><text fill="#000000" font-family="Verdana" font-size="40.625" lengthAdjust="spacing" textLength="957.6035" x="506.72" y="1735.1212">- Use callbacks (early stopping, checkpointing)</text><rect fill="#FFFFFF" height="108.075" rx="39.0625" ry="39.0625" style="stroke:#000000;stroke-width:3.125;" width="281.6956" x="143.7744" y="1615.554"/><text fill="#000000" font-family="Verdana" font-size="37.5" lengthAdjust="spacing" textLength="219.1956" x="175.0244" y="1684.5055">Train Model</text><path d="M609.0576,1790.5258 L609.0576,1892.3965 L546.5576,1904.8965 L609.0576,1917.3965 L609.0576,2019.2673 A0,0 0 0 0 609.0576,2019.2673 L1473.3765,2019.2673 A0,0 0 0 0 1473.3765,2019.2673 L1473.3765,1821.7758 L1442.1265,1790.5258 L609.0576,1790.5258 A0,0 0 0 0 609.0576,1790.5258" fill="#FFFFFF" style="stroke:#000000;stroke-width:3.125;"/><path d="M1442.1265,1790.5258 L1442.1265,1821.7758 L1473.3765,1821.7758 L1442.1265,1790.5258" fill="#FFFFFF" style="stroke:#000000;stroke-width:3.125;"/><text fill="#000000" font-family="Verdana" font-size="40.625" lengthAdjust="spacing" textLength="440.2893" x="627.8076" y="1846.994">- Evaluate on test set</text><text fill="#000000" font-family="Verdana" font-size="40.625" lengthAdjust="spacing" textLength="798.6938" x="627.8076" y="1896.3669">- Compute metrics (Accuracy, F1, etc.)</text><text fill="#000000" font-family="Verdana" font-size="40.625" lengthAdjust="spacing" textLength="575.4944" x="627.8076" y="1945.7397">- Generate confusion matrix</text><text fill="#000000" font-family="Verdana" font-size="40.625" lengthAdjust="spacing" textLength="448.204" x="627.8076" y="1995.1126">- Visualize predictions</text><rect fill="#FFFFFF" height="108.075" rx="39.0625" ry="39.0625" style="stroke:#000000;stroke-width:3.125;" width="523.8708" x="22.6868" y="1850.8591"/><text fill="#000000" font-family="Verdana" font-size="37.5" lengthAdjust="spacing" textLength="461.3708" x="53.9368" y="1919.8105">Evaluate and Test Model</text><path d="M523.5199,2070.8069 L523.5199,2123.3047 L461.0199,2135.8047 L523.5199,2148.3047 L523.5199,2200.8026 A0,0 0 0 0 523.5199,2200.8026 L1604.631,2200.8026 A0,0 0 0 0 1604.631,2200.8026 L1604.631,2102.0569 L1573.381,2070.8069 L523.5199,2070.8069 A0,0 0 0 0 523.5199,2070.8069" fill="#FFFFFF" style="stroke:#000000;stroke-width:3.125;"/><path d="M1573.381,2070.8069 L1573.381,2102.0569 L1604.631,2102.0569 L1573.381,2070.8069" fill="#FFFFFF" style="stroke:#000000;stroke-width:3.125;"/><text fill="#000000" font-family="Verdana" font-size="40.625" lengthAdjust="spacing" textLength="974.3652" x="542.2699" y="2127.2751">If Underfitting &#8594; increase complexity or epochs</text><text fill="#000000" font-family="Verdana" font-size="40.625" lengthAdjust="spacing" textLength="1015.4861" x="542.2699" y="2176.6479">If Overfitting &#8594; add regularization, augment data</text><rect fill="#FFFFFF" height="108.075" rx="39.0625" ry="39.0625" style="stroke:#000000;stroke-width:3.125;" width="352.7954" x="108.2245" y="2081.7673"/><text fill="#000000" font-family="Verdana" font-size="37.5" lengthAdjust="spacing" textLength="290.2954" x="139.4745" y="2150.7187">Optimize Model</text><path d="M584.5581,2232.0526 L584.5581,2309.2369 L522.0581,2321.7369 L584.5581,2334.2369 L584.5581,2411.4212 A0,0 0 0 0 584.5581,2411.4212 L1148.3154,2411.4212 A0,0 0 0 0 1148.3154,2411.4212 L1148.3154,2263.3026 L1117.0654,2232.0526 L584.5581,2232.0526 A0,0 0 0 0 584.5581,2232.0526" fill="#FFFFFF" style="stroke:#000000;stroke-width:3.125;"/><path d="M1117.0654,2232.0526 L1117.0654,2263.3026 L1148.3154,2263.3026 L1117.0654,2232.0526" fill="#FFFFFF" style="stroke:#000000;stroke-width:3.125;"/><text fill="#000000" font-family="Verdana" font-size="40.625" lengthAdjust="spacing" textLength="421.3455" x="603.3081" y="2288.5208">- Adjust architecture</text><text fill="#000000" font-family="Verdana" font-size="40.625" lengthAdjust="spacing" textLength="498.1323" x="603.3081" y="2337.8937">- Tune hyperparameters</text><text fill="#000000" font-family="Verdana" font-size="40.625" lengthAdjust="spacing" textLength="453.1036" x="603.3081" y="2387.2665">- Try transfer learning</text><rect fill="#FFFFFF" height="108.075" rx="39.0625" ry="39.0625" style="stroke:#000000;stroke-width:3.125;" width="474.8718" x="47.1863" y="2267.6994"/><text fill="#000000" font-family="Verdana" font-size="37.5" lengthAdjust="spacing" textLength="412.3718" x="78.4363" y="2336.6508">Fine-Tune and Iterate</text><path d="M505.0629,2442.6712 L505.0629,2519.8555 L442.5629,2532.3555 L505.0629,2544.8555 L505.0629,2622.0398 A0,0 0 0 0 505.0629,2622.0398 L1149.1974,2622.0398 A0,0 0 0 0 1149.1974,2622.0398 L1149.1974,2473.9212 L1117.9474,2442.6712 L505.0629,2442.6712 A0,0 0 0 0 505.0629,2442.6712" fill="#FFFFFF" style="stroke:#000000;stroke-width:3.125;"/><path d="M1117.9474,2442.6712 L1117.9474,2473.9212 L1149.1974,2473.9212 L1117.9474,2442.6712" fill="#FFFFFF" style="stroke:#000000;stroke-width:3.125;"/><text fill="#000000" font-family="Verdana" font-size="40.625" lengthAdjust="spacing" textLength="578.5095" x="523.8129" y="2499.1394">- Save and document model</text><text fill="#000000" font-family="Verdana" font-size="40.625" lengthAdjust="spacing" textLength="437.3734" x="523.8129" y="2548.5123">- Compress if needed</text><text fill="#000000" font-family="Verdana" font-size="40.625" lengthAdjust="spacing" textLength="508.5861" x="523.8129" y="2597.8851">- Build inference pipeline</text><rect fill="#FFFFFF" height="108.075" rx="39.0625" ry="39.0625" style="stroke:#000000;stroke-width:3.125;" width="315.8813" x="126.6815" y="2478.318"/><text fill="#000000" font-family="Verdana" font-size="37.5" lengthAdjust="spacing" textLength="253.3813" x="157.9315" y="2547.2694">Deploy Model</text><ellipse cx="284.6222" cy="2718.9148" fill="none" rx="34.375" ry="34.375" style="stroke:#000000;stroke-width:3.125;"/><ellipse cx="284.6222" cy="2718.9148" fill="#FFFFFF" rx="18.75" ry="18.75" style="stroke:#000000;stroke-width:3.125;"/><line style="stroke:#000000;stroke-width:3.125;" x1="284.6222" x2="284.6222" y1="78.125" y2="169.7083"/><polygon fill="#000000" points="272.1222,138.4583,284.6222,169.7083,297.1222,138.4583,284.6222,150.9583" style="stroke:#000000;stroke-width:3.125;"/><line style="stroke:#000000;stroke-width:3.125;" x1="284.6222" x2="284.6222" y1="277.7832" y2="429.6997"/><polygon fill="#000000" points="272.1222,398.4497,284.6222,429.6997,297.1222,398.4497,284.6222,410.9497" style="stroke:#000000;stroke-width:3.125;"/><line style="stroke:#000000;stroke-width:3.125;" x1="284.6222" x2="284.6222" y1="537.7747" y2="660.6079"/><polygon fill="#000000" points="272.1222,629.3579,284.6222,660.6079,297.1222,629.3579,284.6222,641.8579" style="stroke:#000000;stroke-width:3.125;"/><line style="stroke:#000000;stroke-width:3.125;" x1="284.6222" x2="284.6222" y1="768.6829" y2="884.9525"/><polygon fill="#000000" points="272.1222,853.7025,284.6222,884.9525,297.1222,853.7025,284.6222,866.2025" style="stroke:#000000;stroke-width:3.125;"/><line style="stroke:#000000;stroke-width:3.125;" x1="284.6222" x2="284.6222" y1="993.0275" y2="1169.6304"/><polygon fill="#000000" points="272.1222,1138.3804,284.6222,1169.6304,297.1222,1138.3804,284.6222,1150.8804" style="stroke:#000000;stroke-width:3.125;"/><line style="stroke:#000000;stroke-width:3.125;" x1="284.6222" x2="284.6222" y1="1277.7054" y2="1404.9355"/><polygon fill="#000000" points="272.1222,1373.6855,284.6222,1404.9355,297.1222,1373.6855,284.6222,1386.1855" style="stroke:#000000;stroke-width:3.125;"/><line style="stroke:#000000;stroke-width:3.125;" x1="284.6222" x2="284.6222" y1="1513.0104" y2="1615.554"/><polygon fill="#000000" points="272.1222,1584.304,284.6222,1615.554,297.1222,1584.304,284.6222,1596.804" style="stroke:#000000;stroke-width:3.125;"/><line style="stroke:#000000;stroke-width:3.125;" x1="284.6222" x2="284.6222" y1="1723.629" y2="1850.8591"/><polygon fill="#000000" points="272.1222,1819.6091,284.6222,1850.8591,297.1222,1819.6091,284.6222,1832.1091" style="stroke:#000000;stroke-width:3.125;"/><line style="stroke:#000000;stroke-width:3.125;" x1="284.6222" x2="284.6222" y1="1958.934" y2="2081.7673"/><polygon fill="#000000" points="272.1222,2050.5173,284.6222,2081.7673,297.1222,2050.5173,284.6222,2063.0173" style="stroke:#000000;stroke-width:3.125;"/><line style="stroke:#000000;stroke-width:3.125;" x1="284.6222" x2="284.6222" y1="2189.8422" y2="2267.6994"/><polygon fill="#000000" points="272.1222,2236.4494,284.6222,2267.6994,297.1222,2236.4494,284.6222,2248.9494" style="stroke:#000000;stroke-width:3.125;"/><line style="stroke:#000000;stroke-width:3.125;" x1="284.6222" x2="284.6222" y1="2375.7744" y2="2478.318"/><polygon fill="#000000" points="272.1222,2447.068,284.6222,2478.318,297.1222,2447.068,284.6222,2459.568" style="stroke:#000000;stroke-width:3.125;"/><line style="stroke:#000000;stroke-width:3.125;" x1="284.6222" x2="284.6222" y1="2586.393" y2="2684.5398"/><polygon fill="#000000" points="272.1222,2653.2898,284.6222,2684.5398,297.1222,2653.2898,284.6222,2665.7898" style="stroke:#000000;stroke-width:3.125;"/><!--SRC=[RLHPRjim4FtNAQPVJG4xSRe4HVlbEai3f4bG9_qVKoEB3KKIND8u1-W1UiIUf3EK7LYk0GEMHYJdRSFNIIT3S4fHBwssIq2OvPXS1xFhQsXSW7c7nepd2ddPPOTBWfd167MZ5IRjRFKgjTGHU8FQLl51Muy1EwYzXdUJIHKJXbHLdqwfqPRWDhY5eUvpPLqY27hPfchC_HE5JhudZ0zSc5C2cxi51N0DAEb8aUkprhb8e0kGg9-fR2udUmgCjqEh29OEJQp8rY1jkFlC6KCg0NBfDX13PDAOS0V71JAP00ONPAZksqZRkJSwWRR9GGhCy-WHpL6YcE203fU78_Wu6H_BxmqllXOKXh6D850i_ottDG9xWKO0yggfzsO5DMC0pCkEREhbt0BTkrASc0RLwiGCSg01valhSu8hN37ilx__mCpPn_urblTRvupuAi-dP5axURh9YRTjzvfJqUVhYcKi1eeZSKUUAy9GKXAGgslgayF9v5XuVy6asc8A71oVZ4_UI_769zrnAS31jCRkQ7vnAkKh5oCqsQh2UGndtgasmi474P5Lt4BM2_MTbjbWqCz5fTtu1ETTJYyOxDe1N9z-zHP-aQo5cXIkf1y6FfI3xZtp6IQbyvgz-kPgCl_5j2JDRJYjWsfsoAn3IXoIN200gncq6YJoJdAqjql_XNULg8dSaQJ-WodL8ZmXSoHHZAltt8c7qonGFR20D20s0jMIUl2Eeykl0rtFUdXKPk9EihmFpCigmIEBUYoYKkRgcXYRgrGEg5OZE3yU0ILrA3PVaAMI5ULiasEH0dd7az3HCPSn0H-eraMyWKARwEp1TTd0lQrvu7LActHhgmAXgC7O33tfj0A-lufEKNRSF0utO5tpW6x7QhGPnJANsrZEsVVnNRQzMfUfiDgHQbh_vAiJS6jKnKtPr0x7gfYy4dzjREI-MS_LSFYzSQkzdipniSTHEvKBt4vMhMtXEoU2Ri0IrLJBJ6Hj-2wpt8daSlJQ4zy9jDLDybBz0m00]--></g></svg>
