<svg xmlns="http://www.w3.org/2000/svg" xmlns:xlink="http://www.w3.org/1999/xlink" contentStyleType="text/css" data-diagram-type="ACTIVITY" height="3165.625px" preserveAspectRatio="none" style="width:3425px;height:3165px;background:#FFFFFF;" version="1.1" viewBox="0 0 3425 3165" width="3425px" zoomAndPan="magnify"><defs/><g><ellipse cx="1568.5623" cy="46.875" fill="#FFFFFF" rx="31.25" ry="31.25" style="stroke:#000000;stroke-width:3.125;"/><rect fill="#FFFFFF" height="199.2249" rx="39.0625" ry="39.0625" style="stroke:#000000;stroke-width:3.125;" width="556.9031" x="1290.1108" y="140.625"/><text fill="#000000" font-family="Verdana" font-size="37.5" lengthAdjust="spacing" textLength="494.4031" x="1321.3608" y="209.5764">Given: Original Statement</text><text fill="#000000" font-family="Verdana" font-size="37.5" lengthAdjust="spacing" textLength="115.9973" x="1492.7475" y="255.1514">P &#8594; Q</text><text fill="#000000" font-family="Verdana" font-size="37.5" lengthAdjust="spacing" textLength="239.2822" x="1426.8295" y="300.7263">(If P then Q)</text><path d="M1926.6891,371.0999 L1926.6891,522.3434 L1864.1891,534.8434 L1926.6891,547.3434 L1926.6891,698.587 A0,0 0 0 0 1926.6891,698.587 L2567.7689,698.587 A0,0 0 0 0 2567.7689,698.587 L2567.7689,402.3499 L2536.5189,371.0999 L1926.6891,371.0999 A0,0 0 0 0 1926.6891,371.0999" fill="#FFFFFF" style="stroke:#000000;stroke-width:3.125;"/><path d="M2536.5189,371.0999 L2536.5189,402.3499 L2567.7689,402.3499 L2536.5189,371.0999" fill="#FFFFFF" style="stroke:#000000;stroke-width:3.125;"/><text fill="#000000" font-family="Verdana" font-size="40.625" font-weight="bold" lengthAdjust="spacing" textLength="448.085" x="1945.4391" y="427.5681">Logical Equivalence</text><text fill="#000000" font-family="Verdana" font-size="40.625" lengthAdjust="spacing" textLength="379.6295" x="1945.4391" y="476.9409">P &#8594; Q &#8801; &#172;Q &#8594; &#172;P</text><text fill="#000000" font-family="Verdana" font-size="40.625" lengthAdjust="spacing" textLength="14.2822" x="1945.4391" y="526.3138">&#160;</text><text fill="#000000" font-family="Verdana" font-size="40.625" lengthAdjust="spacing" textLength="575.4547" x="1945.4391" y="575.6866">The contrapositive is always</text><text fill="#000000" font-family="Verdana" font-size="40.625" lengthAdjust="spacing" textLength="525.4669" x="1945.4391" y="625.0595">logically equivalent to the</text><text fill="#000000" font-family="Verdana" font-size="40.625" lengthAdjust="spacing" textLength="372.3495" x="1945.4391" y="674.4324">original statement</text><rect fill="#FFFFFF" height="199.2249" rx="39.0625" ry="39.0625" style="stroke:#000000;stroke-width:3.125;" width="591.2537" x="1272.9355" y="435.231"/><text fill="#000000" font-family="Verdana" font-size="37.5" lengthAdjust="spacing" textLength="528.7537" x="1304.1855" y="504.1824">Transform to Contrapositive</text><text fill="#000000" font-family="Verdana" font-size="37.5" lengthAdjust="spacing" textLength="177.3743" x="1462.3886" y="549.7574">&#172;Q &#8594; &#172;P</text><text fill="#000000" font-family="Verdana" font-size="37.5" lengthAdjust="spacing" textLength="388.1836" x="1356.9199" y="595.3323">(If not Q then not P)</text><rect fill="#FFFFFF" height="153.6499" rx="39.0625" ry="39.0625" style="stroke:#000000;stroke-width:3.125;" width="579.8096" x="1278.6575" y="761.087"/><text fill="#000000" font-family="Verdana" font-size="37.5" lengthAdjust="spacing" textLength="517.3096" x="1309.9075" y="830.0385">Assume the antecedent &#172;Q</text><text fill="#000000" font-family="Verdana" font-size="37.5" lengthAdjust="spacing" textLength="422.4426" x="1309.9075" y="875.6134">(negation of Q is true)</text><rect fill="#FFFFFF" height="290.3748" rx="39.0625" ry="39.0625" style="stroke:#000000;stroke-width:3.125;" width="760.9924" x="1188.0661" y="1114.7369"/><text fill="#000000" font-family="Verdana" font-size="37.5" lengthAdjust="spacing" textLength="698.4924" x="1219.3161" y="1183.6884">Apply logical reasoning to derive &#172;P:</text><text fill="#000000" font-family="Verdana" font-size="37.5" lengthAdjust="spacing" textLength="540.1978" x="1219.3161" y="1229.2633">&#8226; Use definitions and axioms</text><text fill="#000000" font-family="Verdana" font-size="37.5" lengthAdjust="spacing" textLength="465.9119" x="1219.3161" y="1274.8383">&#8226; Apply known theorems</text><text fill="#000000" font-family="Verdana" font-size="37.5" lengthAdjust="spacing" textLength="663.7207" x="1219.3161" y="1320.4132">&#8226; Perform mathematical operations</text><text fill="#000000" font-family="Verdana" font-size="37.5" lengthAdjust="spacing" textLength="537.3596" x="1219.3161" y="1365.9882">&#8226; Use logical deduction rules</text><path d="M15.625,1436.3617 L15.625,1763.8489 L1315.8493,1763.8489 L1315.8493,1467.6117 L1284.5993,1436.3617 L15.625,1436.3617" fill="#FFFFFF" style="stroke:#000000;stroke-width:3.125;"/><path d="M1284.5993,1436.3617 L1284.5993,1467.6117 L1315.8493,1467.6117 L1284.5993,1436.3617" fill="#FFFFFF" style="stroke:#000000;stroke-width:3.125;"/><text fill="#000000" font-family="Verdana" font-size="40.625" font-weight="bold" lengthAdjust="spacing" textLength="958.7738" x="34.375" y="1492.8299">When Contrapositive Method is Preferred:</text><text fill="#000000" font-family="Verdana" font-size="40.625" lengthAdjust="spacing" textLength="869.2123" x="34.375" y="1542.2028">&#8226; Direct proof P &#8594; Q is complex or unclear</text><text fill="#000000" font-family="Verdana" font-size="40.625" lengthAdjust="spacing" textLength="1009.6741" x="34.375" y="1591.5756">&#8226; Working with negations &#172;Q, &#172;P is more natural</text><text fill="#000000" font-family="Verdana" font-size="40.625" lengthAdjust="spacing" textLength="1079.7958" x="34.375" y="1640.9485">&#8226; Q contains "not" statements or negative conditions</text><text fill="#000000" font-family="Verdana" font-size="40.625" lengthAdjust="spacing" textLength="1099.3149" x="34.375" y="1690.3214">&#8226; P involves existence claims that are hard to assume</text><text fill="#000000" font-family="Verdana" font-size="40.625" lengthAdjust="spacing" textLength="1234.5993" x="34.375" y="1739.6942">&#8226; Mathematical inequalities with "greater than" relationships</text><path d="M1821.2753,1436.3617 L1821.2753,2109.4589 L2899.5499,2109.4589 L2899.5499,1467.6117 L2868.2999,1436.3617 L1821.2753,1436.3617" fill="#FFFFFF" style="stroke:#000000;stroke-width:3.125;"/><path d="M2868.2999,1436.3617 L2868.2999,1467.6117 L2899.5499,1467.6117 L2868.2999,1436.3617" fill="#FFFFFF" style="stroke:#000000;stroke-width:3.125;"/><text fill="#000000" font-family="Verdana" font-size="40.625" font-weight="bold" lengthAdjust="spacing" textLength="380.9586" x="1840.0253" y="1492.8299">Classic Example:</text><text fill="#000000" font-family="Verdana" font-size="40.625" font-weight="bold" lengthAdjust="spacing" textLength="197.2137" x="1840.0253" y="1542.2028">Original:</text><text fill="#000000" font-family="Verdana" font-size="40.625" lengthAdjust="spacing" textLength="526.3794" x="2051.5213" y="1542.2028">If n&#178; is odd, then n is odd</text><text fill="#000000" font-family="Verdana" font-size="40.625" lengthAdjust="spacing" textLength="14.2822" x="1840.0253" y="1591.5756">&#160;</text><text fill="#000000" font-family="Verdana" font-size="40.625" font-weight="bold" lengthAdjust="spacing" textLength="348.4665" x="1840.0253" y="1640.9485">Contrapositive:</text><text fill="#000000" font-family="Verdana" font-size="40.625" lengthAdjust="spacing" textLength="572.1222" x="2202.774" y="1640.9485">If n is even, then n&#178; is even</text><text fill="#000000" font-family="Verdana" font-size="40.625" lengthAdjust="spacing" textLength="14.2822" x="1840.0253" y="1690.3214">&#160;</text><text fill="#000000" font-family="Verdana" font-size="40.625" font-weight="bold" lengthAdjust="spacing" textLength="544.1925" x="1840.0253" y="1739.6942">Proof of Contrapositive:</text><text fill="#000000" font-family="Verdana" font-size="40.625" lengthAdjust="spacing" textLength="358.5434" x="1840.0253" y="1789.0671">Assume n is even</text><text fill="#000000" font-family="Verdana" font-size="40.625" lengthAdjust="spacing" textLength="583.1909" x="1840.0253" y="1838.4399">&#8756; n = 2k for some integer k</text><text fill="#000000" font-family="Verdana" font-size="40.625" lengthAdjust="spacing" textLength="603.3447" x="1840.0253" y="1887.8128">&#8756; n&#178; = (2k)&#178; = 4k&#178; = 2(2k&#178;)</text><text fill="#000000" font-family="Verdana" font-size="40.625" lengthAdjust="spacing" textLength="995.7489" x="1840.0253" y="1937.1857">Since 2k&#178; is an integer, n&#178; = 2m where m = 2k&#178;</text><text fill="#000000" font-family="Verdana" font-size="40.625" lengthAdjust="spacing" textLength="261.6623" x="1840.0253" y="1986.5585">&#8756; n&#178; is even</text><text fill="#000000" font-family="Verdana" font-size="40.625" lengthAdjust="spacing" textLength="14.2822" x="1840.0253" y="2035.9314">&#160;</text><text fill="#000000" font-family="Verdana" font-size="40.625" font-weight="bold" lengthAdjust="spacing" textLength="264.122" x="1840.0253" y="2085.3043">Conclusion:</text><text fill="#000000" font-family="Verdana" font-size="40.625" lengthAdjust="spacing" textLength="734.2453" x="2118.4296" y="2085.3043">Original statement is proven true &#8718;</text><polygon fill="#FFFFFF" points="1353.3493,2109.4589,1783.7753,2109.4589,1821.2753,2146.9589,1783.7753,2184.4589,1353.3493,2184.4589,1315.8493,2146.9589,1353.3493,2109.4589" style="stroke:#000000;stroke-width:3.125;"/><text fill="#000000" font-family="Verdana" font-size="34.375" lengthAdjust="spacing" textLength="430.426" x="1353.3493" y="2160.63">Successfully derived &#172;P?</text><text fill="#000000" font-family="Verdana" font-size="34.375" lengthAdjust="spacing" textLength="59.5352" x="1256.3141" y="2139.7415">Yes</text><text fill="#000000" font-family="Verdana" font-size="34.375" lengthAdjust="spacing" textLength="46.5775" x="1821.2753" y="2139.7415">No</text><rect fill="#FFFFFF" height="108.075" rx="39.0625" ry="39.0625" style="stroke:#000000;stroke-width:3.125;" width="628.6072" x="762.7769" y="2215.7089"/><text fill="#000000" font-family="Verdana" font-size="37.5" lengthAdjust="spacing" textLength="566.1072" x="794.0269" y="2284.6603">Conclude: &#172;Q &#8594; &#172;P is proven</text><path d="M136.8889,2400.6088 L136.8889,2728.096 A0,0 0 0 0 136.8889,2728.096 L693.9415,2728.096 A0,0 0 0 0 693.9415,2728.096 L693.9415,2576.8524 L756.4415,2564.3524 L693.9415,2551.8524 L693.9415,2431.8588 L662.6915,2400.6088 L136.8889,2400.6088 A0,0 0 0 0 136.8889,2400.6088" fill="#FFFFFF" style="stroke:#000000;stroke-width:3.125;"/><path d="M662.6915,2400.6088 L662.6915,2431.8588 L693.9415,2431.8588 L662.6915,2400.6088" fill="#FFFFFF" style="stroke:#000000;stroke-width:3.125;"/><text fill="#000000" font-family="Verdana" font-size="40.625" font-weight="bold" lengthAdjust="spacing" textLength="351.8188" x="155.6389" y="2457.077">Proof Complete</text><text fill="#000000" font-family="Verdana" font-size="40.625" lengthAdjust="spacing" textLength="491.4276" x="155.6389" y="2506.4499">Since the contrapositive</text><text fill="#000000" font-family="Verdana" font-size="40.625" lengthAdjust="spacing" textLength="463.3789" x="155.6389" y="2555.8228">is proven true, and it's</text><text fill="#000000" font-family="Verdana" font-size="40.625" lengthAdjust="spacing" textLength="445.2682" x="155.6389" y="2605.1956">logically equivalent to</text><text fill="#000000" font-family="Verdana" font-size="40.625" lengthAdjust="spacing" textLength="491.1697" x="155.6389" y="2654.5685">the original, the original</text><text fill="#000000" font-family="Verdana" font-size="40.625" lengthAdjust="spacing" textLength="409.3445" x="155.6389" y="2703.9413">statement is proven</text><rect fill="#FFFFFF" height="153.6499" rx="39.0625" ry="39.0625" style="stroke:#000000;stroke-width:3.125;" width="641.2781" x="756.4415" y="2487.5275"/><text fill="#000000" font-family="Verdana" font-size="37.5" lengthAdjust="spacing" textLength="461.0596" x="787.6915" y="2556.4789">Therefore: P &#8594; Q is true</text><text fill="#000000" font-family="Verdana" font-size="37.5" lengthAdjust="spacing" textLength="578.7781" x="787.6915" y="2602.0538">(Original statement proven) &#8718;</text><ellipse cx="1077.0805" cy="2871.846" fill="none" rx="34.375" ry="34.375" style="stroke:#000000;stroke-width:3.125;"/><ellipse cx="1077.0805" cy="2871.846" fill="#FFFFFF" rx="18.75" ry="18.75" style="stroke:#000000;stroke-width:3.125;"/><rect fill="#FFFFFF" height="153.6499" rx="39.0625" ry="39.0625" style="stroke:#000000;stroke-width:3.125;" width="558.7891" x="1780.6496" y="2215.7089"/><text fill="#000000" font-family="Verdana" font-size="37.5" lengthAdjust="spacing" textLength="466.1682" x="1811.8996" y="2284.6603">Review assumptions and</text><text fill="#000000" font-family="Verdana" font-size="37.5" lengthAdjust="spacing" textLength="496.2891" x="1811.8996" y="2330.2353">apply additional reasoning</text><polygon fill="#FFFFFF" points="1837.043,2446.1838,2283.0452,2446.1838,2320.5452,2483.6838,2283.0452,2521.1838,1837.043,2521.1838,1799.543,2483.6838,1837.043,2446.1838" style="stroke:#000000;stroke-width:3.125;"/><text fill="#000000" font-family="Verdana" font-size="34.375" lengthAdjust="spacing" textLength="446.0022" x="1837.043" y="2497.3549">Found error in reasoning?</text><text fill="#000000" font-family="Verdana" font-size="34.375" lengthAdjust="spacing" textLength="59.5352" x="1740.0078" y="2476.4664">Yes</text><text fill="#000000" font-family="Verdana" font-size="34.375" lengthAdjust="spacing" textLength="46.5775" x="2320.5452" y="2476.4664">No</text><rect fill="#FFFFFF" height="108.075" rx="39.0625" ry="39.0625" style="stroke:#000000;stroke-width:3.125;" width="512.6648" x="1491.4696" y="2552.4338"/><text fill="#000000" font-family="Verdana" font-size="37.5" lengthAdjust="spacing" textLength="450.1648" x="1522.7196" y="2621.3852">Correct the logical error</text><path d="M2740.4381,2552.4338 L2740.4381,2678.9909 L2677.9381,2691.4909 L2740.4381,2703.9909 L2740.4381,2830.5481 A0,0 0 0 0 2740.4381,2830.5481 L3315.6807,2830.5481 A0,0 0 0 0 3315.6807,2830.5481 L3315.6807,2583.6838 L3284.4307,2552.4338 L2740.4381,2552.4338 A0,0 0 0 0 2740.4381,2552.4338" fill="#FFFFFF" style="stroke:#000000;stroke-width:3.125;"/><path d="M3284.4307,2552.4338 L3284.4307,2583.6838 L3315.6807,2583.6838 L3284.4307,2552.4338" fill="#FFFFFF" style="stroke:#000000;stroke-width:3.125;"/><text fill="#000000" font-family="Verdana" font-size="40.625" lengthAdjust="spacing" textLength="196.3409" x="2759.1881" y="2608.902">Consider:</text><text fill="#000000" font-family="Verdana" font-size="40.625" lengthAdjust="spacing" textLength="278.1265" x="2759.1881" y="2658.2748">&#8226; Direct proof</text><text fill="#000000" font-family="Verdana" font-size="40.625" lengthAdjust="spacing" textLength="484.2072" x="2759.1881" y="2707.6477">&#8226; Proof by contradiction</text><text fill="#000000" font-family="Verdana" font-size="40.625" lengthAdjust="spacing" textLength="509.6176" x="2759.1881" y="2757.0206">&#8226; Mathematical induction</text><text fill="#000000" font-family="Verdana" font-size="40.625" lengthAdjust="spacing" textLength="412.4786" x="2759.1881" y="2806.3934">&#8226; Constructive proof</text><rect fill="#FFFFFF" height="199.2249" rx="39.0625" ry="39.0625" style="stroke:#000000;stroke-width:3.125;" width="611.3037" x="2066.6344" y="2591.8785"/><text fill="#000000" font-family="Verdana" font-size="37.5" lengthAdjust="spacing" textLength="495.0256" x="2097.8844" y="2660.8299">Cannot prove &#172;P from &#172;Q</text><text fill="#000000" font-family="Verdana" font-size="37.5" lengthAdjust="spacing" textLength="451.6846" x="2097.8844" y="2706.4049">Statement may be false</text><text fill="#000000" font-family="Verdana" font-size="37.5" lengthAdjust="spacing" textLength="548.8037" x="2097.8844" y="2751.9798">or different approach needed</text><ellipse cx="2372.2862" cy="2974.2981" fill="none" rx="34.375" ry="34.375" style="stroke:#000000;stroke-width:3.125;"/><ellipse cx="2372.2862" cy="2974.2981" fill="#FFFFFF" rx="18.75" ry="18.75" style="stroke:#000000;stroke-width:3.125;"/><polygon fill="#FFFFFF" points="1568.5623,977.2369,1606.0623,1014.7369,1568.5623,1052.2369,1531.0623,1014.7369,1568.5623,977.2369" style="stroke:#000000;stroke-width:3.125;"/><polygon fill="#FFFFFF" points="1428.8719,3071.1731,1708.2527,3071.1731,1745.7527,3108.6731,1708.2527,3146.1731,1428.8719,3146.1731,1391.3719,3108.6731,1428.8719,3071.1731" style="stroke:#000000;stroke-width:3.125;"/><text fill="#000000" font-family="Verdana" font-size="34.375" lengthAdjust="spacing" textLength="279.3808" x="1428.8719" y="3122.3442">Error corrected?</text><text fill="#000000" font-family="Verdana" font-size="34.375" lengthAdjust="spacing" textLength="59.5352" x="1745.7527" y="3101.4557">Yes</text><line style="stroke:#000000;stroke-width:3.125;" x1="1568.5623" x2="1568.5623" y1="78.125" y2="140.625"/><polygon fill="#000000" points="1556.0623,109.375,1568.5623,140.625,1581.0623,109.375,1568.5623,121.875" style="stroke:#000000;stroke-width:3.125;"/><line style="stroke:#000000;stroke-width:3.125;" x1="1568.5623" x2="1568.5623" y1="339.8499" y2="435.231"/><polygon fill="#000000" points="1556.0623,403.981,1568.5623,435.231,1581.0623,403.981,1568.5623,416.481" style="stroke:#000000;stroke-width:3.125;"/><line style="stroke:#000000;stroke-width:3.125;" x1="1568.5623" x2="1568.5623" y1="634.4559" y2="761.087"/><polygon fill="#000000" points="1556.0623,729.837,1568.5623,761.087,1581.0623,729.837,1568.5623,742.337" style="stroke:#000000;stroke-width:3.125;"/><line style="stroke:#000000;stroke-width:3.125;" x1="1077.0805" x2="1077.0805" y1="2323.7839" y2="2487.5275"/><polygon fill="#000000" points="1064.5805,2456.2775,1077.0805,2487.5275,1089.5805,2456.2775,1077.0805,2468.7775" style="stroke:#000000;stroke-width:3.125;"/><line style="stroke:#000000;stroke-width:3.125;" x1="1077.0805" x2="1077.0805" y1="2641.1774" y2="2837.471"/><polygon fill="#000000" points="1064.5805,2806.221,1077.0805,2837.471,1089.5805,2806.221,1077.0805,2818.721" style="stroke:#000000;stroke-width:3.125;"/><line style="stroke:#000000;stroke-width:3.125;" x1="2372.2862" x2="2372.2862" y1="2791.1034" y2="2939.9231"/><polygon fill="#000000" points="2359.7862,2908.6731,2372.2862,2939.9231,2384.7862,2908.6731,2372.2862,2921.1731" style="stroke:#000000;stroke-width:3.125;"/><line style="stroke:#000000;stroke-width:3.125;" x1="1799.543" x2="1747.802" y1="2483.6838" y2="2483.6838"/><line style="stroke:#000000;stroke-width:3.125;" x1="1747.802" x2="1747.802" y1="2483.6838" y2="2552.4338"/><polygon fill="#000000" points="1735.302,2521.1838,1747.802,2552.4338,1760.302,2521.1838,1747.802,2533.6838" style="stroke:#000000;stroke-width:3.125;"/><line style="stroke:#000000;stroke-width:3.125;" x1="2320.5452" x2="2372.2862" y1="2483.6838" y2="2483.6838"/><line style="stroke:#000000;stroke-width:3.125;" x1="2372.2862" x2="2372.2862" y1="2483.6838" y2="2591.8785"/><polygon fill="#000000" points="2359.7862,2560.6285,2372.2862,2591.8785,2384.7862,2560.6285,2372.2862,2573.1285" style="stroke:#000000;stroke-width:3.125;"/><line style="stroke:#000000;stroke-width:3.125;" x1="1747.802" x2="1747.802" y1="2660.5087" y2="3024.2981"/><line style="stroke:#000000;stroke-width:3.125;" x1="1747.802" x2="1568.5623" y1="3024.2981" y2="3024.2981"/><line style="stroke:#000000;stroke-width:3.125;" x1="1568.5623" x2="1568.5623" y1="3024.2981" y2="3071.1731"/><polygon fill="#000000" points="1556.0623,3039.9231,1568.5623,3071.1731,1581.0623,3039.9231,1568.5623,3052.4231" style="stroke:#000000;stroke-width:3.125;"/><line style="stroke:#000000;stroke-width:3.125;" x1="2060.0441" x2="2060.0441" y1="2369.3588" y2="2446.1838"/><polygon fill="#000000" points="2047.5441,2414.9338,2060.0441,2446.1838,2072.5441,2414.9338,2060.0441,2427.4338" style="stroke:#000000;stroke-width:3.125;"/><line style="stroke:#000000;stroke-width:3.125;" x1="1315.8493" x2="1077.0805" y1="2146.9589" y2="2146.9589"/><line style="stroke:#000000;stroke-width:3.125;" x1="1077.0805" x2="1077.0805" y1="2146.9589" y2="2215.7089"/><polygon fill="#000000" points="1064.5805,2184.4589,1077.0805,2215.7089,1089.5805,2184.4589,1077.0805,2196.9589" style="stroke:#000000;stroke-width:3.125;"/><line style="stroke:#000000;stroke-width:3.125;" x1="1821.2753" x2="2060.0441" y1="2146.9589" y2="2146.9589"/><line style="stroke:#000000;stroke-width:3.125;" x1="2060.0441" x2="2060.0441" y1="2146.9589" y2="2215.7089"/><polygon fill="#000000" points="2047.5441,2184.4589,2060.0441,2215.7089,2072.5441,2184.4589,2060.0441,2196.9589" style="stroke:#000000;stroke-width:3.125;"/><line style="stroke:#000000;stroke-width:3.125;" x1="1568.5623" x2="1568.5623" y1="1405.1117" y2="2109.4589"/><polygon fill="#000000" points="1556.0623,2078.2089,1568.5623,2109.4589,1581.0623,2078.2089,1568.5623,2090.7089" style="stroke:#000000;stroke-width:3.125;"/><line style="stroke:#000000;stroke-width:3.125;" x1="1568.5623" x2="1568.5623" y1="1052.2369" y2="1114.7369"/><polygon fill="#000000" points="1556.0623,1083.4869,1568.5623,1114.7369,1581.0623,1083.4869,1568.5623,1095.9869" style="stroke:#000000;stroke-width:3.125;"/><line style="stroke:#000000;stroke-width:3.125;" x1="1745.7527" x2="3359.4307" y1="3108.6731" y2="3108.6731"/><polygon fill="#000000" points="3346.9307,2088.9175,3359.4307,2057.6675,3371.9307,2088.9175,3359.4307,2076.4175" style="stroke:#000000;stroke-width:3.125;"/><line style="stroke:#000000;stroke-width:3.125;" x1="3359.4307" x2="3359.4307" y1="1014.7369" y2="3108.6731"/><line style="stroke:#000000;stroke-width:3.125;" x1="3359.4307" x2="1606.0623" y1="1014.7369" y2="1014.7369"/><polygon fill="#000000" points="1637.3123,1002.2369,1606.0623,1014.7369,1637.3123,1027.2369,1624.8123,1014.7369" style="stroke:#000000;stroke-width:3.125;"/><line style="stroke:#000000;stroke-width:3.125;" x1="1568.5623" x2="1568.5623" y1="914.7369" y2="977.2369"/><polygon fill="#000000" points="1556.0623,945.9869,1568.5623,977.2369,1581.0623,945.9869,1568.5623,958.4869" style="stroke:#000000;stroke-width:3.125;"/><!--SRC=[TLN1Rjj64BtpAwQ-H1PS871xaf4MWUCM1Uh4gbC41NpPa4Df8MgNtLtAzgsd8htqq3zeppaP_G9zYh-aRtQN5EcakeZapCwycVTczekmvYrJsoXjYcT1XuRft9hWL6kz3dh7TEMihUcImzfMf0szqhvq79WkbHnMGPU-y1jjMkNKbgfMqrVFdnS-A1UAOl4zOfW5lN5wfOrgw3geW9Gct1WQ_wxeyVU_Q7duElkXnaUaCBGyFaEajquPNrktfM2VW9p6sdzSnc3xZrV98A6C3RHCuUJnIaBYWGd0rg4Wciz_j2jT0kB5hvtUgOPDoVDvCK2Znp_-7iSkO7gxPYgd_TAUL7EhxZtCJOhOt1FtCOEW1mnORTyJt_UaO5C9F4QvBxtlG0rSIPd09LTo6FblpCpm2dstXi3CKZ86rx5KvBXb9TKiNhOjqcO0v5XvQxHPIVQAdG152GjuFlxs3_ti6LzhRRH4HG60eUwqtVhiaA9jZBqrWiWw7anNx28fsq4Eo6TRTX6X7sNemLHSTMM4xxg6_PaqKjSqk-xAahslEsbO0ba9oc-F4s-pNzWV5qBe0lINJLVnOao8DA9r5dgB8U46UXm37Vnw4dEpqCGtdxG_dpwcnmz_vX1H8WtNeKZQci_JF9pRRTjW2g90v7Uj8PV8rbGFsJn0YzbFOeTrUEQp-N-4agqIjHVBoUGjEnmg6F94oq5EoSksyiGDo9YzjhcNF_5EyoqfqLixy7zZLEHSLLKKnLX4kJV2sNUsGmvspZfP3eFBfvn5rfpZCiGAUZ74esS9xGIN-2iZineBYWJNpcxJ20nh1Bgxf_TCjSBf6mCObQvhq0uJAd1MbMioZEcfCknCQZ_twGT1UGtDBOOlejfNEk9jXVA98OdW_Nqckz9HpnENo_4yQ9CbFt6Hf9136VV6ECcKjynSDcXnIlzfskbshR6sPnUHX3Brc2im036a_d_vpMkBwkl60W-Mm5ZLy_ax8Uh9rk_tlKUfZ7OwhXPHwq_RCXwiCWx57TH97UQJbSi7tbctaRotEWWPQNbvOVAa7zmjffIC2fsBgfPJozXTt4oUZe3uw21pBobId5qSkAJHOIMXtplRxDWJtsaVP9DJYJjkY-5VesCAkTRALR8De-wv-2nf64RL83G2HUX7AmWyi9CevWXgRr8bQztwqUwUzlbmmPmtIAPBkhXJqgZKqFcyNqHu9xcfzW_I45jL9_c-ogz52Z8XgZyZBeonxu-a6F8bdKg2ZOlhoN6OyrKp195cVFWNxo_eT4FOd-Gjx1hNq0h5RtexahoWsUdcE3vylOb_f_YmVv0PJYjHtkAbQFe09_dawHRInQJIDYRQFupYJi2dRU_HQIdtCtjxkbrbVH_O-0y0]--></g></svg>
