<svg xmlns="http://www.w3.org/2000/svg" xmlns:xlink="http://www.w3.org/1999/xlink" contentStyleType="text/css" data-diagram-type="ACTIVITY" height="3518.75px" preserveAspectRatio="none" style="width:4240px;height:3518px;background:#FFFFFF;" version="1.1" viewBox="0 0 4240 3518" width="4240.625px" zoomAndPan="magnify"><defs/><g><ellipse cx="2203.624" cy="46.875" fill="#FFFFFF" rx="31.25" ry="31.25" style="stroke:#000000;stroke-width:3.125;"/><path d="M2549.8856,109.375 L2549.8856,260.6186 L2487.3856,273.1186 L2549.8856,285.6186 L2549.8856,436.8622 A0,0 0 0 0 2549.8856,436.8622 L3421.8613,436.8622 A0,0 0 0 0 3421.8613,436.8622 L3421.8613,140.625 L3390.6113,109.375 L2549.8856,109.375 A0,0 0 0 0 2549.8856,109.375" fill="#FFFFFF" style="stroke:#000000;stroke-width:3.125;"/><path d="M3390.6113,109.375 L3390.6113,140.625 L3421.8613,140.625 L3390.6113,109.375" fill="#FFFFFF" style="stroke:#000000;stroke-width:3.125;"/><text fill="#000000" font-family="Verdana" font-size="40.625" font-weight="bold" lengthAdjust="spacing" textLength="721.9269" x="2568.6356" y="165.8432">Proof by Contradiction Strategy</text><text fill="#000000" font-family="Verdana" font-size="40.625" lengthAdjust="spacing" textLength="593.3273" x="2568.6356" y="215.2161">Assume the opposite of what</text><text fill="#000000" font-family="Verdana" font-size="40.625" lengthAdjust="spacing" textLength="612.5687" x="2568.6356" y="264.5889">you want to prove, then show</text><text fill="#000000" font-family="Verdana" font-size="40.625" lengthAdjust="spacing" textLength="710.1242" x="2568.6356" y="313.9618">this leads to a logical contradiction</text><text fill="#000000" font-family="Verdana" font-size="40.625" lengthAdjust="spacing" textLength="14.2822" x="2568.6356" y="363.3347">&#160;</text><text fill="#000000" font-family="Verdana" font-size="40.625" lengthAdjust="spacing" textLength="806.3507" x="2568.6356" y="412.7075">Also known as "Reductio ad Absurdum"</text><rect fill="#FFFFFF" height="199.2249" rx="39.0625" ry="39.0625" style="stroke:#000000;stroke-width:3.125;" width="567.5232" x="1919.8624" y="173.5062"/><text fill="#000000" font-family="Verdana" font-size="37.5" lengthAdjust="spacing" textLength="505.0232" x="1951.1124" y="242.4576">Given: Statement to Prove</text><text fill="#000000" font-family="Verdana" font-size="37.5" lengthAdjust="spacing" textLength="115.9973" x="2135.6827" y="288.0325">P &#8594; Q</text><text fill="#000000" font-family="Verdana" font-size="37.5" lengthAdjust="spacing" textLength="239.2822" x="2069.7647" y="333.6075">(If P then Q)</text><path d="M763.4521,468.1122 L763.4521,844.9722 A0,0 0 0 0 763.4521,844.9722 L1691.3864,844.9722 A0,0 0 0 0 1691.3864,844.9722 L1691.3864,669.0422 L1753.8864,656.5422 L1691.3864,644.0422 L1691.3864,499.3622 L1660.1364,468.1122 L763.4521,468.1122 A0,0 0 0 0 763.4521,468.1122" fill="#FFFFFF" style="stroke:#000000;stroke-width:3.125;"/><path d="M1660.1364,468.1122 L1660.1364,499.3622 L1691.3864,499.3622 L1660.1364,468.1122" fill="#FFFFFF" style="stroke:#000000;stroke-width:3.125;"/><text fill="#000000" font-family="Verdana" font-size="40.625" font-weight="bold" lengthAdjust="spacing" textLength="367.926" x="782.2021" y="524.5804">Key Assumption</text><text fill="#000000" font-family="Verdana" font-size="40.625" lengthAdjust="spacing" textLength="359.2178" x="782.2021" y="573.9532">We assume both:</text><text fill="#000000" font-family="Verdana" font-size="40.625" lengthAdjust="spacing" textLength="536.1191" x="782.2021" y="623.3261">&#8226; P (the given hypothesis)</text><text fill="#000000" font-family="Verdana" font-size="40.625" lengthAdjust="spacing" textLength="862.3093" x="782.2021" y="672.699">&#8226; &#172;Q (opposite of what we want to prove)</text><text fill="#000000" font-family="Verdana" font-size="40.625" lengthAdjust="spacing" textLength="14.2822" x="782.2021" y="722.0718">&#160;</text><text fill="#000000" font-family="Verdana" font-size="40.625" lengthAdjust="spacing" textLength="609.3353" x="782.2021" y="771.4447">If P &#8594; Q is true, then P &#8743; &#172;Q</text><text fill="#000000" font-family="Verdana" font-size="40.625" lengthAdjust="spacing" textLength="426.5427" x="782.2021" y="820.8176">should be impossible</text><rect fill="#FFFFFF" height="153.6499" rx="39.0625" ry="39.0625" style="stroke:#000000;stroke-width:3.125;" width="899.4751" x="1753.8864" y="579.7173"/><text fill="#000000" font-family="Verdana" font-size="37.5" lengthAdjust="spacing" textLength="618.2922" x="1785.1364" y="648.6687">Assume P is true AND &#172;Q is true</text><text fill="#000000" font-family="Verdana" font-size="37.5" lengthAdjust="spacing" textLength="836.9751" x="1785.1364" y="694.2436">(Hypothesis P and negation of conclusion Q)</text><rect fill="#FFFFFF" height="335.9497" rx="39.0625" ry="39.0625" style="stroke:#000000;stroke-width:3.125;" width="844.9097" x="1781.1691" y="1044.9722"/><text fill="#000000" font-family="Verdana" font-size="37.5" lengthAdjust="spacing" textLength="757.3975" x="1812.4191" y="1113.9236">Apply logical reasoning using P and &#172;Q:</text><text fill="#000000" font-family="Verdana" font-size="37.5" lengthAdjust="spacing" textLength="655.2979" x="1812.4191" y="1159.4986">&#8226; Use given definitions and axioms</text><text fill="#000000" font-family="Verdana" font-size="37.5" lengthAdjust="spacing" textLength="752.6733" x="1812.4191" y="1205.0735">&#8226; Apply known theorems and properties</text><text fill="#000000" font-family="Verdana" font-size="37.5" lengthAdjust="spacing" textLength="643.634" x="1812.4191" y="1250.6485">&#8226; Perform algebraic manipulations</text><text fill="#000000" font-family="Verdana" font-size="37.5" lengthAdjust="spacing" textLength="537.3596" x="1812.4191" y="1296.2234">&#8226; Use logical deduction rules</text><text fill="#000000" font-family="Verdana" font-size="37.5" lengthAdjust="spacing" textLength="782.4097" x="1812.4191" y="1341.7984">&#8226; Derive consequences from assumptions</text><path d="M789.9834,1412.1719 L789.9834,1789.032 L1969.7014,1789.032 L1969.7014,1443.4219 L1938.4514,1412.1719 L789.9834,1412.1719" fill="#FFFFFF" style="stroke:#000000;stroke-width:3.125;"/><path d="M1938.4514,1412.1719 L1938.4514,1443.4219 L1969.7014,1443.4219 L1938.4514,1412.1719" fill="#FFFFFF" style="stroke:#000000;stroke-width:3.125;"/><text fill="#000000" font-family="Verdana" font-size="40.625" font-weight="bold" lengthAdjust="spacing" textLength="956.5521" x="808.7334" y="1468.6401">When Proof by Contradiction is Preferred:</text><text fill="#000000" font-family="Verdana" font-size="40.625" lengthAdjust="spacing" textLength="709.4299" x="808.7334" y="1518.013">&#8226; Direct proof is difficult or unclear</text><text fill="#000000" font-family="Verdana" font-size="40.625" lengthAdjust="spacing" textLength="1073.0118" x="808.7334" y="1567.3859">&#8226; Statement involves "impossibility" or "uniqueness"</text><text fill="#000000" font-family="Verdana" font-size="40.625" lengthAdjust="spacing" textLength="987.5763" x="808.7334" y="1616.7587">&#8226; Dealing with irrational numbers or infinite sets</text><text fill="#000000" font-family="Verdana" font-size="40.625" lengthAdjust="spacing" textLength="732.4402" x="808.7334" y="1666.1316">&#8226; Proving non-existence statements</text><text fill="#000000" font-family="Verdana" font-size="40.625" lengthAdjust="spacing" textLength="1114.093" x="808.7334" y="1715.5045">&#8226; Statement naturally suggests assuming the opposite</text><text fill="#000000" font-family="Verdana" font-size="40.625" lengthAdjust="spacing" textLength="934.1965" x="808.7334" y="1764.8773">&#8226; Working with "for all" quantified statements</text><path d="M2437.5465,1412.1719 L2437.5465,2184.0149 L3517.0509,2184.0149 L3517.0509,1443.4219 L3485.8009,1412.1719 L2437.5465,1412.1719" fill="#FFFFFF" style="stroke:#000000;stroke-width:3.125;"/><path d="M3485.8009,1412.1719 L3485.8009,1443.4219 L3517.0509,1443.4219 L3485.8009,1412.1719" fill="#FFFFFF" style="stroke:#000000;stroke-width:3.125;"/><text fill="#000000" font-family="Verdana" font-size="40.625" font-weight="bold" lengthAdjust="spacing" textLength="380.9586" x="2456.2965" y="1468.6401">Classic Example:</text><text fill="#000000" font-family="Verdana" font-size="40.625" font-weight="bold" lengthAdjust="spacing" textLength="253.7476" x="2456.2965" y="1518.013">Statement:</text><text fill="#000000" font-family="Verdana" font-size="40.625" lengthAdjust="spacing" textLength="303.2394" x="2724.3263" y="1518.013">&#8730;2 is irrational</text><text fill="#000000" font-family="Verdana" font-size="40.625" lengthAdjust="spacing" textLength="14.2822" x="2456.2965" y="1567.3859">&#160;</text><text fill="#000000" font-family="Verdana" font-size="40.625" font-weight="bold" lengthAdjust="spacing" textLength="529.3549" x="2456.2965" y="1616.7587">Proof by Contradiction:</text><text fill="#000000" font-family="Verdana" font-size="40.625" lengthAdjust="spacing" textLength="448.5611" x="2456.2965" y="1666.1316">Assume &#8730;2 is rational</text><text fill="#000000" font-family="Verdana" font-size="40.625" lengthAdjust="spacing" textLength="1013.8794" x="2456.2965" y="1715.5045">&#8756; &#8730;2 = p/q where p,q are integers, gcd(p,q) = 1</text><text fill="#000000" font-family="Verdana" font-size="40.625" lengthAdjust="spacing" textLength="706.1569" x="2456.2965" y="1764.8773">&#8756; 2 = p&#178;/q&#178; (squaring both sides)</text><text fill="#000000" font-family="Verdana" font-size="40.625" lengthAdjust="spacing" textLength="572.1817" x="2456.2965" y="1814.2502">&#8756; 2q&#178; = p&#178; (cross multiply)</text><text fill="#000000" font-family="Verdana" font-size="40.625" lengthAdjust="spacing" textLength="945.4239" x="2456.2965" y="1863.623">&#8756; p&#178; is even, so p is even (previous theorem)</text><text fill="#000000" font-family="Verdana" font-size="40.625" lengthAdjust="spacing" textLength="582.7942" x="2456.2965" y="1912.9959">&#8756; p = 2k for some integer k</text><text fill="#000000" font-family="Verdana" font-size="40.625" lengthAdjust="spacing" textLength="723.2758" x="2456.2965" y="1962.3688">&#8756; 2q&#178; = (2k)&#178; = 4k&#178; (substitution)</text><text fill="#000000" font-family="Verdana" font-size="40.625" lengthAdjust="spacing" textLength="512.0178" x="2456.2965" y="2011.7416">&#8756; q&#178; = 2k&#178; (divide by 2)</text><text fill="#000000" font-family="Verdana" font-size="40.625" lengthAdjust="spacing" textLength="534.7702" x="2456.2965" y="2061.1145">&#8756; q&#178; is even, so q is even</text><text fill="#000000" font-family="Verdana" font-size="40.625" lengthAdjust="spacing" textLength="688.2248" x="2456.2965" y="2110.4874">But this contradicts gcd(p,q) = 1!</text><text fill="#000000" font-family="Verdana" font-size="40.625" lengthAdjust="spacing" textLength="546.9299" x="2456.2965" y="2159.8602">&#8756; &#8730;2 must be irrational &#8718;</text><polygon fill="#FFFFFF" points="2007.2014,2184.0149,2400.0465,2184.0149,2437.5465,2221.5149,2400.0465,2259.0149,2007.2014,2259.0149,1969.7014,2221.5149,2007.2014,2184.0149" style="stroke:#000000;stroke-width:3.125;"/><text fill="#000000" font-family="Verdana" font-size="34.375" lengthAdjust="spacing" textLength="392.8452" x="2007.2014" y="2235.186">Found a contradiction?</text><text fill="#000000" font-family="Verdana" font-size="34.375" lengthAdjust="spacing" textLength="59.5352" x="1910.1662" y="2214.2975">Yes</text><text fill="#000000" font-family="Verdana" font-size="34.375" lengthAdjust="spacing" textLength="348.8525" x="2437.5465" y="2214.2975">No contradiction yet</text><rect fill="#FFFFFF" height="290.3748" rx="39.0625" ry="39.0625" style="stroke:#000000;stroke-width:3.125;" width="731.5491" x="955.0171" y="2290.2649"/><text fill="#000000" font-family="Verdana" font-size="37.5" lengthAdjust="spacing" textLength="493.9819" x="986.2671" y="2359.2163">Identify the contradiction:</text><text fill="#000000" font-family="Verdana" font-size="37.5" lengthAdjust="spacing" textLength="609.9792" x="986.2671" y="2404.7913">&#8226; Statement S and &#172;S both true</text><text fill="#000000" font-family="Verdana" font-size="37.5" lengthAdjust="spacing" textLength="669.0491" x="986.2671" y="2450.3662">&#8226; Violates known axiom or theorem</text><text fill="#000000" font-family="Verdana" font-size="37.5" lengthAdjust="spacing" textLength="531.665" x="986.2671" y="2495.9412">&#8226; Mathematical impossibility</text><text fill="#000000" font-family="Verdana" font-size="37.5" lengthAdjust="spacing" textLength="428.4485" x="986.2671" y="2541.5161">&#8226; Logical inconsistency</text><rect fill="#FFFFFF" height="153.6499" rx="39.0625" ry="39.0625" style="stroke:#000000;stroke-width:3.125;" width="756.7627" x="942.4103" y="2690.0146"/><text fill="#000000" font-family="Verdana" font-size="37.5" lengthAdjust="spacing" textLength="694.2627" x="973.6603" y="2758.9661">Since P &#8743; &#172;Q leads to contradiction,</text><text fill="#000000" font-family="Verdana" font-size="37.5" lengthAdjust="spacing" textLength="414.3311" x="973.6603" y="2804.541">P &#8743; &#172;Q must be false</text><path d="M15.625,2953.0396 L15.625,3231.1539 A0,0 0 0 0 15.625,3231.1539 L779.6509,3231.1539 A0,0 0 0 0 779.6509,3231.1539 L779.6509,3104.5967 L842.1509,3092.0967 L779.6509,3079.5967 L779.6509,2984.2896 L748.4009,2953.0396 L15.625,2953.0396 A0,0 0 0 0 15.625,2953.0396" fill="#FFFFFF" style="stroke:#000000;stroke-width:3.125;"/><path d="M748.4009,2953.0396 L748.4009,2984.2896 L779.6509,2984.2896 L748.4009,2953.0396" fill="#FFFFFF" style="stroke:#000000;stroke-width:3.125;"/><text fill="#000000" font-family="Verdana" font-size="40.625" font-weight="bold" lengthAdjust="spacing" textLength="351.8188" x="34.375" y="3009.5078">Proof Complete</text><text fill="#000000" font-family="Verdana" font-size="40.625" lengthAdjust="spacing" textLength="575.8514" x="34.375" y="3058.8806">The contradiction shows our</text><text fill="#000000" font-family="Verdana" font-size="40.625" lengthAdjust="spacing" textLength="698.4009" x="34.375" y="3108.2535">assumption P &#8743; &#172;Q is impossible,</text><text fill="#000000" font-family="Verdana" font-size="40.625" lengthAdjust="spacing" textLength="619.3726" x="34.375" y="3157.6263">so whenever P is true, Q must</text><text fill="#000000" font-family="Verdana" font-size="40.625" lengthAdjust="spacing" textLength="419.5404" x="34.375" y="3206.9992">also be true (P &#8594; Q)</text><rect fill="#FFFFFF" height="153.6499" rx="39.0625" ry="39.0625" style="stroke:#000000;stroke-width:3.125;" width="957.2815" x="842.1509" y="3015.2718"/><text fill="#000000" font-family="Verdana" font-size="37.5" lengthAdjust="spacing" textLength="584.6375" x="873.4009" y="3084.2232">Therefore: P &#8594; Q must be true</text><text fill="#000000" font-family="Verdana" font-size="37.5" lengthAdjust="spacing" textLength="894.7815" x="873.4009" y="3129.7981">(Original statement proven by contradiction) &#8718;</text><ellipse cx="1320.7916" cy="3328.0289" fill="none" rx="34.375" ry="34.375" style="stroke:#000000;stroke-width:3.125;"/><ellipse cx="1320.7916" cy="3328.0289" fill="#FFFFFF" rx="18.75" ry="18.75" style="stroke:#000000;stroke-width:3.125;"/><rect fill="#FFFFFF" height="153.6499" rx="39.0625" ry="39.0625" style="stroke:#000000;stroke-width:3.125;" width="570.2148" x="2801.3489" y="2290.2649"/><text fill="#000000" font-family="Verdana" font-size="37.5" lengthAdjust="spacing" textLength="497.2412" x="2832.5989" y="2359.2163">Continue logical reasoning</text><text fill="#000000" font-family="Verdana" font-size="37.5" lengthAdjust="spacing" textLength="507.7148" x="2832.5989" y="2404.7913">to find more consequences</text><polygon fill="#FFFFFF" points="2847.2076,2553.2898,3325.705,2553.2898,3363.205,2590.7898,3325.705,2628.2898,2847.2076,2628.2898,2809.7076,2590.7898,2847.2076,2553.2898" style="stroke:#000000;stroke-width:3.125;"/><text fill="#000000" font-family="Verdana" font-size="34.375" lengthAdjust="spacing" textLength="478.4973" x="2847.2076" y="2604.4609">Exhausted all logical paths?</text><text fill="#000000" font-family="Verdana" font-size="34.375" lengthAdjust="spacing" textLength="59.5352" x="2750.1724" y="2583.5724">Yes</text><text fill="#000000" font-family="Verdana" font-size="34.375" lengthAdjust="spacing" textLength="239.9368" x="3363.205" y="2583.5724">No - Continue</text><path d="M2781.5125,2659.5398 L2781.5125,2810.7834 L2719.0125,2823.2834 L2781.5125,2835.7834 L2781.5125,2987.027 A0,0 0 0 0 2781.5125,2987.027 L3537.326,2987.027 A0,0 0 0 0 3537.326,2987.027 L3537.326,2690.7898 L3506.076,2659.5398 L2781.5125,2659.5398 A0,0 0 0 0 2781.5125,2659.5398" fill="#FFFFFF" style="stroke:#000000;stroke-width:3.125;"/><path d="M3506.076,2659.5398 L3506.076,2690.7898 L3537.326,2690.7898 L3506.076,2659.5398" fill="#FFFFFF" style="stroke:#000000;stroke-width:3.125;"/><text fill="#000000" font-family="Verdana" font-size="40.625" font-weight="bold" lengthAdjust="spacing" textLength="690.1886" x="2800.2625" y="2716.008">Consider Alternative Methods:</text><text fill="#000000" font-family="Verdana" font-size="40.625" lengthAdjust="spacing" textLength="278.1265" x="2800.2625" y="2765.3809">&#8226; Direct proof</text><text fill="#000000" font-family="Verdana" font-size="40.625" lengthAdjust="spacing" textLength="451.12" x="2800.2625" y="2814.7537">&#8226; Contrapositive proof</text><text fill="#000000" font-family="Verdana" font-size="40.625" lengthAdjust="spacing" textLength="509.6176" x="2800.2625" y="2864.1266">&#8226; Mathematical induction</text><text fill="#000000" font-family="Verdana" font-size="40.625" lengthAdjust="spacing" textLength="331.8832" x="2800.2625" y="2913.4995">&#8226; Proof by cases</text><text fill="#000000" font-family="Verdana" font-size="40.625" lengthAdjust="spacing" textLength="412.4786" x="2800.2625" y="2962.8723">&#8226; Constructive proof</text><rect fill="#FFFFFF" height="153.6499" rx="39.0625" ry="39.0625" style="stroke:#000000;stroke-width:3.125;" width="825.8301" x="1893.1824" y="2746.4584"/><text fill="#000000" font-family="Verdana" font-size="37.5" lengthAdjust="spacing" textLength="428.0273" x="1924.4324" y="2815.4099">No contradiction found</text><text fill="#000000" font-family="Verdana" font-size="37.5" lengthAdjust="spacing" textLength="763.3301" x="1924.4324" y="2860.9848">Method may not work for this statement</text><ellipse cx="2306.0974" cy="3130.777" fill="none" rx="34.375" ry="34.375" style="stroke:#000000;stroke-width:3.125;"/><ellipse cx="2306.0974" cy="3130.777" fill="#FFFFFF" rx="18.75" ry="18.75" style="stroke:#000000;stroke-width:3.125;"/><rect fill="#FFFFFF" height="153.6499" rx="39.0625" ry="39.0625" style="stroke:#000000;stroke-width:3.125;" width="533.9783" x="3599.826" y="2659.5398"/><text fill="#000000" font-family="Verdana" font-size="37.5" lengthAdjust="spacing" textLength="445.2942" x="3631.076" y="2728.4912">Explore different logical</text><text fill="#000000" font-family="Verdana" font-size="37.5" lengthAdjust="spacing" textLength="471.4783" x="3631.076" y="2774.0662">consequences of P &#8743; &#172;Q</text><polygon fill="#FFFFFF" points="2203.624,907.4722,2241.124,944.9722,2203.624,982.4722,2166.124,944.9722,2203.624,907.4722" style="stroke:#000000;stroke-width:3.125;"/><polygon fill="#FFFFFF" points="1880.6702,3424.9039,2526.5778,3424.9039,2564.0778,3462.4039,2526.5778,3499.9039,1880.6702,3499.9039,1843.1702,3462.4039,1880.6702,3424.9039" style="stroke:#000000;stroke-width:3.125;"/><text fill="#000000" font-family="Verdana" font-size="34.375" lengthAdjust="spacing" textLength="645.9076" x="1880.6702" y="3476.075">Continue searching for contradiction?</text><text fill="#000000" font-family="Verdana" font-size="34.375" lengthAdjust="spacing" textLength="59.5352" x="2564.0778" y="3455.1865">Yes</text><line style="stroke:#000000;stroke-width:3.125;" x1="2203.624" x2="2203.624" y1="78.125" y2="173.5062"/><polygon fill="#000000" points="2191.124,142.2562,2203.624,173.5062,2216.124,142.2562,2203.624,154.7562" style="stroke:#000000;stroke-width:3.125;"/><line style="stroke:#000000;stroke-width:3.125;" x1="2203.624" x2="2203.624" y1="372.731" y2="579.7173"/><polygon fill="#000000" points="2191.124,548.4673,2203.624,579.7173,2216.124,548.4673,2203.624,560.9673" style="stroke:#000000;stroke-width:3.125;"/><line style="stroke:#000000;stroke-width:3.125;" x1="1320.7916" x2="1320.7916" y1="2580.6396" y2="2690.0146"/><polygon fill="#000000" points="1308.2916,2658.7646,1320.7916,2690.0146,1333.2916,2658.7646,1320.7916,2671.2646" style="stroke:#000000;stroke-width:3.125;"/><line style="stroke:#000000;stroke-width:3.125;" x1="1320.7916" x2="1320.7916" y1="2843.6646" y2="3015.2718"/><polygon fill="#000000" points="1308.2916,2984.0218,1320.7916,3015.2718,1333.2916,2984.0218,1320.7916,2996.5218" style="stroke:#000000;stroke-width:3.125;"/><line style="stroke:#000000;stroke-width:3.125;" x1="1320.7916" x2="1320.7916" y1="3168.9217" y2="3293.6539"/><polygon fill="#000000" points="1308.2916,3262.4039,1320.7916,3293.6539,1333.2916,3262.4039,1320.7916,3274.9039" style="stroke:#000000;stroke-width:3.125;"/><line style="stroke:#000000;stroke-width:3.125;" x1="2306.0974" x2="2306.0974" y1="2900.1083" y2="3096.402"/><polygon fill="#000000" points="2293.5974,3065.152,2306.0974,3096.402,2318.5974,3065.152,2306.0974,3077.652" style="stroke:#000000;stroke-width:3.125;"/><line style="stroke:#000000;stroke-width:3.125;" x1="2809.7076" x2="2306.0974" y1="2590.7898" y2="2590.7898"/><line style="stroke:#000000;stroke-width:3.125;" x1="2306.0974" x2="2306.0974" y1="2590.7898" y2="2746.4584"/><polygon fill="#000000" points="2293.5974,2715.2084,2306.0974,2746.4584,2318.5974,2715.2084,2306.0974,2727.7084" style="stroke:#000000;stroke-width:3.125;"/><line style="stroke:#000000;stroke-width:3.125;" x1="3363.205" x2="3866.8152" y1="2590.7898" y2="2590.7898"/><line style="stroke:#000000;stroke-width:3.125;" x1="3866.8152" x2="3866.8152" y1="2590.7898" y2="2659.5398"/><polygon fill="#000000" points="3854.3152,2628.2898,3866.8152,2659.5398,3879.3152,2628.2898,3866.8152,2640.7898" style="stroke:#000000;stroke-width:3.125;"/><line style="stroke:#000000;stroke-width:3.125;" x1="3866.8152" x2="3866.8152" y1="2813.1897" y2="3378.0289"/><line style="stroke:#000000;stroke-width:3.125;" x1="3866.8152" x2="2203.624" y1="3378.0289" y2="3378.0289"/><line style="stroke:#000000;stroke-width:3.125;" x1="2203.624" x2="2203.624" y1="3378.0289" y2="3424.9039"/><polygon fill="#000000" points="2191.124,3393.6539,2203.624,3424.9039,2216.124,3393.6539,2203.624,3406.1539" style="stroke:#000000;stroke-width:3.125;"/><line style="stroke:#000000;stroke-width:3.125;" x1="3086.4563" x2="3086.4563" y1="2443.9148" y2="2553.2898"/><polygon fill="#000000" points="3073.9563,2522.0398,3086.4563,2553.2898,3098.9563,2522.0398,3086.4563,2534.5398" style="stroke:#000000;stroke-width:3.125;"/><line style="stroke:#000000;stroke-width:3.125;" x1="1969.7014" x2="1320.7916" y1="2221.5149" y2="2221.5149"/><line style="stroke:#000000;stroke-width:3.125;" x1="1320.7916" x2="1320.7916" y1="2221.5149" y2="2290.2649"/><polygon fill="#000000" points="1308.2916,2259.0149,1320.7916,2290.2649,1333.2916,2259.0149,1320.7916,2271.5149" style="stroke:#000000;stroke-width:3.125;"/><line style="stroke:#000000;stroke-width:3.125;" x1="2437.5465" x2="3086.4563" y1="2221.5149" y2="2221.5149"/><line style="stroke:#000000;stroke-width:3.125;" x1="3086.4563" x2="3086.4563" y1="2221.5149" y2="2290.2649"/><polygon fill="#000000" points="3073.9563,2259.0149,3086.4563,2290.2649,3098.9563,2259.0149,3086.4563,2271.5149" style="stroke:#000000;stroke-width:3.125;"/><line style="stroke:#000000;stroke-width:3.125;" x1="2203.624" x2="2203.624" y1="1380.9219" y2="2184.0149"/><polygon fill="#000000" points="2191.124,2152.7649,2203.624,2184.0149,2216.124,2152.7649,2203.624,2165.2649" style="stroke:#000000;stroke-width:3.125;"/><line style="stroke:#000000;stroke-width:3.125;" x1="2203.624" x2="2203.624" y1="982.4722" y2="1044.9722"/><polygon fill="#000000" points="2191.124,1013.7222,2203.624,1044.9722,2216.124,1013.7222,2203.624,1026.2222" style="stroke:#000000;stroke-width:3.125;"/><line style="stroke:#000000;stroke-width:3.125;" x1="2564.0778" x2="4177.5543" y1="3462.4039" y2="3462.4039"/><polygon fill="#000000" points="4165.0543,2228.688,4177.5543,2197.438,4190.0543,2228.688,4177.5543,2216.188" style="stroke:#000000;stroke-width:3.125;"/><line style="stroke:#000000;stroke-width:3.125;" x1="4177.5543" x2="4177.5543" y1="944.9722" y2="3462.4039"/><line style="stroke:#000000;stroke-width:3.125;" x1="4177.5543" x2="2241.124" y1="944.9722" y2="944.9722"/><polygon fill="#000000" points="2272.374,932.4722,2241.124,944.9722,2272.374,957.4722,2259.874,944.9722" style="stroke:#000000;stroke-width:3.125;"/><line style="stroke:#000000;stroke-width:3.125;" x1="2203.624" x2="2203.624" y1="733.3672" y2="907.4722"/><polygon fill="#000000" points="2191.124,876.2222,2203.624,907.4722,2216.124,876.2222,2203.624,888.7222" style="stroke:#000000;stroke-width:3.125;"/><!--SRC=[VLRDSXj54BxhAJgwi7B9bM0uAGMKSGAaI8o30ocgV1djzafJdfrPpuzatJXHEN7Wo94B5qufdi2FaYUXUsRspmPqiAMTdlxvlkwlzv7VOeFGAY7rx2CllKAuiCRKi3x0cT7UYagMNXeDhz1lJGLImpFfIeiUuPNWwyBBqitSjTIjiAA1gfNmoPCdC-U5zRFPwckvGxs2IoyynT8UlE4OExpICFbSm8TVVeFNeyV5YvgUKX0DhnTFPpDjAAgLcwsV0HmT_KUcb_JTu-PmT4HMfyu5gf1yW6bRuoHve4lxhM0V1nDWBr9EBUUqJD7Srkpfs6-b0uMYScmWG9cDB8M2SXnlnb6KCt2jpLw3S33_7gl0Po0gE5sxOAlGp6UeA-0A29ESrGMGVsy3mkdvCxZxwtNt-qeNtnnQGxauUd81Wg_YHiJwA7rAe5J1yQy168LrmkLRFAIwMxQFCBn5IYp6N9FN5JtvyFCVvBXWO3RC46pxW8jyp0aLzr63FKuXMp00aQX8NrT2HfAUllkJFP4HeHfK1Mi4sP1J9zSAHwXOR36oiZfjMtNeqROedD5IRu0gfhy93dBPbV63wsgei9PQSjKk6ebRQHgNpPBNn1BbPYmsoOhAQD5wYPtb1ThQs0Q4sk3Q2bb28xHiWue4k57OBiSgCwx11jNxUOQMqcAs7Du4r2KwgArf4XUH7VUKuPCr55-Pm1bFc-kBHOAn-0aZBGJEYug6IDQ7sDCJurKquC33i5rci2uZyP6Ptkf7QQWYoYbtBeC5ndRWz7R3d5Eb7NLIIN_eJLvc7AJcOgNpLEmXbaOPNz9J73fXcAX9ziihFPWqmNbkb5eeXvsVDrkqICJWgc-spYuFpNSa3b9J7gu78FQePfMOH5jGg5-pu_7qyATJbZFJj8g4BauGVzxSHpmAXGCJRBOOY1tLInCnDFmoMv9Wx8bPtA4TT62PI-gyiQpawg38DQSs6COcElEcvMz8Q45nVWzPEA3FpSDAANN0XyDrfOaGcfuA6a9uqhCP9cxIvxTRGVaXDQfIlPEM6iGzR5MAzo2LchlyIkTjqeW3Lm5xOw_fo2R5xSdBWJD3dV1t99rnfrK4twdoQ3Nr9yrQSknMFMTv4gN5CZQ3gIS7QNL4YUFh3mscpQ_pc4zC-ZrK2XTdV-BU4Nlb0-TJ_ZA3yQ2Zy1Wwideqdz-sYicfP5tJA51tPmQkz4HZJ3rqtzEkNII7Jl-JqbB_IThtHTyJ3eKjjoonJCLz7I9Y4hN7dvyROgPMXb0Xu-doUHjL_zytC-yocc2q5gl4q7rks8IhasLGdhKeqAAZj6RtTKtgdL4xgdK-4QGvtva7BHaAT6xUAx5GdEjUaWXAQwEG4w4wD6kqZcz97NS7m-3xHK3YaKhKntYRP0s7_dGFqg8k39P6um0kR3Rel4kIm4x6xo3vublg-pwjEQDET-Tm4mHBlAGn6yKQMcOA_V12TAOe66shvxU2bIj1V7JKfqSFg2r-FucAr8Cm-v-NgTNu9Qgxsb-a8jxzdHv_1ktZ6rOqQizsUGE2_ajDhs64xX8sPLNGqmMPVPnlnIjtxn_VtBs7mb75bWkAIugdEhs4i1qRH5CeIajCaq0gBscLTnPyH5cHakeboshR_OAYjRYJ9hXkfVLNoED9KXndcZvJk9u6BKwk5_7BfzSnox1sz8uSulx8bidm99vNSaUPCuOdu-DnRZVTBph_ClYaTyEakGbIZyO0TvjkrBoqmOQc-0S0]--></g></svg>
