<svg xmlns="http://www.w3.org/2000/svg" xmlns:xlink="http://www.w3.org/1999/xlink" contentStyleType="text/css" data-diagram-type="ACTIVITY" height="3196.875px" preserveAspectRatio="none" style="width:4378px;height:3196px;background:#FFFFFF;" version="1.1" viewBox="0 0 4378 3196" width="4378.125px" zoomAndPan="magnify"><defs/><g><ellipse cx="1869.2038" cy="46.875" fill="#FFFFFF" rx="31.25" ry="31.25" style="stroke:#000000;stroke-width:3.125;"/><path d="M2215.4654,109.375 L2215.4654,260.6186 L2152.9654,273.1186 L2215.4654,285.6186 L2215.4654,436.8622 A0,0 0 0 0 2215.4654,436.8622 L2982.07,436.8622 A0,0 0 0 0 2982.07,436.8622 L2982.07,140.625 L2950.82,109.375 L2215.4654,109.375 A0,0 0 0 0 2215.4654,109.375" fill="#FFFFFF" style="stroke:#000000;stroke-width:3.125;"/><path d="M2950.82,109.375 L2950.82,140.625 L2982.07,140.625 L2950.82,109.375" fill="#FFFFFF" style="stroke:#000000;stroke-width:3.125;"/><text fill="#000000" font-family="Verdana" font-size="40.625" font-weight="bold" lengthAdjust="spacing" textLength="502.8931" x="2234.2154" y="165.8432">Direct Proof Structure</text><text fill="#000000" font-family="Verdana" font-size="40.625" lengthAdjust="spacing" textLength="474.0906" x="2234.2154" y="215.2161">Start with hypothesis P</text><text fill="#000000" font-family="Verdana" font-size="40.625" lengthAdjust="spacing" textLength="568.7897" x="2234.2154" y="264.5889">Use logical steps to reach Q</text><text fill="#000000" font-family="Verdana" font-size="40.625" lengthAdjust="spacing" textLength="14.2822" x="2234.2154" y="313.9618">&#160;</text><text fill="#000000" font-family="Verdana" font-size="40.625" lengthAdjust="spacing" textLength="653.4119" x="2234.2154" y="363.3347">This is the most straightforward</text><text fill="#000000" font-family="Verdana" font-size="40.625" lengthAdjust="spacing" textLength="700.9796" x="2234.2154" y="412.7075">and commonly used proof method</text><rect fill="#FFFFFF" height="199.2249" rx="39.0625" ry="39.0625" style="stroke:#000000;stroke-width:3.125;" width="567.5232" x="1585.4422" y="173.5062"/><text fill="#000000" font-family="Verdana" font-size="37.5" lengthAdjust="spacing" textLength="505.0232" x="1616.6922" y="242.4576">Given: Statement to Prove</text><text fill="#000000" font-family="Verdana" font-size="37.5" lengthAdjust="spacing" textLength="115.9973" x="1616.6922" y="288.0325">P &#8594; Q</text><text fill="#000000" font-family="Verdana" font-size="37.5" lengthAdjust="spacing" textLength="239.2822" x="1616.6922" y="333.6075">(If P then Q)</text><rect fill="#FFFFFF" height="153.6499" rx="39.0625" ry="39.0625" style="stroke:#000000;stroke-width:3.125;" width="378.595" x="1679.9063" y="499.3622"/><text fill="#000000" font-family="Verdana" font-size="37.5" lengthAdjust="spacing" textLength="316.095" x="1711.1563" y="568.3136">Assume P is true</text><text fill="#000000" font-family="Verdana" font-size="37.5" lengthAdjust="spacing" textLength="310.3455" x="1711.1563" y="613.8885">(the hypothesis)</text><rect fill="#FFFFFF" height="335.9497" rx="39.0625" ry="39.0625" style="stroke:#000000;stroke-width:3.125;" width="1059.6741" x="1339.3667" y="853.0121"/><text fill="#000000" font-family="Verdana" font-size="37.5" lengthAdjust="spacing" textLength="997.1741" x="1370.6167" y="921.9635">Apply logical reasoning to derive intermediate steps:</text><text fill="#000000" font-family="Verdana" font-size="37.5" lengthAdjust="spacing" textLength="655.2979" x="1370.6167" y="967.5385">&#8226; Use given definitions and axioms</text><text fill="#000000" font-family="Verdana" font-size="37.5" lengthAdjust="spacing" textLength="709.5337" x="1370.6167" y="1013.1134">&#8226; Apply known theorems and lemmas</text><text fill="#000000" font-family="Verdana" font-size="37.5" lengthAdjust="spacing" textLength="643.634" x="1370.6167" y="1058.6884">&#8226; Perform algebraic manipulations</text><text fill="#000000" font-family="Verdana" font-size="37.5" lengthAdjust="spacing" textLength="537.3596" x="1370.6167" y="1104.2633">&#8226; Use logical deduction rules</text><text fill="#000000" font-family="Verdana" font-size="37.5" lengthAdjust="spacing" textLength="496.6736" x="1370.6167" y="1149.8383">&#8226; Substitute known values</text><path d="M567.9182,1220.2118 L567.9182,1597.0718 L1633.6363,1597.0718 L1633.6363,1251.4618 L1602.3863,1220.2118 L567.9182,1220.2118" fill="#FFFFFF" style="stroke:#000000;stroke-width:3.125;"/><path d="M1602.3863,1220.2118 L1602.3863,1251.4618 L1633.6363,1251.4618 L1602.3863,1220.2118" fill="#FFFFFF" style="stroke:#000000;stroke-width:3.125;"/><text fill="#000000" font-family="Verdana" font-size="40.625" font-weight="bold" lengthAdjust="spacing" textLength="717.5232" x="586.6682" y="1276.68">When Direct Proof is Preferred:</text><text fill="#000000" font-family="Verdana" font-size="40.625" lengthAdjust="spacing" textLength="983.8272" x="586.6682" y="1326.0529">&#8226; Statement has clear logical progression P &#8594; Q</text><text fill="#000000" font-family="Verdana" font-size="40.625" lengthAdjust="spacing" textLength="963.8123" x="586.6682" y="1375.4257">&#8226; Hypothesis P provides concrete starting point</text><text fill="#000000" font-family="Verdana" font-size="40.625" lengthAdjust="spacing" textLength="852.7481" x="586.6682" y="1424.7986">&#8226; Intermediate steps are readily apparent</text><text fill="#000000" font-family="Verdana" font-size="40.625" lengthAdjust="spacing" textLength="930.4077" x="586.6682" y="1474.1714">&#8226; Definitions and known results apply directly</text><text fill="#000000" font-family="Verdana" font-size="40.625" lengthAdjust="spacing" textLength="1000.0931" x="586.6682" y="1523.5443">&#8226; No negations or complex conditional structures</text><text fill="#000000" font-family="Verdana" font-size="40.625" lengthAdjust="spacing" textLength="984.2636" x="586.6682" y="1572.9172">&#8226; Constructive proofs where you build the result</text><path d="M2104.7712,1220.2118 L2104.7712,1893.309 L3159.738,1893.309 L3159.738,1251.4618 L3128.488,1220.2118 L2104.7712,1220.2118" fill="#FFFFFF" style="stroke:#000000;stroke-width:3.125;"/><path d="M3128.488,1220.2118 L3128.488,1251.4618 L3159.738,1251.4618 L3128.488,1220.2118" fill="#FFFFFF" style="stroke:#000000;stroke-width:3.125;"/><text fill="#000000" font-family="Verdana" font-size="40.625" font-weight="bold" lengthAdjust="spacing" textLength="380.9586" x="2123.5212" y="1276.68">Classic Example:</text><text fill="#000000" font-family="Verdana" font-size="40.625" font-weight="bold" lengthAdjust="spacing" textLength="253.7476" x="2123.5212" y="1326.0529">Statement:</text><text fill="#000000" font-family="Verdana" font-size="40.625" lengthAdjust="spacing" textLength="572.1222" x="2391.551" y="1326.0529">If n is even, then n&#178; is even</text><text fill="#000000" font-family="Verdana" font-size="40.625" lengthAdjust="spacing" textLength="14.2822" x="2123.5212" y="1375.4257">&#160;</text><text fill="#000000" font-family="Verdana" font-size="40.625" font-weight="bold" lengthAdjust="spacing" textLength="290.3259" x="2123.5212" y="1424.7986">Direct Proof:</text><text fill="#000000" font-family="Verdana" font-size="40.625" lengthAdjust="spacing" textLength="358.5434" x="2123.5212" y="1474.1714">Assume n is even</text><text fill="#000000" font-family="Verdana" font-size="40.625" lengthAdjust="spacing" textLength="989.3417" x="2123.5212" y="1523.5443">&#8756; n = 2k for some integer k (definition of even)</text><text fill="#000000" font-family="Verdana" font-size="40.625" lengthAdjust="spacing" textLength="857.4295" x="2123.5212" y="1572.9172">&#8756; n&#178; = (2k)&#178; = 4k&#178; (squaring both sides)</text><text fill="#000000" font-family="Verdana" font-size="40.625" lengthAdjust="spacing" textLength="530.2475" x="2123.5212" y="1622.29">&#8756; n&#178; = 2(2k&#178;) (factoring)</text><text fill="#000000" font-family="Verdana" font-size="40.625" lengthAdjust="spacing" textLength="733.2535" x="2123.5212" y="1671.6629">Since 2k&#178; is an integer, let m = 2k&#178;</text><text fill="#000000" font-family="Verdana" font-size="40.625" lengthAdjust="spacing" textLength="520.7062" x="2123.5212" y="1721.0358">&#8756; n&#178; = 2m (substitution)</text><text fill="#000000" font-family="Verdana" font-size="40.625" lengthAdjust="spacing" textLength="722.7203" x="2123.5212" y="1770.4086">&#8756; n&#178; is even (definition of even) &#8718;</text><text fill="#000000" font-family="Verdana" font-size="40.625" lengthAdjust="spacing" textLength="14.2822" x="2123.5212" y="1819.7815">&#160;</text><text fill="#000000" font-family="Verdana" font-size="40.625" font-weight="bold" lengthAdjust="spacing" textLength="264.122" x="2123.5212" y="1869.1544">Conclusion:</text><text fill="#000000" font-family="Verdana" font-size="40.625" lengthAdjust="spacing" textLength="580.5923" x="2401.9255" y="1869.1544">Statement is proven directly</text><polygon fill="#FFFFFF" points="1671.1363,1893.309,2067.2712,1893.309,2104.7712,1930.809,2067.2712,1968.309,1671.1363,1968.309,1633.6363,1930.809,1671.1363,1893.309" style="stroke:#000000;stroke-width:3.125;"/><text fill="#000000" font-family="Verdana" font-size="34.375" lengthAdjust="spacing" textLength="396.1349" x="1671.1363" y="1944.4801">Reached conclusion Q?</text><text fill="#000000" font-family="Verdana" font-size="34.375" lengthAdjust="spacing" textLength="59.5352" x="1574.1011" y="1923.5916">Yes</text><text fill="#000000" font-family="Verdana" font-size="34.375" lengthAdjust="spacing" textLength="46.5775" x="2104.7712" y="1923.5916">No</text><path d="M15.625,1999.559 L15.625,2277.6733 A0,0 0 0 0 15.625,2277.6733 L636.5311,2277.6733 A0,0 0 0 0 636.5311,2277.6733 L636.5311,2151.1162 L699.0311,2138.6162 L636.5311,2126.1162 L636.5311,2030.809 L605.2811,1999.559 L15.625,1999.559 A0,0 0 0 0 15.625,1999.559" fill="#FFFFFF" style="stroke:#000000;stroke-width:3.125;"/><path d="M605.2811,1999.559 L605.2811,2030.809 L636.5311,2030.809 L605.2811,1999.559" fill="#FFFFFF" style="stroke:#000000;stroke-width:3.125;"/><text fill="#000000" font-family="Verdana" font-size="40.625" font-weight="bold" lengthAdjust="spacing" textLength="351.8188" x="34.375" y="2056.0272">Proof Complete</text><text fill="#000000" font-family="Verdana" font-size="40.625" lengthAdjust="spacing" textLength="489.8407" x="34.375" y="2105.4001">Successfully shown that</text><text fill="#000000" font-family="Verdana" font-size="40.625" lengthAdjust="spacing" textLength="396.3318" x="34.375" y="2154.7729">whenever P is true,</text><text fill="#000000" font-family="Verdana" font-size="40.625" lengthAdjust="spacing" textLength="405.6351" x="34.375" y="2204.1458">Q must also be true</text><text fill="#000000" font-family="Verdana" font-size="40.625" lengthAdjust="spacing" textLength="555.2811" x="34.375" y="2253.5187">through direct logical steps</text><rect fill="#FFFFFF" height="108.075" rx="39.0625" ry="39.0625" style="stroke:#000000;stroke-width:3.125;" width="769.8914" x="699.0311" y="2084.5787"/><text fill="#000000" font-family="Verdana" font-size="37.5" lengthAdjust="spacing" textLength="707.3914" x="730.2811" y="2153.5301">Conclude: P &#8594; Q is proven directly &#8718;</text><ellipse cx="1083.9767" cy="2421.4233" fill="none" rx="34.375" ry="34.375" style="stroke:#000000;stroke-width:3.125;"/><ellipse cx="1083.9767" cy="2421.4233" fill="#FFFFFF" rx="18.75" ry="18.75" style="stroke:#000000;stroke-width:3.125;"/><rect fill="#FFFFFF" height="153.6499" rx="39.0625" ry="39.0625" style="stroke:#000000;stroke-width:3.125;" width="529.8218" x="2389.5199" y="1999.559"/><text fill="#000000" font-family="Verdana" font-size="37.5" lengthAdjust="spacing" textLength="467.3218" x="2420.7699" y="2068.5104">Identify next logical step</text><text fill="#000000" font-family="Verdana" font-size="37.5" lengthAdjust="spacing" textLength="411.5479" x="2420.7699" y="2114.0854">or missing connection</text><polygon fill="#FFFFFF" points="2458.7887,2262.5839,2850.0729,2262.5839,2887.5729,2300.0839,2850.0729,2337.5839,2458.7887,2337.5839,2421.2887,2300.0839,2458.7887,2262.5839" style="stroke:#000000;stroke-width:3.125;"/><text fill="#000000" font-family="Verdana" font-size="34.375" lengthAdjust="spacing" textLength="391.2842" x="2458.7887" y="2313.755">Found valid next step?</text><text fill="#000000" font-family="Verdana" font-size="34.375" lengthAdjust="spacing" textLength="59.5352" x="2361.7535" y="2292.8665">Yes</text><text fill="#000000" font-family="Verdana" font-size="34.375" lengthAdjust="spacing" textLength="46.5775" x="2887.5729" y="2292.8665">No</text><rect fill="#FFFFFF" height="108.075" rx="39.0625" ry="39.0625" style="stroke:#000000;stroke-width:3.125;" width="717.2668" x="1562.6724" y="2368.8339"/><text fill="#000000" font-family="Verdana" font-size="37.5" lengthAdjust="spacing" textLength="654.7668" x="1593.9224" y="2437.7853">Continue with additional reasoning</text><polygon fill="#FFFFFF" points="3169.4221,2368.8339,3605.6892,2368.8339,3643.1892,2406.3339,3605.6892,2443.8339,3169.4221,2443.8339,3131.9221,2406.3339,3169.4221,2368.8339" style="stroke:#000000;stroke-width:3.125;"/><text fill="#000000" font-family="Verdana" font-size="34.375" lengthAdjust="spacing" textLength="436.2671" x="3169.4221" y="2420.005">Need different approach?</text><text fill="#000000" font-family="Verdana" font-size="34.375" lengthAdjust="spacing" textLength="59.5352" x="3072.3869" y="2399.1165">Yes</text><text fill="#000000" font-family="Verdana" font-size="34.375" lengthAdjust="spacing" textLength="305.2124" x="3643.1892" y="2399.1165">No - Review work</text><path d="M3165.2847,2475.0839 L3165.2847,2626.3275 L3102.7847,2638.8275 L3165.2847,2651.3275 L3165.2847,2802.5711 A0,0 0 0 0 3165.2847,2802.5711 L3740.5273,2802.5711 A0,0 0 0 0 3740.5273,2802.5711 L3740.5273,2506.3339 L3709.2773,2475.0839 L3165.2847,2475.0839 A0,0 0 0 0 3165.2847,2475.0839" fill="#FFFFFF" style="stroke:#000000;stroke-width:3.125;"/><path d="M3709.2773,2475.0839 L3709.2773,2506.3339 L3740.5273,2506.3339 L3709.2773,2475.0839" fill="#FFFFFF" style="stroke:#000000;stroke-width:3.125;"/><text fill="#000000" font-family="Verdana" font-size="40.625" font-weight="bold" lengthAdjust="spacing" textLength="476.5106" x="3184.0347" y="2531.5521">Alternative Methods:</text><text fill="#000000" font-family="Verdana" font-size="40.625" lengthAdjust="spacing" textLength="451.12" x="3184.0347" y="2580.925">&#8226; Contrapositive proof</text><text fill="#000000" font-family="Verdana" font-size="40.625" lengthAdjust="spacing" textLength="484.2072" x="3184.0347" y="2630.2979">&#8226; Proof by contradiction</text><text fill="#000000" font-family="Verdana" font-size="40.625" lengthAdjust="spacing" textLength="509.6176" x="3184.0347" y="2679.6707">&#8226; Mathematical induction</text><text fill="#000000" font-family="Verdana" font-size="40.625" lengthAdjust="spacing" textLength="331.8832" x="3184.0347" y="2729.0436">&#8226; Proof by cases</text><text fill="#000000" font-family="Verdana" font-size="40.625" lengthAdjust="spacing" textLength="412.4786" x="3184.0347" y="2778.4164">&#8226; Constructive proof</text><rect fill="#FFFFFF" height="108.075" rx="39.0625" ry="39.0625" style="stroke:#000000;stroke-width:3.125;" width="729.0955" x="2373.6893" y="2584.79"/><text fill="#000000" font-family="Verdana" font-size="37.5" lengthAdjust="spacing" textLength="666.5955" x="2404.9393" y="2653.7415">Consider alternative proof methods</text><ellipse cx="2738.237" cy="2899.4461" fill="none" rx="34.375" ry="34.375" style="stroke:#000000;stroke-width:3.125;"/><ellipse cx="2738.237" cy="2899.4461" fill="#FFFFFF" rx="18.75" ry="18.75" style="stroke:#000000;stroke-width:3.125;"/><rect fill="#FFFFFF" height="153.6499" rx="39.0625" ry="39.0625" style="stroke:#000000;stroke-width:3.125;" width="467.6941" x="3803.0273" y="2475.0839"/><text fill="#000000" font-family="Verdana" font-size="37.5" lengthAdjust="spacing" textLength="352.1484" x="3834.2773" y="2544.0353">Check for errors in</text><text fill="#000000" font-family="Verdana" font-size="37.5" lengthAdjust="spacing" textLength="405.1941" x="3834.2773" y="2589.6103">previous logical steps</text><polygon fill="#FFFFFF" points="2654.4308,2965.0711,2691.9308,3002.5711,2654.4308,3040.0711,2616.9308,3002.5711,2654.4308,2965.0711" style="stroke:#000000;stroke-width:3.125;"/><polygon fill="#FFFFFF" points="1869.2038,715.5121,1906.7038,753.0121,1869.2038,790.5121,1831.7038,753.0121,1869.2038,715.5121" style="stroke:#000000;stroke-width:3.125;"/><polygon fill="#FFFFFF" points="1692.5367,3102.5711,2045.8708,3102.5711,2083.3708,3140.0711,2045.8708,3177.5711,1692.5367,3177.5711,1655.0367,3140.0711,1692.5367,3102.5711" style="stroke:#000000;stroke-width:3.125;"/><text fill="#000000" font-family="Verdana" font-size="34.375" lengthAdjust="spacing" textLength="353.334" x="1692.5367" y="3153.7422">Continue reasoning?</text><text fill="#000000" font-family="Verdana" font-size="34.375" lengthAdjust="spacing" textLength="59.5352" x="2083.3708" y="3132.8537">Yes</text><line style="stroke:#000000;stroke-width:3.125;" x1="1869.2038" x2="1869.2038" y1="78.125" y2="173.5062"/><polygon fill="#000000" points="1856.7038,142.2562,1869.2038,173.5062,1881.7038,142.2562,1869.2038,154.7562" style="stroke:#000000;stroke-width:3.125;"/><line style="stroke:#000000;stroke-width:3.125;" x1="1869.2038" x2="1869.2038" y1="372.731" y2="499.3622"/><polygon fill="#000000" points="1856.7038,468.1122,1869.2038,499.3622,1881.7038,468.1122,1869.2038,480.6122" style="stroke:#000000;stroke-width:3.125;"/><line style="stroke:#000000;stroke-width:3.125;" x1="1083.9767" x2="1083.9767" y1="2192.6537" y2="2387.0483"/><polygon fill="#000000" points="1071.4767,2355.7983,1083.9767,2387.0483,1096.4767,2355.7983,1083.9767,2368.2983" style="stroke:#000000;stroke-width:3.125;"/><line style="stroke:#000000;stroke-width:3.125;" x1="2738.237" x2="2738.237" y1="2692.865" y2="2865.0711"/><polygon fill="#000000" points="2725.737,2833.8211,2738.237,2865.0711,2750.737,2833.8211,2738.237,2846.3211" style="stroke:#000000;stroke-width:3.125;"/><line style="stroke:#000000;stroke-width:3.125;" x1="3131.9221" x2="2738.237" y1="2406.3339" y2="2406.3339"/><line style="stroke:#000000;stroke-width:3.125;" x1="2738.237" x2="2738.237" y1="2406.3339" y2="2584.79"/><polygon fill="#000000" points="2725.737,2553.54,2738.237,2584.79,2750.737,2553.54,2738.237,2566.04" style="stroke:#000000;stroke-width:3.125;"/><line style="stroke:#000000;stroke-width:3.125;" x1="3643.1892" x2="4036.8744" y1="2406.3339" y2="2406.3339"/><line style="stroke:#000000;stroke-width:3.125;" x1="4036.8744" x2="4036.8744" y1="2406.3339" y2="2475.0839"/><polygon fill="#000000" points="4024.3744,2443.8339,4036.8744,2475.0839,4049.3744,2443.8339,4036.8744,2456.3339" style="stroke:#000000;stroke-width:3.125;"/><line style="stroke:#000000;stroke-width:3.125;" x1="4036.8744" x2="4036.8744" y1="2628.7338" y2="3002.5711"/><line style="stroke:#000000;stroke-width:3.125;" x1="4036.8744" x2="2691.9308" y1="3002.5711" y2="3002.5711"/><polygon fill="#000000" points="2723.1808,2990.0711,2691.9308,3002.5711,2723.1808,3015.0711,2710.6808,3002.5711" style="stroke:#000000;stroke-width:3.125;"/><line style="stroke:#000000;stroke-width:3.125;" x1="2421.2887" x2="1921.3058" y1="2300.0839" y2="2300.0839"/><line style="stroke:#000000;stroke-width:3.125;" x1="1921.3058" x2="1921.3058" y1="2300.0839" y2="2368.8339"/><polygon fill="#000000" points="1908.8058,2337.5839,1921.3058,2368.8339,1933.8058,2337.5839,1921.3058,2350.0839" style="stroke:#000000;stroke-width:3.125;"/><line style="stroke:#000000;stroke-width:3.125;" x1="2887.5729" x2="3387.5557" y1="2300.0839" y2="2300.0839"/><line style="stroke:#000000;stroke-width:3.125;" x1="3387.5557" x2="3387.5557" y1="2300.0839" y2="2368.8339"/><polygon fill="#000000" points="3375.0557,2337.5839,3387.5557,2368.8339,3400.0557,2337.5839,3387.5557,2350.0839" style="stroke:#000000;stroke-width:3.125;"/><line style="stroke:#000000;stroke-width:3.125;" x1="1921.3058" x2="1921.3058" y1="2476.9089" y2="3002.5711"/><line style="stroke:#000000;stroke-width:3.125;" x1="1921.3058" x2="2616.9308" y1="3002.5711" y2="3002.5711"/><polygon fill="#000000" points="2585.6808,2990.0711,2616.9308,3002.5711,2585.6808,3015.0711,2598.1808,3002.5711" style="stroke:#000000;stroke-width:3.125;"/><line style="stroke:#000000;stroke-width:3.125;" x1="2654.4308" x2="2654.4308" y1="2153.2089" y2="2262.5839"/><polygon fill="#000000" points="2641.9308,2231.3339,2654.4308,2262.5839,2666.9308,2231.3339,2654.4308,2243.8339" style="stroke:#000000;stroke-width:3.125;"/><line style="stroke:#000000;stroke-width:3.125;" x1="1633.6363" x2="1083.9767" y1="1930.809" y2="1930.809"/><line style="stroke:#000000;stroke-width:3.125;" x1="1083.9767" x2="1083.9767" y1="1930.809" y2="2084.5787"/><polygon fill="#000000" points="1071.4767,2053.3287,1083.9767,2084.5787,1096.4767,2053.3287,1083.9767,2065.8287" style="stroke:#000000;stroke-width:3.125;"/><line style="stroke:#000000;stroke-width:3.125;" x1="2104.7712" x2="2654.4308" y1="1930.809" y2="1930.809"/><line style="stroke:#000000;stroke-width:3.125;" x1="2654.4308" x2="2654.4308" y1="1930.809" y2="1999.559"/><polygon fill="#000000" points="2641.9308,1968.309,2654.4308,1999.559,2666.9308,1968.309,2654.4308,1980.809" style="stroke:#000000;stroke-width:3.125;"/><line style="stroke:#000000;stroke-width:3.125;" x1="2654.4308" x2="2654.4308" y1="3040.0711" y2="3055.6961"/><line style="stroke:#000000;stroke-width:3.125;" x1="2654.4308" x2="1869.2038" y1="3055.6961" y2="3055.6961"/><line style="stroke:#000000;stroke-width:3.125;" x1="1869.2038" x2="1869.2038" y1="3055.6961" y2="3102.5711"/><polygon fill="#000000" points="1856.7038,3071.3211,1869.2038,3102.5711,1881.7038,3071.3211,1869.2038,3083.8211" style="stroke:#000000;stroke-width:3.125;"/><line style="stroke:#000000;stroke-width:3.125;" x1="1869.2038" x2="1869.2038" y1="1188.9618" y2="1893.309"/><polygon fill="#000000" points="1856.7038,1862.059,1869.2038,1893.309,1881.7038,1862.059,1869.2038,1874.559" style="stroke:#000000;stroke-width:3.125;"/><line style="stroke:#000000;stroke-width:3.125;" x1="1869.2038" x2="1869.2038" y1="790.5121" y2="853.0121"/><polygon fill="#000000" points="1856.7038,821.7621,1869.2038,853.0121,1881.7038,821.7621,1869.2038,834.2621" style="stroke:#000000;stroke-width:3.125;"/><line style="stroke:#000000;stroke-width:3.125;" x1="2083.3708" x2="4314.4714" y1="3140.0711" y2="3140.0711"/><polygon fill="#000000" points="4301.9714,1974.6666,4314.4714,1943.4166,4326.9714,1974.6666,4314.4714,1962.1666" style="stroke:#000000;stroke-width:3.125;"/><line style="stroke:#000000;stroke-width:3.125;" x1="4314.4714" x2="4314.4714" y1="753.0121" y2="3140.0711"/><line style="stroke:#000000;stroke-width:3.125;" x1="4314.4714" x2="1906.7038" y1="753.0121" y2="753.0121"/><polygon fill="#000000" points="1937.9538,740.5121,1906.7038,753.0121,1937.9538,765.5121,1925.4538,753.0121" style="stroke:#000000;stroke-width:3.125;"/><line style="stroke:#000000;stroke-width:3.125;" x1="1869.2038" x2="1869.2038" y1="653.0121" y2="715.5121"/><polygon fill="#000000" points="1856.7038,684.2621,1869.2038,715.5121,1881.7038,684.2621,1869.2038,696.7621" style="stroke:#000000;stroke-width:3.125;"/><!--SRC=[TLLBRkD64Dtp59LL9C4339oiP4m2mvEF5sD8emH106zQP55iYEnckfkIlSigcDKiSeGSmSW9V1IV9A-wIKgo9e80KUoghbUlNbLz5IfkcDfQQPDz7NIecTvhntcWXREsf0ySAbkGDdZjSyU1wOCI9nLqxhFCRxLfbLCD5QscRzw-nQkWNCYo-KzwnsPEgw02OfX0mSgbExut2thvwszQtfl9RKaBmds6bjEhB3CM0PpUL24ZcirEeAo2w_BGEPxDSBYIABJNeQBgiRMumcjF2vpywfbgkz6vgia7Rhq4TgpoYfOPpd-fO8WlNAYnFi38AGbPMhTNhe29CWNbjccigH-fyrnG6o4qaOsCSIn8aUIrznq8NCGBNOVS9dBl0P9avRXb9HdDhziMDmxe0CfReyr641RiG1YO3kmQBZHOI_3dS7pvyv-OrqOuXMcfZGxQ6X-XgWTj6z-RfH1RO_T6KhIEcsHLSzEemMh13kasfEeDhv5-Jeqokkrg5Qyz2Zc0BRW0_JWarzKyMAowjOTiEe1D8NUgxjXV2T6wfCb7uPs5JPFNdHVtvVVJLF79x-odi0ClD_6uu3drqX0-Mn4BieqYG4uldpx7UocIZtpA4F-9Kf94RcpJrj1eL8XyLbsUi_TbLyFVLuaJDRZjWO9tx0xbk-XFbjHqK8QglQKrnwF-95JETfkgHtKgj6Xo48Vyyy6syiGrg9pSsJxVsm8DeSj7ClnmUicziOuQxRt80gmPZgJtYGkbFzeE8S2pBfAxk9rpcbWDsdISsaGLHTJCiV2k4kGJS2dA7QDgXIvBTjAxgaKrKCelnKcHl8Q2mHZaQo0YIFcuPtoVm5YzeSc7psnsVUIQnewVZuMKZ-XDKdAgjLuVGhmoIL9OFmfxi2rq9F2LqM68WGvjUcd_xqtAipz7ukD4EiTnAe5H1lrXJpQzeO-yqxodlNNROouhphU4xYHspZhCAdDlMWTRs_bJmLrbOq1TPiTFwJSD7kXSOwvFHZcCvKSr8VnKopVVtLaKgQmjM87sZdjiDljDYduoZcNQEeOy71UfJd4UZDE-KfxocfKR8OEaZKCtoX3esxpt-lbeWiUsXvPyd1bnuyID8fXQY_7O-zoU3KfIBkPMQ3Gx1Aj4kRtr-rSZCmqheEdguCKOBiEWwLrG8iERD0y9rSZZS7aGM6CZ-M4d3VFmN1LUnWo0FTgErfskYxXuKkIZJNBA-s45tjGAZENqmuEIy8dfsMpa6Iy8IzH8FJ3Bp4NgJ_FyDBp9pbPfkgHVNQEdPF3fN_n_HvT9VzusQI5jqDbRcXps3a40uZCTd13k7KqkjzFuyEqMFnF_HwUSfBH6SKdcWp-rluJ3yzEK9gNAWnLJELzfapF9YI1JPa1m0JK6QYAyvwVJYnf46pOHu1s7wRFx8dfPAOcUct4_2Q475P-leKFD_WC0]--></g></svg>
