<svg xmlns="http://www.w3.org/2000/svg" xmlns:xlink="http://www.w3.org/1999/xlink" contentStyleType="text/css" data-diagram-type="ACTIVITY" height="5712.5px" preserveAspectRatio="none" style="width:4234px;height:5712px;background:#FFFFFF;" version="1.1" viewBox="0 0 4234 5712" width="4234.375px" zoomAndPan="magnify"><defs/><g><ellipse cx="1920.3522" cy="46.875" fill="#FFFFFF" rx="31.25" ry="31.25" style="stroke:#000000;stroke-width:3.125;"/><path d="M2266.6138,109.375 L2266.6138,285.305 L2204.1138,297.805 L2266.6138,310.305 L2266.6138,486.235 A0,0 0 0 0 2266.6138,486.235 L3035.6186,486.235 A0,0 0 0 0 3035.6186,486.235 L3035.6186,140.625 L3004.3686,109.375 L2266.6138,109.375 A0,0 0 0 0 2266.6138,109.375" fill="#FFFFFF" style="stroke:#000000;stroke-width:3.125;"/><path d="M3004.3686,109.375 L3004.3686,140.625 L3035.6186,140.625 L3004.3686,109.375" fill="#FFFFFF" style="stroke:#000000;stroke-width:3.125;"/><text fill="#000000" font-family="Verdana" font-size="40.625" font-weight="bold" lengthAdjust="spacing" textLength="546.1563" x="2285.3638" y="165.8432">Proof by Cases Strategy</text><text fill="#000000" font-family="Verdana" font-size="40.625" lengthAdjust="spacing" textLength="674.4583" x="2285.3638" y="215.2161">When P can be broken down into</text><text fill="#000000" font-family="Verdana" font-size="40.625" lengthAdjust="spacing" textLength="703.3798" x="2285.3638" y="264.5889">mutually exclusive and exhaustive</text><text fill="#000000" font-family="Verdana" font-size="40.625" lengthAdjust="spacing" textLength="588.4872" x="2285.3638" y="313.9618">cases, prove Q for each case</text><text fill="#000000" font-family="Verdana" font-size="40.625" lengthAdjust="spacing" textLength="14.2822" x="2285.3638" y="363.3347">&#160;</text><text fill="#000000" font-family="Verdana" font-size="40.625" lengthAdjust="spacing" textLength="675.5493" x="2285.3638" y="412.7075">Also called "Proof by Exhaustion"</text><text fill="#000000" font-family="Verdana" font-size="40.625" lengthAdjust="spacing" textLength="372.5281" x="2285.3638" y="462.0804">or "Case Analysis"</text><rect fill="#FFFFFF" height="199.2249" rx="39.0625" ry="39.0625" style="stroke:#000000;stroke-width:3.125;" width="567.5232" x="1636.5906" y="198.1926"/><text fill="#000000" font-family="Verdana" font-size="37.5" lengthAdjust="spacing" textLength="505.0232" x="1667.8406" y="267.144">Given: Statement to Prove</text><text fill="#000000" font-family="Verdana" font-size="37.5" lengthAdjust="spacing" textLength="115.9973" x="1865.5945" y="312.719">P &#8594; Q</text><text fill="#000000" font-family="Verdana" font-size="37.5" lengthAdjust="spacing" textLength="239.2822" x="1799.6765" y="358.2939">(If P then Q)</text><rect fill="#FFFFFF" height="199.2249" rx="39.0625" ry="39.0625" style="stroke:#000000;stroke-width:3.125;" width="696.3013" x="1572.2015" y="548.735"/><text fill="#000000" font-family="Verdana" font-size="37.5" lengthAdjust="spacing" textLength="633.8013" x="1603.4515" y="617.6865">Analyze hypothesis P and identify</text><text fill="#000000" font-family="Verdana" font-size="37.5" lengthAdjust="spacing" textLength="473.9136" x="1603.4515" y="663.2614">all possible distinct cases</text><text fill="#000000" font-family="Verdana" font-size="37.5" lengthAdjust="spacing" textLength="337.1521" x="1603.4515" y="708.8364">P&#8321;, P&#8322;, P&#8323;, ..., P&#8345;</text><rect fill="#FFFFFF" height="199.2249" rx="39.0625" ry="39.0625" style="stroke:#000000;stroke-width:3.125;" width="954.1687" x="1443.2678" y="810.4599"/><text fill="#000000" font-family="Verdana" font-size="37.5" lengthAdjust="spacing" textLength="487.9028" x="1474.5178" y="879.4113">Verify case requirements:</text><text fill="#000000" font-family="Verdana" font-size="37.5" lengthAdjust="spacing" textLength="20.4529" x="1474.5178" y="924.9863">&#8226;</text><text fill="#000000" font-family="Verdana" font-size="37.5" font-weight="bold" lengthAdjust="spacing" textLength="230.603" x="1508.1543" y="924.9863">Exhaustive</text><text fill="#000000" font-family="Verdana" font-size="37.5" lengthAdjust="spacing" textLength="488.3972" x="1738.7573" y="924.9863">: P&#8321; &#8744; P&#8322; &#8744; ... &#8744; P&#8345; = P</text><text fill="#000000" font-family="Verdana" font-size="37.5" lengthAdjust="spacing" textLength="20.4529" x="1474.5178" y="970.5612">&#8226;</text><text fill="#000000" font-family="Verdana" font-size="37.5" font-weight="bold" lengthAdjust="spacing" textLength="390.6006" x="1508.1543" y="970.5612">Mutually Exclusive</text><text fill="#000000" font-family="Verdana" font-size="37.5" lengthAdjust="spacing" textLength="467.4316" x="1898.7549" y="970.5612">: P&#7522; &#8743; P&#11388; = &#8869; for i &#8800; j</text><polygon fill="#FFFFFF" points="1522.9416,1072.1848,2317.7628,1072.1848,2355.2628,1109.6848,2317.7628,1147.1848,1522.9416,1147.1848,1485.4416,1109.6848,1522.9416,1072.1848" style="stroke:#000000;stroke-width:3.125;"/><text fill="#000000" font-family="Verdana" font-size="34.375" lengthAdjust="spacing" textLength="794.8212" x="1522.9416" y="1123.3559">Cases are exhaustive and mutually exclusive?</text><text fill="#000000" font-family="Verdana" font-size="34.375" lengthAdjust="spacing" textLength="59.5352" x="1425.9064" y="1102.4673">Yes</text><text fill="#000000" font-family="Verdana" font-size="34.375" lengthAdjust="spacing" textLength="46.5775" x="2355.2628" y="1102.4673">No</text><rect fill="#FFFFFF" height="108.075" rx="39.0625" ry="39.0625" style="stroke:#000000;stroke-width:3.125;" width="544.5984" x="1181.8924" y="1178.4348"/><text fill="#000000" font-family="Verdana" font-size="37.5" lengthAdjust="spacing" textLength="482.0984" x="1213.1424" y="1247.3862">Cases properly defined &#10003;</text><rect fill="#FFFFFF" height="153.6499" rx="39.0625" ry="39.0625" style="stroke:#000000;stroke-width:3.125;" width="829.895" x="1971.5652" y="1178.4348"/><text fill="#000000" font-family="Verdana" font-size="37.5" lengthAdjust="spacing" textLength="422.5525" x="2002.8152" y="1247.3862">Refine case definitions</text><text fill="#000000" font-family="Verdana" font-size="37.5" lengthAdjust="spacing" textLength="767.395" x="2002.8152" y="1292.9611">to ensure completeness and disjointness</text><rect fill="#FFFFFF" height="153.6499" rx="39.0625" ry="39.0625" style="stroke:#000000;stroke-width:3.125;" width="564.0808" x="2104.4724" y="1546.7232"/><text fill="#000000" font-family="Verdana" font-size="37.5" lengthAdjust="spacing" textLength="499.1455" x="2135.7224" y="1615.6746">Cannot use proof by cases</text><text fill="#000000" font-family="Verdana" font-size="37.5" lengthAdjust="spacing" textLength="501.5808" x="2135.7224" y="1661.2495">Try different proof method</text><ellipse cx="2386.5128" cy="1828.2356" fill="none" rx="34.375" ry="34.375" style="stroke:#000000;stroke-width:3.125;"/><ellipse cx="2386.5128" cy="1828.2356" fill="#FFFFFF" rx="18.75" ry="18.75" style="stroke:#000000;stroke-width:3.125;"/><polygon fill="#FFFFFF" points="2239.6553,1394.5847,2533.3702,1394.5847,2570.8702,1432.0847,2533.3702,1469.5847,2239.6553,1469.5847,2202.1553,1432.0847,2239.6553,1394.5847" style="stroke:#000000;stroke-width:3.125;"/><text fill="#000000" font-family="Verdana" font-size="34.375" lengthAdjust="spacing" textLength="46.5775" x="2399.0128" y="1504.1443">No</text><text fill="#000000" font-family="Verdana" font-size="34.375" lengthAdjust="spacing" textLength="293.7149" x="2239.6553" y="1445.7558">Cases corrected?</text><text fill="#000000" font-family="Verdana" font-size="34.375" lengthAdjust="spacing" textLength="59.5352" x="2570.8702" y="1424.8672">Yes</text><polygon fill="#FFFFFF" points="1920.3522,1950.1106,1957.8522,1987.6106,1920.3522,2025.1106,1882.8522,1987.6106,1920.3522,1950.1106" style="stroke:#000000;stroke-width:3.125;"/><rect fill="#FFFFFF" height="108.075" rx="39.0625" ry="39.0625" style="stroke:#000000;stroke-width:3.125;" width="904.3274" x="1468.1885" y="2087.6106"/><text fill="#000000" font-family="Verdana" font-size="37.5" lengthAdjust="spacing" textLength="841.8274" x="1499.4385" y="2156.562">Initialize: case_counter = 1, total_cases = n</text><path d="M741.42,2364.4356 L741.42,2593.177 A0,0 0 0 0 741.42,2593.177 L1437.2284,2593.177 A0,0 0 0 0 1437.2284,2593.177 L1437.2284,2491.3063 L1499.7284,2478.8063 L1437.2284,2466.3063 L1437.2284,2395.6856 L1405.9784,2364.4356 L741.42,2364.4356 A0,0 0 0 0 741.42,2364.4356" fill="#FFFFFF" style="stroke:#000000;stroke-width:3.125;"/><path d="M1405.9784,2364.4356 L1405.9784,2395.6856 L1437.2284,2395.6856 L1405.9784,2364.4356" fill="#FFFFFF" style="stroke:#000000;stroke-width:3.125;"/><text fill="#000000" font-family="Verdana" font-size="40.625" font-weight="bold" lengthAdjust="spacing" textLength="294.6503" x="760.17" y="2420.9038">Current Case</text><text fill="#000000" font-family="Verdana" font-size="40.625" lengthAdjust="spacing" textLength="630.1834" x="760.17" y="2470.2766">Working under the assumption</text><text fill="#000000" font-family="Verdana" font-size="40.625" lengthAdjust="spacing" textLength="576.5656" x="760.17" y="2519.6495">that this specific case holds,</text><text fill="#000000" font-family="Verdana" font-size="40.625" lengthAdjust="spacing" textLength="412.796" x="760.17" y="2569.0224">prove that Q follows</text><rect fill="#FFFFFF" height="108.075" rx="39.0625" ry="39.0625" style="stroke:#000000;stroke-width:3.125;" width="841.2476" x="1499.7284" y="2424.7688"/><text fill="#000000" font-family="Verdana" font-size="37.5" font-weight="bold" lengthAdjust="spacing" textLength="394.9402" x="1530.9784" y="2493.7202">Case case_counter</text><text fill="#000000" font-family="Verdana" font-size="37.5" lengthAdjust="spacing" textLength="383.8074" x="1925.9186" y="2493.7202">: Assume P&#7522; is true</text><rect fill="#FFFFFF" height="290.3748" rx="39.0625" ry="39.0625" style="stroke:#000000;stroke-width:3.125;" width="910.6079" x="1465.0482" y="2793.177"/><text fill="#000000" font-family="Verdana" font-size="37.5" lengthAdjust="spacing" textLength="695.343" x="1496.2982" y="2862.1284">Apply logical reasoning for this case:</text><text fill="#000000" font-family="Verdana" font-size="37.5" lengthAdjust="spacing" textLength="604.6326" x="1496.2982" y="2907.7034">&#8226; Use case-specific assumptions</text><text fill="#000000" font-family="Verdana" font-size="37.5" lengthAdjust="spacing" textLength="787.2803" x="1496.2982" y="2953.2784">&#8226; Apply relevant definitions and theorems</text><text fill="#000000" font-family="Verdana" font-size="37.5" lengthAdjust="spacing" textLength="747.1802" x="1496.2982" y="2998.8533">&#8226; Perform case-appropriate calculations</text><text fill="#000000" font-family="Verdana" font-size="37.5" lengthAdjust="spacing" textLength="848.1079" x="1496.2982" y="3044.4283">&#8226; Use direct proof techniques within the case</text><path d="M276.7456,3114.8018 L276.7456,3541.0347 L1566.8137,3541.0347 L1566.8137,3146.0518 L1535.5637,3114.8018 L276.7456,3114.8018" fill="#FFFFFF" style="stroke:#000000;stroke-width:3.125;"/><path d="M1535.5637,3114.8018 L1535.5637,3146.0518 L1566.8137,3146.0518 L1535.5637,3114.8018" fill="#FFFFFF" style="stroke:#000000;stroke-width:3.125;"/><text fill="#000000" font-family="Verdana" font-size="40.625" font-weight="bold" lengthAdjust="spacing" textLength="656.4072" x="295.4956" y="3171.27">When to Use Proof by Cases:</text><text fill="#000000" font-family="Verdana" font-size="40.625" lengthAdjust="spacing" textLength="834.3201" x="295.4956" y="3220.6429">&#8226; P naturally splits into distinct scenarios</text><text fill="#000000" font-family="Verdana" font-size="40.625" lengthAdjust="spacing" textLength="1081.4423" x="295.4956" y="3270.0157">&#8226; Different techniques needed for different situations</text><text fill="#000000" font-family="Verdana" font-size="40.625" lengthAdjust="spacing" textLength="1224.4431" x="295.4956" y="3319.3886">&#8226; Absolute values, parity (even/odd), or sign considerations</text><text fill="#000000" font-family="Verdana" font-size="40.625" lengthAdjust="spacing" textLength="895.4758" x="295.4956" y="3368.7614">&#8226; Finite domains or enumerable possibilities</text><text fill="#000000" font-family="Verdana" font-size="40.625" lengthAdjust="spacing" textLength="985.4935" x="295.4956" y="3418.1343">&#8226; Conditional statements with multiple branches</text><text fill="#000000" font-family="Verdana" font-size="40.625" lengthAdjust="spacing" textLength="860.6232" x="295.4956" y="3467.5072">&#8226; When direct proof becomes too complex</text><text fill="#000000" font-family="Verdana" font-size="40.625" lengthAdjust="spacing" textLength="977.6978" x="295.4956" y="3516.88">&#8226; Geometric proofs with different configurations</text><path d="M2273.8907,3114.8018 L2273.8907,4065.1466 L3336.8713,4065.1466 L3336.8713,3146.0518 L3305.6213,3114.8018 L2273.8907,3114.8018" fill="#FFFFFF" style="stroke:#000000;stroke-width:3.125;"/><path d="M3305.6213,3114.8018 L3305.6213,3146.0518 L3336.8713,3146.0518 L3305.6213,3114.8018" fill="#FFFFFF" style="stroke:#000000;stroke-width:3.125;"/><text fill="#000000" font-family="Verdana" font-size="40.625" font-weight="bold" lengthAdjust="spacing" textLength="380.9586" x="2292.6407" y="3171.27">Classic Example:</text><text fill="#000000" font-family="Verdana" font-size="40.625" font-weight="bold" lengthAdjust="spacing" textLength="253.7476" x="2292.6407" y="3220.6429">Statement:</text><text fill="#000000" font-family="Verdana" font-size="40.625" lengthAdjust="spacing" textLength="660.4935" x="2560.6705" y="3220.6429">For any integer n, n&#178; - n is even</text><text fill="#000000" font-family="Verdana" font-size="40.625" lengthAdjust="spacing" textLength="14.2822" x="2292.6407" y="3270.0157">&#160;</text><text fill="#000000" font-family="Verdana" font-size="40.625" font-weight="bold" lengthAdjust="spacing" textLength="546.434" x="2292.6407" y="3319.3886">Case Analysis by Parity:</text><text fill="#000000" font-family="Verdana" font-size="40.625" lengthAdjust="spacing" textLength="14.2822" x="2292.6407" y="3368.7614">&#160;</text><text fill="#000000" font-family="Verdana" font-size="40.625" font-weight="bold" lengthAdjust="spacing" textLength="166.7252" x="2292.6407" y="3418.1343">Case 1:</text><text fill="#000000" font-family="Verdana" font-size="40.625" lengthAdjust="spacing" textLength="184.7366" x="2473.6481" y="3418.1343">n is even</text><text fill="#000000" font-family="Verdana" font-size="40.625" lengthAdjust="spacing" textLength="605.3879" x="2292.6407" y="3467.5072">Let n = 2k for some integer k</text><text fill="#000000" font-family="Verdana" font-size="40.625" lengthAdjust="spacing" textLength="889.7827" x="2292.6407" y="3516.88">n&#178; - n = (2k)&#178; - 2k = 4k&#178; - 2k = 2k(2k - 1)</text><text fill="#000000" font-family="Verdana" font-size="40.625" lengthAdjust="spacing" textLength="997.3557" x="2292.6407" y="3566.2529">Since this is 2 times an integer, n&#178; - n is even &#10003;</text><text fill="#000000" font-family="Verdana" font-size="40.625" lengthAdjust="spacing" textLength="14.2822" x="2292.6407" y="3615.6258">&#160;</text><text fill="#000000" font-family="Verdana" font-size="40.625" font-weight="bold" lengthAdjust="spacing" textLength="166.7252" x="2292.6407" y="3664.9986">Case 2:</text><text fill="#000000" font-family="Verdana" font-size="40.625" lengthAdjust="spacing" textLength="161.8652" x="2473.6481" y="3664.9986">n is odd</text><text fill="#000000" font-family="Verdana" font-size="40.625" lengthAdjust="spacing" textLength="693.0252" x="2292.6407" y="3714.3715">Let n = 2k + 1 for some integer k</text><text fill="#000000" font-family="Verdana" font-size="40.625" lengthAdjust="spacing" textLength="600.0916" x="2292.6407" y="3763.7444">n&#178; - n = (2k + 1)&#178; - (2k + 1)</text><text fill="#000000" font-family="Verdana" font-size="53.125" font-weight="bold" lengthAdjust="spacing" textLength="959.259" x="2292.6407" y="3825.6844">4k&#178; + 4k + 1 - 2k - 1 = 4k&#178; + 2k</text><text fill="#000000" font-family="Verdana" font-size="53.125" font-weight="bold" lengthAdjust="spacing" textLength="324.7162" x="2292.6407" y="3890.2489">2k(2k + 1)</text><text fill="#000000" font-family="Verdana" font-size="40.625" lengthAdjust="spacing" textLength="997.3557" x="2292.6407" y="3942.2462">Since this is 2 times an integer, n&#178; - n is even &#10003;</text><text fill="#000000" font-family="Verdana" font-size="40.625" lengthAdjust="spacing" textLength="14.2822" x="2292.6407" y="3991.6191">&#160;</text><text fill="#000000" font-family="Verdana" font-size="40.625" font-weight="bold" lengthAdjust="spacing" textLength="264.122" x="2292.6407" y="4040.992">Conclusion:</text><text fill="#000000" font-family="Verdana" font-size="40.625" lengthAdjust="spacing" textLength="699.0952" x="2571.0449" y="4040.992">Both cases prove n&#178; - n is even &#8718;</text><polygon fill="#FFFFFF" points="1604.3137,4065.1466,2236.3907,4065.1466,2273.8907,4102.6466,2236.3907,4140.1466,1604.3137,4140.1466,1566.8137,4102.6466,1604.3137,4065.1466" style="stroke:#000000;stroke-width:3.125;"/><text fill="#000000" font-family="Verdana" font-size="34.375" lengthAdjust="spacing" textLength="632.077" x="1604.3137" y="4116.3177">Successfully derived Q for this case?</text><text fill="#000000" font-family="Verdana" font-size="34.375" lengthAdjust="spacing" textLength="59.5352" x="1507.2784" y="4095.4292">Yes</text><text fill="#000000" font-family="Verdana" font-size="34.375" lengthAdjust="spacing" textLength="46.5775" x="2273.8907" y="4095.4292">No</text><rect fill="#FFFFFF" height="108.075" rx="39.0625" ry="39.0625" style="stroke:#000000;stroke-width:3.125;" width="1045.1355" x="553.1433" y="4171.3966"/><text fill="#000000" font-family="Verdana" font-size="37.5" lengthAdjust="spacing" textLength="982.6355" x="584.3933" y="4240.3481">Conclude: P&#7522; &#8594; Q proven for Case case_counter &#10003;</text><rect fill="#FFFFFF" height="108.075" rx="39.0625" ry="39.0625" style="stroke:#000000;stroke-width:3.125;" width="701.7578" x="724.8322" y="4341.9716"/><text fill="#000000" font-family="Verdana" font-size="37.5" lengthAdjust="spacing" textLength="639.2578" x="756.0822" y="4410.923">case_counter = case_counter + 1</text><polygon fill="#FFFFFF" points="827.9358,4559.4215,1323.4863,4559.4215,1360.9863,4596.9215,1323.4863,4634.4215,827.9358,4634.4215,790.4358,4596.9215,827.9358,4559.4215" style="stroke:#000000;stroke-width:3.125;"/><text fill="#000000" font-family="Verdana" font-size="34.375" lengthAdjust="spacing" textLength="495.5505" x="827.9358" y="4610.5927">case_counter &gt; total_cases?</text><text fill="#000000" font-family="Verdana" font-size="34.375" lengthAdjust="spacing" textLength="59.5352" x="730.9006" y="4589.7041">Yes</text><text fill="#000000" font-family="Verdana" font-size="34.375" lengthAdjust="spacing" textLength="410.7712" x="1360.9863" y="4589.7041">No - More cases remain</text><rect fill="#FFFFFF" height="108.075" rx="39.0625" ry="39.0625" style="stroke:#000000;stroke-width:3.125;" width="670.4285" x="18.75" y="4665.6715"/><text fill="#000000" font-family="Verdana" font-size="37.5" lengthAdjust="spacing" textLength="607.9285" x="50" y="4734.623">All cases completed successfully</text><path d="M734.1644,4883.1215 L734.1644,4984.9922 L671.6644,4997.4922 L734.1644,5009.9922 L734.1644,5111.8629 A0,0 0 0 0 734.1644,5111.8629 L1532.2296,5111.8629 A0,0 0 0 0 1532.2296,5111.8629 L1532.2296,4914.3715 L1500.9796,4883.1215 L734.1644,4883.1215 A0,0 0 0 0 734.1644,4883.1215" fill="#FFFFFF" style="stroke:#000000;stroke-width:3.125;"/><path d="M1500.9796,4883.1215 L1500.9796,4914.3715 L1532.2296,4914.3715 L1500.9796,4883.1215" fill="#FFFFFF" style="stroke:#000000;stroke-width:3.125;"/><text fill="#000000" font-family="Verdana" font-size="40.625" font-weight="bold" lengthAdjust="spacing" textLength="566.1514" x="752.9144" y="4939.5897">Proof by Cases Complete</text><text fill="#000000" font-family="Verdana" font-size="40.625" lengthAdjust="spacing" textLength="709.053" x="752.9144" y="4988.9626">Each possible case of P leads to Q,</text><text fill="#000000" font-family="Verdana" font-size="40.625" lengthAdjust="spacing" textLength="732.4402" x="752.9144" y="5038.3354">and the cases cover all possibilities,</text><text fill="#000000" font-family="Verdana" font-size="40.625" lengthAdjust="spacing" textLength="547.6242" x="752.9144" y="5087.7083">so P &#8594; Q is true in general</text><rect fill="#FFFFFF" height="199.2249" rx="39.0625" ry="39.0625" style="stroke:#000000;stroke-width:3.125;" width="635.4004" x="36.264" y="4897.8798"/><text fill="#000000" font-family="Verdana" font-size="37.5" lengthAdjust="spacing" textLength="572.9004" x="67.514" y="4966.8312">Since P = P&#8321; &#8744; P&#8322; &#8744; ... &#8744; P&#8345;</text><text fill="#000000" font-family="Verdana" font-size="37.5" lengthAdjust="spacing" textLength="381.189" x="67.514" y="5012.4062">and P&#7522; &#8594; Q for all i</text><text fill="#000000" font-family="Verdana" font-size="37.5" lengthAdjust="spacing" textLength="565.2832" x="67.514" y="5057.9811">Therefore: P &#8594; Q is proven &#8718;</text><ellipse cx="353.9642" cy="5208.7379" fill="none" rx="34.375" ry="34.375" style="stroke:#000000;stroke-width:3.125;"/><ellipse cx="353.9642" cy="5208.7379" fill="#FFFFFF" rx="18.75" ry="18.75" style="stroke:#000000;stroke-width:3.125;"/><rect fill="#FFFFFF" height="108.075" rx="39.0625" ry="39.0625" style="stroke:#000000;stroke-width:3.125;" width="405.4565" x="1594.7296" y="4665.6715"/><text fill="#000000" font-family="Verdana" font-size="37.5" lengthAdjust="spacing" textLength="342.9565" x="1625.9796" y="4734.623">Move to next case</text><rect fill="#FFFFFF" height="108.075" rx="39.0625" ry="39.0625" style="stroke:#000000;stroke-width:3.125;" width="705.4382" x="2412.2742" y="4171.3966"/><text fill="#000000" font-family="Verdana" font-size="37.5" lengthAdjust="spacing" textLength="642.9382" x="2443.5242" y="4240.3481">Review reasoning for current case</text><polygon fill="#FFFFFF" points="2542.4118,4341.9716,2987.5748,4341.9716,3025.0748,4379.4716,2987.5748,4416.9716,2542.4118,4416.9716,2504.9118,4379.4716,2542.4118,4341.9716" style="stroke:#000000;stroke-width:3.125;"/><text fill="#000000" font-family="Verdana" font-size="34.375" lengthAdjust="spacing" textLength="445.163" x="2542.4118" y="4393.1427">Found error in case logic?</text><text fill="#000000" font-family="Verdana" font-size="34.375" lengthAdjust="spacing" textLength="59.5352" x="2445.3766" y="4372.2542">Yes</text><text fill="#000000" font-family="Verdana" font-size="34.375" lengthAdjust="spacing" textLength="46.5775" x="3025.0748" y="4372.2542">No</text><rect fill="#FFFFFF" height="108.075" rx="39.0625" ry="39.0625" style="stroke:#000000;stroke-width:3.125;" width="624.1943" x="2125.1862" y="4448.2216"/><text fill="#000000" font-family="Verdana" font-size="37.5" lengthAdjust="spacing" textLength="561.6943" x="2156.4362" y="4517.173">Correct the error for this case</text><path d="M3436.026,4448.2216 L3436.026,4550.0923 L3373.526,4562.5923 L3436.026,4575.0923 L3436.026,4676.963 A0,0 0 0 0 3436.026,4676.963 L4068.9133,4676.963 A0,0 0 0 0 4068.9133,4676.963 L4068.9133,4479.4716 L4037.6633,4448.2216 L3436.026,4448.2216 A0,0 0 0 0 3436.026,4448.2216" fill="#FFFFFF" style="stroke:#000000;stroke-width:3.125;"/><path d="M4037.6633,4448.2216 L4037.6633,4479.4716 L4068.9133,4479.4716 L4037.6633,4448.2216" fill="#FFFFFF" style="stroke:#000000;stroke-width:3.125;"/><text fill="#000000" font-family="Verdana" font-size="40.625" font-weight="bold" lengthAdjust="spacing" textLength="258.2108" x="3454.776" y="4504.6898">Case Failed</text><text fill="#000000" font-family="Verdana" font-size="40.625" lengthAdjust="spacing" textLength="567.2623" x="3454.776" y="4554.0627">If any case fails to prove Q,</text><text fill="#000000" font-family="Verdana" font-size="40.625" lengthAdjust="spacing" textLength="544.5297" x="3454.776" y="4603.4355">then the overall statement</text><text fill="#000000" font-family="Verdana" font-size="40.625" lengthAdjust="spacing" textLength="281.7368" x="3454.776" y="4652.8084">P &#8594; Q is false</text><rect fill="#FFFFFF" height="153.6499" rx="39.0625" ry="39.0625" style="stroke:#000000;stroke-width:3.125;" width="561.6455" x="2811.8805" y="4485.7674"/><text fill="#000000" font-family="Verdana" font-size="37.5" lengthAdjust="spacing" textLength="499.1455" x="2843.1305" y="4554.7188">This case cannot lead to Q</text><text fill="#000000" font-family="Verdana" font-size="37.5" lengthAdjust="spacing" textLength="451.6846" x="2843.1305" y="4600.2937">Statement may be false</text><ellipse cx="3092.7032" cy="4820.713" fill="none" rx="34.375" ry="34.375" style="stroke:#000000;stroke-width:3.125;"/><ellipse cx="3092.7032" cy="4820.713" fill="#FFFFFF" rx="18.75" ry="18.75" style="stroke:#000000;stroke-width:3.125;"/><polygon fill="#FFFFFF" points="1920.3522,5274.3629,1957.8522,5311.8629,1920.3522,5349.3629,1882.8522,5311.8629,1920.3522,5274.3629" style="stroke:#000000;stroke-width:3.125;"/><polygon fill="#FFFFFF" points="1920.3522,2655.677,1957.8522,2693.177,1920.3522,2730.677,1882.8522,2693.177,1920.3522,2655.677" style="stroke:#000000;stroke-width:3.125;"/><polygon fill="#FFFFFF" points="1619.5457,5411.8629,2221.1586,5411.8629,2258.6586,5449.3629,2221.1586,5486.8629,1619.5457,5486.8629,1582.0457,5449.3629,1619.5457,5411.8629" style="stroke:#000000;stroke-width:3.125;"/><text fill="#000000" font-family="Verdana" font-size="34.375" lengthAdjust="spacing" textLength="601.6129" x="1619.5457" y="5463.0341">Continue working on current case?</text><text fill="#000000" font-family="Verdana" font-size="34.375" lengthAdjust="spacing" textLength="59.5352" x="2258.6586" y="5442.1455">Yes</text><polygon fill="#FFFFFF" points="1920.3522,2258.1856,1957.8522,2295.6856,1920.3522,2333.1856,1882.8522,2295.6856,1920.3522,2258.1856" style="stroke:#000000;stroke-width:3.125;"/><polygon fill="#FFFFFF" points="1736.8454,5616.5314,2103.8589,5616.5314,2141.3589,5654.0314,2103.8589,5691.5314,1736.8454,5691.5314,1699.3454,5654.0314,1736.8454,5616.5314" style="stroke:#000000;stroke-width:3.125;"/><text fill="#000000" font-family="Verdana" font-size="34.375" lengthAdjust="spacing" textLength="367.0135" x="1736.8454" y="5667.7025">More cases to prove?</text><text fill="#000000" font-family="Verdana" font-size="34.375" lengthAdjust="spacing" textLength="59.5352" x="2141.3589" y="5646.814">Yes</text><line style="stroke:#000000;stroke-width:3.125;" x1="1920.3522" x2="1920.3522" y1="78.125" y2="198.1926"/><polygon fill="#000000" points="1907.8522,166.9426,1920.3522,198.1926,1932.8522,166.9426,1920.3522,179.4426" style="stroke:#000000;stroke-width:3.125;"/><line style="stroke:#000000;stroke-width:3.125;" x1="1920.3522" x2="1920.3522" y1="397.4174" y2="548.735"/><polygon fill="#000000" points="1907.8522,517.485,1920.3522,548.735,1932.8522,517.485,1920.3522,529.985" style="stroke:#000000;stroke-width:3.125;"/><line style="stroke:#000000;stroke-width:3.125;" x1="1920.3522" x2="1920.3522" y1="747.9599" y2="810.4599"/><polygon fill="#000000" points="1907.8522,779.2099,1920.3522,810.4599,1932.8522,779.2099,1920.3522,791.7099" style="stroke:#000000;stroke-width:3.125;"/><line style="stroke:#000000;stroke-width:3.125;" x1="2386.5128" x2="2386.5128" y1="1700.3731" y2="1793.8606"/><polygon fill="#000000" points="2374.0128,1762.6106,2386.5128,1793.8606,2399.0128,1762.6106,2386.5128,1775.1106" style="stroke:#000000;stroke-width:3.125;"/><line style="stroke:#000000;stroke-width:3.125;" x1="2386.5128" x2="2386.5128" y1="1469.5847" y2="1546.7232"/><polygon fill="#000000" points="2374.0128,1515.4732,2386.5128,1546.7232,2399.0128,1515.4732,2386.5128,1527.9732" style="stroke:#000000;stroke-width:3.125;"/><line style="stroke:#000000;stroke-width:3.125;" x1="2570.8702" x2="2699.8032" y1="1432.0847" y2="1432.0847"/><polygon fill="#000000" points="2687.3032,1700.1106,2699.8032,1731.3606,2712.3032,1700.1106,2699.8032,1712.6106" style="stroke:#000000;stroke-width:3.125;"/><line style="stroke:#000000;stroke-width:3.125;" x1="2699.8032" x2="2699.8032" y1="1432.0847" y2="1987.6106"/><line style="stroke:#000000;stroke-width:3.125;" x1="2699.8032" x2="1957.8522" y1="1987.6106" y2="1987.6106"/><polygon fill="#000000" points="1989.1022,1975.1106,1957.8522,1987.6106,1989.1022,2000.1106,1976.6022,1987.6106" style="stroke:#000000;stroke-width:3.125;"/><line style="stroke:#000000;stroke-width:3.125;" x1="2386.5128" x2="2386.5128" y1="1332.0847" y2="1394.5847"/><polygon fill="#000000" points="2374.0128,1363.3347,2386.5128,1394.5847,2399.0128,1363.3347,2386.5128,1375.8347" style="stroke:#000000;stroke-width:3.125;"/><line style="stroke:#000000;stroke-width:3.125;" x1="1485.4416" x2="1454.1916" y1="1109.6848" y2="1109.6848"/><line style="stroke:#000000;stroke-width:3.125;" x1="1454.1916" x2="1454.1916" y1="1109.6848" y2="1178.4348"/><polygon fill="#000000" points="1441.6916,1147.1848,1454.1916,1178.4348,1466.6916,1147.1848,1454.1916,1159.6848" style="stroke:#000000;stroke-width:3.125;"/><line style="stroke:#000000;stroke-width:3.125;" x1="2355.2628" x2="2386.5128" y1="1109.6848" y2="1109.6848"/><line style="stroke:#000000;stroke-width:3.125;" x1="2386.5128" x2="2386.5128" y1="1109.6848" y2="1178.4348"/><polygon fill="#000000" points="2374.0128,1147.1848,2386.5128,1178.4348,2399.0128,1147.1848,2386.5128,1159.6848" style="stroke:#000000;stroke-width:3.125;"/><line style="stroke:#000000;stroke-width:3.125;" x1="1454.1916" x2="1454.1916" y1="1286.5097" y2="1987.6106"/><line style="stroke:#000000;stroke-width:3.125;" x1="1454.1916" x2="1882.8522" y1="1987.6106" y2="1987.6106"/><polygon fill="#000000" points="1851.6022,1975.1106,1882.8522,1987.6106,1851.6022,2000.1106,1864.1022,1987.6106" style="stroke:#000000;stroke-width:3.125;"/><line style="stroke:#000000;stroke-width:3.125;" x1="1920.3522" x2="1920.3522" y1="1009.6848" y2="1072.1848"/><polygon fill="#000000" points="1907.8522,1040.9348,1920.3522,1072.1848,1932.8522,1040.9348,1920.3522,1053.4348" style="stroke:#000000;stroke-width:3.125;"/><line style="stroke:#000000;stroke-width:3.125;" x1="1920.3522" x2="1920.3522" y1="2025.1106" y2="2087.6106"/><polygon fill="#000000" points="1907.8522,2056.3606,1920.3522,2087.6106,1932.8522,2056.3606,1920.3522,2068.8606" style="stroke:#000000;stroke-width:3.125;"/><line style="stroke:#000000;stroke-width:3.125;" x1="1075.7111" x2="1075.7111" y1="4279.4716" y2="4341.9716"/><polygon fill="#000000" points="1063.2111,4310.7216,1075.7111,4341.9716,1088.2111,4310.7216,1075.7111,4323.2216" style="stroke:#000000;stroke-width:3.125;"/><line style="stroke:#000000;stroke-width:3.125;" x1="353.9642" x2="353.9642" y1="4773.7465" y2="4897.8798"/><polygon fill="#000000" points="341.4642,4866.6298,353.9642,4897.8798,366.4642,4866.6298,353.9642,4879.1298" style="stroke:#000000;stroke-width:3.125;"/><line style="stroke:#000000;stroke-width:3.125;" x1="353.9642" x2="353.9642" y1="5097.1046" y2="5174.3629"/><polygon fill="#000000" points="341.4642,5143.1129,353.9642,5174.3629,366.4642,5143.1129,353.9642,5155.6129" style="stroke:#000000;stroke-width:3.125;"/><line style="stroke:#000000;stroke-width:3.125;" x1="790.4358" x2="353.9642" y1="4596.9215" y2="4596.9215"/><line style="stroke:#000000;stroke-width:3.125;" x1="353.9642" x2="353.9642" y1="4596.9215" y2="4665.6715"/><polygon fill="#000000" points="341.4642,4634.4215,353.9642,4665.6715,366.4642,4634.4215,353.9642,4646.9215" style="stroke:#000000;stroke-width:3.125;"/><line style="stroke:#000000;stroke-width:3.125;" x1="1360.9863" x2="1797.4579" y1="4596.9215" y2="4596.9215"/><line style="stroke:#000000;stroke-width:3.125;" x1="1797.4579" x2="1797.4579" y1="4596.9215" y2="4665.6715"/><polygon fill="#000000" points="1784.9579,4634.4215,1797.4579,4665.6715,1809.9579,4634.4215,1797.4579,4646.9215" style="stroke:#000000;stroke-width:3.125;"/><line style="stroke:#000000;stroke-width:3.125;" x1="1797.4579" x2="1797.4579" y1="4773.7465" y2="5311.8629"/><line style="stroke:#000000;stroke-width:3.125;" x1="1797.4579" x2="1882.8522" y1="5311.8629" y2="5311.8629"/><polygon fill="#000000" points="1851.6022,5299.3629,1882.8522,5311.8629,1851.6022,5324.3629,1864.1022,5311.8629" style="stroke:#000000;stroke-width:3.125;"/><line style="stroke:#000000;stroke-width:3.125;" x1="1075.7111" x2="1075.7111" y1="4450.0465" y2="4559.4215"/><polygon fill="#000000" points="1063.2111,4528.1715,1075.7111,4559.4215,1088.2111,4528.1715,1075.7111,4540.6715" style="stroke:#000000;stroke-width:3.125;"/><line style="stroke:#000000;stroke-width:3.125;" x1="3092.7032" x2="3092.7032" y1="4639.4173" y2="4786.338"/><polygon fill="#000000" points="3080.2032,4755.088,3092.7032,4786.338,3105.2032,4755.088,3092.7032,4767.588" style="stroke:#000000;stroke-width:3.125;"/><line style="stroke:#000000;stroke-width:3.125;" x1="2504.9118" x2="2437.2833" y1="4379.4716" y2="4379.4716"/><line style="stroke:#000000;stroke-width:3.125;" x1="2437.2833" x2="2437.2833" y1="4379.4716" y2="4448.2216"/><polygon fill="#000000" points="2424.7833,4416.9716,2437.2833,4448.2216,2449.7833,4416.9716,2437.2833,4429.4716" style="stroke:#000000;stroke-width:3.125;"/><line style="stroke:#000000;stroke-width:3.125;" x1="3025.0748" x2="3092.7032" y1="4379.4716" y2="4379.4716"/><line style="stroke:#000000;stroke-width:3.125;" x1="3092.7032" x2="3092.7032" y1="4379.4716" y2="4485.7674"/><polygon fill="#000000" points="3080.2032,4454.5174,3092.7032,4485.7674,3105.2032,4454.5174,3092.7032,4467.0174" style="stroke:#000000;stroke-width:3.125;"/><line style="stroke:#000000;stroke-width:3.125;" x1="2437.2833" x2="2437.2833" y1="4556.2965" y2="5311.8629"/><line style="stroke:#000000;stroke-width:3.125;" x1="2437.2833" x2="1957.8522" y1="5311.8629" y2="5311.8629"/><polygon fill="#000000" points="1989.1022,5299.3629,1957.8522,5311.8629,1989.1022,5324.3629,1976.6022,5311.8629" style="stroke:#000000;stroke-width:3.125;"/><line style="stroke:#000000;stroke-width:3.125;" x1="2764.9933" x2="2764.9933" y1="4279.4716" y2="4341.9716"/><polygon fill="#000000" points="2752.4933,4310.7216,2764.9933,4341.9716,2777.4933,4310.7216,2764.9933,4323.2216" style="stroke:#000000;stroke-width:3.125;"/><line style="stroke:#000000;stroke-width:3.125;" x1="1566.8137" x2="1075.7111" y1="4102.6466" y2="4102.6466"/><line style="stroke:#000000;stroke-width:3.125;" x1="1075.7111" x2="1075.7111" y1="4102.6466" y2="4171.3966"/><polygon fill="#000000" points="1063.2111,4140.1466,1075.7111,4171.3966,1088.2111,4140.1466,1075.7111,4152.6466" style="stroke:#000000;stroke-width:3.125;"/><line style="stroke:#000000;stroke-width:3.125;" x1="2273.8907" x2="2764.9933" y1="4102.6466" y2="4102.6466"/><line style="stroke:#000000;stroke-width:3.125;" x1="2764.9933" x2="2764.9933" y1="4102.6466" y2="4171.3966"/><polygon fill="#000000" points="2752.4933,4140.1466,2764.9933,4171.3966,2777.4933,4140.1466,2764.9933,4152.6466" style="stroke:#000000;stroke-width:3.125;"/><line style="stroke:#000000;stroke-width:3.125;" x1="1920.3522" x2="1920.3522" y1="3083.5518" y2="4065.1466"/><polygon fill="#000000" points="1907.8522,4033.8966,1920.3522,4065.1466,1932.8522,4033.8966,1920.3522,4046.3966" style="stroke:#000000;stroke-width:3.125;"/><line style="stroke:#000000;stroke-width:3.125;" x1="1920.3522" x2="1920.3522" y1="2730.677" y2="2793.177"/><polygon fill="#000000" points="1907.8522,2761.927,1920.3522,2793.177,1932.8522,2761.927,1920.3522,2774.427" style="stroke:#000000;stroke-width:3.125;"/><line style="stroke:#000000;stroke-width:3.125;" x1="2258.6586" x2="4112.6633" y1="5449.3629" y2="5449.3629"/><polygon fill="#000000" points="4100.1633,4113.4575,4112.6633,4082.2075,4125.1633,4113.4575,4112.6633,4100.9575" style="stroke:#000000;stroke-width:3.125;"/><line style="stroke:#000000;stroke-width:3.125;" x1="4112.6633" x2="4112.6633" y1="2693.177" y2="5449.3629"/><line style="stroke:#000000;stroke-width:3.125;" x1="4112.6633" x2="1957.8522" y1="2693.177" y2="2693.177"/><polygon fill="#000000" points="1989.1022,2680.677,1957.8522,2693.177,1989.1022,2705.677,1976.6022,2693.177" style="stroke:#000000;stroke-width:3.125;"/><line style="stroke:#000000;stroke-width:3.125;" x1="1920.3522" x2="1920.3522" y1="5349.3629" y2="5411.8629"/><polygon fill="#000000" points="1907.8522,5380.6129,1920.3522,5411.8629,1932.8522,5380.6129,1920.3522,5393.1129" style="stroke:#000000;stroke-width:3.125;"/><line style="stroke:#000000;stroke-width:3.125;" x1="1920.3522" x2="1920.3522" y1="2532.8438" y2="2655.677"/><polygon fill="#000000" points="1907.8522,2624.427,1920.3522,2655.677,1932.8522,2624.427,1920.3522,2636.927" style="stroke:#000000;stroke-width:3.125;"/><line style="stroke:#000000;stroke-width:3.125;" x1="1920.3522" x2="1920.3522" y1="2333.1856" y2="2424.7688"/><polygon fill="#000000" points="1907.8522,2393.5188,1920.3522,2424.7688,1932.8522,2393.5188,1920.3522,2406.0188" style="stroke:#000000;stroke-width:3.125;"/><line style="stroke:#000000;stroke-width:3.125;" x1="2141.3589" x2="4168.9133" y1="5654.0314" y2="5654.0314"/><polygon fill="#000000" points="4156.4133,3944.3993,4168.9133,3913.1493,4181.4133,3944.3993,4168.9133,3931.8993" style="stroke:#000000;stroke-width:3.125;"/><line style="stroke:#000000;stroke-width:3.125;" x1="4168.9133" x2="4168.9133" y1="2295.6856" y2="5654.0314"/><line style="stroke:#000000;stroke-width:3.125;" x1="4168.9133" x2="1957.8522" y1="2295.6856" y2="2295.6856"/><polygon fill="#000000" points="1989.1022,2283.1856,1957.8522,2295.6856,1989.1022,2308.1856,1976.6022,2295.6856" style="stroke:#000000;stroke-width:3.125;"/><line style="stroke:#000000;stroke-width:3.125;" x1="1920.3522" x2="1920.3522" y1="5486.8629" y2="5616.5314"/><polygon fill="#000000" points="1907.8522,5585.2814,1920.3522,5616.5314,1932.8522,5585.2814,1920.3522,5597.7814" style="stroke:#000000;stroke-width:3.125;"/><text fill="#000000" font-family="Verdana" font-size="34.375" lengthAdjust="spacing" textLength="46.5775" x="1932.8522" y="5555.2025">No</text><line style="stroke:#000000;stroke-width:3.125;" x1="1920.3522" x2="1920.3522" y1="2195.6856" y2="2258.1856"/><polygon fill="#000000" points="1907.8522,2226.9356,1920.3522,2258.1856,1932.8522,2226.9356,1920.3522,2239.4356" style="stroke:#000000;stroke-width:3.125;"/><!--SRC=[fLTDRnn54BtFhoXymTwiGs8uhUKWuzXH91pPSG0XMOhQCxtUpewx9zqzjZSd4YGKEEG0fqWSK2G4Lv2uSUAViB-4LzKpixCsGP5OhPoTwQhgLrMlFl9UdEWpJLMfZCtUZoQMcWwySsCwcT6E2ZhGleuJLv2nTDU4tEkeQL-nceec3rcO6bifhyweg0nzUEjM5gBoCSj6zyovjYCwYYhY3XifEhPzheyjBNyEQFxDztJOVxzwVupNkCRIuTfcbbc7UxqvdSICQ32uWl4eUbnoEXiCSFe5AnrGhYoTQ3hnRehdmbrO-10T1CxgMAkod96-pCiw02OfM-1fekeGyGYPdEqEgMAyT4XZvqchV2BlSOplTXaS7ijI5xJIuTbjZ3Yx0XbehJ12shQgd0KJLZADczWP14XUFjCqcLKEdk8Oi1c9AH0kCvuTGw2aoeLWJf2Omi2mpMC2TsmFvY-U3mb_NyZVhuTqy-PD-VaQ4HjzhZriY31v_RGsNj8GHjdygpU8uMxdxs0mOgtdD7_vgzYJ7p3MldXDMtJGgEstqTjjeoVgV__n1jA_GFgtFo4z_-vd2PgX-RS_qHFWCMDQJTbINlU2BHvVJyd7Qodxgr_gi8PGZf8k4b9f3y52Zur5wES__h2PwH8-hZvm8lXGJfBV8cKu7OWN-ATjg75xxiwg4aosEWIv7w5zua0FVh498mkmkVDUvr4NLm4HhT_1AH9bQyqwVH22roBFLEDbrRAZITmZ3_ncFDQUooATdacPROfkYAvYWnP2MVgRZUwp7weqp_H8x3pENMsZzWZsxI5gAwhoiTZ72ujuUrrfnTKo6Wo4WtqbJjbs23LgNp87waMVtC1NYgtKuoXee5vxGSfcfCHGPCwZy4-fjWKW832as5p5eHQ1E56e-0aCXqhdPcpob969Auim595KN2B85LQMxY8ajviA8UgSW1lRLOMyb-xKeEfmeeAp385f9XUn_P78CbC_QrnUx-vV80oTL3BgTQdF5JpiyKLu0SSSocOXVw0zxZjBbbN5TFG6lOSxGLwNQjawOoWCywV9SjJvn9gdDR9qOG3QIkZOs6OcMaoyephFmSDnNGhFFQgXQ7fGv-TrDZBbd4Nr5BejHswgASfMjA_H85LFgtw5LKkFD-Xs9yWObmxlzEdtRyWuU-XaULDHgVWA2Zr7E-kGFKAN0p6vwVndLq9_H8vwlhAJt38DQco2wi8p1wCvDQ4DnlpbgzvzIxEb_LoRCJiDxAO0qcUNPqBNe8NWZWTNgLKHUE0T3dlI3QEwE9ph13SPC2M8fqDV0HEc1vuhbEVmAVgMLsKdro-OHYyr43bikXAjqxxpxTtWD2P-BptxKegEhBwC3Hyxuzn- -gOwlZtKvqPVN2d5l6aMFL8doko1BPYotlDOi2bOKirlOSnEwhmIiQIrL06RLnpiQJvgPNW9u2RCwP1i7Dl5EdAcPhmWZ5NP0_fMDaZjx2c3SR_40EmfoZPJTenZoNgpDlHJAHwoAvnrJdfeWMJN5Y5Eji1wnnHBYlg_KjkaYmdWOf0rGuekcgRjx5AM47zSs4P__Su3rusFraIFEgrxVQr6PrmwD41Sq1yWWu4iP53ZRhXSL2C9fVHLiYhMNdQ0KA4IWcnhYvqdvDegRrne5EvsyxFNKwtM1VeAysGnNuF1Rj7sPUdv9y6LDH2UgxAMBG-6uunMDNh31wuereQykGLpQdd01wnZVid07iy8T7R7HHHOLbkCKg-u2ImLSwE031GoLLGlxsa4OFKfeq5dmQQgR3xfT2HgIyFZHADrIWPSqqGl6zbx6WVHOyQ9P6Dv4G9uCJQdTUl5WatB6LlirpibXYNCxLuglYVbQJ3eYWSlQ8-RBQYFFEbJT38x9FlNx-Wpbed1iSoohdBQ1PXJVo3XJZON4hVPvaALw5CTyRn56rD9Q82BtLrJtbAQoxPeTMEw9WyGtQAFfelV6rESuU4sCpkD5MaW-6vGD1nDPLkhr_3pUEpviD4X14S4UWyY1kGxm6In1BLzW4G3-GR-4JE27PWN1njJ4KlUtFZ_tiYU4C05zkWJ_EUZgUtKjwxflNoreCm_]--></g></svg>
