<svg xmlns="http://www.w3.org/2000/svg" xmlns:xlink="http://www.w3.org/1999/xlink" contentStyleType="text/css" data-diagram-type="ACTIVITY" height="1800px" preserveAspectRatio="none" style="width:653px;height:1800px;background:#FFFFFF;" version="1.1" viewBox="0 0 653 1800" width="653.125px" zoomAndPan="magnify"><defs/><g><ellipse cx="311.3708" cy="46.875" fill="#FFFFFF" rx="31.25" ry="31.25" style="stroke:#000000;stroke-width:3.125;"/><rect fill="#FFFFFF" height="108.075" rx="39.0625" ry="39.0625" style="stroke:#000000;stroke-width:3.125;" width="449.5483" x="86.5967" y="140.625"/><text fill="#000000" font-family="Verdana" font-size="37.5" lengthAdjust="spacing" textLength="387.0483" x="117.8467" y="209.5764">INPUT: Array A[1:n]</text><rect fill="#FFFFFF" height="108.075" rx="39.0625" ry="39.0625" style="stroke:#000000;stroke-width:3.125;" width="380.0415" x="121.3501" y="311.2"/><text fill="#000000" font-family="Verdana" font-size="37.5" lengthAdjust="spacing" textLength="317.5415" x="152.6001" y="380.1514">MinValue &#8592; A[1]</text><rect fill="#FFFFFF" height="108.075" rx="39.0625" ry="39.0625" style="stroke:#000000;stroke-width:3.125;" width="160.498" x="231.1218" y="481.7749"/><text fill="#000000" font-family="Verdana" font-size="37.5" lengthAdjust="spacing" textLength="97.998" x="262.3718" y="550.7263">i &#8592; 2</text><rect fill="#FFFFFF" height="108.075" rx="39.0625" ry="39.0625" style="stroke:#000000;stroke-width:3.125;" width="366.4917" x="128.125" y="981.2355"/><text fill="#000000" font-family="Verdana" font-size="37.5" lengthAdjust="spacing" textLength="303.9917" x="159.375" y="1050.1869">MinValue &#8592; A[i]</text><polygon fill="#FFFFFF" points="165.789,829.097,456.9527,829.097,494.4527,866.597,456.9527,904.097,165.789,904.097,128.289,866.597,165.789,829.097" style="stroke:#000000;stroke-width:3.125;"/><text fill="#000000" font-family="Verdana" font-size="34.375" lengthAdjust="spacing" textLength="58.7296" x="323.8708" y="938.6566">yes</text><text fill="#000000" font-family="Verdana" font-size="34.375" lengthAdjust="spacing" textLength="291.1636" x="165.789" y="880.2681">A[i] &lt; MinValue?</text><text fill="#000000" font-family="Verdana" font-size="34.375" lengthAdjust="spacing" textLength="42.6163" x="494.4527" y="859.3796">no</text><polygon fill="#FFFFFF" points="311.3708,1166.449,348.8708,1203.949,311.3708,1241.449,273.8708,1203.949,311.3708,1166.449" style="stroke:#000000;stroke-width:3.125;"/><rect fill="#FFFFFF" height="108.075" rx="39.0625" ry="39.0625" style="stroke:#000000;stroke-width:3.125;" width="227.8442" x="197.4487" y="1303.949"/><text fill="#000000" font-family="Verdana" font-size="37.5" lengthAdjust="spacing" textLength="165.3442" x="228.6987" y="1372.9004">i &#8592; i + 1</text><polygon fill="#FFFFFF" points="260.2531,652.3499,362.4886,652.3499,399.9886,689.8499,362.4886,727.3499,260.2531,727.3499,222.7531,689.8499,260.2531,652.3499" style="stroke:#000000;stroke-width:3.125;"/><text fill="#000000" font-family="Verdana" font-size="34.375" lengthAdjust="spacing" textLength="58.7296" x="323.8708" y="761.9095">yes</text><text fill="#000000" font-family="Verdana" font-size="34.375" lengthAdjust="spacing" textLength="102.2354" x="260.2531" y="703.521">i &#8804; n?</text><text fill="#000000" font-family="Verdana" font-size="34.375" lengthAdjust="spacing" textLength="42.6163" x="180.1369" y="682.6324">no</text><rect fill="#FFFFFF" height="108.075" rx="39.0625" ry="39.0625" style="stroke:#000000;stroke-width:3.125;" width="400.293" x="111.2244" y="1543.2739"/><text fill="#000000" font-family="Verdana" font-size="37.5" lengthAdjust="spacing" textLength="337.793" x="142.4744" y="1612.2253">RETURN MinValue</text><ellipse cx="311.3708" cy="1748.2239" fill="none" rx="34.375" ry="34.375" style="stroke:#000000;stroke-width:3.125;"/><ellipse cx="311.3708" cy="1748.2239" fill="#FFFFFF" rx="18.75" ry="18.75" style="stroke:#000000;stroke-width:3.125;"/><line style="stroke:#000000;stroke-width:3.125;" x1="311.3708" x2="311.3708" y1="78.125" y2="140.625"/><polygon fill="#000000" points="298.8708,109.375,311.3708,140.625,323.8708,109.375,311.3708,121.875" style="stroke:#000000;stroke-width:3.125;"/><line style="stroke:#000000;stroke-width:3.125;" x1="311.3708" x2="311.3708" y1="248.7" y2="311.2"/><polygon fill="#000000" points="298.8708,279.95,311.3708,311.2,323.8708,279.95,311.3708,292.45" style="stroke:#000000;stroke-width:3.125;"/><line style="stroke:#000000;stroke-width:3.125;" x1="311.3708" x2="311.3708" y1="419.2749" y2="481.7749"/><polygon fill="#000000" points="298.8708,450.5249,311.3708,481.7749,323.8708,450.5249,311.3708,463.0249" style="stroke:#000000;stroke-width:3.125;"/><line style="stroke:#000000;stroke-width:3.125;" x1="311.3708" x2="311.3708" y1="904.097" y2="981.2355"/><polygon fill="#000000" points="298.8708,949.9855,311.3708,981.2355,323.8708,949.9855,311.3708,962.4855" style="stroke:#000000;stroke-width:3.125;"/><line style="stroke:#000000;stroke-width:3.125;" x1="494.4527" x2="531.9527" y1="866.597" y2="866.597"/><polygon fill="#000000" points="519.4527,1004.023,531.9527,1035.273,544.4527,1004.023,531.9527,1016.523" style="stroke:#000000;stroke-width:3.125;"/><line style="stroke:#000000;stroke-width:3.125;" x1="531.9527" x2="531.9527" y1="866.597" y2="1203.949"/><line style="stroke:#000000;stroke-width:3.125;" x1="531.9527" x2="348.8708" y1="1203.949" y2="1203.949"/><polygon fill="#000000" points="380.1208,1191.449,348.8708,1203.949,380.1208,1216.449,367.6208,1203.949" style="stroke:#000000;stroke-width:3.125;"/><line style="stroke:#000000;stroke-width:3.125;" x1="311.3708" x2="311.3708" y1="1089.3105" y2="1166.449"/><polygon fill="#000000" points="298.8708,1135.199,311.3708,1166.449,323.8708,1135.199,311.3708,1147.699" style="stroke:#000000;stroke-width:3.125;"/><line style="stroke:#000000;stroke-width:3.125;" x1="311.3708" x2="311.3708" y1="1241.449" y2="1303.949"/><polygon fill="#000000" points="298.8708,1272.699,311.3708,1303.949,323.8708,1272.699,311.3708,1285.199" style="stroke:#000000;stroke-width:3.125;"/><line style="stroke:#000000;stroke-width:3.125;" x1="311.3708" x2="311.3708" y1="727.3499" y2="829.097"/><polygon fill="#000000" points="298.8708,797.847,311.3708,829.097,323.8708,797.847,311.3708,810.347" style="stroke:#000000;stroke-width:3.125;"/><line style="stroke:#000000;stroke-width:3.125;" x1="311.3708" x2="311.3708" y1="1412.0239" y2="1443.2739"/><line style="stroke:#000000;stroke-width:3.125;" x1="311.3708" x2="588.2027" y1="1443.2739" y2="1443.2739"/><polygon fill="#000000" points="575.7027,1116.8594,588.2027,1085.6094,600.7027,1116.8594,588.2027,1104.3594" style="stroke:#000000;stroke-width:3.125;"/><line style="stroke:#000000;stroke-width:3.125;" x1="588.2027" x2="588.2027" y1="689.8499" y2="1443.2739"/><line style="stroke:#000000;stroke-width:3.125;" x1="588.2027" x2="399.9886" y1="689.8499" y2="689.8499"/><polygon fill="#000000" points="431.2386,677.3499,399.9886,689.8499,431.2386,702.3499,418.7386,689.8499" style="stroke:#000000;stroke-width:3.125;"/><line style="stroke:#000000;stroke-width:3.125;" x1="222.7531" x2="59.375" y1="689.8499" y2="689.8499"/><polygon fill="#000000" points="46.875,1073.1094,59.375,1104.3594,71.875,1073.1094,59.375,1085.6094" style="stroke:#000000;stroke-width:3.125;"/><line style="stroke:#000000;stroke-width:3.125;" x1="59.375" x2="59.375" y1="689.8499" y2="1480.7739"/><line style="stroke:#000000;stroke-width:3.125;" x1="59.375" x2="311.3708" y1="1480.7739" y2="1480.7739"/><line style="stroke:#000000;stroke-width:3.125;" x1="311.3708" x2="311.3708" y1="1480.7739" y2="1543.2739"/><polygon fill="#000000" points="298.8708,1512.0239,311.3708,1543.2739,323.8708,1512.0239,311.3708,1524.5239" style="stroke:#000000;stroke-width:3.125;"/><line style="stroke:#000000;stroke-width:3.125;" x1="311.3708" x2="311.3708" y1="589.8499" y2="652.3499"/><polygon fill="#000000" points="298.8708,621.0999,311.3708,652.3499,323.8708,621.0999,311.3708,633.5999" style="stroke:#000000;stroke-width:3.125;"/><line style="stroke:#000000;stroke-width:3.125;" x1="311.3708" x2="311.3708" y1="1651.3489" y2="1713.8489"/><polygon fill="#000000" points="298.8708,1682.5989,311.3708,1713.8489,323.8708,1682.5989,311.3708,1695.0989" style="stroke:#000000;stroke-width:3.125;"/><!--SRC=[NOun3e9044NxFSMtWzY0Tek9eR2ma1W2DeHY4vOu4HR2OWmNCB7p49xCapWOfB2Qp9kN_sVHdtMjqLQAZB0NCgtgL8sY9QmzJzXUTRqGSXyTqqGYx3er8CnyQVA0yO7CILLNZVVzEMA6ahxBYi-tCrKQ3eF72sRhWYoSGLjN05J22JFAiS4lX0L-nimAy9zFd0_eodAgQKP7cu9AdbChOGa_44odxj4ICjubQHpDHVoQxPjMV000]--></g></svg>
