<svg xmlns="http://www.w3.org/2000/svg" xmlns:xlink="http://www.w3.org/1999/xlink" contentStyleType="text/css" data-diagram-type="ACTIVITY" height="1800px" preserveAspectRatio="none" style="width:662px;height:1800px;background:#FFFFFF;" version="1.1" viewBox="0 0 662 1800" width="662.5px" zoomAndPan="magnify"><defs/><g><ellipse cx="316.7175" cy="46.875" fill="#FFFFFF" rx="31.25" ry="31.25" style="stroke:#000000;stroke-width:3.125;"/><rect fill="#FFFFFF" height="108.075" rx="39.0625" ry="39.0625" style="stroke:#000000;stroke-width:3.125;" width="433.9294" x="99.7528" y="140.625"/><text fill="#000000" font-family="Verdana" font-size="37.5" lengthAdjust="spacing" textLength="371.4294" x="131.0028" y="209.5764">Input: Array A[1:n]</text><rect fill="#FFFFFF" height="108.075" rx="39.0625" ry="39.0625" style="stroke:#000000;stroke-width:3.125;" width="390.7349" x="121.3501" y="311.2"/><text fill="#000000" font-family="Verdana" font-size="37.5" lengthAdjust="spacing" textLength="328.2349" x="152.6001" y="380.1514">MaxValue &#8592; A[1]</text><rect fill="#FFFFFF" height="108.075" rx="39.0625" ry="39.0625" style="stroke:#000000;stroke-width:3.125;" width="160.498" x="236.4685" y="481.7749"/><text fill="#000000" font-family="Verdana" font-size="37.5" lengthAdjust="spacing" textLength="97.998" x="267.7185" y="550.7263">i &#8592; 2</text><rect fill="#FFFFFF" height="108.075" rx="39.0625" ry="39.0625" style="stroke:#000000;stroke-width:3.125;" width="377.1851" x="128.125" y="981.2355"/><text fill="#000000" font-family="Verdana" font-size="37.5" lengthAdjust="spacing" textLength="314.6851" x="159.375" y="1050.1869">MaxValue &#8592; A[i]</text><polygon fill="#FFFFFF" points="166.2346,829.097,467.2005,829.097,504.7005,866.597,467.2005,904.097,166.2346,904.097,128.7346,866.597,166.2346,829.097" style="stroke:#000000;stroke-width:3.125;"/><text fill="#000000" font-family="Verdana" font-size="34.375" lengthAdjust="spacing" textLength="58.7296" x="329.2175" y="938.6566">yes</text><text fill="#000000" font-family="Verdana" font-size="34.375" lengthAdjust="spacing" textLength="300.9659" x="166.2346" y="880.2681">A[i] &gt; MaxValue?</text><text fill="#000000" font-family="Verdana" font-size="34.375" lengthAdjust="spacing" textLength="42.6163" x="504.7005" y="859.3796">no</text><polygon fill="#FFFFFF" points="316.7175,1166.449,354.2175,1203.949,316.7175,1241.449,279.2175,1203.949,316.7175,1166.449" style="stroke:#000000;stroke-width:3.125;"/><rect fill="#FFFFFF" height="108.075" rx="39.0625" ry="39.0625" style="stroke:#000000;stroke-width:3.125;" width="227.8442" x="202.7954" y="1303.949"/><text fill="#000000" font-family="Verdana" font-size="37.5" lengthAdjust="spacing" textLength="165.3442" x="234.0454" y="1372.9004">i &#8592; i + 1</text><polygon fill="#FFFFFF" points="265.5998,652.3499,367.8352,652.3499,405.3352,689.8499,367.8352,727.3499,265.5998,727.3499,228.0998,689.8499,265.5998,652.3499" style="stroke:#000000;stroke-width:3.125;"/><text fill="#000000" font-family="Verdana" font-size="34.375" lengthAdjust="spacing" textLength="58.7296" x="329.2175" y="761.9095">yes</text><text fill="#000000" font-family="Verdana" font-size="34.375" lengthAdjust="spacing" textLength="102.2354" x="265.5998" y="703.521">i &#8804; n?</text><text fill="#000000" font-family="Verdana" font-size="34.375" lengthAdjust="spacing" textLength="42.6163" x="185.4836" y="682.6324">no</text><rect fill="#FFFFFF" height="108.075" rx="39.0625" ry="39.0625" style="stroke:#000000;stroke-width:3.125;" width="383.1726" x="125.1312" y="1543.2739"/><text fill="#000000" font-family="Verdana" font-size="37.5" lengthAdjust="spacing" textLength="320.6726" x="156.3812" y="1612.2253">Return MaxValue</text><ellipse cx="316.7175" cy="1748.2239" fill="none" rx="34.375" ry="34.375" style="stroke:#000000;stroke-width:3.125;"/><ellipse cx="316.7175" cy="1748.2239" fill="#FFFFFF" rx="18.75" ry="18.75" style="stroke:#000000;stroke-width:3.125;"/><line style="stroke:#000000;stroke-width:3.125;" x1="316.7175" x2="316.7175" y1="78.125" y2="140.625"/><polygon fill="#000000" points="304.2175,109.375,316.7175,140.625,329.2175,109.375,316.7175,121.875" style="stroke:#000000;stroke-width:3.125;"/><line style="stroke:#000000;stroke-width:3.125;" x1="316.7175" x2="316.7175" y1="248.7" y2="311.2"/><polygon fill="#000000" points="304.2175,279.95,316.7175,311.2,329.2175,279.95,316.7175,292.45" style="stroke:#000000;stroke-width:3.125;"/><line style="stroke:#000000;stroke-width:3.125;" x1="316.7175" x2="316.7175" y1="419.2749" y2="481.7749"/><polygon fill="#000000" points="304.2175,450.5249,316.7175,481.7749,329.2175,450.5249,316.7175,463.0249" style="stroke:#000000;stroke-width:3.125;"/><line style="stroke:#000000;stroke-width:3.125;" x1="316.7175" x2="316.7175" y1="904.097" y2="981.2355"/><polygon fill="#000000" points="304.2175,949.9855,316.7175,981.2355,329.2175,949.9855,316.7175,962.4855" style="stroke:#000000;stroke-width:3.125;"/><line style="stroke:#000000;stroke-width:3.125;" x1="504.7005" x2="542.2005" y1="866.597" y2="866.597"/><polygon fill="#000000" points="529.7005,1004.023,542.2005,1035.273,554.7005,1004.023,542.2005,1016.523" style="stroke:#000000;stroke-width:3.125;"/><line style="stroke:#000000;stroke-width:3.125;" x1="542.2005" x2="542.2005" y1="866.597" y2="1203.949"/><line style="stroke:#000000;stroke-width:3.125;" x1="542.2005" x2="354.2175" y1="1203.949" y2="1203.949"/><polygon fill="#000000" points="385.4675,1191.449,354.2175,1203.949,385.4675,1216.449,372.9675,1203.949" style="stroke:#000000;stroke-width:3.125;"/><line style="stroke:#000000;stroke-width:3.125;" x1="316.7175" x2="316.7175" y1="1089.3105" y2="1166.449"/><polygon fill="#000000" points="304.2175,1135.199,316.7175,1166.449,329.2175,1135.199,316.7175,1147.699" style="stroke:#000000;stroke-width:3.125;"/><line style="stroke:#000000;stroke-width:3.125;" x1="316.7175" x2="316.7175" y1="1241.449" y2="1303.949"/><polygon fill="#000000" points="304.2175,1272.699,316.7175,1303.949,329.2175,1272.699,316.7175,1285.199" style="stroke:#000000;stroke-width:3.125;"/><line style="stroke:#000000;stroke-width:3.125;" x1="316.7175" x2="316.7175" y1="727.3499" y2="829.097"/><polygon fill="#000000" points="304.2175,797.847,316.7175,829.097,329.2175,797.847,316.7175,810.347" style="stroke:#000000;stroke-width:3.125;"/><line style="stroke:#000000;stroke-width:3.125;" x1="316.7175" x2="316.7175" y1="1412.0239" y2="1443.2739"/><line style="stroke:#000000;stroke-width:3.125;" x1="316.7175" x2="598.4505" y1="1443.2739" y2="1443.2739"/><polygon fill="#000000" points="585.9505,1116.8594,598.4505,1085.6094,610.9505,1116.8594,598.4505,1104.3594" style="stroke:#000000;stroke-width:3.125;"/><line style="stroke:#000000;stroke-width:3.125;" x1="598.4505" x2="598.4505" y1="689.8499" y2="1443.2739"/><line style="stroke:#000000;stroke-width:3.125;" x1="598.4505" x2="405.3352" y1="689.8499" y2="689.8499"/><polygon fill="#000000" points="436.5852,677.3499,405.3352,689.8499,436.5852,702.3499,424.0852,689.8499" style="stroke:#000000;stroke-width:3.125;"/><line style="stroke:#000000;stroke-width:3.125;" x1="228.0998" x2="59.375" y1="689.8499" y2="689.8499"/><polygon fill="#000000" points="46.875,1073.1094,59.375,1104.3594,71.875,1073.1094,59.375,1085.6094" style="stroke:#000000;stroke-width:3.125;"/><line style="stroke:#000000;stroke-width:3.125;" x1="59.375" x2="59.375" y1="689.8499" y2="1480.7739"/><line style="stroke:#000000;stroke-width:3.125;" x1="59.375" x2="316.7175" y1="1480.7739" y2="1480.7739"/><line style="stroke:#000000;stroke-width:3.125;" x1="316.7175" x2="316.7175" y1="1480.7739" y2="1543.2739"/><polygon fill="#000000" points="304.2175,1512.0239,316.7175,1543.2739,329.2175,1512.0239,316.7175,1524.5239" style="stroke:#000000;stroke-width:3.125;"/><line style="stroke:#000000;stroke-width:3.125;" x1="316.7175" x2="316.7175" y1="589.8499" y2="652.3499"/><polygon fill="#000000" points="304.2175,621.0999,316.7175,652.3499,329.2175,621.0999,316.7175,633.5999" style="stroke:#000000;stroke-width:3.125;"/><line style="stroke:#000000;stroke-width:3.125;" x1="316.7175" x2="316.7175" y1="1651.3489" y2="1713.8489"/><polygon fill="#000000" points="304.2175,1682.5989,316.7175,1713.8489,329.2175,1682.5989,316.7175,1695.0989" style="stroke:#000000;stroke-width:3.125;"/><!--SRC=[NOun2i9044NxFSMtYzWOxLPGKbhOMDY450kEP31EbjqDwWK4Em_XoJo94uaMLiEyUVm_erJJYU0RnsBYaSMxu4xOUyPyEZKnkP2CiMlnNR8eGd1N56LkfLeethZBpZKTuNLxz5YXvSyoq_EvveQGARW_8QinE2AxKXmRW0_8Yf8hBF4DKK6VaPy2_EUpvWFKH4sLjdT8zdpGERGo9iWNHkdGtLl6RYbrGNv5-bfChJTl]--></g></svg>
