<svg xmlns="http://www.w3.org/2000/svg" xmlns:xlink="http://www.w3.org/1999/xlink" contentStyleType="text/css" data-diagram-type="ACTIVITY" height="7784.375px" preserveAspectRatio="none" style="width:2381px;height:7784px;background:#FFFFFF;" version="1.1" viewBox="0 0 2381 7784" width="2381.25px" zoomAndPan="magnify"><defs/><g><ellipse cx="525.7507" cy="46.875" fill="#FFFFFF" rx="31.25" ry="31.25" style="stroke:#000000;stroke-width:3.125;"/><path d="M898.6633,109.375 L898.6633,309.9915 L836.1633,322.4915 L898.6633,334.9915 L898.6633,535.6079 A0,0 0 0 0 898.6633,535.6079 L1553.7079,535.6079 A0,0 0 0 0 1553.7079,535.6079 L1553.7079,140.625 L1522.4579,109.375 L898.6633,109.375 A0,0 0 0 0 898.6633,109.375" fill="#FFFFFF" style="stroke:#000000;stroke-width:3.125;"/><path d="M1522.4579,109.375 L1522.4579,140.625 L1553.7079,140.625 L1522.4579,109.375" fill="#FFFFFF" style="stroke:#000000;stroke-width:3.125;"/><text fill="#000000" font-family="Verdana" font-size="40.625" font-weight="bold" lengthAdjust="spacing" textLength="485.6949" x="917.4133" y="165.8432">Weight Initialization:</text><text fill="#000000" font-family="Verdana" font-size="40.625" lengthAdjust="spacing" textLength="589.4196" x="917.4133" y="215.2161">W&#8317;&#737;&#8318; ~ N(0, &#8730;(2/n&#8343;&#8331;&#8321;))</text><text fill="#000000" font-family="Verdana" font-size="40.625" lengthAdjust="spacing" textLength="234.8236" x="917.4133" y="264.5889">b&#8317;&#737;&#8318; = 0</text><text fill="#000000" font-family="Verdana" font-size="40.625" lengthAdjust="spacing" textLength="14.2822" x="917.4133" y="313.9618">&#160;</text><text fill="#000000" font-family="Verdana" font-size="40.625" font-weight="bold" lengthAdjust="spacing" textLength="414.9979" x="917.4133" y="363.3347">Hyperparameters:</text><text fill="#000000" font-family="Verdana" font-size="40.625" lengthAdjust="spacing" textLength="367.1326" x="917.4133" y="412.7075">&#8226; Learning rate: &#945;</text><text fill="#000000" font-family="Verdana" font-size="40.625" lengthAdjust="spacing" textLength="315.9546" x="917.4133" y="462.0804">&#8226; Batch size: m</text><text fill="#000000" font-family="Verdana" font-size="40.625" lengthAdjust="spacing" textLength="238.5529" x="917.4133" y="511.4532">&#8226; Epochs: E</text><rect fill="#FFFFFF" height="108.075" rx="39.0625" ry="39.0625" style="stroke:#000000;stroke-width:3.125;" width="620.8252" x="215.3381" y="268.454"/><text fill="#000000" font-family="Verdana" font-size="37.5" lengthAdjust="spacing" textLength="558.3252" x="246.5881" y="337.4054">Initialize Network Parameters</text><rect fill="#FFFFFF" height="108.075" rx="39.0625" ry="39.0625" style="stroke:#000000;stroke-width:3.125;" width="331.0608" x="360.2203" y="598.1079"/><text fill="#000000" font-family="Verdana" font-size="37.5" lengthAdjust="spacing" textLength="268.5608" x="391.4703" y="667.0593">Set epoch = 0</text><rect fill="#FFFFFF" height="108.075" rx="39.0625" ry="39.0625" style="stroke:#000000;stroke-width:3.125;" width="448.8525" x="301.3245" y="945.43"/><text fill="#000000" font-family="Verdana" font-size="37.5" lengthAdjust="spacing" textLength="386.3525" x="332.5745" y="1014.3814">Shuffle training data</text><rect fill="#FFFFFF" height="108.075" rx="39.0625" ry="39.0625" style="stroke:#000000;stroke-width:3.125;" width="495.6909" x="277.9053" y="1116.0049"/><text fill="#000000" font-family="Verdana" font-size="37.5" lengthAdjust="spacing" textLength="433.1909" x="309.1553" y="1184.9564">Initialize batch counter</text><rect fill="#FFFFFF" height="108.075" rx="39.0625" ry="39.0625" style="stroke:#000000;stroke-width:3.125;" width="657.3914" x="197.0551" y="1463.327"/><text fill="#000000" font-family="Verdana" font-size="37.5" lengthAdjust="spacing" textLength="594.8914" x="228.3051" y="1532.2784">Get mini-batch X&#8317;&#7495;&#8318;, Y&#8317;&#7495;&#8318;</text><rect fill="#FFFFFF" height="988.0493" style="stroke:#000000;stroke-width:3.125;" width="1657.4112" x="153.125" y="1602.652"/><path d="M703.5431,1602.652 L703.5431,1633.9478 L672.2931,1665.1978 L153.125,1665.1978" fill="none" style="stroke:#000000;stroke-width:3.125;"/><text fill="#000000" font-family="Verdana" font-size="43.75" font-weight="bold" lengthAdjust="spacing" textLength="519.1681" x="162.5" y="1649.762">Forward Propagation</text><rect fill="#FFFFFF" height="108.075" rx="39.0625" ry="39.0625" style="stroke:#000000;stroke-width:3.125;" width="551.9043" x="249.7986" y="1718.3228"/><text fill="#000000" font-family="Verdana" font-size="37.5" lengthAdjust="spacing" textLength="489.4043" x="281.0486" y="1787.2742">Initialize A&#8317;&#8304;&#8318; = X&#8317;&#7495;&#8318;</text><path d="M856.6681,1857.6477 L856.6681,2107.637 L794.1681,2120.137 L856.6681,2132.637 L856.6681,2382.6263 A0,0 0 0 0 856.6681,2382.6263 L1779.2862,2382.6263 A0,0 0 0 0 1779.2862,2382.6263 L1779.2862,1888.8977 L1748.0362,1857.6477 L856.6681,1857.6477 A0,0 0 0 0 856.6681,1857.6477" fill="#FFFFFF" style="stroke:#000000;stroke-width:3.125;"/><path d="M1748.0362,1857.6477 L1748.0362,1888.8977 L1779.2862,1888.8977 L1748.0362,1857.6477" fill="#FFFFFF" style="stroke:#000000;stroke-width:3.125;"/><text fill="#000000" font-family="Verdana" font-size="40.625" font-weight="bold" lengthAdjust="spacing" textLength="525.9033" x="875.4181" y="1914.1159">Linear Transformation:</text><text fill="#000000" font-family="Verdana" font-size="40.625" lengthAdjust="spacing" textLength="794.8456" x="875.4181" y="1963.4888">Z&#8317;&#737;&#8318; = W&#8317;&#737;&#8318;A&#8317;&#737;&#8315;&#185;&#8318; + b&#8317;&#737;&#8318;</text><text fill="#000000" font-family="Verdana" font-size="40.625" lengthAdjust="spacing" textLength="14.2822" x="875.4181" y="2012.8616">&#160;</text><text fill="#000000" font-family="Verdana" font-size="40.625" font-weight="bold" lengthAdjust="spacing" textLength="458.2611" x="875.4181" y="2062.2345">Activation Function:</text><text fill="#000000" font-family="Verdana" font-size="40.625" lengthAdjust="spacing" textLength="545.2438" x="875.4181" y="2111.6074">A&#8317;&#737;&#8318; = g&#8317;&#737;&#8318;(Z&#8317;&#737;&#8318;)</text><text fill="#000000" font-family="Verdana" font-size="40.625" lengthAdjust="spacing" textLength="14.2822" x="875.4181" y="2160.9802">&#160;</text><text fill="#000000" font-family="Verdana" font-size="40.625" lengthAdjust="spacing" textLength="434.993" x="875.4181" y="2210.3531">Common activations:</text><text fill="#000000" font-family="Verdana" font-size="40.625" lengthAdjust="spacing" textLength="520.4086" x="875.4181" y="2259.726">&#8226; ReLU: g(z) = max(0, z)</text><text fill="#000000" font-family="Verdana" font-size="40.625" lengthAdjust="spacing" textLength="653.6499" x="875.4181" y="2309.0988">&#8226; Sigmoid: g(z) = 1/(1 + e&#8315;&#7611;)</text><text fill="#000000" font-family="Verdana" font-size="40.625" lengthAdjust="spacing" textLength="856.9931" x="875.4181" y="2358.4717">&#8226; Tanh: g(z) = (e&#7611; - e&#8315;&#7611;)/(e&#7611; + e&#8315;&#7611;)</text><rect fill="#FFFFFF" height="108.075" rx="39.0625" ry="39.0625" style="stroke:#000000;stroke-width:3.125;" width="536.8347" x="257.3334" y="2066.0995"/><text fill="#000000" font-family="Verdana" font-size="37.5" lengthAdjust="spacing" textLength="474.3347" x="288.5834" y="2135.051">For each layer l = 1 to L:</text><rect fill="#FFFFFF" height="108.075" rx="39.0625" ry="39.0625" style="stroke:#000000;stroke-width:3.125;" width="682.7515" x="184.375" y="2445.1263"/><text fill="#000000" font-family="Verdana" font-size="37.5" lengthAdjust="spacing" textLength="620.2515" x="215.625" y="2514.0778">Compute predictions &#374; = A&#8317;&#7480;&#8318;</text><rect fill="#FFFFFF" height="557.5287" style="stroke:#000000;stroke-width:3.125;" width="1649.7192" x="228.7292" y="2621.9513"/><path d="M699.7437,2621.9513 L699.7437,2653.2471 L668.4937,2684.4971 L228.7292,2684.4971" fill="none" style="stroke:#000000;stroke-width:3.125;"/><text fill="#000000" font-family="Verdana" font-size="43.75" font-weight="bold" lengthAdjust="spacing" textLength="439.7644" x="238.1042" y="2669.0613">Loss Computation</text><path d="M854.0222,2715.7471 L854.0222,2916.3635 L791.5222,2928.8635 L854.0222,2941.3635 L854.0222,3141.98 A0,0 0 0 0 854.0222,3141.98 L1847.1985,3141.98 A0,0 0 0 0 1847.1985,3141.98 L1847.1985,2746.9971 L1815.9485,2715.7471 L854.0222,2715.7471 A0,0 0 0 0 854.0222,2715.7471" fill="#FFFFFF" style="stroke:#000000;stroke-width:3.125;"/><path d="M1815.9485,2715.7471 L1815.9485,2746.9971 L1847.1985,2746.9971 L1815.9485,2715.7471" fill="#FFFFFF" style="stroke:#000000;stroke-width:3.125;"/><text fill="#000000" font-family="Verdana" font-size="40.625" font-weight="bold" lengthAdjust="spacing" textLength="782.1106" x="872.7722" y="2772.2153">Mean Squared Error (Regression):</text><text fill="#000000" font-family="Verdana" font-size="40.625" lengthAdjust="spacing" textLength="661.8225" x="872.7722" y="2821.5881">J = (1/2m) &#931;&#7522;&#8332;&#8321;&#7504; (&#375;&#7522; - y&#7522;)&#178;</text><text fill="#000000" font-family="Verdana" font-size="40.625" lengthAdjust="spacing" textLength="14.2822" x="872.7722" y="2870.961">&#160;</text><text fill="#000000" font-family="Verdana" font-size="40.625" font-weight="bold" lengthAdjust="spacing" textLength="701.5152" x="872.7722" y="2920.3339">Cross-Entropy (Classification):</text><text fill="#000000" font-family="Verdana" font-size="40.625" lengthAdjust="spacing" textLength="927.5513" x="872.7722" y="2969.7067">J = -(1/m) &#931;&#7522;&#8332;&#8321;&#7504; &#931;&#11388;&#8332;&#8321;&#7580; y&#7522;&#11388; log(&#375;&#7522;&#11388;)</text><text fill="#000000" font-family="Verdana" font-size="40.625" lengthAdjust="spacing" textLength="14.2822" x="872.7722" y="3019.0796">&#160;</text><text fill="#000000" font-family="Verdana" font-size="40.625" font-weight="bold" lengthAdjust="spacing" textLength="537.8647" x="872.7722" y="3068.4525">With L2 Regularization:</text><text fill="#000000" font-family="Verdana" font-size="40.625" lengthAdjust="spacing" textLength="808.2748" x="872.7722" y="3117.8253">J = J&#8320; + (&#955;/2m) &#931;&#8343;&#8332;&#8321;&#7480; ||W&#8317;&#737;&#8318;||&#178;F</text><rect fill="#FFFFFF" height="108.075" rx="39.0625" ry="39.0625" style="stroke:#000000;stroke-width:3.125;" width="531.543" x="259.9792" y="2874.826"/><text fill="#000000" font-family="Verdana" font-size="37.5" lengthAdjust="spacing" textLength="469.043" x="291.2292" y="2943.7775">Compute Loss Function J</text><rect fill="#FFFFFF" height="651.0109" style="stroke:#000000;stroke-width:3.125;" width="1982.3578" x="203.8635" y="3210.73"/><path d="M791.687,3210.73 L791.687,3242.0258 L760.437,3273.2758 L203.8635,3273.2758" fill="none" style="stroke:#000000;stroke-width:3.125;"/><text fill="#000000" font-family="Verdana" font-size="43.75" font-weight="bold" lengthAdjust="spacing" textLength="556.5735" x="213.2385" y="3257.84">Backward Propagation</text><path d="M878.8879,3324.8154 L878.8879,3377.3132 L816.3879,3389.8132 L878.8879,3402.3132 L878.8879,3454.8111 A0,0 0 0 0 878.8879,3454.8111 L2125.415,3454.8111 A0,0 0 0 0 2125.415,3454.8111 L2125.415,3356.0654 L2094.165,3324.8154 L878.8879,3324.8154 A0,0 0 0 0 878.8879,3324.8154" fill="#FFFFFF" style="stroke:#000000;stroke-width:3.125;"/><path d="M2094.165,3324.8154 L2094.165,3356.0654 L2125.415,3356.0654 L2094.165,3324.8154" fill="#FFFFFF" style="stroke:#000000;stroke-width:3.125;"/><text fill="#000000" font-family="Verdana" font-size="40.625" font-weight="bold" lengthAdjust="spacing" textLength="525.5859" x="897.6379" y="3381.2836">Output Layer Gradient:</text><text fill="#000000" font-family="Verdana" font-size="40.625" lengthAdjust="spacing" textLength="1180.9021" x="897.6379" y="3430.6564">&#948;&#8317;&#7480;&#8318; = &#8706;J/&#8706;Z&#8317;&#7480;&#8318; = (A&#8317;&#7480;&#8318; - Y) &#8857; g'&#8317;&#7480;&#8318;(Z&#8317;&#7480;&#8318;)</text><rect fill="#FFFFFF" height="108.075" rx="39.0625" ry="39.0625" style="stroke:#000000;stroke-width:3.125;" width="581.2744" x="235.1135" y="3335.7758"/><text fill="#000000" font-family="Verdana" font-size="37.5" lengthAdjust="spacing" textLength="518.7744" x="266.3635" y="3404.7272">Compute output layer error</text><path d="M877.1027,3496.7537 L877.1027,3647.9973 L814.6027,3660.4973 L877.1027,3672.9973 L877.1027,3824.2409 A0,0 0 0 0 877.1027,3824.2409 L2154.9713,3824.2409 A0,0 0 0 0 2154.9713,3824.2409 L2154.9713,3528.0037 L2123.7213,3496.7537 L877.1027,3496.7537 A0,0 0 0 0 877.1027,3496.7537" fill="#FFFFFF" style="stroke:#000000;stroke-width:3.125;"/><path d="M2123.7213,3496.7537 L2123.7213,3528.0037 L2154.9713,3528.0037 L2123.7213,3496.7537" fill="#FFFFFF" style="stroke:#000000;stroke-width:3.125;"/><text fill="#000000" font-family="Verdana" font-size="40.625" font-weight="bold" lengthAdjust="spacing" textLength="552.4841" x="895.8527" y="3553.2219">Hidden Layer Gradients:</text><text fill="#000000" font-family="Verdana" font-size="40.625" lengthAdjust="spacing" textLength="1170.5872" x="895.8527" y="3602.5948">&#948;&#8317;&#737;&#8318; = [(W&#8317;&#737;&#8314;&#185;&#8318;)&#7488;&#948;&#8317;&#737;&#8314;&#185;&#8318;] &#8857; g'&#8317;&#737;&#8318;(Z&#8317;&#737;&#8318;)</text><text fill="#000000" font-family="Verdana" font-size="40.625" lengthAdjust="spacing" textLength="14.2822" x="895.8527" y="3651.9676">&#160;</text><text fill="#000000" font-family="Verdana" font-size="40.625" font-weight="bold" lengthAdjust="spacing" textLength="491.2094" x="895.8527" y="3701.3405">Parameter Gradients:</text><text fill="#000000" font-family="Verdana" font-size="40.625" lengthAdjust="spacing" textLength="1212.2437" x="895.8527" y="3750.7133">&#8706;J/&#8706;W&#8317;&#737;&#8318; = (1/m)&#948;&#8317;&#737;&#8318;(A&#8317;&#737;&#8315;&#185;&#8318;)&#7488; + (&#955;/m)W&#8317;&#737;&#8318;</text><text fill="#000000" font-family="Verdana" font-size="40.625" lengthAdjust="spacing" textLength="790.9378" x="895.8527" y="3800.0862">&#8706;J/&#8706;b&#8317;&#737;&#8318; = (1/m)&#931;&#7522;&#8332;&#8321;&#7504; &#948;&#7522;&#8317;&#737;&#8318;</text><rect fill="#FFFFFF" height="108.075" rx="39.0625" ry="39.0625" style="stroke:#000000;stroke-width:3.125;" width="577.7039" x="236.8988" y="3606.4598"/><text fill="#000000" font-family="Verdana" font-size="37.5" lengthAdjust="spacing" textLength="515.2039" x="268.1488" y="3675.4112">For each layer l = L-1 to 1:</text><rect fill="#FFFFFF" height="755.0201" style="stroke:#000000;stroke-width:3.125;" width="1854.3518" x="206.2347" y="3892.9909"/><path d="M685.6873,3892.9909 L685.6873,3924.2867 L654.4373,3955.5367 L206.2347,3955.5367" fill="none" style="stroke:#000000;stroke-width:3.125;"/><text fill="#000000" font-family="Verdana" font-size="43.75" font-weight="bold" lengthAdjust="spacing" textLength="448.2025" x="215.6097" y="3940.1009">Parameter Update</text><path d="M876.5167,3986.7867 L876.5167,4286.1488 L814.0167,4298.6488 L876.5167,4311.1488 L876.5167,4610.511 A0,0 0 0 0 876.5167,4610.511 L2029.3365,4610.511 A0,0 0 0 0 2029.3365,4610.511 L2029.3365,4018.0367 L1998.0865,3986.7867 L876.5167,3986.7867 A0,0 0 0 0 876.5167,3986.7867" fill="#FFFFFF" style="stroke:#000000;stroke-width:3.125;"/><path d="M1998.0865,3986.7867 L1998.0865,4018.0367 L2029.3365,4018.0367 L1998.0865,3986.7867" fill="#FFFFFF" style="stroke:#000000;stroke-width:3.125;"/><text fill="#000000" font-family="Verdana" font-size="40.625" font-weight="bold" lengthAdjust="spacing" textLength="586.6623" x="895.2667" y="4043.2549">Gradient Descent Update:</text><text fill="#000000" font-family="Verdana" font-size="40.625" lengthAdjust="spacing" textLength="764.1785" x="895.2667" y="4092.6277">W&#8317;&#737;&#8318; := W&#8317;&#737;&#8318; - &#945;(&#8706;J/&#8706;W&#8317;&#737;&#8318;)</text><text fill="#000000" font-family="Verdana" font-size="40.625" lengthAdjust="spacing" textLength="719.606" x="895.2667" y="4142.0006">b&#8317;&#737;&#8318; := b&#8317;&#737;&#8318; - &#945;(&#8706;J/&#8706;b&#8317;&#737;&#8318;)</text><text fill="#000000" font-family="Verdana" font-size="40.625" lengthAdjust="spacing" textLength="14.2822" x="895.2667" y="4191.3734">&#160;</text><text fill="#000000" font-family="Verdana" font-size="40.625" font-weight="bold" lengthAdjust="spacing" textLength="523.3047" x="895.2667" y="4240.7463">Momentum (Optional):</text><text fill="#000000" font-family="Verdana" font-size="40.625" lengthAdjust="spacing" textLength="933.3038" x="895.2667" y="4290.1192">vW&#8317;&#737;&#8318; := &#946;vW&#8317;&#737;&#8318; + (1-&#946;)(&#8706;J/&#8706;W&#8317;&#737;&#8318;)</text><text fill="#000000" font-family="Verdana" font-size="40.625" lengthAdjust="spacing" textLength="662.7548" x="895.2667" y="4339.492">W&#8317;&#737;&#8318; := W&#8317;&#737;&#8318; - &#945;vW&#8317;&#737;&#8318;</text><text fill="#000000" font-family="Verdana" font-size="40.625" lengthAdjust="spacing" textLength="14.2822" x="895.2667" y="4388.8649">&#160;</text><text fill="#000000" font-family="Verdana" font-size="40.625" font-weight="bold" lengthAdjust="spacing" textLength="397.641" x="895.2667" y="4438.2378">Adam (Optional):</text><text fill="#000000" font-family="Verdana" font-size="40.625" lengthAdjust="spacing" textLength="1008.2855" x="895.2667" y="4487.6106">mW&#8317;&#737;&#8318; := &#946;&#8321;mW&#8317;&#737;&#8318; + (1-&#946;&#8321;)(&#8706;J/&#8706;W&#8317;&#737;&#8318;)</text><text fill="#000000" font-family="Verdana" font-size="40.625" lengthAdjust="spacing" textLength="999.3591" x="895.2667" y="4536.9835">vW&#8317;&#737;&#8318; := &#946;&#8322;vW&#8317;&#737;&#8318; + (1-&#946;&#8322;)(&#8706;J/&#8706;W&#8317;&#737;&#8318;)&#178;</text><text fill="#000000" font-family="Verdana" font-size="40.625" lengthAdjust="spacing" textLength="1087.1948" x="895.2667" y="4586.3564">W&#8317;&#737;&#8318; := W&#8317;&#737;&#8318; - &#945;(m&#770;W&#8317;&#737;&#8318;/&#8730;v&#770;W&#8317;&#737;&#8318; + &#949;)</text><rect fill="#FFFFFF" height="108.075" rx="39.0625" ry="39.0625" style="stroke:#000000;stroke-width:3.125;" width="576.532" x="237.4847" y="4244.6114"/><text fill="#000000" font-family="Verdana" font-size="37.5" lengthAdjust="spacing" textLength="514.032" x="268.7347" y="4313.5628">Update Weights and Biases</text><polygon fill="#FFFFFF" points="398.7831,1286.5799,652.7184,1286.5799,690.2184,1324.0799,652.7184,1361.5799,398.7831,1361.5799,361.2831,1324.0799,398.7831,1286.5799" style="stroke:#000000;stroke-width:3.125;"/><text fill="#000000" font-family="Verdana" font-size="34.375" lengthAdjust="spacing" textLength="58.7296" x="538.2507" y="1396.1395">yes</text><text fill="#000000" font-family="Verdana" font-size="34.375" lengthAdjust="spacing" textLength="253.9352" x="398.7831" y="1337.751">more batches?</text><text fill="#000000" font-family="Verdana" font-size="34.375" lengthAdjust="spacing" textLength="42.6163" x="318.6668" y="1316.8625">no</text><rect fill="#FFFFFF" height="108.075" rx="39.0625" ry="39.0625" style="stroke:#000000;stroke-width:3.125;" width="423.9136" x="313.7939" y="4779.261"/><text fill="#000000" font-family="Verdana" font-size="37.5" lengthAdjust="spacing" textLength="361.4136" x="345.0439" y="4848.2124">epoch = epoch + 1</text><rect fill="#FFFFFF" height="108.075" rx="39.0625" ry="39.0625" style="stroke:#000000;stroke-width:3.125;" width="513.3606" x="269.0704" y="5101.9745"/><text fill="#000000" font-family="Verdana" font-size="37.5" lengthAdjust="spacing" textLength="450.8606" x="300.3204" y="5170.9259">Compute validation loss</text><rect fill="#FFFFFF" height="108.075" rx="39.0625" ry="39.0625" style="stroke:#000000;stroke-width:3.125;" width="452.1118" x="299.6948" y="5424.688"/><text fill="#000000" font-family="Verdana" font-size="37.5" lengthAdjust="spacing" textLength="389.6118" x="330.9448" y="5493.6394">Early stopping check</text><rect fill="#FFFFFF" height="108.075" rx="39.0625" ry="39.0625" style="stroke:#000000;stroke-width:3.125;" width="306.9275" x="372.287" y="5747.4014"/><text fill="#000000" font-family="Verdana" font-size="37.5" lengthAdjust="spacing" textLength="244.4275" x="403.537" y="5816.3528">Stop training</text><ellipse cx="525.7507" cy="5978.0014" fill="none" rx="34.375" ry="34.375" style="stroke:#000000;stroke-width:3.125;"/><ellipse cx="525.7507" cy="5978.0014" fill="#FFFFFF" rx="18.75" ry="18.75" style="stroke:#000000;stroke-width:3.125;"/><polygon fill="#FFFFFF" points="356.0074,5595.2629,695.4941,5595.2629,732.9941,5632.7629,695.4941,5670.2629,356.0074,5670.2629,318.5074,5632.7629,356.0074,5595.2629" style="stroke:#000000;stroke-width:3.125;"/><text fill="#000000" font-family="Verdana" font-size="34.375" lengthAdjust="spacing" textLength="58.7296" x="538.2507" y="5704.8225">yes</text><text fill="#000000" font-family="Verdana" font-size="34.375" lengthAdjust="spacing" textLength="339.4867" x="356.0074" y="5646.434">patience exceeded?</text><polygon fill="#FFFFFF" points="305.1331,5272.5494,746.3684,5272.5494,783.8684,5310.0494,746.3684,5347.5494,305.1331,5347.5494,267.6331,5310.0494,305.1331,5272.5494" style="stroke:#000000;stroke-width:3.125;"/><text fill="#000000" font-family="Verdana" font-size="34.375" lengthAdjust="spacing" textLength="58.7296" x="538.2507" y="5382.1091">yes</text><text fill="#000000" font-family="Verdana" font-size="34.375" lengthAdjust="spacing" textLength="441.2354" x="305.1331" y="5323.7206">validation loss increased?</text><polygon fill="#FFFFFF" points="525.7507,6143.6264,563.2507,6181.1264,525.7507,6218.6264,488.2507,6181.1264,525.7507,6143.6264" style="stroke:#000000;stroke-width:3.125;"/><polygon fill="#FFFFFF" points="254.435,4949.836,797.0665,4949.836,834.5665,4987.336,797.0665,5024.836,254.435,5024.836,216.935,4987.336,254.435,4949.836" style="stroke:#000000;stroke-width:3.125;"/><text fill="#000000" font-family="Verdana" font-size="34.375" lengthAdjust="spacing" textLength="58.7296" x="538.2507" y="5059.3956">yes</text><text fill="#000000" font-family="Verdana" font-size="34.375" lengthAdjust="spacing" textLength="542.6315" x="254.435" y="5001.0071">epoch % validation_freq == 0?</text><polygon fill="#FFFFFF" points="525.7507,6281.1264,563.2507,6318.6264,525.7507,6356.1264,488.2507,6318.6264,525.7507,6281.1264" style="stroke:#000000;stroke-width:3.125;"/><polygon fill="#FFFFFF" points="330.7129,768.6829,720.7886,768.6829,758.2886,806.1829,720.7886,843.6829,330.7129,843.6829,293.2129,806.1829,330.7129,768.6829" style="stroke:#000000;stroke-width:3.125;"/><text fill="#000000" font-family="Verdana" font-size="34.375" lengthAdjust="spacing" textLength="58.7296" x="538.2507" y="878.2425">yes</text><text fill="#000000" font-family="Verdana" font-size="34.375" lengthAdjust="spacing" textLength="390.0757" x="330.7129" y="819.854">epoch &lt; max_epochs?</text><text fill="#000000" font-family="Verdana" font-size="34.375" lengthAdjust="spacing" textLength="42.6163" x="250.5966" y="798.9655">no</text><path d="M791.8762,6456.1264 L791.8762,6557.9971 L729.3762,6570.4971 L791.8762,6582.9971 L791.8762,6684.8679 A0,0 0 0 0 791.8762,6684.8679 L1700.6287,6684.8679 A0,0 0 0 0 1700.6287,6684.8679 L1700.6287,6487.3764 L1669.3787,6456.1264 L791.8762,6456.1264 A0,0 0 0 0 791.8762,6456.1264" fill="#FFFFFF" style="stroke:#000000;stroke-width:3.125;"/><path d="M1669.3787,6456.1264 L1669.3787,6487.3764 L1700.6287,6487.3764 L1669.3787,6456.1264" fill="#FFFFFF" style="stroke:#000000;stroke-width:3.125;"/><text fill="#000000" font-family="Verdana" font-size="40.625" font-weight="bold" lengthAdjust="spacing" textLength="276.1627" x="810.6262" y="6512.5946">Final Model:</text><text fill="#000000" font-family="Verdana" font-size="40.625" lengthAdjust="spacing" textLength="843.1274" x="810.6262" y="6561.9675">&#8226; Optimized parameters W&#8317;&#737;&#8318;, b&#8317;&#737;&#8318;</text><text fill="#000000" font-family="Verdana" font-size="40.625" lengthAdjust="spacing" textLength="544.0338" x="810.6262" y="6611.3403">&#8226; Minimized loss function J</text><text fill="#000000" font-family="Verdana" font-size="40.625" lengthAdjust="spacing" textLength="435.4294" x="810.6262" y="6660.7132">&#8226; Ready for inference</text><rect fill="#FFFFFF" height="108.075" rx="39.0625" ry="39.0625" style="stroke:#000000;stroke-width:3.125;" width="407.251" x="322.1252" y="6516.4597"/><text fill="#000000" font-family="Verdana" font-size="37.5" lengthAdjust="spacing" textLength="344.751" x="353.3752" y="6585.4111">Training Complete</text><path d="M791.8762,6716.1179 L791.8762,7163.5986 L729.3762,7176.0986 L791.8762,7188.5986 L791.8762,7636.0794 A0,0 0 0 0 791.8762,7636.0794 L2362.0346,7636.0794 A0,0 0 0 0 2362.0346,7636.0794 L2362.0346,6747.3679 L2330.7846,6716.1179 L791.8762,6716.1179 A0,0 0 0 0 791.8762,6716.1179" fill="#FFFFFF" style="stroke:#000000;stroke-width:3.125;"/><path d="M2330.7846,6716.1179 L2330.7846,6747.3679 L2362.0346,6747.3679 L2330.7846,6716.1179" fill="#FFFFFF" style="stroke:#000000;stroke-width:3.125;"/><text fill="#000000" font-family="Verdana" font-size="40.625" font-weight="bold" lengthAdjust="spacing" textLength="644.4855" x="810.6262" y="6772.5861">Key Mathematical Concepts:</text><text fill="#000000" font-family="Verdana" font-size="40.625" lengthAdjust="spacing" textLength="14.2822" x="810.6262" y="6821.9589">&#160;</text><text fill="#000000" font-family="Verdana" font-size="40.625" font-weight="bold" lengthAdjust="spacing" textLength="530.3864" x="810.6262" y="6871.3318">Chain Rule Application:</text><text fill="#000000" font-family="Verdana" font-size="40.625" lengthAdjust="spacing" textLength="1504.5334" x="810.6262" y="6920.7047">&#8706;J/&#8706;W&#8317;&#737;&#8318; = (&#8706;J/&#8706;Z&#8317;&#737;&#8318;)(&#8706;Z&#8317;&#737;&#8318;/&#8706;W&#8317;&#737;&#8318;) = &#948;&#8317;&#737;&#8318;(A&#8317;&#737;&#8315;&#185;&#8318;)&#7488;</text><text fill="#000000" font-family="Verdana" font-size="40.625" lengthAdjust="spacing" textLength="14.2822" x="810.6262" y="6970.0775">&#160;</text><text fill="#000000" font-family="Verdana" font-size="40.625" font-weight="bold" lengthAdjust="spacing" textLength="719.249" x="810.6262" y="7019.4504">Gradient Descent Convergence:</text><text fill="#000000" font-family="Verdana" font-size="40.625" lengthAdjust="spacing" textLength="932.4112" x="810.6262" y="7068.8232">J(&#952;&#8348;&#8330;&#8321;) &#8804; J(&#952;&#8348;) when &#945; is sufficiently small</text><text fill="#000000" font-family="Verdana" font-size="40.625" lengthAdjust="spacing" textLength="14.2822" x="810.6262" y="7118.1961">&#160;</text><text fill="#000000" font-family="Verdana" font-size="40.625" font-weight="bold" lengthAdjust="spacing" textLength="689.1373" x="810.6262" y="7167.569">Learning Rate Considerations:</text><text fill="#000000" font-family="Verdana" font-size="40.625" lengthAdjust="spacing" textLength="783.7967" x="810.6262" y="7216.9418">&#8226; Too large: Overshooting, divergence</text><text fill="#000000" font-family="Verdana" font-size="40.625" lengthAdjust="spacing" textLength="633.9722" x="810.6262" y="7266.3147">&#8226; Too small: Slow convergence</text><text fill="#000000" font-family="Verdana" font-size="40.625" lengthAdjust="spacing" textLength="934.5337" x="810.6262" y="7315.6876">&#8226; Adaptive: &#945; = &#945;&#8320;/(1 + decay_rate &#215; epoch)</text><text fill="#000000" font-family="Verdana" font-size="40.625" lengthAdjust="spacing" textLength="14.2822" x="810.6262" y="7365.0604">&#160;</text><text fill="#000000" font-family="Verdana" font-size="40.625" font-weight="bold" lengthAdjust="spacing" textLength="213.4995" x="810.6262" y="7414.4333">Notation:</text><text fill="#000000" font-family="Verdana" font-size="40.625" lengthAdjust="spacing" textLength="752.6138" x="810.6262" y="7463.8062">&#8226; L: Number of layers, m: Batch size</text><text fill="#000000" font-family="Verdana" font-size="40.625" lengthAdjust="spacing" textLength="970.7153" x="810.6262" y="7513.179">&#8226; &#945;: Learning rate, &#955;: Regularization parameter</text><text fill="#000000" font-family="Verdana" font-size="40.625" lengthAdjust="spacing" textLength="672.9706" x="810.6262" y="7562.5519">&#8226; &#8857;: Element-wise multiplication</text><text fill="#000000" font-family="Verdana" font-size="40.625" lengthAdjust="spacing" textLength="501.1673" x="810.6262" y="7611.9247">&#8226; ||&#183;||F: Frobenius norm</text><rect fill="#FFFFFF" height="108.075" rx="39.0625" ry="39.0625" style="stroke:#000000;stroke-width:3.125;" width="407.251" x="322.1252" y="7122.0612"/><text fill="#000000" font-family="Verdana" font-size="37.5" lengthAdjust="spacing" textLength="344.751" x="353.3752" y="7191.0126">Training Complete</text><ellipse cx="525.7507" cy="7732.9544" fill="none" rx="34.375" ry="34.375" style="stroke:#000000;stroke-width:3.125;"/><ellipse cx="525.7507" cy="7732.9544" fill="#FFFFFF" rx="18.75" ry="18.75" style="stroke:#000000;stroke-width:3.125;"/><line style="stroke:#000000;stroke-width:3.125;" x1="525.7507" x2="525.7507" y1="78.125" y2="268.454"/><polygon fill="#000000" points="513.2507,237.204,525.7507,268.454,538.2507,237.204,525.7507,249.704" style="stroke:#000000;stroke-width:3.125;"/><line style="stroke:#000000;stroke-width:3.125;" x1="525.7507" x2="525.7507" y1="376.5289" y2="598.1079"/><polygon fill="#000000" points="513.2507,566.8579,525.7507,598.1079,538.2507,566.8579,525.7507,579.3579" style="stroke:#000000;stroke-width:3.125;"/><line style="stroke:#000000;stroke-width:3.125;" x1="525.7507" x2="525.7507" y1="1053.5049" y2="1116.0049"/><polygon fill="#000000" points="513.2507,1084.7549,525.7507,1116.0049,538.2507,1084.7549,525.7507,1097.2549" style="stroke:#000000;stroke-width:3.125;"/><line style="stroke:#000000;stroke-width:3.125;" x1="525.7507" x2="525.7507" y1="1826.3977" y2="2066.0995"/><polygon fill="#000000" points="513.2507,2034.8495,525.7507,2066.0995,538.2507,2034.8495,525.7507,2047.3495" style="stroke:#000000;stroke-width:3.125;"/><line style="stroke:#000000;stroke-width:3.125;" x1="525.7507" x2="525.7507" y1="2174.1745" y2="2445.1263"/><polygon fill="#000000" points="513.2507,2413.8763,525.7507,2445.1263,538.2507,2413.8763,525.7507,2426.3763" style="stroke:#000000;stroke-width:3.125;"/><line style="stroke:#000000;stroke-width:3.125;" x1="525.7507" x2="525.7507" y1="1571.402" y2="1718.3228"/><polygon fill="#000000" points="513.2507,1687.0728,525.7507,1718.3228,538.2507,1687.0728,525.7507,1699.5728" style="stroke:#000000;stroke-width:3.125;"/><line style="stroke:#000000;stroke-width:3.125;" x1="525.7507" x2="525.7507" y1="2553.2013" y2="2874.826"/><polygon fill="#000000" points="513.2507,2843.576,525.7507,2874.826,538.2507,2843.576,525.7507,2856.076" style="stroke:#000000;stroke-width:3.125;"/><line style="stroke:#000000;stroke-width:3.125;" x1="525.7507" x2="525.7507" y1="3443.8507" y2="3606.4598"/><polygon fill="#000000" points="513.2507,3575.2098,525.7507,3606.4598,538.2507,3575.2098,525.7507,3587.7098" style="stroke:#000000;stroke-width:3.125;"/><line style="stroke:#000000;stroke-width:3.125;" x1="525.7507" x2="525.7507" y1="2982.901" y2="3335.7758"/><polygon fill="#000000" points="513.2507,3304.5258,525.7507,3335.7758,538.2507,3304.5258,525.7507,3317.0258" style="stroke:#000000;stroke-width:3.125;"/><line style="stroke:#000000;stroke-width:3.125;" x1="525.7507" x2="525.7507" y1="3714.5348" y2="4244.6114"/><polygon fill="#000000" points="513.2507,4213.3614,525.7507,4244.6114,538.2507,4213.3614,525.7507,4225.8614" style="stroke:#000000;stroke-width:3.125;"/><line style="stroke:#000000;stroke-width:3.125;" x1="525.7507" x2="525.7507" y1="1361.5799" y2="1463.327"/><polygon fill="#000000" points="513.2507,1432.077,525.7507,1463.327,538.2507,1432.077,525.7507,1444.577" style="stroke:#000000;stroke-width:3.125;"/><line style="stroke:#000000;stroke-width:3.125;" x1="525.7507" x2="525.7507" y1="4352.6863" y2="4679.261"/><line style="stroke:#000000;stroke-width:3.125;" x1="525.7507" x2="2223.7213" y1="4679.261" y2="4679.261"/><polygon fill="#000000" points="2211.2213,3025.5394,2223.7213,2994.2894,2236.2213,3025.5394,2223.7213,3013.0394" style="stroke:#000000;stroke-width:3.125;"/><line style="stroke:#000000;stroke-width:3.125;" x1="2223.7213" x2="2223.7213" y1="1324.0799" y2="4679.261"/><line style="stroke:#000000;stroke-width:3.125;" x1="2223.7213" x2="690.2184" y1="1324.0799" y2="1324.0799"/><polygon fill="#000000" points="721.4684,1311.5799,690.2184,1324.0799,721.4684,1336.5799,708.9684,1324.0799" style="stroke:#000000;stroke-width:3.125;"/><line style="stroke:#000000;stroke-width:3.125;" x1="361.2831" x2="115.625" y1="1324.0799" y2="1324.0799"/><polygon fill="#000000" points="103.125,2981.7894,115.625,3013.0394,128.125,2981.7894,115.625,2994.2894" style="stroke:#000000;stroke-width:3.125;"/><line style="stroke:#000000;stroke-width:3.125;" x1="115.625" x2="115.625" y1="1324.0799" y2="4716.761"/><line style="stroke:#000000;stroke-width:3.125;" x1="115.625" x2="525.7507" y1="4716.761" y2="4716.761"/><line style="stroke:#000000;stroke-width:3.125;" x1="525.7507" x2="525.7507" y1="4716.761" y2="4779.261"/><polygon fill="#000000" points="513.2507,4748.011,525.7507,4779.261,538.2507,4748.011,525.7507,4760.511" style="stroke:#000000;stroke-width:3.125;"/><line style="stroke:#000000;stroke-width:3.125;" x1="525.7507" x2="525.7507" y1="1224.0799" y2="1286.5799"/><polygon fill="#000000" points="513.2507,1255.3299,525.7507,1286.5799,538.2507,1255.3299,525.7507,1267.8299" style="stroke:#000000;stroke-width:3.125;"/><line style="stroke:#000000;stroke-width:3.125;" x1="525.7507" x2="525.7507" y1="5855.4764" y2="5943.6264"/><polygon fill="#000000" points="513.2507,5912.3764,525.7507,5943.6264,538.2507,5912.3764,525.7507,5924.8764" style="stroke:#000000;stroke-width:3.125;"/><line style="stroke:#000000;stroke-width:3.125;" x1="525.7507" x2="525.7507" y1="5670.2629" y2="5747.4014"/><polygon fill="#000000" points="513.2507,5716.1514,525.7507,5747.4014,538.2507,5716.1514,525.7507,5728.6514" style="stroke:#000000;stroke-width:3.125;"/><line style="stroke:#000000;stroke-width:3.125;" x1="732.9941" x2="770.4941" y1="5632.7629" y2="5632.7629"/><polygon fill="#000000" points="757.9941,5849.8764,770.4941,5881.1264,782.9941,5849.8764,770.4941,5862.3764" style="stroke:#000000;stroke-width:3.125;"/><line style="stroke:#000000;stroke-width:3.125;" x1="770.4941" x2="770.4941" y1="5632.7629" y2="6081.1264"/><line style="stroke:#000000;stroke-width:3.125;" x1="770.4941" x2="525.7507" y1="6081.1264" y2="6081.1264"/><line style="stroke:#000000;stroke-width:3.125;" x1="525.7507" x2="525.7507" y1="6081.1264" y2="6143.6264"/><polygon fill="#000000" points="513.2507,6112.3764,525.7507,6143.6264,538.2507,6112.3764,525.7507,6124.8764" style="stroke:#000000;stroke-width:3.125;"/><line style="stroke:#000000;stroke-width:3.125;" x1="525.7507" x2="525.7507" y1="5532.7629" y2="5595.2629"/><polygon fill="#000000" points="513.2507,5564.0129,525.7507,5595.2629,538.2507,5564.0129,525.7507,5576.5129" style="stroke:#000000;stroke-width:3.125;"/><line style="stroke:#000000;stroke-width:3.125;" x1="525.7507" x2="525.7507" y1="5347.5494" y2="5424.688"/><polygon fill="#000000" points="513.2507,5393.438,525.7507,5424.688,538.2507,5393.438,525.7507,5405.938" style="stroke:#000000;stroke-width:3.125;"/><line style="stroke:#000000;stroke-width:3.125;" x1="783.8684" x2="821.3684" y1="5310.0494" y2="5310.0494"/><polygon fill="#000000" points="808.8684,5722.4014,821.3684,5753.6514,833.8684,5722.4014,821.3684,5734.9014" style="stroke:#000000;stroke-width:3.125;"/><line style="stroke:#000000;stroke-width:3.125;" x1="821.3684" x2="821.3684" y1="5310.0494" y2="6181.1264"/><line style="stroke:#000000;stroke-width:3.125;" x1="821.3684" x2="563.2507" y1="6181.1264" y2="6181.1264"/><polygon fill="#000000" points="594.5007,6168.6264,563.2507,6181.1264,594.5007,6193.6264,582.0007,6181.1264" style="stroke:#000000;stroke-width:3.125;"/><line style="stroke:#000000;stroke-width:3.125;" x1="525.7507" x2="525.7507" y1="5210.0494" y2="5272.5494"/><polygon fill="#000000" points="513.2507,5241.2994,525.7507,5272.5494,538.2507,5241.2994,525.7507,5253.7994" style="stroke:#000000;stroke-width:3.125;"/><line style="stroke:#000000;stroke-width:3.125;" x1="525.7507" x2="525.7507" y1="5024.836" y2="5101.9745"/><polygon fill="#000000" points="513.2507,5070.7245,525.7507,5101.9745,538.2507,5070.7245,525.7507,5083.2245" style="stroke:#000000;stroke-width:3.125;"/><line style="stroke:#000000;stroke-width:3.125;" x1="834.5665" x2="872.0665" y1="4987.336" y2="4987.336"/><polygon fill="#000000" points="859.5665,5613.6765,872.0665,5644.9265,884.5665,5613.6765,872.0665,5626.1765" style="stroke:#000000;stroke-width:3.125;"/><line style="stroke:#000000;stroke-width:3.125;" x1="872.0665" x2="872.0665" y1="4987.336" y2="6318.6264"/><line style="stroke:#000000;stroke-width:3.125;" x1="872.0665" x2="563.2507" y1="6318.6264" y2="6318.6264"/><polygon fill="#000000" points="594.5007,6306.1264,563.2507,6318.6264,594.5007,6331.1264,582.0007,6318.6264" style="stroke:#000000;stroke-width:3.125;"/><line style="stroke:#000000;stroke-width:3.125;" x1="525.7507" x2="525.7507" y1="6218.6264" y2="6281.1264"/><polygon fill="#000000" points="513.2507,6249.8764,525.7507,6281.1264,538.2507,6249.8764,525.7507,6262.3764" style="stroke:#000000;stroke-width:3.125;"/><line style="stroke:#000000;stroke-width:3.125;" x1="525.7507" x2="525.7507" y1="4887.336" y2="4949.836"/><polygon fill="#000000" points="513.2507,4918.586,525.7507,4949.836,538.2507,4918.586,525.7507,4931.086" style="stroke:#000000;stroke-width:3.125;"/><line style="stroke:#000000;stroke-width:3.125;" x1="525.7507" x2="525.7507" y1="843.6829" y2="945.43"/><polygon fill="#000000" points="513.2507,914.18,525.7507,945.43,538.2507,914.18,525.7507,926.68" style="stroke:#000000;stroke-width:3.125;"/><line style="stroke:#000000;stroke-width:3.125;" x1="525.7507" x2="525.7507" y1="6356.1264" y2="6387.3764"/><line style="stroke:#000000;stroke-width:3.125;" x1="525.7507" x2="2261.2213" y1="6387.3764" y2="6387.3764"/><polygon fill="#000000" points="2248.7213,3529.8111,2261.2213,3498.5611,2273.7213,3529.8111,2261.2213,3517.3111" style="stroke:#000000;stroke-width:3.125;"/><line style="stroke:#000000;stroke-width:3.125;" x1="2261.2213" x2="2261.2213" y1="806.1829" y2="6387.3764"/><line style="stroke:#000000;stroke-width:3.125;" x1="2261.2213" x2="758.2886" y1="806.1829" y2="806.1829"/><polygon fill="#000000" points="789.5386,793.6829,758.2886,806.1829,789.5386,818.6829,777.0386,806.1829" style="stroke:#000000;stroke-width:3.125;"/><line style="stroke:#000000;stroke-width:3.125;" x1="293.2129" x2="59.375" y1="806.1829" y2="806.1829"/><polygon fill="#000000" points="46.875,3486.0611,59.375,3517.3111,71.875,3486.0611,59.375,3498.5611" style="stroke:#000000;stroke-width:3.125;"/><line style="stroke:#000000;stroke-width:3.125;" x1="59.375" x2="59.375" y1="806.1829" y2="6424.8764"/><line style="stroke:#000000;stroke-width:3.125;" x1="59.375" x2="525.7507" y1="6424.8764" y2="6424.8764"/><line style="stroke:#000000;stroke-width:3.125;" x1="525.7507" x2="525.7507" y1="6424.8764" y2="6516.4597"/><polygon fill="#000000" points="513.2507,6485.2097,525.7507,6516.4597,538.2507,6485.2097,525.7507,6497.7097" style="stroke:#000000;stroke-width:3.125;"/><line style="stroke:#000000;stroke-width:3.125;" x1="525.7507" x2="525.7507" y1="706.1829" y2="768.6829"/><polygon fill="#000000" points="513.2507,737.4329,525.7507,768.6829,538.2507,737.4329,525.7507,749.9329" style="stroke:#000000;stroke-width:3.125;"/><line style="stroke:#000000;stroke-width:3.125;" x1="525.7507" x2="525.7507" y1="6624.5346" y2="7122.0612"/><polygon fill="#000000" points="513.2507,7090.8112,525.7507,7122.0612,538.2507,7090.8112,525.7507,7103.3112" style="stroke:#000000;stroke-width:3.125;"/><line style="stroke:#000000;stroke-width:3.125;" x1="525.7507" x2="525.7507" y1="7230.1361" y2="7698.5794"/><polygon fill="#000000" points="513.2507,7667.3294,525.7507,7698.5794,538.2507,7667.3294,525.7507,7679.8294" style="stroke:#000000;stroke-width:3.125;"/><!--SRC=[ZLVDRjj64BxpAQO12fEA1TlfZMvGEAwTr96Tm7Rg94KHhCYLj339PNOfEKhT8jQbQTf3Rq63N9hq0Mh3JjAwxI55JYtq3kQJT9RBNqbMweD5xdxxpUpCnzdP3w8EzIc47c61CHEnoADmLH2NqI22JwbqrE-Ir-Q2HHqVMbp01kqAuk5FjCV5hZJaBWj28eWFRiZWe_bvGqP4H8PXVnQmY16FFQGP6cug88sea8j6m2CAWhKxaG5Gg-rGzGZv8X8n7jYr6axkn0T__lDpVF0NV0CRvlmin8-VcPVcWdZmD1vy7myEB0jHpHnr6UQDXFDQFwGYp6rgjlZH2sXG8W8Mj46GYDemF4p7hv38wO14bstmqx6La3iTQSEAGGCNbDUujoqQ0LKJojYYOUnr68REr4CVWqyUt4kUvISMC0bcdqfB-MHlTRgj5a8ZWI5N7hWa8el9L2bUpSGFXtS3z3kPJGtuNAIpT9GQ6QwYLpxIrlNwsnYHivDlCIIpS2T_NjJW6LZbOey85suA7f9s4kza1WE6Ii0tk52hJG3LQXVWgmHPTNe9JSG7l-eCt1wrXrZa0ahGCO_qgG0FOGiGSMZOYocaeWdzLwirM83fWcr10eaAz4lAq7ztIvdFjRAKFfo-_KtDN2pqOPIubvo8zH92MEq6pYZpKecvdJsRkJshe5hcleya9EUJTZwdLBH96xTiQ9iFBQH2UIWPFxGga2tMzZbpSzJ2dBc0VbFSmzchqofscmIT76XId8TwZfpJ0sDB2_sc2K6dmov6F1JKPSdc9RnxXOngtsV7RvBiAUJNcMOQN4hGoyuHp2YYefRCO0BA0WvhKzE_Jaa0M_Ux19s45I5GHEOcRGig9IwsokbQKy5OcBlaMp1yUNRo8XxyWDNXxEH7CD-zndUCKHz_hBT7PGqi2_IclX94AF4-cCiUGUOMSnBtn_ZhQ62SV_WoFlmZVNtrFB620-3njhQCBrRPvWxMKsXSGbcqknuHbN9Ns5gB1uymZURmDDrJKl4I8yTlO7y_5_l-_jkZrT4iLn9tXJYxx__Q9w4c9f1t8_nDFsIgaZ8rXpSql970imEclDlXSQuut7VyUB0sX__kbWVDGfIOnpiMn4z-WlPCFcWMw7C5Fw42DUf93LgONeEkCTUbmSW6vDWEibhnXPcbvlUa_5Xd9uzoW1xwil3__AfIg-KdvcIhMQHsIiOJWHRkcDLAg5n9DULR-R8nmkOOuOZWZzLhTVLavHKxk1NYOKV7LJUAg2XE3u5k3oGGj7654Kdbr7oDDJ6QfXow8cHswTX0QGqFpR6m5jMtMLxMdBoiEJ6Lwzn7Jxe-c3T2jNNYLOfBh-BGyAZqZkbQg0-Fh6b-JTbEmLGv-bnodYl-Y2kOSt_C6zLtJNEeDqOow4qW6KmYmGBzVzBa_rkiGO9dlT8xMXYUMESg4qVIbYhWkZFBsZdzUn4MaiPb1Zx7xiRLBO8ItmeHNX-s8Xw6sBuXWhMolkz3wENOUor1xyDbx0wnJSCkEqWRjKeLBU1uKiXKqOflP09Ou0YAedV7oP1EkoHJbm1xGsSt-peKMuXCD70eq0SEfUva5jMR8aFUc2xcuuguY2Dh6UKd_MkCXDFUpjfRjLKFl-snVd-LeUfWdRlKA_fofKOVUqaNYgwzIFfigOVJ-7Kqel59c5fvHs5aNHTn-ycrXGKjAbGGobty-xsyJlkmJjGj2MFeeCFB73b2NOGJn787EM2pYtjV2aClRHlIBKsgpkN3JQlTBBzLFmHSCBMIQn_6gXrwsQEYhVQhFLapXs_YmVDuy4HzjX1_zqisPE7L0gKmF5IN2OcN4-OeAYKedtYUDf3VbpPLBKPsoLmgqZutpzusvtYmebaRRg1vsU4ymaMpuBBCcn8oeRTXo-DxUDC9HX1OdL0BlUHofe9mYAsGxeTTwf3-FNLnWx-Vwg_LqbvkyAWSV7NFis6ZwpVnPE4jVURBMV3jqZql1GuFxUgbS1Q6f_P8UrQ8Cbs59pZU2psgwdfzZqaAVjUBMAw258RTsUlz_LKRLWLlqe1r9GfG-2Kb9f_OVm00]--></g></svg>
