<svg xmlns="http://www.w3.org/2000/svg" xmlns:xlink="http://www.w3.org/1999/xlink" contentStyleType="text/css" data-diagram-type="DESCRIPTION" height="3650px" preserveAspectRatio="none" style="width:1631px;height:3650px;background:#FFFFFF;" version="1.1" viewBox="0 0 1631 3650" width="1631.25px" zoomAndPan="magnify"><defs/><g><!--cluster principle--><g class="cluster" data-entity="principle" data-source-line="7" data-uid="ent0002" id="cluster_principle"><rect fill="#FFFFFF" height="440.625" rx="7.8125" ry="7.8125" style="stroke:#000000;stroke-width:3.125;" width="1484.375" x="129.2801" y="37.5"/><text fill="#000000" font-family="Verdana" font-size="43.75" font-weight="bold" lengthAdjust="spacing" textLength="432.3944" x="655.2704" y="87.735">Hebbian Principle</text></g><!--cluster network--><g class="cluster" data-entity="network" data-source-line="17" data-uid="ent0004" id="cluster_network"><rect fill="#FFFFFF" height="328.125" rx="7.8125" ry="7.8125" style="stroke:#000000;stroke-width:3.125;" width="1053.125" x="129.2801" y="631.25"/><text fill="#000000" font-family="Verdana" font-size="43.75" font-weight="bold" lengthAdjust="spacing" textLength="549.2035" x="381.2408" y="681.485">Neural Network Model</text></g><!--cluster math--><g class="cluster" data-entity="math" data-source-line="27" data-uid="ent0010" id="cluster_math"><rect fill="#FFFFFF" height="737.5" rx="7.8125" ry="7.8125" style="stroke:#000000;stroke-width:3.125;" width="903.125" x="129.2801" y="1112.5"/><text fill="#000000" font-family="Verdana" font-size="43.75" font-weight="bold" lengthAdjust="spacing" textLength="455.5084" x="353.0884" y="1162.735">Mathematical Rule</text></g><!--cluster scenarios--><g class="cluster" data-entity="scenarios" data-source-line="43" data-uid="ent0012" id="cluster_scenarios"><rect fill="#FFFFFF" height="787.5" rx="7.8125" ry="7.8125" style="stroke:#000000;stroke-width:3.125;" width="1303.125" x="129.2801" y="2003.125"/><text fill="#000000" font-family="Verdana" font-size="43.75" font-weight="bold" lengthAdjust="spacing" textLength="469.693" x="545.9961" y="2053.36">Learning Scenarios</text></g><!--cluster applications--><g class="cluster" data-entity="applications" data-source-line="60" data-uid="ent0014" id="cluster_applications"><rect fill="#FFFFFF" height="687.5" rx="7.8125" ry="7.8125" style="stroke:#000000;stroke-width:3.125;" width="884.375" x="129.2801" y="2943.75"/><text fill="#000000" font-family="Verdana" font-size="43.75" font-weight="bold" lengthAdjust="spacing" textLength="408.2764" x="367.3294" y="2993.985">Key Applications</text></g><g class="entity" data-entity="quote" data-source-line="9" data-uid="ent0003" id="entity_quote"><path d="M265.2176,175 L265.2176,403.7415 L1537.8693,403.7415 L1537.8693,206.25 L1506.6193,175 L265.2176,175" fill="#FFFFFF" style="stroke:#000000;stroke-width:3.125;"/><path d="M1506.6193,175 L1506.6193,206.25 L1537.8693,206.25 L1506.6193,175" fill="#FFFFFF" style="stroke:#000000;stroke-width:3.125;"/><text fill="#000000" font-family="Verdana" font-size="40.625" font-weight="bold" lengthAdjust="spacing" textLength="905.0369" x="283.9676" y="231.4682">"Cells that fire together, wire together"</text><text fill="#000000" font-family="Verdana" font-size="40.625" lengthAdjust="spacing" textLength="14.2822" x="283.9676" y="280.8411">&#160;</text><text fill="#000000" font-family="Verdana" font-size="40.625" lengthAdjust="spacing" textLength="1207.0267" x="283.9676" y="330.2139">When two neurons are repeatedly active at the same time,</text><text fill="#000000" font-family="Verdana" font-size="40.625" lengthAdjust="spacing" textLength="1002.4734" x="383.9432" y="379.5868">the connection between them becomes stronger.</text></g><!--entity pre--><g class="entity" data-entity="pre" data-source-line="18" data-uid="ent0005" id="entity_pre"><ellipse cx="291.7801" cy="826.5625" fill="#FFFFFF" rx="25" ry="25" style="stroke:#000000;stroke-width:3.125;"/><text fill="#000000" font-family="Verdana" font-size="43.75" lengthAdjust="spacing" textLength="514.8102" x="34.375" y="923.6725">Neuron i (Pre-synaptic)</text></g><!--entity weight--><g class="entity" data-entity="weight" data-source-line="19" data-uid="ent0006" id="entity_weight"><rect fill="#FFFFFF" height="115.6708" rx="7.8125" ry="7.8125" style="stroke:#000000;stroke-width:3.125;" width="294.2596" x="523.0301" y="768.75"/><text fill="#000000" font-family="Verdana" font-size="43.75" lengthAdjust="spacing" textLength="231.7596" x="554.2801" y="843.985">Weight wij</text></g><!--entity post--><g class="entity" data-entity="post" data-source-line="20" data-uid="ent0007" id="entity_post"><ellipse cx="1079.2801" cy="826.5625" fill="#FFFFFF" rx="25" ry="25" style="stroke:#000000;stroke-width:3.125;"/><text fill="#000000" font-family="Verdana" font-size="43.75" lengthAdjust="spacing" textLength="539.7186" x="809.4208" y="923.6725">Neuron j (Post-synaptic)</text></g><g class="entity" data-entity="formula" data-source-line="29" data-uid="ent0011" id="entity_formula"><path d="M265.2176,1250 L265.2176,1774.9786 L956.8008,1774.9786 L956.8008,1281.25 L925.5508,1250 L265.2176,1250" fill="#FFFFFF" style="stroke:#000000;stroke-width:3.125;"/><path d="M925.5508,1250 L925.5508,1281.25 L956.8008,1281.25 L925.5508,1250" fill="#FFFFFF" style="stroke:#000000;stroke-width:3.125;"/><text fill="#000000" font-family="Verdana" font-size="40.625" font-weight="bold" lengthAdjust="spacing" textLength="470.6787" x="283.9676" y="1306.4682">Weight Update Rule:</text><text fill="#000000" font-family="Verdana" font-size="40.625" lengthAdjust="spacing" textLength="477.1057" x="283.9676" y="1355.8411">&#916;wij = &#951; &#215; xi(t) &#215; yj(t)</text><text fill="#000000" font-family="Verdana" font-size="40.625" lengthAdjust="spacing" textLength="14.2822" x="283.9676" y="1405.2139">&#160;</text><text fill="#000000" font-family="Verdana" font-size="40.625" font-weight="bold" lengthAdjust="spacing" textLength="293.956" x="283.9676" y="1454.5868">New Weight:</text><text fill="#000000" font-family="Verdana" font-size="40.625" lengthAdjust="spacing" textLength="545.3827" x="283.9676" y="1503.9597">wij(new) = wij(old) + &#916;wij</text><text fill="#000000" font-family="Verdana" font-size="40.625" lengthAdjust="spacing" textLength="14.2822" x="283.9676" y="1553.3325">&#160;</text><text fill="#000000" font-family="Verdana" font-size="40.625" font-weight="bold" lengthAdjust="spacing" textLength="280.3284" x="283.9676" y="1602.7054">Parameters:</text><text fill="#000000" font-family="Verdana" font-size="40.625" lengthAdjust="spacing" textLength="385.144" x="283.9676" y="1652.0782">&#8226; &#951; = learning rate</text><text fill="#000000" font-family="Verdana" font-size="40.625" lengthAdjust="spacing" textLength="602.829" x="283.9676" y="1701.4511">&#8226; xi(t) = pre-synaptic activity</text><text fill="#000000" font-family="Verdana" font-size="40.625" lengthAdjust="spacing" textLength="625.9583" x="283.9676" y="1750.824">&#8226; yj(t) = post-synaptic activity</text></g><g class="entity" data-entity="cases" data-source-line="45" data-uid="ent0013" id="entity_cases"><path d="M263.6551,2140.625 L263.6551,2714.9765 L1357.6004,2714.9765 L1357.6004,2171.875 L1326.3504,2140.625 L263.6551,2140.625" fill="#FFFFFF" style="stroke:#000000;stroke-width:3.125;"/><path d="M1326.3504,2140.625 L1326.3504,2171.875 L1357.6004,2171.875 L1326.3504,2140.625" fill="#FFFFFF" style="stroke:#000000;stroke-width:3.125;"/><text fill="#000000" font-family="Verdana" font-size="40.625" font-weight="bold" lengthAdjust="spacing" textLength="547.5449" x="282.4051" y="2197.0932">When weights increase:</text><text fill="#000000" font-family="Verdana" font-size="40.625" lengthAdjust="spacing" textLength="764.6744" x="282.4051" y="2246.4661">&#8226; Both neurons active simultaneously</text><text fill="#000000" font-family="Verdana" font-size="40.625" lengthAdjust="spacing" textLength="632.6828" x="282.4051" y="2295.8389">&#8226; xi &gt; 0 and yj &gt; 0 &#8594; &#916;wij &gt; 0</text><text fill="#000000" font-family="Verdana" font-size="40.625" lengthAdjust="spacing" textLength="14.2822" x="282.4051" y="2345.2118">&#160;</text><text fill="#000000" font-family="Verdana" font-size="40.625" font-weight="bold" lengthAdjust="spacing" textLength="586.702" x="282.4051" y="2394.5847">When weights stay same:</text><text fill="#000000" font-family="Verdana" font-size="40.625" lengthAdjust="spacing" textLength="481.5292" x="282.4051" y="2443.9575">&#8226; Both neurons inactive</text><text fill="#000000" font-family="Verdana" font-size="40.625" lengthAdjust="spacing" textLength="599.2584" x="282.4051" y="2493.3304">&#8226; xi = 0 or yj = 0 &#8594; &#916;wij = 0</text><text fill="#000000" font-family="Verdana" font-size="40.625" lengthAdjust="spacing" textLength="14.2822" x="282.4051" y="2542.7032">&#160;</text><text fill="#000000" font-family="Verdana" font-size="40.625" font-weight="bold" lengthAdjust="spacing" textLength="492.3798" x="282.4051" y="2592.0761">Association Learning:</text><text fill="#000000" font-family="Verdana" font-size="40.625" lengthAdjust="spacing" textLength="996.7606" x="282.4051" y="2641.449">&#8226; Repeated co-activation strengthens connection</text><text fill="#000000" font-family="Verdana" font-size="40.625" lengthAdjust="spacing" textLength="1028.3203" x="282.4051" y="2690.8218">&#8226; Forms basis for memory and pattern recognition</text></g><g class="entity" data-entity="apps" data-source-line="62" data-uid="ent0015" id="entity_apps"><path d="M265.2176,3081.25 L265.2176,3556.8558 L937.9761,3556.8558 L937.9761,3112.5 L906.7261,3081.25 L265.2176,3081.25" fill="#FFFFFF" style="stroke:#000000;stroke-width:3.125;"/><path d="M906.7261,3081.25 L906.7261,3112.5 L937.9761,3112.5 L906.7261,3081.25" fill="#FFFFFF" style="stroke:#000000;stroke-width:3.125;"/><text fill="#000000" font-family="Verdana" font-size="40.625" font-weight="bold" lengthAdjust="spacing" textLength="443.9194" x="283.9676" y="3137.7182">Biological Systems:</text><text fill="#000000" font-family="Verdana" font-size="40.625" lengthAdjust="spacing" textLength="577.1408" x="283.9676" y="3187.0911">&#8226; Synaptic plasticity in brain</text><text fill="#000000" font-family="Verdana" font-size="40.625" lengthAdjust="spacing" textLength="412.4191" x="283.9676" y="3236.4639">&#8226; Memory formation</text><text fill="#000000" font-family="Verdana" font-size="40.625" lengthAdjust="spacing" textLength="534.1949" x="283.9676" y="3285.8368">&#8226; Learning and adaptation</text><text fill="#000000" font-family="Verdana" font-size="40.625" lengthAdjust="spacing" textLength="14.2822" x="283.9676" y="3335.2097">&#160;</text><text fill="#000000" font-family="Verdana" font-size="40.625" font-weight="bold" lengthAdjust="spacing" textLength="443.3243" x="283.9676" y="3384.5825">Artificial Networks:</text><text fill="#000000" font-family="Verdana" font-size="40.625" lengthAdjust="spacing" textLength="403.6713" x="283.9676" y="3433.9554">&#8226; Hopfield networks</text><text fill="#000000" font-family="Verdana" font-size="40.625" lengthAdjust="spacing" textLength="469.0323" x="283.9676" y="3483.3282">&#8226; Self-organizing maps</text><text fill="#000000" font-family="Verdana" font-size="40.625" lengthAdjust="spacing" textLength="607.1335" x="283.9676" y="3532.7011">&#8226; Associative memory models</text></g><!--link pre to weight--><g class="link" data-entity-1="pre" data-entity-2="weight" data-source-line="22" data-uid="lnk8" id="link_pre_weight"><path d="M320.1863,826.5625 C363.1238,826.5625 428.7801,826.5625 503.8738,826.5625" fill="none" id="pre-to-weight" style="stroke:#000000;stroke-width:3.125;"/><polygon fill="#000000" points="522.6238,826.5625,494.4988,814.0625,506.9988,826.5625,494.4988,839.0625,522.6238,826.5625" style="stroke:#000000;stroke-width:3.125;"/><text fill="#000000" font-family="Verdana" font-size="40.625" lengthAdjust="spacing" textLength="88.0936" x="377.7176" y="808.0307">xi(t)</text></g><!--link weight to post--><g class="link" data-entity-1="weight" data-entity-2="post" data-source-line="23" data-uid="lnk9" id="link_weight_post"><path d="M817.6863,826.5625 C902.9051,826.5625 983.6238,826.5625 1031.6551,826.5625" fill="none" id="weight-to-post" style="stroke:#000000;stroke-width:3.125;"/><polygon fill="#000000" points="1050.4051,826.5625,1022.2801,814.0625,1034.7801,826.5625,1022.2801,839.0625,1050.4051,826.5625" style="stroke:#000000;stroke-width:3.125;"/><text fill="#000000" font-family="Verdana" font-size="40.625" lengthAdjust="spacing" textLength="118.8797" x="874.5926" y="808.0307">signal</text></g><!--link principle to network--><g class="link" data-entity-1="principle" data-entity-2="network" data-source-line="75" data-uid="lnk16" id="link_principle_network"><path d="M154.2801,480.4914 C154.2801,482.4246 154.2801,484.3637 154.2801,486.3084 C154.2801,494.087 154.2801,501.9541 154.2801,509.8801 C154.2801,525.7319 154.2801,541.8193 154.2801,557.9063 C154.2801,573.9932 154.2801,590.0796 154.2801,605.9295 C154.2801,613.8545 154.2801,621.7203 154.2801,629.4975 C154.2801,629.9836 154.2801,611.7193 154.2801,612.2047" fill="none" id="principle-to-network" style="stroke:#000000;stroke-width:3.125;"/><polygon fill="#000000" points="154.2801,630.9547,166.7801,602.8297,154.2801,615.3297,141.7801,602.8297,154.2801,630.9547" style="stroke:#000000;stroke-width:3.125;"/></g><!--link network to math--><g class="link" data-entity-1="network" data-entity-2="math" data-source-line="76" data-uid="lnk17" id="link_network_math"><path d="M154.2801,960.1897 C154.2801,962.2669 154.2801,964.3612 154.2801,966.472 C154.2801,974.9153 154.2801,983.6226 154.2801,992.5562 C154.2801,1010.4235 154.2801,1029.1961 154.2801,1048.5721 C154.2801,1067.948 154.2801,1087.9273 154.2801,1108.208 C154.2801,1109.4756 154.2801,1110.7443 154.2801,1112.0141 C154.2801,1112.1728 154.2801,1093.5816 154.2801,1093.7403" fill="none" id="network-to-math" style="stroke:#000000;stroke-width:3.125;"/><polygon fill="#000000" points="154.2801,1112.4903,166.7801,1084.3653,154.2801,1096.8653,141.7801,1084.3653,154.2801,1112.4903" style="stroke:#000000;stroke-width:3.125;"/></g><!--link math to scenarios--><g class="link" data-entity-1="math" data-entity-2="scenarios" data-source-line="77" data-uid="lnk18" id="link_math_scenarios"><path d="M154.2801,1850.9581 C154.2801,1852.6519 154.2801,1854.3481 154.2801,1856.0466 C154.2801,1859.4435 154.2801,1862.8496 154.2801,1866.2639 C154.2801,1873.0926 154.2801,1879.9543 154.2801,1886.8425 C154.2801,1914.3953 154.2801,1942.3716 154.2801,1970.3477 C154.2801,1977.3417 154.2801,1984.3357 154.2801,1991.3231 C154.2801,1994.8167 154.2801,1979.5588 154.2801,1983.0483" fill="none" id="math-to-scenarios" style="stroke:#000000;stroke-width:3.125;"/><polygon fill="#000000" points="154.2801,2001.7983,166.7801,1973.6733,154.2801,1986.1733,141.7801,1973.6733,154.2801,2001.7983" style="stroke:#000000;stroke-width:3.125;"/></g><!--link scenarios to applications--><g class="link" data-entity-1="scenarios" data-entity-2="applications" data-source-line="78" data-uid="lnk19" id="link_scenarios_applications"><path d="M154.2801,2792.2644 C154.2801,2819.0594 154.2801,2846.2661 154.2801,2873.4727 C154.2801,2887.0759 154.2801,2900.6792 154.2801,2914.2308 C154.2801,2921.0067 154.2801,2927.7696 154.2801,2934.5133 C154.2801,2936.1992 154.2801,2937.8839 154.2801,2939.5673 C154.2801,2940.409 154.2801,2922.5003 154.2801,2923.3414" fill="none" id="scenarios-to-applications" style="stroke:#000000;stroke-width:3.125;"/><polygon fill="#000000" points="154.2801,2942.0914,166.7801,2913.9664,154.2801,2926.4664,141.7801,2913.9664,154.2801,2942.0914" style="stroke:#000000;stroke-width:3.125;"/></g><!--SRC=[VLNDRjD04BxxAOPSsWI2Ad6hb4fj9LG9KbMDKCyRU-9ikjurknk2GKYSU024n9sNu06uzo7w9CoiVx9s2hxOk_F_pJVZPtwD1KAfXDI9kvUw55OKa9KINfsS9CcHbruXNE5oUUJWTglm51RReX2s8Y7CoGnAAtKgIuM9nTGBdPF1Y2saq73J2aSWt5uLFYT0ZpOU-VxzbZx23J-JoUWIbNBWryB3Ibe4RtAaLEqBsCN7qMIIT6PtQzJWTmOqRgtH3WHfMYnHUCnK1IBryWE5y-GNmGcgsyi2NtGEceUbgT6QYf56mnBz3jap8KM7r1Jem7cAaADz6OnHPw6Kv0k3SatXXQ8iA1TxpnbOTAYzO7SnHetYTQCuDncg05DhMeEKIfkswfIFXECRYrDNQL5wcOuRO6lu8kztAFEr9xmsGMCNZayvt913u_pG8rtLs99lc5gsdfurRk0KFifZFmxovgfJOKjIS3BNGjMGp0MZHm2aLE_As6Ah3j3ewJ3JGXfqiHwGfR6FwDAK-gxCgDKrIuaOhVpX1s40CtZu3Nz-rddpHxNX0Y8lrxY3sbDiJRR76dTZSi2VHcLZU5xxZ8rlU6xGetMnyUFNNnns1Wg5rLBdO4L4T1RN-SmOvQu3DLMbhtgQ8M7MZ9lLL-qJyMqRrAMeXPN6nNXtqaKh3O1tkWFKK-7GnPZpjDMjTq1JRP4KXhLV6EfUDuxr_3b9tQCaq6oTgWPOm1cSWA0ggatuVFpslUaVdP9_XNTUL66W_njVwZg3OSWPnJ6M8yvw4MVzYEVEcLG6sdR83kFTDjk6ziSq1AlLQLkWpedUbCL-i_GiNnEf7Io5au7WK61XR1MWA8KdNccURPDhsPdsctrUbef6XwMzDh_1gYSBJHRHnQ3F98hRV26DCdcOoKNbF1O7_5wqJAIVYACtSP6WXgNbNqgiEAzBul4L1_LtREIAHKOUQvsu0TRB5VdVhyo3NAvCkPAeidQ3kdwcg5PJOtEXvISELOYohz2rc6ZQDA3WfUoUmFkowwDBzh-rAUs_9dRIRd6-upMMX5t6f_qyxgUDx-Es97y1]--></g></svg>
