<svg xmlns="http://www.w3.org/2000/svg" xmlns:xlink="http://www.w3.org/1999/xlink" contentStyleType="text/css" data-diagram-type="ACTIVITY" height="2281.25px" preserveAspectRatio="none" style="width:956px;height:2281px;background:#FFFFFF;" version="1.1" viewBox="0 0 956 2281" width="956.25px" zoomAndPan="magnify"><defs/><g><ellipse cx="485.2539" cy="46.875" fill="#FFFFFF" rx="31.25" ry="31.25" style="stroke:#000000;stroke-width:3.125;"/><rect fill="#FFFFFF" height="108.075" rx="39.0625" ry="39.0625" style="stroke:#000000;stroke-width:3.125;" width="489.9048" x="240.3015" y="140.625"/><text fill="#000000" font-family="Verdana" font-size="37.5" lengthAdjust="spacing" textLength="427.4048" x="271.5515" y="209.5764">INPUT: SortArray[1:n]</text><rect fill="#FFFFFF" height="108.075" rx="39.0625" ry="39.0625" style="stroke:#000000;stroke-width:3.125;" width="160.498" x="405.0049" y="311.2"/><text fill="#000000" font-family="Verdana" font-size="37.5" lengthAdjust="spacing" textLength="97.998" x="436.2549" y="380.1514">i &#8592; 2</text><rect fill="#FFFFFF" height="108.075" rx="39.0625" ry="39.0625" style="stroke:#000000;stroke-width:3.125;" width="422.76" x="273.8739" y="658.522"/><text fill="#000000" font-family="Verdana" font-size="37.5" lengthAdjust="spacing" textLength="360.26" x="305.1239" y="727.4734">Key &#8592; SortArray[i]</text><rect fill="#FFFFFF" height="108.075" rx="39.0625" ry="39.0625" style="stroke:#000000;stroke-width:3.125;" width="216.803" x="376.8524" y="829.097"/><text fill="#000000" font-family="Verdana" font-size="37.5" lengthAdjust="spacing" textLength="154.303" x="408.1024" y="898.0484">j &#8592; i - 1</text><rect fill="#FFFFFF" height="108.075" rx="39.0625" ry="39.0625" style="stroke:#000000;stroke-width:3.125;" width="664.2578" x="153.125" y="1176.4191"/><text fill="#000000" font-family="Verdana" font-size="37.5" lengthAdjust="spacing" textLength="601.7578" x="184.375" y="1245.3705">SortArray[j + 1] &#8592; SortArray[j]</text><rect fill="#FFFFFF" height="108.075" rx="39.0625" ry="39.0625" style="stroke:#000000;stroke-width:3.125;" width="219.4214" x="375.5432" y="1374.543"/><text fill="#000000" font-family="Verdana" font-size="37.5" lengthAdjust="spacing" textLength="156.9214" x="406.7932" y="1443.4944">j &#8592; j - 1</text><polygon fill="#FFFFFF" points="219.754,999.6719,750.7538,999.6719,788.2538,1037.1719,750.7538,1074.6719,219.754,1074.6719,182.254,1037.1719,219.754,999.6719" style="stroke:#000000;stroke-width:3.125;"/><text fill="#000000" font-family="Verdana" font-size="34.375" lengthAdjust="spacing" textLength="58.7296" x="497.7539" y="1109.2316">yes</text><text fill="#000000" font-family="Verdana" font-size="34.375" lengthAdjust="spacing" textLength="530.9998" x="219.754" y="1050.843">j &#8805; 1 AND SortArray[j] &gt; Key?</text><text fill="#000000" font-family="Verdana" font-size="34.375" lengthAdjust="spacing" textLength="42.6163" x="139.6378" y="1029.9545">no</text><rect fill="#FFFFFF" height="108.075" rx="39.0625" ry="39.0625" style="stroke:#000000;stroke-width:3.125;" width="506.2744" x="232.1167" y="1613.868"/><text fill="#000000" font-family="Verdana" font-size="37.5" lengthAdjust="spacing" textLength="443.7744" x="263.3667" y="1682.8194">SortArray[j + 1] &#8592; Key</text><rect fill="#FFFFFF" height="108.075" rx="39.0625" ry="39.0625" style="stroke:#000000;stroke-width:3.125;" width="227.8442" x="371.3318" y="1784.4429"/><text fill="#000000" font-family="Verdana" font-size="37.5" lengthAdjust="spacing" textLength="165.3442" x="402.5818" y="1853.3943">i &#8592; i + 1</text><polygon fill="#FFFFFF" points="434.1362,481.7749,536.3716,481.7749,573.8716,519.2749,536.3716,556.7749,434.1362,556.7749,396.6362,519.2749,434.1362,481.7749" style="stroke:#000000;stroke-width:3.125;"/><text fill="#000000" font-family="Verdana" font-size="34.375" lengthAdjust="spacing" textLength="58.7296" x="497.7539" y="591.3345">yes</text><text fill="#000000" font-family="Verdana" font-size="34.375" lengthAdjust="spacing" textLength="102.2354" x="434.1362" y="532.946">i &#8804; n?</text><text fill="#000000" font-family="Verdana" font-size="34.375" lengthAdjust="spacing" textLength="42.6163" x="354.0199" y="512.0575">no</text><rect fill="#FFFFFF" height="108.075" rx="39.0625" ry="39.0625" style="stroke:#000000;stroke-width:3.125;" width="339.8315" x="315.3381" y="2023.7679"/><text fill="#000000" font-family="Verdana" font-size="37.5" lengthAdjust="spacing" textLength="277.3315" x="346.5881" y="2092.7193">Array is sorted</text><ellipse cx="485.2539" cy="2228.7178" fill="none" rx="34.375" ry="34.375" style="stroke:#000000;stroke-width:3.125;"/><ellipse cx="485.2539" cy="2228.7178" fill="#FFFFFF" rx="18.75" ry="18.75" style="stroke:#000000;stroke-width:3.125;"/><line style="stroke:#000000;stroke-width:3.125;" x1="485.2539" x2="485.2539" y1="78.125" y2="140.625"/><polygon fill="#000000" points="472.7539,109.375,485.2539,140.625,497.7539,109.375,485.2539,121.875" style="stroke:#000000;stroke-width:3.125;"/><line style="stroke:#000000;stroke-width:3.125;" x1="485.2539" x2="485.2539" y1="248.7" y2="311.2"/><polygon fill="#000000" points="472.7539,279.95,485.2539,311.2,497.7539,279.95,485.2539,292.45" style="stroke:#000000;stroke-width:3.125;"/><line style="stroke:#000000;stroke-width:3.125;" x1="485.2539" x2="485.2539" y1="766.597" y2="829.097"/><polygon fill="#000000" points="472.7539,797.847,485.2539,829.097,497.7539,797.847,485.2539,810.347" style="stroke:#000000;stroke-width:3.125;"/><line style="stroke:#000000;stroke-width:3.125;" x1="485.2539" x2="485.2539" y1="1284.494" y2="1374.543"/><polygon fill="#000000" points="472.7539,1343.293,485.2539,1374.543,497.7539,1343.293,485.2539,1355.793" style="stroke:#000000;stroke-width:3.125;"/><line style="stroke:#000000;stroke-width:3.125;" x1="485.2539" x2="485.2539" y1="1074.6719" y2="1176.4191"/><polygon fill="#000000" points="472.7539,1145.1691,485.2539,1176.4191,497.7539,1145.1691,485.2539,1157.6691" style="stroke:#000000;stroke-width:3.125;"/><line style="stroke:#000000;stroke-width:3.125;" x1="485.2539" x2="485.2539" y1="1482.618" y2="1513.868"/><line style="stroke:#000000;stroke-width:3.125;" x1="485.2539" x2="854.8828" y1="1513.868" y2="1513.868"/><polygon fill="#000000" points="842.3828,1312.043,854.8828,1280.793,867.3828,1312.043,854.8828,1299.543" style="stroke:#000000;stroke-width:3.125;"/><line style="stroke:#000000;stroke-width:3.125;" x1="854.8828" x2="854.8828" y1="1037.1719" y2="1513.868"/><line style="stroke:#000000;stroke-width:3.125;" x1="854.8828" x2="788.2538" y1="1037.1719" y2="1037.1719"/><polygon fill="#000000" points="819.5038,1024.6719,788.2538,1037.1719,819.5038,1049.6719,807.0038,1037.1719" style="stroke:#000000;stroke-width:3.125;"/><line style="stroke:#000000;stroke-width:3.125;" x1="182.254" x2="115.625" y1="1037.1719" y2="1037.1719"/><polygon fill="#000000" points="103.125,1268.293,115.625,1299.543,128.125,1268.293,115.625,1280.793" style="stroke:#000000;stroke-width:3.125;"/><line style="stroke:#000000;stroke-width:3.125;" x1="115.625" x2="115.625" y1="1037.1719" y2="1551.368"/><line style="stroke:#000000;stroke-width:3.125;" x1="115.625" x2="485.2539" y1="1551.368" y2="1551.368"/><line style="stroke:#000000;stroke-width:3.125;" x1="485.2539" x2="485.2539" y1="1551.368" y2="1613.868"/><polygon fill="#000000" points="472.7539,1582.618,485.2539,1613.868,497.7539,1582.618,485.2539,1595.118" style="stroke:#000000;stroke-width:3.125;"/><line style="stroke:#000000;stroke-width:3.125;" x1="485.2539" x2="485.2539" y1="937.1719" y2="999.6719"/><polygon fill="#000000" points="472.7539,968.4219,485.2539,999.6719,497.7539,968.4219,485.2539,980.9219" style="stroke:#000000;stroke-width:3.125;"/><line style="stroke:#000000;stroke-width:3.125;" x1="485.2539" x2="485.2539" y1="1721.9429" y2="1784.4429"/><polygon fill="#000000" points="472.7539,1753.1929,485.2539,1784.4429,497.7539,1753.1929,485.2539,1765.6929" style="stroke:#000000;stroke-width:3.125;"/><line style="stroke:#000000;stroke-width:3.125;" x1="485.2539" x2="485.2539" y1="556.7749" y2="658.522"/><polygon fill="#000000" points="472.7539,627.272,485.2539,658.522,497.7539,627.272,485.2539,639.772" style="stroke:#000000;stroke-width:3.125;"/><line style="stroke:#000000;stroke-width:3.125;" x1="485.2539" x2="485.2539" y1="1892.5179" y2="1923.7679"/><line style="stroke:#000000;stroke-width:3.125;" x1="485.2539" x2="892.3828" y1="1923.7679" y2="1923.7679"/><polygon fill="#000000" points="879.8828,1253.6545,892.3828,1222.4045,904.8828,1253.6545,892.3828,1241.1545" style="stroke:#000000;stroke-width:3.125;"/><line style="stroke:#000000;stroke-width:3.125;" x1="892.3828" x2="892.3828" y1="519.2749" y2="1923.7679"/><line style="stroke:#000000;stroke-width:3.125;" x1="892.3828" x2="573.8716" y1="519.2749" y2="519.2749"/><polygon fill="#000000" points="605.1216,506.7749,573.8716,519.2749,605.1216,531.7749,592.6216,519.2749" style="stroke:#000000;stroke-width:3.125;"/><line style="stroke:#000000;stroke-width:3.125;" x1="396.6362" x2="59.375" y1="519.2749" y2="519.2749"/><polygon fill="#000000" points="46.875,1209.9045,59.375,1241.1545,71.875,1209.9045,59.375,1222.4045" style="stroke:#000000;stroke-width:3.125;"/><line style="stroke:#000000;stroke-width:3.125;" x1="59.375" x2="59.375" y1="519.2749" y2="1961.2679"/><line style="stroke:#000000;stroke-width:3.125;" x1="59.375" x2="485.2539" y1="1961.2679" y2="1961.2679"/><line style="stroke:#000000;stroke-width:3.125;" x1="485.2539" x2="485.2539" y1="1961.2679" y2="2023.7679"/><polygon fill="#000000" points="472.7539,1992.5179,485.2539,2023.7679,497.7539,1992.5179,485.2539,2005.0179" style="stroke:#000000;stroke-width:3.125;"/><line style="stroke:#000000;stroke-width:3.125;" x1="485.2539" x2="485.2539" y1="419.2749" y2="481.7749"/><polygon fill="#000000" points="472.7539,450.5249,485.2539,481.7749,497.7539,450.5249,485.2539,463.0249" style="stroke:#000000;stroke-width:3.125;"/><line style="stroke:#000000;stroke-width:3.125;" x1="485.2539" x2="485.2539" y1="2131.8428" y2="2194.3428"/><polygon fill="#000000" points="472.7539,2163.0928,485.2539,2194.3428,497.7539,2163.0928,485.2539,2175.5928" style="stroke:#000000;stroke-width:3.125;"/><!--SRC=[RP1D2i8m44RtESNdpYA2rLq4HN0ZWWZgIhe8DE1KJKiIa5v0SESXz6AUn6cilmXP93FplJUauJTwhr7i51dXjcGAPTKUQK7eTJh2UMMz478ocw-M4elS-f6rgbp7qYHzRX1knpEwV3riQAVHvCBf0ZECG0xDKhj807Agop3u1X37kP65Cg6Dk7hpgJdSE5qHOpGRVwIo10Cmx1lFd8yHj10dFxOis5w-xEdJ9grz9eyU_lyeTePzgTwtLUM_qqA6LBMOOuHE-LESpmjn1m00]--></g></svg>
