<svg xmlns="http://www.w3.org/2000/svg" xmlns:xlink="http://www.w3.org/1999/xlink" contentStyleType="text/css" data-diagram-type="ACTIVITY" height="1725px" preserveAspectRatio="none" style="width:940px;height:1725px;background:#FFFFFF;" version="1.1" viewBox="0 0 940 1725" width="940.625px" zoomAndPan="magnify"><defs/><g><ellipse cx="448.5085" cy="46.875" fill="#FFFFFF" rx="31.25" ry="31.25" style="stroke:#000000;stroke-width:3.125;"/><rect fill="#FFFFFF" height="108.075" rx="39.0625" ry="39.0625" style="stroke:#000000;stroke-width:3.125;" width="801.6052" x="47.7058" y="140.625"/><text fill="#000000" font-family="Verdana" font-size="37.5" lengthAdjust="spacing" textLength="739.1052" x="78.9558" y="209.5764">INPUT: SearchArray[1:n], SearchValue</text><rect fill="#FFFFFF" height="108.075" rx="39.0625" ry="39.0625" style="stroke:#000000;stroke-width:3.125;" width="257.6172" x="319.6999" y="311.2"/><text fill="#000000" font-family="Verdana" font-size="37.5" lengthAdjust="spacing" textLength="195.1172" x="350.9499" y="380.1514">Index &#8592; 1</text><rect fill="#FFFFFF" height="108.075" rx="39.0625" ry="39.0625" style="stroke:#000000;stroke-width:3.125;" width="337.561" x="279.7279" y="810.6606"/><text fill="#000000" font-family="Verdana" font-size="37.5" lengthAdjust="spacing" textLength="275.061" x="310.9779" y="879.612">RETURN Index</text><ellipse cx="448.5085" cy="1062.4855" fill="none" rx="34.375" ry="34.375" style="stroke:#000000;stroke-width:3.125;"/><ellipse cx="448.5085" cy="1062.4855" fill="#FFFFFF" rx="18.75" ry="18.75" style="stroke:#000000;stroke-width:3.125;"/><polygon fill="#FFFFFF" points="134.375,658.522,762.6419,658.522,800.1419,696.022,762.6419,733.522,134.375,733.522,96.875,696.022,134.375,658.522" style="stroke:#000000;stroke-width:3.125;"/><text fill="#000000" font-family="Verdana" font-size="34.375" lengthAdjust="spacing" textLength="58.7296" x="461.0085" y="768.0817">yes</text><text fill="#000000" font-family="Verdana" font-size="34.375" lengthAdjust="spacing" textLength="628.2669" x="134.375" y="709.6931">SearchArray[Index] = SearchValue?</text><text fill="#000000" font-family="Verdana" font-size="34.375" lengthAdjust="spacing" textLength="42.6163" x="800.1419" y="688.8046">no</text><rect fill="#FFFFFF" height="108.075" rx="39.0625" ry="39.0625" style="stroke:#000000;stroke-width:3.125;" width="422.0825" x="237.4672" y="1228.1105"/><text fill="#000000" font-family="Verdana" font-size="37.5" lengthAdjust="spacing" textLength="359.5825" x="268.7172" y="1297.0619">Index &#8592; Index + 1</text><polygon fill="#FFFFFF" points="352.8778,481.7749,544.1391,481.7749,581.6391,519.2749,544.1391,556.7749,352.8778,556.7749,315.3778,519.2749,352.8778,481.7749" style="stroke:#000000;stroke-width:3.125;"/><text fill="#000000" font-family="Verdana" font-size="34.375" lengthAdjust="spacing" textLength="58.7296" x="461.0085" y="591.3345">yes</text><text fill="#000000" font-family="Verdana" font-size="34.375" lengthAdjust="spacing" textLength="191.2613" x="352.8778" y="532.946">Index &#8804; n?</text><text fill="#000000" font-family="Verdana" font-size="34.375" lengthAdjust="spacing" textLength="42.6163" x="272.7615" y="512.0575">no</text><rect fill="#FFFFFF" height="108.075" rx="39.0625" ry="39.0625" style="stroke:#000000;stroke-width:3.125;" width="271.0205" x="312.9982" y="1467.4355"/><text fill="#000000" font-family="Verdana" font-size="37.5" lengthAdjust="spacing" textLength="208.5205" x="344.2482" y="1536.3869">RETURN -1</text><ellipse cx="448.5085" cy="1672.3854" fill="none" rx="34.375" ry="34.375" style="stroke:#000000;stroke-width:3.125;"/><ellipse cx="448.5085" cy="1672.3854" fill="#FFFFFF" rx="18.75" ry="18.75" style="stroke:#000000;stroke-width:3.125;"/><line style="stroke:#000000;stroke-width:3.125;" x1="448.5085" x2="448.5085" y1="78.125" y2="140.625"/><polygon fill="#000000" points="436.0085,109.375,448.5085,140.625,461.0085,109.375,448.5085,121.875" style="stroke:#000000;stroke-width:3.125;"/><line style="stroke:#000000;stroke-width:3.125;" x1="448.5085" x2="448.5085" y1="248.7" y2="311.2"/><polygon fill="#000000" points="436.0085,279.95,448.5085,311.2,461.0085,279.95,448.5085,292.45" style="stroke:#000000;stroke-width:3.125;"/><line style="stroke:#000000;stroke-width:3.125;" x1="448.5085" x2="448.5085" y1="918.7355" y2="1028.1105"/><polygon fill="#000000" points="436.0085,996.8605,448.5085,1028.1105,461.0085,996.8605,448.5085,1009.3605" style="stroke:#000000;stroke-width:3.125;"/><line style="stroke:#000000;stroke-width:3.125;" x1="448.5085" x2="448.5085" y1="733.522" y2="810.6606"/><polygon fill="#000000" points="436.0085,779.4106,448.5085,810.6606,461.0085,779.4106,448.5085,791.9106" style="stroke:#000000;stroke-width:3.125;"/><line style="stroke:#000000;stroke-width:3.125;" x1="800.1419" x2="837.6419" y1="696.022" y2="696.022"/><polygon fill="#000000" points="825.1419,913.1355,837.6419,944.3855,850.1419,913.1355,837.6419,925.6355" style="stroke:#000000;stroke-width:3.125;"/><line style="stroke:#000000;stroke-width:3.125;" x1="837.6419" x2="837.6419" y1="696.022" y2="1165.6105"/><line style="stroke:#000000;stroke-width:3.125;" x1="837.6419" x2="448.5085" y1="1165.6105" y2="1165.6105"/><line style="stroke:#000000;stroke-width:3.125;" x1="448.5085" x2="448.5085" y1="1165.6105" y2="1228.1105"/><polygon fill="#000000" points="436.0085,1196.8605,448.5085,1228.1105,461.0085,1196.8605,448.5085,1209.3605" style="stroke:#000000;stroke-width:3.125;"/><line style="stroke:#000000;stroke-width:3.125;" x1="448.5085" x2="448.5085" y1="556.7749" y2="658.522"/><polygon fill="#000000" points="436.0085,627.272,448.5085,658.522,461.0085,627.272,448.5085,639.772" style="stroke:#000000;stroke-width:3.125;"/><line style="stroke:#000000;stroke-width:3.125;" x1="448.5085" x2="448.5085" y1="1336.1855" y2="1367.4355"/><line style="stroke:#000000;stroke-width:3.125;" x1="448.5085" x2="875.1419" y1="1367.4355" y2="1367.4355"/><polygon fill="#000000" points="862.6419,1007.222,875.1419,975.972,887.6419,1007.222,875.1419,994.722" style="stroke:#000000;stroke-width:3.125;"/><line style="stroke:#000000;stroke-width:3.125;" x1="875.1419" x2="875.1419" y1="519.2749" y2="1367.4355"/><line style="stroke:#000000;stroke-width:3.125;" x1="875.1419" x2="581.6391" y1="519.2749" y2="519.2749"/><polygon fill="#000000" points="612.8891,506.7749,581.6391,519.2749,612.8891,531.7749,600.3891,519.2749" style="stroke:#000000;stroke-width:3.125;"/><line style="stroke:#000000;stroke-width:3.125;" x1="315.3778" x2="59.375" y1="519.2749" y2="519.2749"/><polygon fill="#000000" points="46.875,963.472,59.375,994.722,71.875,963.472,59.375,975.972" style="stroke:#000000;stroke-width:3.125;"/><line style="stroke:#000000;stroke-width:3.125;" x1="59.375" x2="59.375" y1="519.2749" y2="1404.9355"/><line style="stroke:#000000;stroke-width:3.125;" x1="59.375" x2="448.5085" y1="1404.9355" y2="1404.9355"/><line style="stroke:#000000;stroke-width:3.125;" x1="448.5085" x2="448.5085" y1="1404.9355" y2="1467.4355"/><polygon fill="#000000" points="436.0085,1436.1855,448.5085,1467.4355,461.0085,1436.1855,448.5085,1448.6855" style="stroke:#000000;stroke-width:3.125;"/><line style="stroke:#000000;stroke-width:3.125;" x1="448.5085" x2="448.5085" y1="419.2749" y2="481.7749"/><polygon fill="#000000" points="436.0085,450.5249,448.5085,481.7749,461.0085,450.5249,448.5085,463.0249" style="stroke:#000000;stroke-width:3.125;"/><line style="stroke:#000000;stroke-width:3.125;" x1="448.5085" x2="448.5085" y1="1575.5104" y2="1638.0104"/><polygon fill="#000000" points="436.0085,1606.7604,448.5085,1638.0104,461.0085,1606.7604,448.5085,1619.2604" style="stroke:#000000;stroke-width:3.125;"/><!--SRC=[JOwn2i8m54NtVCLrgwXWSOk8E3Yu5AdLHHo2VQN1cfOaelq1mSsFyCly4fDQfLDURiwxEJsRqvbG5K8gPavILKABCz9AOZ8UCsE5jepnLRJU9XmR4lgOBxGMzJxawZ1iavqeBZJrd4hfXlVzYT1Thxai244RFbvGypwaGL2JwJD0PWYwbGrumApRwZQSelhl03nU9jiuGaDFcyZOid835SPzfqhFaKfbviwEqdSQU3NtsifvclqgHzwwAVi0]--></g></svg>
