<svg xmlns="http://www.w3.org/2000/svg" xmlns:xlink="http://www.w3.org/1999/xlink" contentStyleType="text/css" data-diagram-type="ACTIVITY" height="4046.875px" preserveAspectRatio="none" style="width:6275px;height:4046px;background:#FFFFFF;" version="1.1" viewBox="0 0 6275 4046" width="6275px" zoomAndPan="magnify"><defs/><g><ellipse cx="3161.7004" cy="46.875" fill="#FFFFFF" rx="31.25" ry="31.25" style="stroke:#000000;stroke-width:3.125;"/><path d="M3555.13,109.375 L3555.13,260.6186 L3492.63,273.1186 L3555.13,285.6186 L3555.13,436.8622 A0,0 0 0 0 3555.13,436.8622 L4440.2176,436.8622 A0,0 0 0 0 4440.2176,436.8622 L4440.2176,140.625 L4408.9676,109.375 L3555.13,109.375 A0,0 0 0 0 3555.13,109.375" fill="#FFFFFF" style="stroke:#000000;stroke-width:3.125;"/><path d="M4408.9676,109.375 L4408.9676,140.625 L4440.2176,140.625 L4408.9676,109.375" fill="#FFFFFF" style="stroke:#000000;stroke-width:3.125;"/><text fill="#000000" font-family="Verdana" font-size="40.625" font-weight="bold" lengthAdjust="spacing" textLength="756.72" x="3573.88" y="165.8432">Mathematical Induction Principle</text><text fill="#000000" font-family="Verdana" font-size="40.625" lengthAdjust="spacing" textLength="645.1996" x="3573.88" y="215.2161">Like climbing an infinite ladder:</text><text fill="#000000" font-family="Verdana" font-size="40.625" lengthAdjust="spacing" textLength="776.239" x="3573.88" y="264.5889">&#8226; Can reach the first rung (base case)</text><text fill="#000000" font-family="Verdana" font-size="40.625" lengthAdjust="spacing" textLength="687.471" x="3573.88" y="313.9618">&#8226; Can always reach the next rung</text><text fill="#000000" font-family="Verdana" font-size="40.625" lengthAdjust="spacing" textLength="790.8981" x="3602.4445" y="363.3347">from any current rung (inductive step)</text><text fill="#000000" font-family="Verdana" font-size="40.625" lengthAdjust="spacing" textLength="496.9223" x="3573.88" y="412.7075">&#8756; Can reach every rung</text><rect fill="#FFFFFF" height="199.2249" rx="39.0625" ry="39.0625" style="stroke:#000000;stroke-width:3.125;" width="661.8591" x="2830.7709" y="173.5062"/><text fill="#000000" font-family="Verdana" font-size="37.5" lengthAdjust="spacing" textLength="599.3591" x="2862.0209" y="242.4576">Given: Statement P(n) to prove</text><text fill="#000000" font-family="Verdana" font-size="37.5" lengthAdjust="spacing" textLength="411.8225" x="2862.0209" y="288.0325">for all integers n &#8805; n&#8320;</text><text fill="#000000" font-family="Verdana" font-size="37.5" lengthAdjust="spacing" textLength="498.2849" x="2862.0209" y="333.6075">(Usually n&#8320; = 0 or n&#8320; = 1)</text><polygon fill="#FFFFFF" points="1233.5793,499.3622,1645.1057,499.3622,1682.6057,536.8622,1645.1057,574.3622,1233.5793,574.3622,1196.0793,536.8622,1233.5793,499.3622" style="stroke:#000000;stroke-width:3.125;"/><text fill="#000000" font-family="Verdana" font-size="34.375" lengthAdjust="spacing" textLength="418.3411" x="1451.8425" y="608.9218">Regular/Weak Induction</text><text fill="#000000" font-family="Verdana" font-size="34.375" lengthAdjust="spacing" textLength="411.5265" x="1233.5793" y="550.5333">What type of induction?</text><rect fill="#FFFFFF" height="108.075" rx="39.0625" ry="39.0625" style="stroke:#000000;stroke-width:3.125;" width="645.8191" x="1116.433" y="678.6392"/><text fill="#000000" font-family="Verdana" font-size="37.5" font-weight="bold" lengthAdjust="spacing" textLength="583.3191" x="1147.683" y="747.5906">WEAK INDUCTION METHOD</text><rect fill="#FFFFFF" height="153.6499" rx="39.0625" ry="39.0625" style="stroke:#000000;stroke-width:3.125;" width="639.447" x="1119.619" y="890.9912"/><text fill="#000000" font-family="Verdana" font-size="37.5" lengthAdjust="spacing" textLength="576.947" x="1150.869" y="959.9426">Base Case: Prove P(n&#8320;) is true</text><text fill="#000000" font-family="Verdana" font-size="37.5" lengthAdjust="spacing" textLength="498.2849" x="1150.869" y="1005.5176">(Usually n&#8320; = 1 or n&#8320; = 0)</text><polygon fill="#FFFFFF" points="1322.8233,1148.9182,1555.8617,1148.9182,1593.3617,1186.4182,1555.8617,1223.9182,1322.8233,1223.9182,1285.3233,1186.4182,1322.8233,1148.9182" style="stroke:#000000;stroke-width:3.125;"/><text fill="#000000" font-family="Verdana" font-size="34.375" lengthAdjust="spacing" textLength="233.0383" x="1322.8233" y="1200.0893">P(n&#8320;) is true?</text><text fill="#000000" font-family="Verdana" font-size="34.375" lengthAdjust="spacing" textLength="59.5352" x="1225.7881" y="1179.2007">Yes</text><text fill="#000000" font-family="Verdana" font-size="34.375" lengthAdjust="spacing" textLength="46.5775" x="1593.3617" y="1179.2007">No</text><rect fill="#FFFFFF" height="108.075" rx="39.0625" ry="39.0625" style="stroke:#000000;stroke-width:3.125;" width="525.6836" x="912.8456" y="1255.1682"/><text fill="#000000" font-family="Verdana" font-size="37.5" lengthAdjust="spacing" textLength="463.1836" x="944.0956" y="1324.1196">Base case established &#10003;</text><rect fill="#FFFFFF" height="153.6499" rx="39.0625" ry="39.0625" style="stroke:#000000;stroke-width:3.125;" width="403.9368" x="1501.0292" y="1255.1682"/><text fill="#000000" font-family="Verdana" font-size="37.5" lengthAdjust="spacing" textLength="276.2329" x="1532.2792" y="1324.1196">Base case fails</text><text fill="#000000" font-family="Verdana" font-size="37.5" lengthAdjust="spacing" textLength="341.4368" x="1532.2792" y="1369.6945">Statement is false</text><ellipse cx="1702.9976" cy="1547.4701" fill="none" rx="34.375" ry="34.375" style="stroke:#000000;stroke-width:3.125;"/><ellipse cx="1702.9976" cy="1547.4701" fill="#FFFFFF" rx="18.75" ry="18.75" style="stroke:#000000;stroke-width:3.125;"/><rect fill="#FFFFFF" height="199.2249" rx="39.0625" ry="39.0625" style="stroke:#000000;stroke-width:3.125;" width="750.7568" x="1063.9641" y="1686.1221"/><text fill="#000000" font-family="Verdana" font-size="37.5" lengthAdjust="spacing" textLength="292.0715" x="1095.2141" y="1755.0735">Inductive Step:</text><text fill="#000000" font-family="Verdana" font-size="37.5" lengthAdjust="spacing" textLength="688.2568" x="1095.2141" y="1800.6485">Assume P(k) is true for some k &#8805; n&#8320;</text><text fill="#000000" font-family="Verdana" font-size="37.5" lengthAdjust="spacing" textLength="429.6936" x="1095.2141" y="1846.2234">(Inductive Hypothesis)</text><rect fill="#FFFFFF" height="153.6499" rx="39.0625" ry="39.0625" style="stroke:#000000;stroke-width:3.125;" width="559.137" x="1159.774" y="1989.624"/><text fill="#000000" font-family="Verdana" font-size="37.5" lengthAdjust="spacing" textLength="385.5286" x="1191.024" y="2058.5754">Prove P(k+1) is true</text><text fill="#000000" font-family="Verdana" font-size="37.5" lengthAdjust="spacing" textLength="496.637" x="1191.024" y="2104.1504">using the assumption P(k)</text><rect fill="#FFFFFF" height="290.3748" rx="39.0625" ry="39.0625" style="stroke:#000000;stroke-width:3.125;" width="779.6509" x="1049.5171" y="2433.5571"/><text fill="#000000" font-family="Verdana" font-size="37.5" lengthAdjust="spacing" textLength="451.5747" x="1080.7671" y="2502.5085">Apply logical reasoning:</text><text fill="#000000" font-family="Verdana" font-size="37.5" lengthAdjust="spacing" textLength="667.9138" x="1080.7671" y="2548.0835">&#8226; Use the inductive hypothesis P(k)</text><text fill="#000000" font-family="Verdana" font-size="37.5" lengthAdjust="spacing" textLength="599.1028" x="1080.7671" y="2593.6584">&#8226; Apply algebraic manipulations</text><text fill="#000000" font-family="Verdana" font-size="37.5" lengthAdjust="spacing" textLength="717.1509" x="1080.7671" y="2639.2334">&#8226; Use known theorems and properties</text><text fill="#000000" font-family="Verdana" font-size="37.5" lengthAdjust="spacing" textLength="703.0151" x="1080.7671" y="2684.8083">&#8226; Substitute and simplify expressions</text><polygon fill="#FFFFFF" points="1187.4214,2828.2089,1691.2636,2828.2089,1728.7636,2865.7089,1691.2636,2903.2089,1187.4214,2903.2089,1149.9214,2865.7089,1187.4214,2828.2089" style="stroke:#000000;stroke-width:3.125;"/><text fill="#000000" font-family="Verdana" font-size="34.375" lengthAdjust="spacing" textLength="503.8422" x="1187.4214" y="2879.38">Successfully derived P(k+1)?</text><text fill="#000000" font-family="Verdana" font-size="34.375" lengthAdjust="spacing" textLength="59.5352" x="1090.3862" y="2858.4915">Yes</text><text fill="#000000" font-family="Verdana" font-size="34.375" lengthAdjust="spacing" textLength="46.5775" x="1728.7636" y="2858.4915">No</text><rect fill="#FFFFFF" height="108.075" rx="39.0625" ry="39.0625" style="stroke:#000000;stroke-width:3.125;" width="684.3445" x="650.6088" y="2934.4589"/><text fill="#000000" font-family="Verdana" font-size="37.5" lengthAdjust="spacing" textLength="621.8445" x="681.8588" y="3003.4103">Conclude: P(k) &#8594; P(k+1) proven</text><path d="M15.625,3151.9089 L15.625,3380.6503 A0,0 0 0 0 15.625,3380.6503 L637.2452,3380.6503 A0,0 0 0 0 637.2452,3380.6503 L637.2452,3278.7796 L699.7452,3266.2796 L637.2452,3253.7796 L637.2452,3183.1589 L605.9952,3151.9089 L15.625,3151.9089 A0,0 0 0 0 15.625,3151.9089" fill="#FFFFFF" style="stroke:#000000;stroke-width:3.125;"/><path d="M605.9952,3151.9089 L605.9952,3183.1589 L637.2452,3183.1589 L605.9952,3151.9089" fill="#FFFFFF" style="stroke:#000000;stroke-width:3.125;"/><text fill="#000000" font-family="Verdana" font-size="40.625" font-weight="bold" lengthAdjust="spacing" textLength="450.5051" x="34.375" y="3208.3771">Induction Complete</text><text fill="#000000" font-family="Verdana" font-size="40.625" lengthAdjust="spacing" textLength="555.9952" x="34.375" y="3257.7499">Base case + Inductive step</text><text fill="#000000" font-family="Verdana" font-size="40.625" lengthAdjust="spacing" textLength="508.963" x="34.375" y="3307.1228">proves the statement for</text><text fill="#000000" font-family="Verdana" font-size="40.625" lengthAdjust="spacing" textLength="375.5829" x="34.375" y="3356.4957">all integers n &#8805; n&#8320;</text><rect fill="#FFFFFF" height="153.6499" rx="39.0625" ry="39.0625" style="stroke:#000000;stroke-width:3.125;" width="586.0718" x="699.7452" y="3189.4547"/><text fill="#000000" font-family="Verdana" font-size="37.5" lengthAdjust="spacing" textLength="520.3857" x="730.9952" y="3258.4061">By Mathematical Induction:</text><text fill="#000000" font-family="Verdana" font-size="37.5" lengthAdjust="spacing" textLength="523.5718" x="730.9952" y="3303.981">P(n) is true for all n &#8805; n&#8320; &#8718;</text><ellipse cx="992.7811" cy="3524.4003" fill="none" rx="34.375" ry="34.375" style="stroke:#000000;stroke-width:3.125;"/><ellipse cx="992.7811" cy="3524.4003" fill="#FFFFFF" rx="18.75" ry="18.75" style="stroke:#000000;stroke-width:3.125;"/><rect fill="#FFFFFF" height="153.6499" rx="39.0625" ry="39.0625" style="stroke:#000000;stroke-width:3.125;" width="476.6846" x="1647.5616" y="2934.4589"/><text fill="#000000" font-family="Verdana" font-size="37.5" lengthAdjust="spacing" textLength="414.1846" x="1678.8116" y="3003.4103">Review reasoning and</text><text fill="#000000" font-family="Verdana" font-size="37.5" lengthAdjust="spacing" textLength="412.3535" x="1678.8116" y="3048.9853">try different approach</text><polygon fill="#FFFFFF" points="1707.8354,3197.4838,2063.9725,3197.4838,2101.4725,3234.9838,2063.9725,3272.4838,1707.8354,3272.4838,1670.3354,3234.9838,1707.8354,3197.4838" style="stroke:#000000;stroke-width:3.125;"/><text fill="#000000" font-family="Verdana" font-size="34.375" lengthAdjust="spacing" textLength="356.1371" x="1707.8354" y="3248.6549">Found error in logic?</text><text fill="#000000" font-family="Verdana" font-size="34.375" lengthAdjust="spacing" textLength="59.5352" x="1610.8002" y="3227.7664">Yes</text><text fill="#000000" font-family="Verdana" font-size="34.375" lengthAdjust="spacing" textLength="46.5775" x="2101.4725" y="3227.7664">No</text><rect fill="#FFFFFF" height="108.075" rx="39.0625" ry="39.0625" style="stroke:#000000;stroke-width:3.125;" width="380.426" x="1428.7033" y="3303.7338"/><text fill="#000000" font-family="Verdana" font-size="37.5" lengthAdjust="spacing" textLength="317.926" x="1459.9533" y="3372.6852">Correct the error</text><path d="M2496.6537,3303.7338 L2496.6537,3430.291 L2434.1537,3442.791 L2496.6537,3455.291 L2496.6537,3581.8481 A0,0 0 0 0 2496.6537,3581.8481 L3112.9578,3581.8481 A0,0 0 0 0 3112.9578,3581.8481 L3112.9578,3334.9838 L3081.7078,3303.7338 L2496.6537,3303.7338 A0,0 0 0 0 2496.6537,3303.7338" fill="#FFFFFF" style="stroke:#000000;stroke-width:3.125;"/><path d="M3081.7078,3303.7338 L3081.7078,3334.9838 L3112.9578,3334.9838 L3081.7078,3303.7338" fill="#FFFFFF" style="stroke:#000000;stroke-width:3.125;"/><text fill="#000000" font-family="Verdana" font-size="40.625" font-weight="bold" lengthAdjust="spacing" textLength="550.679" x="2515.4037" y="3360.202">Alternative Approaches:</text><text fill="#000000" font-family="Verdana" font-size="40.625" lengthAdjust="spacing" textLength="374.0753" x="2515.4037" y="3409.5749">&#8226; Strong induction</text><text fill="#000000" font-family="Verdana" font-size="40.625" lengthAdjust="spacing" textLength="439.8727" x="2515.4037" y="3458.9478">&#8226; Structural induction</text><text fill="#000000" font-family="Verdana" font-size="40.625" lengthAdjust="spacing" textLength="499.3225" x="2515.4037" y="3508.3206">&#8226; Well-ordering principle</text><text fill="#000000" font-family="Verdana" font-size="40.625" lengthAdjust="spacing" textLength="468.9728" x="2515.4037" y="3557.6935">&#8226; Direct proof methods</text><rect fill="#FFFFFF" height="153.6499" rx="39.0625" ry="39.0625" style="stroke:#000000;stroke-width:3.125;" width="562.5244" x="1871.6293" y="3365.966"/><text fill="#000000" font-family="Verdana" font-size="37.5" lengthAdjust="spacing" textLength="500.0244" x="1902.8793" y="3434.9174">May need strong induction</text><text fill="#000000" font-family="Verdana" font-size="37.5" lengthAdjust="spacing" textLength="479.0405" x="1902.8793" y="3480.4924">or different proof method</text><ellipse cx="2152.8915" cy="3678.7231" fill="none" rx="34.375" ry="34.375" style="stroke:#000000;stroke-width:3.125;"/><ellipse cx="2152.8915" cy="3678.7231" fill="#FFFFFF" rx="18.75" ry="18.75" style="stroke:#000000;stroke-width:3.125;"/><polygon fill="#FFFFFF" points="1439.3425,2252.6489,1476.8425,2290.1489,1439.3425,2327.6489,1401.8425,2290.1489,1439.3425,2252.6489" style="stroke:#000000;stroke-width:3.125;"/><polygon fill="#FFFFFF" points="1262.6755,3815.1665,1616.0095,3815.1665,1653.5095,3852.6665,1616.0095,3890.1665,1262.6755,3890.1665,1225.1755,3852.6665,1262.6755,3815.1665" style="stroke:#000000;stroke-width:3.125;"/><text fill="#000000" font-family="Verdana" font-size="34.375" lengthAdjust="spacing" textLength="353.334" x="1262.6755" y="3866.3376">Continue reasoning?</text><text fill="#000000" font-family="Verdana" font-size="34.375" lengthAdjust="spacing" textLength="59.5352" x="1653.5095" y="3845.4491">Yes</text><polygon fill="#FFFFFF" points="4675.8858,499.3622,5145.8733,499.3622,5183.3733,536.8622,5145.8733,574.3622,4675.8858,574.3622,4638.3858,536.8622,4675.8858,499.3622" style="stroke:#000000;stroke-width:3.125;"/><text fill="#000000" font-family="Verdana" font-size="34.375" lengthAdjust="spacing" textLength="469.9875" x="4675.8858" y="550.5333">Strong/Complete Induction</text><text fill="#000000" font-family="Verdana" font-size="34.375" lengthAdjust="spacing" textLength="284.5337" x="5183.3733" y="529.6448">Structural/Other</text><rect fill="#FFFFFF" height="108.075" rx="39.0625" ry="39.0625" style="stroke:#000000;stroke-width:3.125;" width="695.4407" x="4563.1592" y="636.8622"/><text fill="#000000" font-family="Verdana" font-size="37.5" font-weight="bold" lengthAdjust="spacing" textLength="632.9407" x="4594.4092" y="705.8136">STRONG INDUCTION METHOD</text><rect fill="#FFFFFF" height="153.6499" rx="39.0625" ry="39.0625" style="stroke:#000000;stroke-width:3.125;" width="809.8267" x="4505.9662" y="849.2142"/><text fill="#000000" font-family="Verdana" font-size="37.5" lengthAdjust="spacing" textLength="747.3267" x="4537.2162" y="918.1656">Base Case(s): Prove P(n&#8320;), P(n&#8320;+1), ...</text><text fill="#000000" font-family="Verdana" font-size="37.5" lengthAdjust="spacing" textLength="507.019" x="4537.2162" y="963.7405">for initial values as needed</text><polygon fill="#FFFFFF" points="4739.3234,1107.1411,5082.4356,1107.1411,5119.9356,1144.6411,5082.4356,1182.1411,4739.3234,1182.1411,4701.8234,1144.6411,4739.3234,1107.1411" style="stroke:#000000;stroke-width:3.125;"/><text fill="#000000" font-family="Verdana" font-size="34.375" lengthAdjust="spacing" textLength="343.1122" x="4739.3234" y="1158.3122">All base cases true?</text><text fill="#000000" font-family="Verdana" font-size="34.375" lengthAdjust="spacing" textLength="59.5352" x="4642.2882" y="1137.4237">Yes</text><text fill="#000000" font-family="Verdana" font-size="34.375" lengthAdjust="spacing" textLength="46.5775" x="5119.9356" y="1137.4237">No</text><rect fill="#FFFFFF" height="108.075" rx="39.0625" ry="39.0625" style="stroke:#000000;stroke-width:3.125;" width="545.2209" x="4369.7296" y="1213.3911"/><text fill="#000000" font-family="Verdana" font-size="37.5" lengthAdjust="spacing" textLength="482.7209" x="4400.9796" y="1282.3425">Base cases established &#10003;</text><rect fill="#FFFFFF" height="153.6499" rx="39.0625" ry="39.0625" style="stroke:#000000;stroke-width:3.125;" width="403.9368" x="4977.4506" y="1213.3911"/><text fill="#000000" font-family="Verdana" font-size="37.5" lengthAdjust="spacing" textLength="310.2905" x="5008.7006" y="1282.3425">Base case(s) fail</text><text fill="#000000" font-family="Verdana" font-size="37.5" lengthAdjust="spacing" textLength="341.4368" x="5008.7006" y="1327.9175">Statement is false</text><ellipse cx="5179.4189" cy="1505.6931" fill="none" rx="34.375" ry="34.375" style="stroke:#000000;stroke-width:3.125;"/><ellipse cx="5179.4189" cy="1505.6931" fill="#FFFFFF" rx="18.75" ry="18.75" style="stroke:#000000;stroke-width:3.125;"/><rect fill="#FFFFFF" height="199.2249" rx="39.0625" ry="39.0625" style="stroke:#000000;stroke-width:3.125;" width="777.4536" x="4522.1527" y="1644.3451"/><text fill="#000000" font-family="Verdana" font-size="37.5" lengthAdjust="spacing" textLength="292.0715" x="4553.4027" y="1713.2965">Inductive Step:</text><text fill="#000000" font-family="Verdana" font-size="37.5" lengthAdjust="spacing" textLength="534.8511" x="4553.4027" y="1758.8715">Assume P(j) is true for ALL j</text><text fill="#000000" font-family="Verdana" font-size="37.5" lengthAdjust="spacing" textLength="714.9536" x="4553.4027" y="1804.4464">where n&#8320; &#8804; j &#8804; k (Strong Hypothesis)</text><rect fill="#FFFFFF" height="153.6499" rx="39.0625" ry="39.0625" style="stroke:#000000;stroke-width:3.125;" width="904.1626" x="4458.7982" y="1947.847"/><text fill="#000000" font-family="Verdana" font-size="37.5" lengthAdjust="spacing" textLength="385.5286" x="4490.0482" y="2016.7984">Prove P(k+1) is true</text><text fill="#000000" font-family="Verdana" font-size="37.5" lengthAdjust="spacing" textLength="841.6626" x="4490.0482" y="2062.3734">using ANY or ALL of P(n&#8320;), P(n&#8320;+1), ..., P(k)</text><rect fill="#FFFFFF" height="290.3748" rx="39.0625" ry="39.0625" style="stroke:#000000;stroke-width:3.125;" width="954.5349" x="4433.6121" y="2391.7801"/><text fill="#000000" font-family="Verdana" font-size="37.5" lengthAdjust="spacing" textLength="451.5747" x="4464.8621" y="2460.7315">Apply logical reasoning:</text><text fill="#000000" font-family="Verdana" font-size="37.5" lengthAdjust="spacing" textLength="791.0339" x="4464.8621" y="2506.3065">&#8226; Use any previous cases P(j) where j &#8804; k</text><text fill="#000000" font-family="Verdana" font-size="37.5" lengthAdjust="spacing" textLength="746.5393" x="4464.8621" y="2551.8814">&#8226; Apply problem-specific decomposition</text><text fill="#000000" font-family="Verdana" font-size="37.5" lengthAdjust="spacing" textLength="493.1396" x="4464.8621" y="2597.4564">&#8226; Use recurrence relations</text><text fill="#000000" font-family="Verdana" font-size="37.5" lengthAdjust="spacing" textLength="892.0349" x="4464.8621" y="2643.0313">&#8226; Break down P(k+1) into smaller subproblems</text><polygon fill="#FFFFFF" points="4658.9584,2786.4319,5162.8006,2786.4319,5200.3006,2823.9319,5162.8006,2861.4319,4658.9584,2861.4319,4621.4584,2823.9319,4658.9584,2786.4319" style="stroke:#000000;stroke-width:3.125;"/><text fill="#000000" font-family="Verdana" font-size="34.375" lengthAdjust="spacing" textLength="503.8422" x="4658.9584" y="2837.603">Successfully derived P(k+1)?</text><text fill="#000000" font-family="Verdana" font-size="34.375" lengthAdjust="spacing" textLength="59.5352" x="4561.9232" y="2816.7145">Yes</text><text fill="#000000" font-family="Verdana" font-size="34.375" lengthAdjust="spacing" textLength="46.5775" x="5200.3006" y="2816.7145">No</text><path d="M3344.2078,2892.6819 L3344.2078,3121.4233 A0,0 0 0 0 3344.2078,3121.4233 L4132.1167,3121.4233 A0,0 0 0 0 4132.1167,3121.4233 L4132.1167,3019.5526 L4194.6167,3007.0526 L4132.1167,2994.5526 L4132.1167,2923.9319 L4100.8667,2892.6819 L3344.2078,2892.6819 A0,0 0 0 0 3344.2078,2892.6819" fill="#FFFFFF" style="stroke:#000000;stroke-width:3.125;"/><path d="M4100.8667,2892.6819 L4100.8667,2923.9319 L4132.1167,2923.9319 L4100.8667,2892.6819" fill="#FFFFFF" style="stroke:#000000;stroke-width:3.125;"/><text fill="#000000" font-family="Verdana" font-size="40.625" font-weight="bold" lengthAdjust="spacing" textLength="617.1906" x="3362.9578" y="2949.1501">Strong Induction Complete</text><text fill="#000000" font-family="Verdana" font-size="40.625" lengthAdjust="spacing" textLength="722.2839" x="3362.9578" y="2998.5229">Base cases + Strong inductive step</text><text fill="#000000" font-family="Verdana" font-size="40.625" lengthAdjust="spacing" textLength="561.7279" x="3362.9578" y="3047.8958">proves the statement using</text><text fill="#000000" font-family="Verdana" font-size="40.625" lengthAdjust="spacing" textLength="360.9238" x="3362.9578" y="3097.2687">all previous cases</text><rect fill="#FFFFFF" height="153.6499" rx="39.0625" ry="39.0625" style="stroke:#000000;stroke-width:3.125;" width="722.3389" x="4194.6167" y="2930.2277"/><text fill="#000000" font-family="Verdana" font-size="37.5" lengthAdjust="spacing" textLength="659.8389" x="4225.8667" y="2999.1791">By Strong Mathematical Induction:</text><text fill="#000000" font-family="Verdana" font-size="37.5" lengthAdjust="spacing" textLength="523.5718" x="4225.8667" y="3044.754">P(n) is true for all n &#8805; n&#8320; &#8718;</text><ellipse cx="4555.7861" cy="3265.1733" fill="none" rx="34.375" ry="34.375" style="stroke:#000000;stroke-width:3.125;"/><ellipse cx="4555.7861" cy="3265.1733" fill="#FFFFFF" rx="18.75" ry="18.75" style="stroke:#000000;stroke-width:3.125;"/><rect fill="#FFFFFF" height="153.6499" rx="39.0625" ry="39.0625" style="stroke:#000000;stroke-width:3.125;" width="573.0347" x="4979.4556" y="2892.6819"/><text fill="#000000" font-family="Verdana" font-size="37.5" lengthAdjust="spacing" textLength="414.1846" x="5010.7056" y="2961.6333">Review reasoning and</text><text fill="#000000" font-family="Verdana" font-size="37.5" lengthAdjust="spacing" textLength="510.5347" x="5010.7056" y="3007.2083">try different decomposition</text><polygon fill="#FFFFFF" points="4910.8795,2210.8719,4948.3795,2248.3719,4910.8795,2285.8719,4873.3795,2248.3719,4910.8795,2210.8719" style="stroke:#000000;stroke-width:3.125;"/><polygon fill="#FFFFFF" points="4734.2125,3468.2983,5087.5465,3468.2983,5125.0465,3505.7983,5087.5465,3543.2983,4734.2125,3543.2983,4696.7125,3505.7983,4734.2125,3468.2983" style="stroke:#000000;stroke-width:3.125;"/><text fill="#000000" font-family="Verdana" font-size="34.375" lengthAdjust="spacing" textLength="353.334" x="4734.2125" y="3519.4695">Continue reasoning?</text><text fill="#000000" font-family="Verdana" font-size="34.375" lengthAdjust="spacing" textLength="59.5352" x="5125.0465" y="3498.5809">Yes</text><rect fill="#FFFFFF" height="153.6499" rx="39.0625" ry="39.0625" style="stroke:#000000;stroke-width:3.125;" width="617.7856" x="5639.9902" y="2175.6302"/><text fill="#000000" font-family="Verdana" font-size="37.5" lengthAdjust="spacing" textLength="555.2856" x="5671.2402" y="2244.5816">Consider Structural Induction</text><text fill="#000000" font-family="Verdana" font-size="37.5" lengthAdjust="spacing" textLength="544.4824" x="5671.2402" y="2290.1566">or other specialized methods</text><ellipse cx="5948.8831" cy="2428.9383" fill="none" rx="34.375" ry="34.375" style="stroke:#000000;stroke-width:3.125;"/><ellipse cx="5948.8831" cy="2428.9383" fill="#FFFFFF" rx="18.75" ry="18.75" style="stroke:#000000;stroke-width:3.125;"/><line style="stroke:#000000;stroke-width:3.125;" x1="3161.7004" x2="3161.7004" y1="78.125" y2="173.5062"/><polygon fill="#000000" points="3149.2004,142.2562,3161.7004,173.5062,3174.2004,142.2562,3161.7004,154.7562" style="stroke:#000000;stroke-width:3.125;"/><line style="stroke:#000000;stroke-width:3.125;" x1="1439.3425" x2="1439.3425" y1="786.7142" y2="890.9912"/><polygon fill="#000000" points="1426.8425,859.7412,1439.3425,890.9912,1451.8425,859.7412,1439.3425,872.2412" style="stroke:#000000;stroke-width:3.125;"/><line style="stroke:#000000;stroke-width:3.125;" x1="1702.9976" x2="1702.9976" y1="1408.8181" y2="1513.0951"/><polygon fill="#000000" points="1690.4976,1481.8451,1702.9976,1513.0951,1715.4976,1481.8451,1702.9976,1494.3451" style="stroke:#000000;stroke-width:3.125;"/><line style="stroke:#000000;stroke-width:3.125;" x1="1285.3233" x2="1175.6874" y1="1186.4182" y2="1186.4182"/><line style="stroke:#000000;stroke-width:3.125;" x1="1175.6874" x2="1175.6874" y1="1186.4182" y2="1255.1682"/><polygon fill="#000000" points="1163.1874,1223.9182,1175.6874,1255.1682,1188.1874,1223.9182,1175.6874,1236.4182" style="stroke:#000000;stroke-width:3.125;"/><line style="stroke:#000000;stroke-width:3.125;" x1="1593.3617" x2="1702.9976" y1="1186.4182" y2="1186.4182"/><line style="stroke:#000000;stroke-width:3.125;" x1="1702.9976" x2="1702.9976" y1="1186.4182" y2="1255.1682"/><polygon fill="#000000" points="1690.4976,1223.9182,1702.9976,1255.1682,1715.4976,1223.9182,1702.9976,1236.4182" style="stroke:#000000;stroke-width:3.125;"/><line style="stroke:#000000;stroke-width:3.125;" x1="1175.6874" x2="1175.6874" y1="1363.2431" y2="1597.4701"/><line style="stroke:#000000;stroke-width:3.125;" x1="1175.6874" x2="1439.3425" y1="1597.4701" y2="1597.4701"/><line style="stroke:#000000;stroke-width:3.125;" x1="1439.3425" x2="1439.3425" y1="1597.4701" y2="1686.1221"/><polygon fill="#000000" points="1426.8425,1654.8721,1439.3425,1686.1221,1451.8425,1654.8721,1439.3425,1667.3721" style="stroke:#000000;stroke-width:3.125;"/><line style="stroke:#000000;stroke-width:3.125;" x1="1439.3425" x2="1439.3425" y1="1044.6411" y2="1148.9182"/><polygon fill="#000000" points="1426.8425,1117.6682,1439.3425,1148.9182,1451.8425,1117.6682,1439.3425,1130.1682" style="stroke:#000000;stroke-width:3.125;"/><line style="stroke:#000000;stroke-width:3.125;" x1="1439.3425" x2="1439.3425" y1="1885.347" y2="1989.624"/><polygon fill="#000000" points="1426.8425,1958.374,1439.3425,1989.624,1451.8425,1958.374,1439.3425,1970.874" style="stroke:#000000;stroke-width:3.125;"/><line style="stroke:#000000;stroke-width:3.125;" x1="992.7811" x2="992.7811" y1="3042.5339" y2="3189.4547"/><polygon fill="#000000" points="980.2811,3158.2047,992.7811,3189.4547,1005.2811,3158.2047,992.7811,3170.7047" style="stroke:#000000;stroke-width:3.125;"/><line style="stroke:#000000;stroke-width:3.125;" x1="992.7811" x2="992.7811" y1="3343.1046" y2="3490.0253"/><polygon fill="#000000" points="980.2811,3458.7753,992.7811,3490.0253,1005.2811,3458.7753,992.7811,3471.2753" style="stroke:#000000;stroke-width:3.125;"/><line style="stroke:#000000;stroke-width:3.125;" x1="2152.8915" x2="2152.8915" y1="3519.6159" y2="3644.3481"/><polygon fill="#000000" points="2140.3915,3613.0981,2152.8915,3644.3481,2165.3915,3613.0981,2152.8915,3625.5981" style="stroke:#000000;stroke-width:3.125;"/><line style="stroke:#000000;stroke-width:3.125;" x1="1670.3354" x2="1618.9163" y1="3234.9838" y2="3234.9838"/><line style="stroke:#000000;stroke-width:3.125;" x1="1618.9163" x2="1618.9163" y1="3234.9838" y2="3303.7338"/><polygon fill="#000000" points="1606.4163,3272.4838,1618.9163,3303.7338,1631.4163,3272.4838,1618.9163,3284.9838" style="stroke:#000000;stroke-width:3.125;"/><line style="stroke:#000000;stroke-width:3.125;" x1="2101.4725" x2="2152.8915" y1="3234.9838" y2="3234.9838"/><line style="stroke:#000000;stroke-width:3.125;" x1="2152.8915" x2="2152.8915" y1="3234.9838" y2="3365.966"/><polygon fill="#000000" points="2140.3915,3334.716,2152.8915,3365.966,2165.3915,3334.716,2152.8915,3347.216" style="stroke:#000000;stroke-width:3.125;"/><line style="stroke:#000000;stroke-width:3.125;" x1="1618.9163" x2="1618.9163" y1="3411.8088" y2="3728.7231"/><line style="stroke:#000000;stroke-width:3.125;" x1="1618.9163" x2="1439.3425" y1="3728.7231" y2="3728.7231"/><line style="stroke:#000000;stroke-width:3.125;" x1="1439.3425" x2="1439.3425" y1="3728.7231" y2="3815.1665"/><polygon fill="#000000" points="1426.8425,3783.9165,1439.3425,3815.1665,1451.8425,3783.9165,1439.3425,3796.4165" style="stroke:#000000;stroke-width:3.125;"/><line style="stroke:#000000;stroke-width:3.125;" x1="1885.9039" x2="1885.9039" y1="3088.1088" y2="3197.4838"/><polygon fill="#000000" points="1873.4039,3166.2338,1885.9039,3197.4838,1898.4039,3166.2338,1885.9039,3178.7338" style="stroke:#000000;stroke-width:3.125;"/><line style="stroke:#000000;stroke-width:3.125;" x1="1149.9214" x2="992.7811" y1="2865.7089" y2="2865.7089"/><line style="stroke:#000000;stroke-width:3.125;" x1="992.7811" x2="992.7811" y1="2865.7089" y2="2934.4589"/><polygon fill="#000000" points="980.2811,2903.2089,992.7811,2934.4589,1005.2811,2903.2089,992.7811,2915.7089" style="stroke:#000000;stroke-width:3.125;"/><line style="stroke:#000000;stroke-width:3.125;" x1="1728.7636" x2="1885.9039" y1="2865.7089" y2="2865.7089"/><line style="stroke:#000000;stroke-width:3.125;" x1="1885.9039" x2="1885.9039" y1="2865.7089" y2="2934.4589"/><polygon fill="#000000" points="1873.4039,2903.2089,1885.9039,2934.4589,1898.4039,2903.2089,1885.9039,2915.7089" style="stroke:#000000;stroke-width:3.125;"/><line style="stroke:#000000;stroke-width:3.125;" x1="1439.3425" x2="1439.3425" y1="2723.9319" y2="2828.2089"/><polygon fill="#000000" points="1426.8425,2796.9589,1439.3425,2828.2089,1451.8425,2796.9589,1439.3425,2809.4589" style="stroke:#000000;stroke-width:3.125;"/><line style="stroke:#000000;stroke-width:3.125;" x1="1439.3425" x2="1439.3425" y1="2327.6489" y2="2433.5571"/><polygon fill="#000000" points="1426.8425,2402.3071,1439.3425,2433.5571,1451.8425,2402.3071,1439.3425,2414.8071" style="stroke:#000000;stroke-width:3.125;"/><line style="stroke:#000000;stroke-width:3.125;" x1="1653.5095" x2="3212.9578" y1="3852.6665" y2="3852.6665"/><polygon fill="#000000" points="3200.4578,3144.2162,3212.9578,3112.9662,3225.4578,3144.2162,3212.9578,3131.7162" style="stroke:#000000;stroke-width:3.125;"/><line style="stroke:#000000;stroke-width:3.125;" x1="3212.9578" x2="3212.9578" y1="2290.1489" y2="3852.6665"/><line style="stroke:#000000;stroke-width:3.125;" x1="3212.9578" x2="1476.8425" y1="2290.1489" y2="2290.1489"/><polygon fill="#000000" points="1508.0925,2277.6489,1476.8425,2290.1489,1508.0925,2302.6489,1495.5925,2290.1489" style="stroke:#000000;stroke-width:3.125;"/><line style="stroke:#000000;stroke-width:3.125;" x1="1439.3425" x2="1439.3425" y1="2143.2739" y2="2252.6489"/><polygon fill="#000000" points="1426.8425,2221.3989,1439.3425,2252.6489,1451.8425,2221.3989,1439.3425,2233.8989" style="stroke:#000000;stroke-width:3.125;"/><line style="stroke:#000000;stroke-width:3.125;" x1="4910.8795" x2="4910.8795" y1="744.9371" y2="849.2142"/><polygon fill="#000000" points="4898.3795,817.9642,4910.8795,849.2142,4923.3795,817.9642,4910.8795,830.4642" style="stroke:#000000;stroke-width:3.125;"/><line style="stroke:#000000;stroke-width:3.125;" x1="5179.4189" x2="5179.4189" y1="1367.041" y2="1471.3181"/><polygon fill="#000000" points="5166.9189,1440.0681,5179.4189,1471.3181,5191.9189,1440.0681,5179.4189,1452.5681" style="stroke:#000000;stroke-width:3.125;"/><line style="stroke:#000000;stroke-width:3.125;" x1="4701.8234" x2="4642.3401" y1="1144.6411" y2="1144.6411"/><line style="stroke:#000000;stroke-width:3.125;" x1="4642.3401" x2="4642.3401" y1="1144.6411" y2="1213.3911"/><polygon fill="#000000" points="4629.8401,1182.1411,4642.3401,1213.3911,4654.8401,1182.1411,4642.3401,1194.6411" style="stroke:#000000;stroke-width:3.125;"/><line style="stroke:#000000;stroke-width:3.125;" x1="5119.9356" x2="5179.4189" y1="1144.6411" y2="1144.6411"/><line style="stroke:#000000;stroke-width:3.125;" x1="5179.4189" x2="5179.4189" y1="1144.6411" y2="1213.3911"/><polygon fill="#000000" points="5166.9189,1182.1411,5179.4189,1213.3911,5191.9189,1182.1411,5179.4189,1194.6411" style="stroke:#000000;stroke-width:3.125;"/><line style="stroke:#000000;stroke-width:3.125;" x1="4642.3401" x2="4642.3401" y1="1321.4661" y2="1558.8181"/><line style="stroke:#000000;stroke-width:3.125;" x1="4642.3401" x2="4910.8795" y1="1558.8181" y2="1558.8181"/><line style="stroke:#000000;stroke-width:3.125;" x1="4910.8795" x2="4910.8795" y1="1558.8181" y2="1644.3451"/><polygon fill="#000000" points="4898.3795,1613.0951,4910.8795,1644.3451,4923.3795,1613.0951,4910.8795,1625.5951" style="stroke:#000000;stroke-width:3.125;"/><line style="stroke:#000000;stroke-width:3.125;" x1="4910.8795" x2="4910.8795" y1="1002.8641" y2="1107.1411"/><polygon fill="#000000" points="4898.3795,1075.8911,4910.8795,1107.1411,4923.3795,1075.8911,4910.8795,1088.3911" style="stroke:#000000;stroke-width:3.125;"/><line style="stroke:#000000;stroke-width:3.125;" x1="4910.8795" x2="4910.8795" y1="1843.5699" y2="1947.847"/><polygon fill="#000000" points="4898.3795,1916.597,4910.8795,1947.847,4923.3795,1916.597,4910.8795,1929.097" style="stroke:#000000;stroke-width:3.125;"/><line style="stroke:#000000;stroke-width:3.125;" x1="4555.7861" x2="4555.7861" y1="3083.8776" y2="3230.7983"/><polygon fill="#000000" points="4543.2861,3199.5483,4555.7861,3230.7983,4568.2861,3199.5483,4555.7861,3212.0483" style="stroke:#000000;stroke-width:3.125;"/><line style="stroke:#000000;stroke-width:3.125;" x1="4621.4584" x2="4555.7861" y1="2823.9319" y2="2823.9319"/><line style="stroke:#000000;stroke-width:3.125;" x1="4555.7861" x2="4555.7861" y1="2823.9319" y2="2930.2277"/><polygon fill="#000000" points="4543.2861,2898.9777,4555.7861,2930.2277,4568.2861,2898.9777,4555.7861,2911.4777" style="stroke:#000000;stroke-width:3.125;"/><line style="stroke:#000000;stroke-width:3.125;" x1="5200.3006" x2="5265.9729" y1="2823.9319" y2="2823.9319"/><line style="stroke:#000000;stroke-width:3.125;" x1="5265.9729" x2="5265.9729" y1="2823.9319" y2="2892.6819"/><polygon fill="#000000" points="5253.4729,2861.4319,5265.9729,2892.6819,5278.4729,2861.4319,5265.9729,2873.9319" style="stroke:#000000;stroke-width:3.125;"/><line style="stroke:#000000;stroke-width:3.125;" x1="5265.9729" x2="5265.9729" y1="3046.3318" y2="3318.2983"/><line style="stroke:#000000;stroke-width:3.125;" x1="5265.9729" x2="4910.8795" y1="3318.2983" y2="3318.2983"/><line style="stroke:#000000;stroke-width:3.125;" x1="4910.8795" x2="4910.8795" y1="3318.2983" y2="3468.2983"/><polygon fill="#000000" points="4898.3795,3437.0483,4910.8795,3468.2983,4923.3795,3437.0483,4910.8795,3449.5483" style="stroke:#000000;stroke-width:3.125;"/><line style="stroke:#000000;stroke-width:3.125;" x1="4910.8795" x2="4910.8795" y1="2682.1548" y2="2786.4319"/><polygon fill="#000000" points="4898.3795,2755.1819,4910.8795,2786.4319,4923.3795,2755.1819,4910.8795,2767.6819" style="stroke:#000000;stroke-width:3.125;"/><line style="stroke:#000000;stroke-width:3.125;" x1="4910.8795" x2="4910.8795" y1="2285.8719" y2="2391.7801"/><polygon fill="#000000" points="4898.3795,2360.5301,4910.8795,2391.7801,4923.3795,2360.5301,4910.8795,2373.0301" style="stroke:#000000;stroke-width:3.125;"/><line style="stroke:#000000;stroke-width:3.125;" x1="5125.0465" x2="5596.2402" y1="3505.7983" y2="3505.7983"/><polygon fill="#000000" points="5583.7402,2883.7402,5596.2402,2852.4902,5608.7402,2883.7402,5596.2402,2871.2402" style="stroke:#000000;stroke-width:3.125;"/><line style="stroke:#000000;stroke-width:3.125;" x1="5596.2402" x2="5596.2402" y1="2248.3719" y2="3505.7983"/><line style="stroke:#000000;stroke-width:3.125;" x1="5596.2402" x2="4948.3795" y1="2248.3719" y2="2248.3719"/><polygon fill="#000000" points="4979.6295,2235.8719,4948.3795,2248.3719,4979.6295,2260.8719,4967.1295,2248.3719" style="stroke:#000000;stroke-width:3.125;"/><line style="stroke:#000000;stroke-width:3.125;" x1="4910.8795" x2="4910.8795" y1="2101.4969" y2="2210.8719"/><polygon fill="#000000" points="4898.3795,2179.6219,4910.8795,2210.8719,4923.3795,2179.6219,4910.8795,2192.1219" style="stroke:#000000;stroke-width:3.125;"/><line style="stroke:#000000;stroke-width:3.125;" x1="5948.8831" x2="5948.8831" y1="2329.2801" y2="2394.5633"/><polygon fill="#000000" points="5936.3831,2363.3133,5948.8831,2394.5633,5961.3831,2363.3133,5948.8831,2375.8133" style="stroke:#000000;stroke-width:3.125;"/><line style="stroke:#000000;stroke-width:3.125;" x1="1439.3425" x2="1439.3425" y1="574.3622" y2="678.6392"/><polygon fill="#000000" points="1426.8425,647.3892,1439.3425,678.6392,1451.8425,647.3892,1439.3425,659.8892" style="stroke:#000000;stroke-width:3.125;"/><line style="stroke:#000000;stroke-width:3.125;" x1="1439.3425" x2="1439.3425" y1="3890.1665" y2="4025.6935"/><polygon fill="#000000" points="1426.8425,3994.4435,1439.3425,4025.6935,1451.8425,3994.4435,1439.3425,4006.9435" style="stroke:#000000;stroke-width:3.125;"/><text fill="#000000" font-family="Verdana" font-size="34.375" lengthAdjust="spacing" textLength="46.5775" x="1451.8425" y="3958.506">No</text><line style="stroke:#000000;stroke-width:3.125;" x1="4910.8795" x2="4910.8795" y1="574.3622" y2="636.8622"/><polygon fill="#000000" points="4898.3795,605.6122,4910.8795,636.8622,4923.3795,605.6122,4910.8795,618.1122" style="stroke:#000000;stroke-width:3.125;"/><line style="stroke:#000000;stroke-width:3.125;" x1="4910.8795" x2="4910.8795" y1="3543.2983" y2="4025.6935"/><polygon fill="#000000" points="4898.3795,3994.4435,4910.8795,4025.6935,4923.3795,3994.4435,4910.8795,4006.9435" style="stroke:#000000;stroke-width:3.125;"/><text fill="#000000" font-family="Verdana" font-size="34.375" lengthAdjust="spacing" textLength="46.5775" x="4923.3795" y="3781.4377">No</text><line style="stroke:#000000;stroke-width:3.125;" x1="1682.6057" x2="4638.3858" y1="536.8622" y2="536.8622"/><polygon fill="#000000" points="4607.1358,524.3622,4638.3858,536.8622,4607.1358,549.3622,4619.6358,536.8622" style="stroke:#000000;stroke-width:3.125;"/><line style="stroke:#000000;stroke-width:3.125;" x1="3161.7004" x2="3161.7004" y1="372.731" y2="452.4872"/><line style="stroke:#000000;stroke-width:3.125;" x1="3161.7004" x2="1439.3425" y1="452.4872" y2="452.4872"/><line style="stroke:#000000;stroke-width:3.125;" x1="1439.3425" x2="1439.3425" y1="452.4872" y2="499.3622"/><polygon fill="#000000" points="1426.8425,468.1122,1439.3425,499.3622,1451.8425,468.1122,1439.3425,480.6122" style="stroke:#000000;stroke-width:3.125;"/><line style="stroke:#000000;stroke-width:3.125;" x1="5183.3733" x2="5948.8831" y1="536.8622" y2="536.8622"/><line style="stroke:#000000;stroke-width:3.125;" x1="5948.8831" x2="5948.8831" y1="536.8622" y2="2175.6302"/><polygon fill="#000000" points="5936.3831,2144.3802,5948.8831,2175.6302,5961.3831,2144.3802,5948.8831,2156.8802" style="stroke:#000000;stroke-width:3.125;"/><line style="stroke:#000000;stroke-width:3.125;" x1="1439.3425" x2="4910.8795" y1="4025.6935" y2="4025.6935"/><!--SRC=[jLVDRXit4BxhATXJ9Tc9xUGcemqKEpz6Opkm7HX1d0EroxLexN8N95UsSWfwA9fB3-srfw9zWpwHdwJV3FTFKeqaI690ycevCvoVRxuXl_DJbIbHf5ARtlTU-rI9GqalfTUHJCM1YSl8wzo8bpRF4t6e_3IFdT16x6iNMUMx2gxdPjeKqifCn8KM3xUtUyvBwtkzqJCzLsOaJhtqsD9uyR9l1iBdeh3vN5sO9BT2fYaiUtMfh1D6t7xuHvZRdzzVcFuhLs9nmJ_53s9RGBfwtXdizdecXoDMNqvzJuZXyCuOj8bqaQhX468lz4o9ADNPH9jB8GssJhJHC9JAE5Ps19dRzt-9FInP9QEfW56HQEkyi2LK-XFfO05VWuweJA_bmdKqZBe92X0I8h5vXiqM8YgjfJm4KpeuELV2ULMmlL__xMojviekWXLbOa7nzdew4VtpgVJ2BmebK1vTX_feG5iRqJzHbsKgxTQvahCs4uCUDXWDX-TFnZ-9WwFzLtjd1yT7ul39sVFZ_U5mbvSVKtHx-1fHyU4PAeQK3uHsmjjIhPTbfrEMxG5R8HTNz1hVNYitu9o4hIYHGW4larIxgOh5xPz_x69TfNZVFyhNP1EfKtTXMaXXWqH2UfSbdSyBKZUnJZYWWoR7fyZnwCACdIipYclME2S8Xox7sraNVwtgyqMHmtsdNGXmLETcjh7JIKtf25HKVacR505_s8YLh2gKz26USL4WWsb-oM15jLrke3lYLGBLAuHAXbg8J1iVs6GZ6Kp9z59DhDIHoAJH1SfFcxibUpEJNnkocbkLEU0nfZuibFLQjPAdvSI154gq14audHMfJXP2tHHMEKTMEPnGvjCoYl0sAGaHw1zu6bTvMIyv0j_BJPIMCS6B2d3xo-zr5faIJ6MQIhwuWvLGGwQHRl68H5hkG1lzrXXYbaXLuglVH1KjE-pb20-4nkGG_bgiROY3fGvjHDXNnmLo3H3XHoDm1wbLwsqpXzyCMdvUXZsoSABcMbst2A6QN1WFMW304yLa8Wlu0xxOhPIgVrIUftc9lPIro17ecm7tVtNXoe2Q8iz1iK9jRjKdo1vAjBz2fPstEPngAEZ2OAFMiuBdHyRpOxTHRnwM2BojpZZroXh9QHzNiIatwfIeGkhAvklBU5zQcTufSgxIz5vk2RSmLDIJOaLgNtDYki6uHgIfvLfq5HLLGg2ZxbCW0t4zrPY-VNI5rmPORkhyYF5Tb-ZUZqSv04sLuARZmBTgx7OedYjRyVpfsSdnqREFCttV3LR8VhDwG5jkYlltxuT1JMDI8vbpcPO0ltGC0HKtb3y6w9lf-77QTv_3-t2IgV-hCF_LCdcCNxmGLnVcUWhGLlpnuMznnT-pEjkVDmF6Hwz5PHcOkIEjcrym6-Wm0JwUwxnqLJOvhX14vVlAZ0209wdAxhb2HJh1g8XL10ZbJZUjKPi7uFca4j7ZwYnvREbS4TCmgQCtEDEv3AodC4ZBIRNJbmmAq7-L-6ys1IhxdpOC7AR1Ck5yqb1WE2oDXUMgVPk9i5JOtQz3FDm85Q5k7IDAIm8qq9r6FRjqUx0q3gXhW0e2dKprEvIzub1oZ0EjUZP9SrGP4NMBXVCgOGFu8bpUWGKkME3yAl7WfqbU-W096TmoPJPPcyUaTK9eTrJGMF5jWE3EfnySgtAh_JHpzGPbbd4xrCSdSe70b-78LGljwxbsUg9JxHSi5tOEHwz562IrxBZUGKHX01jq2Ij5ZCORs5XtKtf9ivSJ3iprlLNARGfmgNVrlOJojGRnQqfcrRKne62gKOObHE1f-gqWT9FA8QvAvyEviuNgShtQYzWUCk50Bqzk94M0wyhoFIIKY_glAXPUu1gn8HxWyn0VS2E-3IuKfc_WwTQ37YkqbnCeqF8EtUYUdzBJfZW93_qTrk2R2OPAq5oP1L2lXa737KIMjGzX_nbCp3XJzVw1yLbwOoT4iQgo8LW3Awro_PBo_6Qow9patx8SB_PdB1Ya89V8o5Fp0CEylYIwyO3CLdzlwYFwM_BoR8hs1KJfo1JkhW6Rx3Rb31OuBnJG6KqBB712drQ2qpp5PN-PJtU8JDlI_mS0]--></g></svg>
