<svg xmlns="http://www.w3.org/2000/svg" xmlns:xlink="http://www.w3.org/1999/xlink" contentStyleType="text/css" data-diagram-type="ACTIVITY" height="1834.375px" preserveAspectRatio="none" style="width:1109px;height:1834px;background:#FFFFFF;" version="1.1" viewBox="0 0 1109 1834" width="1109.375px" zoomAndPan="magnify"><defs/><g><ellipse cx="314.1495" cy="46.875" fill="#FFFFFF" rx="31.25" ry="31.25" style="stroke:#000000;stroke-width:3.125;"/><rect fill="#FFFFFF" height="108.075" rx="39.0625" ry="39.0625" style="stroke:#000000;stroke-width:3.125;" width="433.9294" x="97.1848" y="140.625"/><text fill="#000000" font-family="Verdana" font-size="37.5" lengthAdjust="spacing" textLength="371.4294" x="128.4348" y="209.5764">Input: Array A[1:n]</text><polygon fill="#FFFFFF" points="256.8214,311.2,371.4775,311.2,408.9775,348.7,371.4775,386.2,256.8214,386.2,219.3214,348.7,256.8214,311.2" style="stroke:#000000;stroke-width:3.125;"/><text fill="#000000" font-family="Verdana" font-size="34.375" lengthAdjust="spacing" textLength="114.6561" x="256.8214" y="362.3711">n = 1?</text><text fill="#000000" font-family="Verdana" font-size="34.375" lengthAdjust="spacing" textLength="58.7296" x="160.5919" y="341.4825">yes</text><text fill="#000000" font-family="Verdana" font-size="34.375" lengthAdjust="spacing" textLength="42.6163" x="408.9775" y="341.4825">no</text><rect fill="#FFFFFF" height="108.075" rx="39.0625" ry="39.0625" style="stroke:#000000;stroke-width:3.125;" width="227.9724" x="18.75" y="417.45"/><text fill="#000000" font-family="Verdana" font-size="37.5" lengthAdjust="spacing" textLength="165.4724" x="50" y="486.4014">Return A</text><ellipse cx="132.7362" cy="622.3999" fill="none" rx="34.375" ry="34.375" style="stroke:#000000;stroke-width:3.125;"/><ellipse cx="132.7362" cy="622.3999" fill="#FFFFFF" rx="18.75" ry="18.75" style="stroke:#000000;stroke-width:3.125;"/><rect fill="#FFFFFF" height="108.075" rx="39.0625" ry="39.0625" style="stroke:#000000;stroke-width:3.125;" width="335.8765" x="327.6245" y="417.45"/><text fill="#000000" font-family="Verdana" font-size="37.5" lengthAdjust="spacing" textLength="273.3765" x="358.8745" y="486.4014">Mid &#8592; n DIV 2</text><rect fill="#FFFFFF" height="108.075" rx="39.0625" ry="39.0625" style="stroke:#000000;stroke-width:3.125;" width="313.0615" x="339.032" y="588.0249"/><text fill="#000000" font-family="Verdana" font-size="37.5" lengthAdjust="spacing" textLength="250.5615" x="370.282" y="656.9763">L &#8592; A[1:Mid]</text><rect fill="#FFFFFF" height="108.075" rx="39.0625" ry="39.0625" style="stroke:#000000;stroke-width:3.125;" width="372.6807" x="309.2224" y="758.5999"/><text fill="#000000" font-family="Verdana" font-size="37.5" lengthAdjust="spacing" textLength="310.1807" x="340.4724" y="827.5513">R &#8592; A[Mid+1:n]</text><path d="M714.7949,941.0019 L714.7949,993.4998 L652.2949,1005.9998 L714.7949,1018.4998 L714.7949,1070.9976 A0,0 0 0 0 714.7949,1070.9976 L1059.7763,1070.9976 A0,0 0 0 0 1059.7763,1070.9976 L1059.7763,972.2519 L1028.5263,941.0019 L714.7949,941.0019 A0,0 0 0 0 714.7949,941.0019" fill="#FFFFFF" style="stroke:#000000;stroke-width:3.125;"/><path d="M1028.5263,941.0019 L1028.5263,972.2519 L1059.7763,972.2519 L1028.5263,941.0019" fill="#FFFFFF" style="stroke:#000000;stroke-width:3.125;"/><text fill="#000000" font-family="Verdana" font-size="40.625" lengthAdjust="spacing" textLength="279.3564" x="733.5449" y="997.4701">Recursive call</text><text fill="#000000" font-family="Verdana" font-size="40.625" lengthAdjust="spacing" textLength="220.105" x="733.5449" y="1046.843">on left half</text><rect fill="#FFFFFF" height="153.6499" rx="39.0625" ry="39.0625" style="stroke:#000000;stroke-width:3.125;" width="313.4644" x="338.8306" y="929.1748"/><text fill="#000000" font-family="Verdana" font-size="37.5" lengthAdjust="spacing" textLength="237.7808" x="370.0806" y="998.1262">&#171;procedure&#187;</text><text fill="#000000" font-family="Verdana" font-size="37.5" lengthAdjust="spacing" textLength="249.7559" x="370.0806" y="1043.7012">MergeSort(L)</text><path d="M716.7908,1157.1518 L716.7908,1209.6497 L654.2908,1222.1497 L716.7908,1234.6497 L716.7908,1287.1475 A0,0 0 0 0 716.7908,1287.1475 L1061.7722,1287.1475 A0,0 0 0 0 1061.7722,1287.1475 L1061.7722,1188.4018 L1030.5222,1157.1518 L716.7908,1157.1518 A0,0 0 0 0 716.7908,1157.1518" fill="#FFFFFF" style="stroke:#000000;stroke-width:3.125;"/><path d="M1030.5222,1157.1518 L1030.5222,1188.4018 L1061.7722,1188.4018 L1030.5222,1157.1518" fill="#FFFFFF" style="stroke:#000000;stroke-width:3.125;"/><text fill="#000000" font-family="Verdana" font-size="40.625" lengthAdjust="spacing" textLength="279.3564" x="735.5408" y="1213.62">Recursive call</text><text fill="#000000" font-family="Verdana" font-size="40.625" lengthAdjust="spacing" textLength="249.9786" x="735.5408" y="1262.9929">on right half</text><rect fill="#FFFFFF" height="153.6499" rx="39.0625" ry="39.0625" style="stroke:#000000;stroke-width:3.125;" width="317.4561" x="336.8347" y="1145.3247"/><text fill="#000000" font-family="Verdana" font-size="37.5" lengthAdjust="spacing" textLength="237.7808" x="368.0847" y="1214.2761">&#171;procedure&#187;</text><text fill="#000000" font-family="Verdana" font-size="37.5" lengthAdjust="spacing" textLength="254.9561" x="368.0847" y="1259.8511">MergeSort(R)</text><path d="M714.7949,1373.3017 L714.7949,1425.7996 L652.2949,1438.2996 L714.7949,1450.7996 L714.7949,1503.2974 A0,0 0 0 0 714.7949,1503.2974 L1089.1541,1503.2974 A0,0 0 0 0 1089.1541,1503.2974 L1089.1541,1404.5517 L1057.9041,1373.3017 L714.7949,1373.3017 A0,0 0 0 0 714.7949,1373.3017" fill="#FFFFFF" style="stroke:#000000;stroke-width:3.125;"/><path d="M1057.9041,1373.3017 L1057.9041,1404.5517 L1089.1541,1404.5517 L1057.9041,1373.3017" fill="#FFFFFF" style="stroke:#000000;stroke-width:3.125;"/><text fill="#000000" font-family="Verdana" font-size="40.625" lengthAdjust="spacing" textLength="255.5923" x="733.5449" y="1429.7699">Function call</text><text fill="#000000" font-family="Verdana" font-size="40.625" lengthAdjust="spacing" textLength="308.7341" x="733.5449" y="1479.1428">to merge L &amp; R</text><rect fill="#FFFFFF" height="153.6499" rx="39.0625" ry="39.0625" style="stroke:#000000;stroke-width:3.125;" width="313.4644" x="338.8306" y="1361.4746"/><text fill="#000000" font-family="Verdana" font-size="37.5" lengthAdjust="spacing" textLength="237.7808" x="370.0806" y="1430.426">&#171;procedure&#187;</text><text fill="#000000" font-family="Verdana" font-size="37.5" lengthAdjust="spacing" textLength="223.4802" x="370.0806" y="1476.001">Merge(L, R)</text><rect fill="#FFFFFF" height="108.075" rx="39.0625" ry="39.0625" style="stroke:#000000;stroke-width:3.125;" width="319.0857" x="336.0199" y="1577.6245"/><text fill="#000000" font-family="Verdana" font-size="37.5" lengthAdjust="spacing" textLength="256.5857" x="367.2699" y="1646.5759">Return Result</text><ellipse cx="495.5627" cy="1782.5745" fill="none" rx="34.375" ry="34.375" style="stroke:#000000;stroke-width:3.125;"/><ellipse cx="495.5627" cy="1782.5745" fill="#FFFFFF" rx="18.75" ry="18.75" style="stroke:#000000;stroke-width:3.125;"/><line style="stroke:#000000;stroke-width:3.125;" x1="314.1495" x2="314.1495" y1="78.125" y2="140.625"/><polygon fill="#000000" points="301.6495,109.375,314.1495,140.625,326.6495,109.375,314.1495,121.875" style="stroke:#000000;stroke-width:3.125;"/><line style="stroke:#000000;stroke-width:3.125;" x1="132.7362" x2="132.7362" y1="525.5249" y2="588.0249"/><polygon fill="#000000" points="120.2362,556.7749,132.7362,588.0249,145.2362,556.7749,132.7362,569.2749" style="stroke:#000000;stroke-width:3.125;"/><line style="stroke:#000000;stroke-width:3.125;" x1="495.5627" x2="495.5627" y1="525.5249" y2="588.0249"/><polygon fill="#000000" points="483.0627,556.7749,495.5627,588.0249,508.0627,556.7749,495.5627,569.2749" style="stroke:#000000;stroke-width:3.125;"/><line style="stroke:#000000;stroke-width:3.125;" x1="495.5627" x2="495.5627" y1="696.0999" y2="758.5999"/><polygon fill="#000000" points="483.0627,727.3499,495.5627,758.5999,508.0627,727.3499,495.5627,739.8499" style="stroke:#000000;stroke-width:3.125;"/><line style="stroke:#000000;stroke-width:3.125;" x1="495.5627" x2="495.5627" y1="866.6748" y2="929.1748"/><polygon fill="#000000" points="483.0627,897.9248,495.5627,929.1748,508.0627,897.9248,495.5627,910.4248" style="stroke:#000000;stroke-width:3.125;"/><line style="stroke:#000000;stroke-width:3.125;" x1="495.5627" x2="495.5627" y1="1082.8247" y2="1145.3247"/><polygon fill="#000000" points="483.0627,1114.0747,495.5627,1145.3247,508.0627,1114.0747,495.5627,1126.5747" style="stroke:#000000;stroke-width:3.125;"/><line style="stroke:#000000;stroke-width:3.125;" x1="495.5627" x2="495.5627" y1="1298.9746" y2="1361.4746"/><polygon fill="#000000" points="483.0627,1330.2246,495.5627,1361.4746,508.0627,1330.2246,495.5627,1342.7246" style="stroke:#000000;stroke-width:3.125;"/><line style="stroke:#000000;stroke-width:3.125;" x1="495.5627" x2="495.5627" y1="1515.1245" y2="1577.6245"/><polygon fill="#000000" points="483.0627,1546.3745,495.5627,1577.6245,508.0627,1546.3745,495.5627,1558.8745" style="stroke:#000000;stroke-width:3.125;"/><line style="stroke:#000000;stroke-width:3.125;" x1="495.5627" x2="495.5627" y1="1685.6995" y2="1748.1995"/><polygon fill="#000000" points="483.0627,1716.9495,495.5627,1748.1995,508.0627,1716.9495,495.5627,1729.4495" style="stroke:#000000;stroke-width:3.125;"/><line style="stroke:#000000;stroke-width:3.125;" x1="219.3214" x2="132.7362" y1="348.7" y2="348.7"/><line style="stroke:#000000;stroke-width:3.125;" x1="132.7362" x2="132.7362" y1="348.7" y2="417.45"/><polygon fill="#000000" points="120.2362,386.2,132.7362,417.45,145.2362,386.2,132.7362,398.7" style="stroke:#000000;stroke-width:3.125;"/><line style="stroke:#000000;stroke-width:3.125;" x1="408.9775" x2="495.5627" y1="348.7" y2="348.7"/><line style="stroke:#000000;stroke-width:3.125;" x1="495.5627" x2="495.5627" y1="348.7" y2="417.45"/><polygon fill="#000000" points="483.0627,386.2,495.5627,417.45,508.0627,386.2,495.5627,398.7" style="stroke:#000000;stroke-width:3.125;"/><line style="stroke:#000000;stroke-width:3.125;" x1="314.1495" x2="314.1495" y1="248.7" y2="311.2"/><polygon fill="#000000" points="301.6495,279.95,314.1495,311.2,326.6495,279.95,314.1495,292.45" style="stroke:#000000;stroke-width:3.125;"/><!--SRC=[ZP1DIiH048NtVOhdHX9qCQExp8y4H1Z8R2AuqLaqIMNIsAaEtHLXBk3QCteIEo4uk7AMzRrNNq5TIKiTeRVQi0hlXdljTOUwDxXVB5GGxKMfRCVz81box_K9-UiouyDAATCWOMomV4WHFOpaH25LG5QI39wHh-8GnFMARA1OTbEwDpM-Fx_0UDozu6uiPSL4HdLC3nCgPnJ1pNmnqlMwzwwYUl2qtUADz-IFzEoy94Kwhh4JWZV7Lk80b5GDFfWFGgMjdP1ZM6e4hRPD1CJrjFIFlRpSFkMNwvFY5gFzZ_jfu4fCbCrYSUZ6CWfSerI_rlEpImg3bVF7kJQD-W40]--></g></svg>
