<svg xmlns="http://www.w3.org/2000/svg" xmlns:xlink="http://www.w3.org/1999/xlink" contentStyleType="text/css" data-diagram-type="ACTIVITY" height="587px" preserveAspectRatio="none" style="width:355px;height:587px;background:#FFFFFF;" version="1.1" viewBox="0 0 355 587" width="355px" zoomAndPan="magnify"><defs/><g><ellipse cx="100.5278" cy="15" fill="#FFFFFF" rx="10" ry="10" style="stroke:#000000;stroke-width:1;"/><rect fill="#FFFFFF" height="34.584" rx="12.5" ry="12.5" style="stroke:#000000;stroke-width:1;" width="143.8555" x="28.6001" y="45"/><text fill="#000000" font-family="Verdana" font-size="12" lengthAdjust="spacing" textLength="123.8555" x="38.6001" y="67.0645">INPUT: Array A[1:n]</text><polygon fill="#FFFFFF" points="82.1829,99.584,118.8728,99.584,130.8728,111.584,118.8728,123.584,82.1829,123.584,70.1829,111.584,82.1829,99.584" style="stroke:#000000;stroke-width:1;"/><text fill="#000000" font-family="Verdana" font-size="11" lengthAdjust="spacing" textLength="36.6899" x="82.1829" y="115.9587">n = 1?</text><text fill="#000000" font-family="Verdana" font-size="11" lengthAdjust="spacing" textLength="18.7935" x="51.3894" y="109.2744">yes</text><text fill="#000000" font-family="Verdana" font-size="11" lengthAdjust="spacing" textLength="13.6372" x="130.8728" y="109.2744">no</text><rect fill="#FFFFFF" height="34.584" rx="12.5" ry="12.5" style="stroke:#000000;stroke-width:1;" width="72.9512" x="6" y="133.584"/><text fill="#000000" font-family="Verdana" font-size="12" lengthAdjust="spacing" textLength="52.9512" x="16" y="155.6484">Return A</text><ellipse cx="42.4756" cy="199.168" fill="none" rx="11" ry="11" style="stroke:#000000;stroke-width:1;"/><ellipse cx="42.4756" cy="199.168" fill="#FFFFFF" rx="6" ry="6" style="stroke:#000000;stroke-width:1;"/><rect fill="#FFFFFF" height="34.584" rx="12.5" ry="12.5" style="stroke:#000000;stroke-width:1;" width="107.4805" x="104.8398" y="133.584"/><text fill="#000000" font-family="Verdana" font-size="12" lengthAdjust="spacing" textLength="87.4805" x="114.8398" y="155.6484">Mid &#8592; n DIV 2</text><rect fill="#FFFFFF" height="34.584" rx="12.5" ry="12.5" style="stroke:#000000;stroke-width:1;" width="100.1797" x="108.4902" y="188.168"/><text fill="#000000" font-family="Verdana" font-size="12" lengthAdjust="spacing" textLength="80.1797" x="118.4902" y="210.2324">L &#8592; A[1:Mid]</text><rect fill="#FFFFFF" height="34.584" rx="12.5" ry="12.5" style="stroke:#000000;stroke-width:1;" width="119.2578" x="98.9512" y="242.752"/><text fill="#000000" font-family="Verdana" font-size="12" lengthAdjust="spacing" textLength="99.2578" x="108.9512" y="264.8164">R &#8592; A[Mid+1:n]</text><path d="M228.7344,301.1206 L228.7344,317.9199 L208.7344,321.9199 L228.7344,325.9199 L228.7344,342.7192 A0,0 0 0 0 228.7344,342.7192 L339.1284,342.7192 A0,0 0 0 0 339.1284,342.7192 L339.1284,311.1206 L329.1284,301.1206 L228.7344,301.1206 A0,0 0 0 0 228.7344,301.1206" fill="#FFFFFF" style="stroke:#000000;stroke-width:1;"/><path d="M329.1284,301.1206 L329.1284,311.1206 L339.1284,311.1206 L329.1284,301.1206" fill="#FFFFFF" style="stroke:#000000;stroke-width:1;"/><text fill="#000000" font-family="Verdana" font-size="13" lengthAdjust="spacing" textLength="89.394" x="234.7344" y="319.1904">Recursive call</text><text fill="#000000" font-family="Verdana" font-size="13" lengthAdjust="spacing" textLength="70.4336" x="234.7344" y="334.9897">on left half</text><rect fill="#FFFFFF" height="49.168" rx="12.5" ry="12.5" style="stroke:#000000;stroke-width:1;" width="100.3086" x="108.4258" y="297.3359"/><text fill="#000000" font-family="Verdana" font-size="12" lengthAdjust="spacing" textLength="76.0898" x="118.4258" y="319.4004">&#171;procedure&#187;</text><text fill="#000000" font-family="Verdana" font-size="12" lengthAdjust="spacing" textLength="79.9219" x="118.4258" y="333.9844">MergeSort(L)</text><path d="M229.373,370.2886 L229.373,387.0879 L209.373,391.0879 L229.373,395.0879 L229.373,411.8872 A0,0 0 0 0 229.373,411.8872 L339.7671,411.8872 A0,0 0 0 0 339.7671,411.8872 L339.7671,380.2886 L329.7671,370.2886 L229.373,370.2886 A0,0 0 0 0 229.373,370.2886" fill="#FFFFFF" style="stroke:#000000;stroke-width:1;"/><path d="M329.7671,370.2886 L329.7671,380.2886 L339.7671,380.2886 L329.7671,370.2886" fill="#FFFFFF" style="stroke:#000000;stroke-width:1;"/><text fill="#000000" font-family="Verdana" font-size="13" lengthAdjust="spacing" textLength="89.394" x="235.373" y="388.3584">Recursive call</text><text fill="#000000" font-family="Verdana" font-size="13" lengthAdjust="spacing" textLength="79.9932" x="235.373" y="404.1577">on right half</text><rect fill="#FFFFFF" height="49.168" rx="12.5" ry="12.5" style="stroke:#000000;stroke-width:1;" width="101.5859" x="107.7871" y="366.5039"/><text fill="#000000" font-family="Verdana" font-size="12" lengthAdjust="spacing" textLength="76.0898" x="117.7871" y="388.5684">&#171;procedure&#187;</text><text fill="#000000" font-family="Verdana" font-size="12" lengthAdjust="spacing" textLength="81.5859" x="117.7871" y="403.1523">MergeSort(R)</text><path d="M228.7344,439.4565 L228.7344,456.2559 L208.7344,460.2559 L228.7344,464.2559 L228.7344,481.0552 A0,0 0 0 0 228.7344,481.0552 L348.5293,481.0552 A0,0 0 0 0 348.5293,481.0552 L348.5293,449.4565 L338.5293,439.4565 L228.7344,439.4565 A0,0 0 0 0 228.7344,439.4565" fill="#FFFFFF" style="stroke:#000000;stroke-width:1;"/><path d="M338.5293,439.4565 L338.5293,449.4565 L348.5293,449.4565 L338.5293,439.4565" fill="#FFFFFF" style="stroke:#000000;stroke-width:1;"/><text fill="#000000" font-family="Verdana" font-size="13" lengthAdjust="spacing" textLength="81.7896" x="234.7344" y="457.5264">Function call</text><text fill="#000000" font-family="Verdana" font-size="13" lengthAdjust="spacing" textLength="98.7949" x="234.7344" y="473.3257">to merge L &amp; R</text><rect fill="#FFFFFF" height="49.168" rx="12.5" ry="12.5" style="stroke:#000000;stroke-width:1;" width="100.3086" x="108.4258" y="435.6719"/><text fill="#000000" font-family="Verdana" font-size="12" lengthAdjust="spacing" textLength="76.0898" x="118.4258" y="457.7363">&#171;procedure&#187;</text><text fill="#000000" font-family="Verdana" font-size="12" lengthAdjust="spacing" textLength="71.5137" x="118.4258" y="472.3203">Merge(L, R)</text><rect fill="#FFFFFF" height="34.584" rx="12.5" ry="12.5" style="stroke:#000000;stroke-width:1;" width="111.0078" x="103.0762" y="504.8398"/><text fill="#000000" font-family="Verdana" font-size="12" lengthAdjust="spacing" textLength="91.0078" x="113.0762" y="526.9043">RETURN Result</text><ellipse cx="158.5801" cy="570.4238" fill="none" rx="11" ry="11" style="stroke:#000000;stroke-width:1;"/><ellipse cx="158.5801" cy="570.4238" fill="#FFFFFF" rx="6" ry="6" style="stroke:#000000;stroke-width:1;"/><line style="stroke:#000000;stroke-width:1;" x1="100.5278" x2="100.5278" y1="25" y2="45"/><polygon fill="#000000" points="96.5278,35,100.5278,45,104.5278,35,100.5278,39" style="stroke:#000000;stroke-width:1;"/><line style="stroke:#000000;stroke-width:1;" x1="42.4756" x2="42.4756" y1="168.168" y2="188.168"/><polygon fill="#000000" points="38.4756,178.168,42.4756,188.168,46.4756,178.168,42.4756,182.168" style="stroke:#000000;stroke-width:1;"/><line style="stroke:#000000;stroke-width:1;" x1="158.5801" x2="158.5801" y1="168.168" y2="188.168"/><polygon fill="#000000" points="154.5801,178.168,158.5801,188.168,162.5801,178.168,158.5801,182.168" style="stroke:#000000;stroke-width:1;"/><line style="stroke:#000000;stroke-width:1;" x1="158.5801" x2="158.5801" y1="222.752" y2="242.752"/><polygon fill="#000000" points="154.5801,232.752,158.5801,242.752,162.5801,232.752,158.5801,236.752" style="stroke:#000000;stroke-width:1;"/><line style="stroke:#000000;stroke-width:1;" x1="158.5801" x2="158.5801" y1="277.3359" y2="297.3359"/><polygon fill="#000000" points="154.5801,287.3359,158.5801,297.3359,162.5801,287.3359,158.5801,291.3359" style="stroke:#000000;stroke-width:1;"/><line style="stroke:#000000;stroke-width:1;" x1="158.5801" x2="158.5801" y1="346.5039" y2="366.5039"/><polygon fill="#000000" points="154.5801,356.5039,158.5801,366.5039,162.5801,356.5039,158.5801,360.5039" style="stroke:#000000;stroke-width:1;"/><line style="stroke:#000000;stroke-width:1;" x1="158.5801" x2="158.5801" y1="415.6719" y2="435.6719"/><polygon fill="#000000" points="154.5801,425.6719,158.5801,435.6719,162.5801,425.6719,158.5801,429.6719" style="stroke:#000000;stroke-width:1;"/><line style="stroke:#000000;stroke-width:1;" x1="158.5801" x2="158.5801" y1="484.8398" y2="504.8398"/><polygon fill="#000000" points="154.5801,494.8398,158.5801,504.8398,162.5801,494.8398,158.5801,498.8398" style="stroke:#000000;stroke-width:1;"/><line style="stroke:#000000;stroke-width:1;" x1="158.5801" x2="158.5801" y1="539.4238" y2="559.4238"/><polygon fill="#000000" points="154.5801,549.4238,158.5801,559.4238,162.5801,549.4238,158.5801,553.4238" style="stroke:#000000;stroke-width:1;"/><line style="stroke:#000000;stroke-width:1;" x1="70.1829" x2="42.4756" y1="111.584" y2="111.584"/><line style="stroke:#000000;stroke-width:1;" x1="42.4756" x2="42.4756" y1="111.584" y2="133.584"/><polygon fill="#000000" points="38.4756,123.584,42.4756,133.584,46.4756,123.584,42.4756,127.584" style="stroke:#000000;stroke-width:1;"/><line style="stroke:#000000;stroke-width:1;" x1="130.8728" x2="158.5801" y1="111.584" y2="111.584"/><line style="stroke:#000000;stroke-width:1;" x1="158.5801" x2="158.5801" y1="111.584" y2="133.584"/><polygon fill="#000000" points="154.5801,123.584,158.5801,133.584,162.5801,123.584,158.5801,127.584" style="stroke:#000000;stroke-width:1;"/><line style="stroke:#000000;stroke-width:1;" x1="100.5278" x2="100.5278" y1="79.584" y2="99.584"/><polygon fill="#000000" points="96.5278,89.584,100.5278,99.584,104.5278,89.584,100.5278,93.584" style="stroke:#000000;stroke-width:1;"/><!--SRC=[ZP11JiCm44NtFiLd0ubWqS8kBKMH0AbIMg7Gie4kh6JIM3ZZo7QGUW7Md96Ju4HH4IkwdFV_F5jpvcjg2AsMYiM5UrVSIYiRbAt2pMGYd9VM2v4irq_RJOBKMdb0-ZfDU3SJGbM86BUOtiK88aPq81SB8Cd9TvQHpiBWl6a5QKUXR8PqfKfyVtw1SRzymNLVIhA1zEgGxWQKZoY0o_75GEVprfg2oixIOe4tNf7TqxEnFihYVesD9rYrhtqOW9oApZhrGIYarWCo34sLHorr5G1nEIpzOyzFjm_vwVeekq9l_-D-xBZmAiX6iJTe-Z8od2CNHsj_fuVDDb-7lxXE-z-BSwagyGC0]--></g></svg>
