<svg xmlns="http://www.w3.org/2000/svg" xmlns:xlink="http://www.w3.org/1999/xlink" contentStyleType="text/css" data-diagram-type="ACTIVITY" height="1334.375px" preserveAspectRatio="none" style="width:1500px;height:1334px;background:#FFFFFF;" version="1.1" viewBox="0 0 1500 1334" width="1500px" zoomAndPan="magnify"><defs/><g><ellipse cx="481.9916" cy="46.875" fill="#FFFFFF" rx="31.25" ry="31.25" style="stroke:#000000;stroke-width:3.125;"/><rect fill="#FFFFFF" height="108.075" rx="39.0625" ry="39.0625" style="stroke:#000000;stroke-width:3.125;" width="703.4424" x="130.2704" y="140.625"/><text fill="#000000" font-family="Verdana" font-size="37.5" lengthAdjust="spacing" textLength="640.9424" x="161.5204" y="209.5764">INPUT: SortArray[1:n], Low, High</text><rect fill="#FFFFFF" height="153.6499" rx="39.0625" ry="39.0625" style="stroke:#000000;stroke-width:3.125;" width="926.4832" x="18.75" y="463.3385"/><text fill="#000000" font-family="Verdana" font-size="37.5" lengthAdjust="spacing" textLength="237.7808" x="366.4063" y="532.2899">&#171;procedure&#187;</text><text fill="#000000" font-family="Verdana" font-size="37.5" lengthAdjust="spacing" textLength="850.7996" x="63.1836" y="577.8648">PivotIndex &#8592; Partition(SortArray, Low, High)</text><path d="M979.9744,691.3155 L979.9744,743.8133 L917.4744,756.3133 L979.9744,768.8133 L979.9744,821.3112 A0,0 0 0 0 979.9744,821.3112 L1361.8912,821.3112 A0,0 0 0 0 1361.8912,821.3112 L1361.8912,722.5655 L1330.6412,691.3155 L979.9744,691.3155 A0,0 0 0 0 979.9744,691.3155" fill="#FFFFFF" style="stroke:#000000;stroke-width:3.125;"/><path d="M1330.6412,691.3155 L1330.6412,722.5655 L1361.8912,722.5655 L1330.6412,691.3155" fill="#FFFFFF" style="stroke:#000000;stroke-width:3.125;"/><text fill="#000000" font-family="Verdana" font-size="40.625" lengthAdjust="spacing" textLength="279.3564" x="998.7244" y="747.7837">Recursive call</text><text fill="#000000" font-family="Verdana" font-size="40.625" lengthAdjust="spacing" textLength="316.2918" x="998.7244" y="797.1565">on left partition</text><rect fill="#FFFFFF" height="153.6499" rx="39.0625" ry="39.0625" style="stroke:#000000;stroke-width:3.125;" width="870.9656" x="46.5088" y="679.4884"/><text fill="#000000" font-family="Verdana" font-size="37.5" lengthAdjust="spacing" textLength="237.7808" x="394.165" y="748.4398">&#171;procedure&#187;</text><text fill="#000000" font-family="Verdana" font-size="37.5" lengthAdjust="spacing" textLength="795.282" x="90.9424" y="794.0147">QuickSort(SortArray, Low, PivotIndex - 1)</text><path d="M992.4255,907.4654 L992.4255,959.9632 L929.9255,972.4632 L992.4255,984.9632 L992.4255,1037.4611 A0,0 0 0 0 992.4255,1037.4611 L1404.216,1037.4611 A0,0 0 0 0 1404.216,1037.4611 L1404.216,938.7154 L1372.966,907.4654 L992.4255,907.4654 A0,0 0 0 0 992.4255,907.4654" fill="#FFFFFF" style="stroke:#000000;stroke-width:3.125;"/><path d="M1372.966,907.4654 L1372.966,938.7154 L1404.216,938.7154 L1372.966,907.4654" fill="#FFFFFF" style="stroke:#000000;stroke-width:3.125;"/><text fill="#000000" font-family="Verdana" font-size="40.625" lengthAdjust="spacing" textLength="279.3564" x="1011.1755" y="963.9336">Recursive call</text><text fill="#000000" font-family="Verdana" font-size="40.625" lengthAdjust="spacing" textLength="346.1655" x="1011.1755" y="1013.3064">on right partition</text><rect fill="#FFFFFF" height="153.6499" rx="39.0625" ry="39.0625" style="stroke:#000000;stroke-width:3.125;" width="895.8679" x="34.0576" y="895.6383"/><text fill="#000000" font-family="Verdana" font-size="37.5" lengthAdjust="spacing" textLength="237.7808" x="381.7139" y="964.5897">&#171;procedure&#187;</text><text fill="#000000" font-family="Verdana" font-size="37.5" lengthAdjust="spacing" textLength="820.1843" x="78.4912" y="1010.1646">QuickSort(SortArray, PivotIndex + 1, High)</text><polygon fill="#FFFFFF" points="373.185,311.2,590.7982,311.2,628.2982,348.7,590.7982,386.2,373.185,386.2,335.685,348.7,373.185,311.2" style="stroke:#000000;stroke-width:3.125;"/><text fill="#000000" font-family="Verdana" font-size="34.375" lengthAdjust="spacing" textLength="58.7296" x="494.4916" y="420.7596">yes</text><text fill="#000000" font-family="Verdana" font-size="34.375" lengthAdjust="spacing" textLength="217.6132" x="373.185" y="362.3711">Low &lt; High?</text><text fill="#000000" font-family="Verdana" font-size="34.375" lengthAdjust="spacing" textLength="42.6163" x="628.2982" y="341.4825">no</text><polygon fill="#FFFFFF" points="481.9916,1111.7882,519.4916,1149.2882,481.9916,1186.7882,444.4916,1149.2882,481.9916,1111.7882" style="stroke:#000000;stroke-width:3.125;"/><ellipse cx="481.9916" cy="1283.6632" fill="none" rx="34.375" ry="34.375" style="stroke:#000000;stroke-width:3.125;"/><ellipse cx="481.9916" cy="1283.6632" fill="#FFFFFF" rx="18.75" ry="18.75" style="stroke:#000000;stroke-width:3.125;"/><line style="stroke:#000000;stroke-width:3.125;" x1="481.9916" x2="481.9916" y1="78.125" y2="140.625"/><polygon fill="#000000" points="469.4916,109.375,481.9916,140.625,494.4916,109.375,481.9916,121.875" style="stroke:#000000;stroke-width:3.125;"/><line style="stroke:#000000;stroke-width:3.125;" x1="481.9916" x2="481.9916" y1="616.9884" y2="679.4884"/><polygon fill="#000000" points="469.4916,648.2384,481.9916,679.4884,494.4916,648.2384,481.9916,660.7384" style="stroke:#000000;stroke-width:3.125;"/><line style="stroke:#000000;stroke-width:3.125;" x1="481.9916" x2="481.9916" y1="833.1383" y2="895.6383"/><polygon fill="#000000" points="469.4916,864.3883,481.9916,895.6383,494.4916,864.3883,481.9916,876.8883" style="stroke:#000000;stroke-width:3.125;"/><line style="stroke:#000000;stroke-width:3.125;" x1="481.9916" x2="481.9916" y1="386.2" y2="463.3385"/><polygon fill="#000000" points="469.4916,432.0885,481.9916,463.3385,494.4916,432.0885,481.9916,444.5885" style="stroke:#000000;stroke-width:3.125;"/><line style="stroke:#000000;stroke-width:3.125;" x1="628.2982" x2="1435.466" y1="348.7" y2="348.7"/><polygon fill="#000000" points="1422.966,725.0633,1435.466,756.3133,1447.966,725.0633,1435.466,737.5633" style="stroke:#000000;stroke-width:3.125;"/><line style="stroke:#000000;stroke-width:3.125;" x1="1435.466" x2="1435.466" y1="348.7" y2="1149.2882"/><line style="stroke:#000000;stroke-width:3.125;" x1="1435.466" x2="519.4916" y1="1149.2882" y2="1149.2882"/><polygon fill="#000000" points="550.7416,1136.7882,519.4916,1149.2882,550.7416,1161.7882,538.2416,1149.2882" style="stroke:#000000;stroke-width:3.125;"/><line style="stroke:#000000;stroke-width:3.125;" x1="481.9916" x2="481.9916" y1="1049.2882" y2="1111.7882"/><polygon fill="#000000" points="469.4916,1080.5382,481.9916,1111.7882,494.4916,1080.5382,481.9916,1093.0382" style="stroke:#000000;stroke-width:3.125;"/><line style="stroke:#000000;stroke-width:3.125;" x1="481.9916" x2="481.9916" y1="248.7" y2="311.2"/><polygon fill="#000000" points="469.4916,279.95,481.9916,311.2,494.4916,279.95,481.9916,292.45" style="stroke:#000000;stroke-width:3.125;"/><line style="stroke:#000000;stroke-width:3.125;" x1="481.9916" x2="481.9916" y1="1186.7882" y2="1249.2882"/><polygon fill="#000000" points="469.4916,1218.0382,481.9916,1249.2882,494.4916,1218.0382,481.9916,1230.5382" style="stroke:#000000;stroke-width:3.125;"/><!--SRC=[bP7DIiD058NtynJ7NO8L6jp5K77NGf7ujx8kXkJ6NZgzCynCgdq1rpwZJ-8qO0ceeDpLFSCvvnlkILpJbk2CPb5Xm-AqrrkqZd4-dQeGjOzAbOlh-k6-n9trySfxlNyiIdcQO6bV9fZpy_f2AUwGfHtL85pcICc2R4yXLq2vYeUfAkTjGstlQJR3Ib3ppiQ5jFIAZxTtrAcE8rl9ZbMZbZpL_1vrqtEpETY-UKSbPoXI2Y0s4dpAZ6a1RgdfVU0TeT76398L6EeYt1TIKadQmVblZ171AOhZR_x8CRp_348c43AnkKeITofTp3hr2G00]--></g></svg>
