<svg xmlns="http://www.w3.org/2000/svg" xmlns:xlink="http://www.w3.org/1999/xlink" contentStyleType="text/css" data-diagram-type="ACTIVITY" height="3187.5px" preserveAspectRatio="none" style="width:1050px;height:3187px;background:#FFFFFF;" version="1.1" viewBox="0 0 1050 3187" width="1050px" zoomAndPan="magnify"><defs/><g><ellipse cx="508.9966" cy="46.875" fill="#FFFFFF" rx="31.25" ry="31.25" style="stroke:#000000;stroke-width:3.125;"/><rect fill="#FFFFFF" height="108.075" rx="39.0625" ry="39.0625" style="stroke:#000000;stroke-width:3.125;" width="474.2859" x="271.8536" y="140.625"/><text fill="#000000" font-family="Verdana" font-size="37.5" lengthAdjust="spacing" textLength="411.7859" x="303.1036" y="209.5764">Input: SortArray[1:n]</text><rect fill="#FFFFFF" height="108.075" rx="39.0625" ry="39.0625" style="stroke:#000000;stroke-width:3.125;" width="160.498" x="428.7476" y="311.2"/><text fill="#000000" font-family="Verdana" font-size="37.5" lengthAdjust="spacing" textLength="97.998" x="459.9976" y="380.1514">i &#8592; 1</text><rect fill="#FFFFFF" height="108.075" rx="39.0625" ry="39.0625" style="stroke:#000000;stroke-width:3.125;" width="309.6924" x="354.1504" y="658.522"/><text fill="#000000" font-family="Verdana" font-size="37.5" lengthAdjust="spacing" textLength="247.1924" x="385.4004" y="727.4734">MinIndex &#8592; i</text><rect fill="#FFFFFF" height="108.075" rx="39.0625" ry="39.0625" style="stroke:#000000;stroke-width:3.125;" width="230.4626" x="393.7653" y="829.097"/><text fill="#000000" font-family="Verdana" font-size="37.5" lengthAdjust="spacing" textLength="167.9626" x="425.0153" y="898.0484">j &#8592; i + 1</text><rect fill="#FFFFFF" height="108.075" rx="39.0625" ry="39.0625" style="stroke:#000000;stroke-width:3.125;" width="312.3108" x="352.8412" y="1328.5576"/><text fill="#000000" font-family="Verdana" font-size="37.5" lengthAdjust="spacing" textLength="249.8108" x="384.0912" y="1397.509">MinIndex &#8592; j</text><polygon fill="#FFFFFF" points="190.625,1176.4191,827.3682,1176.4191,864.8682,1213.9191,827.3682,1251.4191,190.625,1251.4191,153.125,1213.9191,190.625,1176.4191" style="stroke:#000000;stroke-width:3.125;"/><text fill="#000000" font-family="Verdana" font-size="34.375" lengthAdjust="spacing" textLength="58.7296" x="521.4966" y="1285.9787">yes</text><text fill="#000000" font-family="Verdana" font-size="34.375" lengthAdjust="spacing" textLength="636.7432" x="190.625" y="1227.5902">SortArray[j] &lt; SortArray[MinIndex]?</text><text fill="#000000" font-family="Verdana" font-size="34.375" lengthAdjust="spacing" textLength="42.6163" x="864.8682" y="1206.7017">no</text><polygon fill="#FFFFFF" points="508.9966,1513.7711,546.4966,1551.2711,508.9966,1588.7711,471.4966,1551.2711,508.9966,1513.7711" style="stroke:#000000;stroke-width:3.125;"/><rect fill="#FFFFFF" height="108.075" rx="39.0625" ry="39.0625" style="stroke:#000000;stroke-width:3.125;" width="233.0811" x="392.4561" y="1651.2711"/><text fill="#000000" font-family="Verdana" font-size="37.5" lengthAdjust="spacing" textLength="170.5811" x="423.7061" y="1720.2225">j &#8592; j + 1</text><polygon fill="#FFFFFF" points="456.6788,999.6719,561.3144,999.6719,598.8144,1037.1719,561.3144,1074.6719,456.6788,1074.6719,419.1788,1037.1719,456.6788,999.6719" style="stroke:#000000;stroke-width:3.125;"/><text fill="#000000" font-family="Verdana" font-size="34.375" lengthAdjust="spacing" textLength="58.7296" x="521.4966" y="1109.2316">yes</text><text fill="#000000" font-family="Verdana" font-size="34.375" lengthAdjust="spacing" textLength="104.6356" x="456.6788" y="1050.843">j &#8804; n?</text><text fill="#000000" font-family="Verdana" font-size="34.375" lengthAdjust="spacing" textLength="42.6163" x="376.5625" y="1029.9545">no</text><rect fill="#FFFFFF" height="108.075" rx="39.0625" ry="39.0625" style="stroke:#000000;stroke-width:3.125;" width="457.5317" x="280.2307" y="2042.7345"/><text fill="#000000" font-family="Verdana" font-size="37.5" lengthAdjust="spacing" textLength="395.0317" x="311.4807" y="2111.6859">Temp &#8592; SortArray[i]</text><rect fill="#FFFFFF" height="108.075" rx="39.0625" ry="39.0625" style="stroke:#000000;stroke-width:3.125;" width="740.8691" x="138.562" y="2213.3095"/><text fill="#000000" font-family="Verdana" font-size="37.5" lengthAdjust="spacing" textLength="678.3691" x="169.812" y="2282.2609">SortArray[i] &#8592; SortArray[MinIndex]</text><rect fill="#FFFFFF" height="108.075" rx="39.0625" ry="39.0625" style="stroke:#000000;stroke-width:3.125;" width="620.2759" x="198.8586" y="2383.8844"/><text fill="#000000" font-family="Verdana" font-size="37.5" lengthAdjust="spacing" textLength="557.7759" x="230.1086" y="2452.8358">SortArray[MinIndex] &#8592; Temp</text><polygon fill="#FFFFFF" points="389.4478,1890.596,628.5454,1890.596,666.0454,1928.096,628.5454,1965.596,389.4478,1965.596,351.9478,1928.096,389.4478,1890.596" style="stroke:#000000;stroke-width:3.125;"/><text fill="#000000" font-family="Verdana" font-size="34.375" lengthAdjust="spacing" textLength="58.7296" x="521.4966" y="2000.1556">yes</text><text fill="#000000" font-family="Verdana" font-size="34.375" lengthAdjust="spacing" textLength="239.0976" x="389.4478" y="1941.7671">MinIndex &#8800; i?</text><text fill="#000000" font-family="Verdana" font-size="34.375" lengthAdjust="spacing" textLength="42.6163" x="666.0454" y="1920.8786">no</text><polygon fill="#FFFFFF" points="508.9966,2554.4594,546.4966,2591.9594,508.9966,2629.4594,471.4966,2591.9594,508.9966,2554.4594" style="stroke:#000000;stroke-width:3.125;"/><rect fill="#FFFFFF" height="108.075" rx="39.0625" ry="39.0625" style="stroke:#000000;stroke-width:3.125;" width="227.8442" x="395.0745" y="2691.9594"/><text fill="#000000" font-family="Verdana" font-size="37.5" lengthAdjust="spacing" textLength="165.3442" x="426.3245" y="2760.9108">i &#8592; i + 1</text><polygon fill="#FFFFFF" points="427.0622,481.7749,590.9309,481.7749,628.4309,519.2749,590.9309,556.7749,427.0622,556.7749,389.5622,519.2749,427.0622,481.7749" style="stroke:#000000;stroke-width:3.125;"/><text fill="#000000" font-family="Verdana" font-size="34.375" lengthAdjust="spacing" textLength="58.7296" x="521.4966" y="591.3345">yes</text><text fill="#000000" font-family="Verdana" font-size="34.375" lengthAdjust="spacing" textLength="163.8687" x="427.0622" y="532.946">i &#8804; n - 1?</text><text fill="#000000" font-family="Verdana" font-size="34.375" lengthAdjust="spacing" textLength="42.6163" x="346.946" y="512.0575">no</text><rect fill="#FFFFFF" height="108.075" rx="39.0625" ry="39.0625" style="stroke:#000000;stroke-width:3.125;" width="339.8315" x="339.0808" y="2931.2843"/><text fill="#000000" font-family="Verdana" font-size="37.5" lengthAdjust="spacing" textLength="277.3315" x="370.3308" y="3000.2357">Array is sorted</text><ellipse cx="508.9966" cy="3136.2343" fill="none" rx="34.375" ry="34.375" style="stroke:#000000;stroke-width:3.125;"/><ellipse cx="508.9966" cy="3136.2343" fill="#FFFFFF" rx="18.75" ry="18.75" style="stroke:#000000;stroke-width:3.125;"/><line style="stroke:#000000;stroke-width:3.125;" x1="508.9966" x2="508.9966" y1="78.125" y2="140.625"/><polygon fill="#000000" points="496.4966,109.375,508.9966,140.625,521.4966,109.375,508.9966,121.875" style="stroke:#000000;stroke-width:3.125;"/><line style="stroke:#000000;stroke-width:3.125;" x1="508.9966" x2="508.9966" y1="248.7" y2="311.2"/><polygon fill="#000000" points="496.4966,279.95,508.9966,311.2,521.4966,279.95,508.9966,292.45" style="stroke:#000000;stroke-width:3.125;"/><line style="stroke:#000000;stroke-width:3.125;" x1="508.9966" x2="508.9966" y1="766.597" y2="829.097"/><polygon fill="#000000" points="496.4966,797.847,508.9966,829.097,521.4966,797.847,508.9966,810.347" style="stroke:#000000;stroke-width:3.125;"/><line style="stroke:#000000;stroke-width:3.125;" x1="508.9966" x2="508.9966" y1="1251.4191" y2="1328.5576"/><polygon fill="#000000" points="496.4966,1297.3076,508.9966,1328.5576,521.4966,1297.3076,508.9966,1309.8076" style="stroke:#000000;stroke-width:3.125;"/><line style="stroke:#000000;stroke-width:3.125;" x1="864.8682" x2="902.3682" y1="1213.9191" y2="1213.9191"/><polygon fill="#000000" points="889.8682,1351.3451,902.3682,1382.5951,914.8682,1351.3451,902.3682,1363.8451" style="stroke:#000000;stroke-width:3.125;"/><line style="stroke:#000000;stroke-width:3.125;" x1="902.3682" x2="902.3682" y1="1213.9191" y2="1551.2711"/><line style="stroke:#000000;stroke-width:3.125;" x1="902.3682" x2="546.4966" y1="1551.2711" y2="1551.2711"/><polygon fill="#000000" points="577.7466,1538.7711,546.4966,1551.2711,577.7466,1563.7711,565.2466,1551.2711" style="stroke:#000000;stroke-width:3.125;"/><line style="stroke:#000000;stroke-width:3.125;" x1="508.9966" x2="508.9966" y1="1436.6325" y2="1513.7711"/><polygon fill="#000000" points="496.4966,1482.5211,508.9966,1513.7711,521.4966,1482.5211,508.9966,1495.0211" style="stroke:#000000;stroke-width:3.125;"/><line style="stroke:#000000;stroke-width:3.125;" x1="508.9966" x2="508.9966" y1="1588.7711" y2="1651.2711"/><polygon fill="#000000" points="496.4966,1620.0211,508.9966,1651.2711,521.4966,1620.0211,508.9966,1632.5211" style="stroke:#000000;stroke-width:3.125;"/><line style="stroke:#000000;stroke-width:3.125;" x1="508.9966" x2="508.9966" y1="1074.6719" y2="1176.4191"/><polygon fill="#000000" points="496.4966,1145.1691,508.9966,1176.4191,521.4966,1145.1691,508.9966,1157.6691" style="stroke:#000000;stroke-width:3.125;"/><line style="stroke:#000000;stroke-width:3.125;" x1="508.9966" x2="508.9966" y1="1759.346" y2="1790.596"/><line style="stroke:#000000;stroke-width:3.125;" x1="508.9966" x2="939.8682" y1="1790.596" y2="1790.596"/><polygon fill="#000000" points="927.3682,1464.1815,939.8682,1432.9315,952.3682,1464.1815,939.8682,1451.6815" style="stroke:#000000;stroke-width:3.125;"/><line style="stroke:#000000;stroke-width:3.125;" x1="939.8682" x2="939.8682" y1="1037.1719" y2="1790.596"/><line style="stroke:#000000;stroke-width:3.125;" x1="939.8682" x2="598.8144" y1="1037.1719" y2="1037.1719"/><polygon fill="#000000" points="630.0644,1024.6719,598.8144,1037.1719,630.0644,1049.6719,617.5644,1037.1719" style="stroke:#000000;stroke-width:3.125;"/><line style="stroke:#000000;stroke-width:3.125;" x1="419.1788" x2="115.625" y1="1037.1719" y2="1037.1719"/><polygon fill="#000000" points="103.125,1420.4315,115.625,1451.6815,128.125,1420.4315,115.625,1432.9315" style="stroke:#000000;stroke-width:3.125;"/><line style="stroke:#000000;stroke-width:3.125;" x1="115.625" x2="115.625" y1="1037.1719" y2="1828.096"/><line style="stroke:#000000;stroke-width:3.125;" x1="115.625" x2="508.9966" y1="1828.096" y2="1828.096"/><line style="stroke:#000000;stroke-width:3.125;" x1="508.9966" x2="508.9966" y1="1828.096" y2="1890.596"/><polygon fill="#000000" points="496.4966,1859.346,508.9966,1890.596,521.4966,1859.346,508.9966,1871.846" style="stroke:#000000;stroke-width:3.125;"/><line style="stroke:#000000;stroke-width:3.125;" x1="508.9966" x2="508.9966" y1="937.1719" y2="999.6719"/><polygon fill="#000000" points="496.4966,968.4219,508.9966,999.6719,521.4966,968.4219,508.9966,980.9219" style="stroke:#000000;stroke-width:3.125;"/><line style="stroke:#000000;stroke-width:3.125;" x1="508.9966" x2="508.9966" y1="2150.8095" y2="2213.3095"/><polygon fill="#000000" points="496.4966,2182.0595,508.9966,2213.3095,521.4966,2182.0595,508.9966,2194.5595" style="stroke:#000000;stroke-width:3.125;"/><line style="stroke:#000000;stroke-width:3.125;" x1="508.9966" x2="508.9966" y1="2321.3844" y2="2383.8844"/><polygon fill="#000000" points="496.4966,2352.6344,508.9966,2383.8844,521.4966,2352.6344,508.9966,2365.1344" style="stroke:#000000;stroke-width:3.125;"/><line style="stroke:#000000;stroke-width:3.125;" x1="508.9966" x2="508.9966" y1="1965.596" y2="2042.7345"/><polygon fill="#000000" points="496.4966,2011.4845,508.9966,2042.7345,521.4966,2011.4845,508.9966,2023.9845" style="stroke:#000000;stroke-width:3.125;"/><line style="stroke:#000000;stroke-width:3.125;" x1="666.0454" x2="910.6812" y1="1928.096" y2="1928.096"/><polygon fill="#000000" points="898.1812,2236.097,910.6812,2267.347,923.1812,2236.097,910.6812,2248.597" style="stroke:#000000;stroke-width:3.125;"/><line style="stroke:#000000;stroke-width:3.125;" x1="910.6812" x2="910.6812" y1="1928.096" y2="2591.9594"/><line style="stroke:#000000;stroke-width:3.125;" x1="910.6812" x2="546.4966" y1="2591.9594" y2="2591.9594"/><polygon fill="#000000" points="577.7466,2579.4594,546.4966,2591.9594,577.7466,2604.4594,565.2466,2591.9594" style="stroke:#000000;stroke-width:3.125;"/><line style="stroke:#000000;stroke-width:3.125;" x1="508.9966" x2="508.9966" y1="2491.9594" y2="2554.4594"/><polygon fill="#000000" points="496.4966,2523.2094,508.9966,2554.4594,521.4966,2523.2094,508.9966,2535.7094" style="stroke:#000000;stroke-width:3.125;"/><line style="stroke:#000000;stroke-width:3.125;" x1="508.9966" x2="508.9966" y1="2629.4594" y2="2691.9594"/><polygon fill="#000000" points="496.4966,2660.7094,508.9966,2691.9594,521.4966,2660.7094,508.9966,2673.2094" style="stroke:#000000;stroke-width:3.125;"/><line style="stroke:#000000;stroke-width:3.125;" x1="508.9966" x2="508.9966" y1="556.7749" y2="658.522"/><polygon fill="#000000" points="496.4966,627.272,508.9966,658.522,521.4966,627.272,508.9966,639.772" style="stroke:#000000;stroke-width:3.125;"/><line style="stroke:#000000;stroke-width:3.125;" x1="508.9966" x2="508.9966" y1="2800.0343" y2="2831.2843"/><line style="stroke:#000000;stroke-width:3.125;" x1="508.9966" x2="985.6812" y1="2831.2843" y2="2831.2843"/><polygon fill="#000000" points="973.1812,1728.5065,985.6812,1697.2565,998.1812,1728.5065,985.6812,1716.0065" style="stroke:#000000;stroke-width:3.125;"/><line style="stroke:#000000;stroke-width:3.125;" x1="985.6812" x2="985.6812" y1="519.2749" y2="2831.2843"/><line style="stroke:#000000;stroke-width:3.125;" x1="985.6812" x2="628.4309" y1="519.2749" y2="519.2749"/><polygon fill="#000000" points="659.6809,506.7749,628.4309,519.2749,659.6809,531.7749,647.1809,519.2749" style="stroke:#000000;stroke-width:3.125;"/><line style="stroke:#000000;stroke-width:3.125;" x1="389.5622" x2="59.375" y1="519.2749" y2="519.2749"/><polygon fill="#000000" points="46.875,1684.7565,59.375,1716.0065,71.875,1684.7565,59.375,1697.2565" style="stroke:#000000;stroke-width:3.125;"/><line style="stroke:#000000;stroke-width:3.125;" x1="59.375" x2="59.375" y1="519.2749" y2="2868.7843"/><line style="stroke:#000000;stroke-width:3.125;" x1="59.375" x2="508.9966" y1="2868.7843" y2="2868.7843"/><line style="stroke:#000000;stroke-width:3.125;" x1="508.9966" x2="508.9966" y1="2868.7843" y2="2931.2843"/><polygon fill="#000000" points="496.4966,2900.0343,508.9966,2931.2843,521.4966,2900.0343,508.9966,2912.5343" style="stroke:#000000;stroke-width:3.125;"/><line style="stroke:#000000;stroke-width:3.125;" x1="508.9966" x2="508.9966" y1="419.2749" y2="481.7749"/><polygon fill="#000000" points="496.4966,450.5249,508.9966,481.7749,521.4966,450.5249,508.9966,463.0249" style="stroke:#000000;stroke-width:3.125;"/><line style="stroke:#000000;stroke-width:3.125;" x1="508.9966" x2="508.9966" y1="3039.3593" y2="3101.8593"/><polygon fill="#000000" points="496.4966,3070.6093,508.9966,3101.8593,521.4966,3070.6093,508.9966,3083.1093" style="stroke:#000000;stroke-width:3.125;"/><!--SRC=[PP6zJiCm58LtFyLXIuMG6h4vI8YnGoVOK0PBSTLh4iUoZQ0lWDIDHs3WoNWI_9CqRYjvkBe_tptd-iRlvI1XUa6QkJVIHbWne3E4-_MQEI-iPunlj7dt7C-ZzK_MYiDhpNNRX0BXx-iRTGW_zjHBL25n_8N67Uh75SYXEaYtOW3VajxeJdwc2MfYIkKOjv40X3THLAQS4m3QeLeqg1OFXQIPtuQfu4eNSvVRLPFIidTXbnvpazGTxL8qwLAphb2PTELUbfKioECFw7ehVv63IQH59BLvDIzJ5pqd8rUjfqgQYFWahx0ncuZNfVAwvnuOJy1uNHVeiWiVwFnes3y0]--></g></svg>
