<svg xmlns="http://www.w3.org/2000/svg" xmlns:xlink="http://www.w3.org/1999/xlink" contentStyleType="text/css" data-diagram-type="ACTIVITY" height="5100px" preserveAspectRatio="none" style="width:1987px;height:5100px;background:#FFFFFF;" version="1.1" viewBox="0 0 1987 5100" width="1987.5px" zoomAndPan="magnify"><defs/><g><ellipse cx="739.1373" cy="46.875" fill="#FFFFFF" rx="31.25" ry="31.25" style="stroke:#000000;stroke-width:3.125;"/><path d="M1218.0588,133.4625 L1218.0588,227.7374 L1155.5588,240.2374 L1218.0588,252.7374 L1218.0588,347.0123 A0,0 0 0 0 1218.0588,347.0123 L1968.4067,347.0123 A0,0 0 0 0 1968.4067,347.0123 L1968.4067,164.7125 L1937.1567,133.4625 L1218.0588,133.4625 A0,0 0 0 0 1218.0588,133.4625" fill="#FFFFFF" style="stroke:#000000;stroke-width:3.125;"/><path d="M1937.1567,133.4625 L1937.1567,164.7125 L1968.4067,164.7125 L1937.1567,133.4625" fill="#FFFFFF" style="stroke:#000000;stroke-width:3.125;"/><text fill="#000000" font-family="Verdana" font-size="37.5" lengthAdjust="spacing" textLength="433.5754" x="1236.8088" y="186.7889">Model already learned:</text><ellipse cx="1253.9963" cy="216.7999" fill="#000000" rx="7.8125" ry="7.8125"/><text fill="#000000" font-family="Verdana" font-size="37.5" lengthAdjust="spacing" textLength="588.2813" x="1274.3088" y="232.3639">Edges &amp; textures (early layers)</text><ellipse cx="1253.9963" cy="262.3749" fill="#000000" rx="7.8125" ry="7.8125"/><text fill="#000000" font-family="Verdana" font-size="37.5" lengthAdjust="spacing" textLength="647.2229" x="1274.3088" y="277.9388">Shapes &amp; patterns (middle layers)</text><ellipse cx="1253.9963" cy="307.9498" fill="#000000" rx="7.8125" ry="7.8125"/><text fill="#000000" font-family="Verdana" font-size="37.5" lengthAdjust="spacing" textLength="590.4602" x="1274.3088" y="323.5138">Complex features (later layers)</text><rect fill="#FFFFFF" height="199.2249" rx="39.0625" ry="39.0625" style="stroke:#000000;stroke-width:3.125;" width="832.843" x="322.7158" y="140.625"/><text fill="#000000" font-family="Verdana" font-size="37.5" lengthAdjust="spacing" textLength="437.2559" x="353.9658" y="209.5764">Load Pre-trained Model</text><text fill="#000000" font-family="Verdana" font-size="37.5" lengthAdjust="spacing" textLength="770.343" x="353.9658" y="255.1514">(e.g., ResNet50, MobileNet, EfficientNet)</text><text fill="#000000" font-family="Verdana" font-size="37.5" lengthAdjust="spacing" textLength="391.5344" x="353.9658" y="300.7263">trained on ImageNet</text><rect fill="#FFFFFF" height="153.6499" rx="39.0625" ry="39.0625" style="stroke:#000000;stroke-width:3.125;" width="713.4583" x="382.4081" y="409.5123"/><text fill="#000000" font-family="Verdana" font-size="37.5" lengthAdjust="spacing" textLength="610.3455" x="413.6581" y="478.4637">Remove Top Classification Layer</text><text fill="#000000" font-family="Verdana" font-size="37.5" lengthAdjust="spacing" textLength="650.9583" x="413.6581" y="524.0387">(Original: 1000 ImageNet classes)</text><path d="M1131.5048,594.4122 L1131.5048,711.4746 L1069.0048,723.9746 L1131.5048,736.4746 L1131.5048,853.537 A0,0 0 0 0 1131.5048,853.537 L1699.0402,853.537 A0,0 0 0 0 1699.0402,853.537 L1699.0402,625.6622 L1667.7902,594.4122 L1131.5048,594.4122 A0,0 0 0 0 1131.5048,594.4122" fill="#FFFFFF" style="stroke:#000000;stroke-width:3.125;"/><path d="M1667.7902,594.4122 L1667.7902,625.6622 L1699.0402,625.6622 L1667.7902,594.4122" fill="#FFFFFF" style="stroke:#000000;stroke-width:3.125;"/><text fill="#000000" font-family="Verdana" font-size="37.5" lengthAdjust="spacing" textLength="501.9104" x="1150.2548" y="647.7386">Example for Cats vs Dogs:</text><ellipse cx="1167.4423" cy="677.7496" fill="#000000" rx="7.8125" ry="7.8125"/><text fill="#000000" font-family="Verdana" font-size="37.5" lengthAdjust="spacing" textLength="434.8755" x="1187.7548" y="693.3136">Global Average Pooling</text><ellipse cx="1167.4423" cy="723.3246" fill="#000000" rx="7.8125" ry="7.8125"/><text fill="#000000" font-family="Verdana" font-size="37.5" lengthAdjust="spacing" textLength="447.3816" x="1187.7548" y="738.8885">Dense layer (256 units)</text><ellipse cx="1167.4423" cy="768.8995" fill="#000000" rx="7.8125" ry="7.8125"/><text fill="#000000" font-family="Verdana" font-size="37.5" lengthAdjust="spacing" textLength="260.8521" x="1187.7548" y="784.4635">Dropout (0.5)</text><ellipse cx="1167.4423" cy="814.4745" fill="#000000" rx="7.8125" ry="7.8125"/><text fill="#000000" font-family="Verdana" font-size="37.5" lengthAdjust="spacing" textLength="453.9917" x="1187.7548" y="830.0385">Output layer (2 classes)</text><rect fill="#FFFFFF" height="153.6499" rx="39.0625" ry="39.0625" style="stroke:#000000;stroke-width:3.125;" width="659.7351" x="409.2697" y="647.1497"/><text fill="#000000" font-family="Verdana" font-size="37.5" lengthAdjust="spacing" textLength="597.2351" x="440.5197" y="716.1011">Add Custom Classification Head</text><text fill="#000000" font-family="Verdana" font-size="37.5" lengthAdjust="spacing" textLength="251.239" x="440.5197" y="761.676">for Your Task</text><rect fill="#FFFFFF" height="1224.4995" style="stroke:#000000;stroke-width:3.125;" width="1491.7297" x="18.75" y="884.787"/><path d="M574.7253,884.787 L574.7253,908.4869 L543.4753,939.7369 L18.75,939.7369" fill="none" style="stroke:#000000;stroke-width:3.125;"/><text fill="#000000" font-family="Verdana" font-size="37.5" lengthAdjust="spacing" textLength="524.7253" x="28.125" y="925.6134">Phase 1: Feature Extraction</text><rect fill="#FFFFFF" height="153.6499" rx="39.0625" ry="39.0625" style="stroke:#000000;stroke-width:3.125;" width="622.1069" x="428.0838" y="992.8619"/><text fill="#000000" font-family="Verdana" font-size="37.5" lengthAdjust="spacing" textLength="547.1558" x="459.3338" y="1061.8134">Freeze All Base Model Layers</text><text fill="#000000" font-family="Verdana" font-size="37.5" lengthAdjust="spacing" textLength="559.6069" x="459.3338" y="1107.3883">base_model.trainable = False</text><rect fill="#FFFFFF" height="199.2249" rx="39.0625" ry="39.0625" style="stroke:#000000;stroke-width:3.125;" width="461.3403" x="508.4671" y="1209.0118"/><text fill="#000000" font-family="Verdana" font-size="37.5" lengthAdjust="spacing" textLength="367.9138" x="539.7171" y="1277.9633">Compile Model with</text><text fill="#000000" font-family="Verdana" font-size="37.5" lengthAdjust="spacing" textLength="398.8403" x="539.7171" y="1323.5382">Higher Learning Rate</text><text fill="#000000" font-family="Verdana" font-size="37.5" lengthAdjust="spacing" textLength="220.9167" x="539.7171" y="1369.1132">(e.g., 1e-3)</text><rect fill="#FFFFFF" height="153.6499" rx="39.0625" ry="39.0625" style="stroke:#000000;stroke-width:3.125;" width="523.3032" x="477.4857" y="1470.7367"/><text fill="#000000" font-family="Verdana" font-size="37.5" lengthAdjust="spacing" textLength="460.8032" x="508.7357" y="1539.6881">Train Only Custom Head</text><text fill="#000000" font-family="Verdana" font-size="37.5" lengthAdjust="spacing" textLength="267.0593" x="508.7357" y="1585.2631">(5-10 epochs)</text><rect fill="#FFFFFF" height="108.075" rx="39.0625" ry="39.0625" style="stroke:#000000;stroke-width:3.125;" width="475.2747" x="501.4999" y="1686.8866"/><text fill="#000000" font-family="Verdana" font-size="37.5" lengthAdjust="spacing" textLength="412.7747" x="532.7499" y="1755.838">Evaluate Performance</text><polygon fill="#FFFFFF" points="501.7136,1857.4615,976.561,1857.4615,1014.061,1894.9615,976.561,1932.4615,501.7136,1932.4615,464.2136,1894.9615,501.7136,1857.4615" style="stroke:#000000;stroke-width:3.125;"/><text fill="#000000" font-family="Verdana" font-size="37.5" lengthAdjust="spacing" textLength="474.8474" x="501.7136" y="1909.8755">Performance Acceptable?</text><text fill="#000000" font-family="Verdana" font-size="37.5" lengthAdjust="spacing" textLength="64.0686" x="400.145" y="1887.088">yes</text><text fill="#000000" font-family="Verdana" font-size="37.5" lengthAdjust="spacing" textLength="46.4905" x="1014.061" y="1887.088">no</text><rect fill="#FFFFFF" height="108.075" rx="39.0625" ry="39.0625" style="stroke:#000000;stroke-width:3.125;" width="638.6597" x="56.25" y="1963.7115"/><text fill="#000000" font-family="Verdana" font-size="37.5" lengthAdjust="spacing" textLength="576.1597" x="87.5" y="2032.663">Save Feature Extraction Model</text><rect fill="#FFFFFF" height="108.075" rx="39.0625" ry="39.0625" style="stroke:#000000;stroke-width:3.125;" width="690.5701" x="757.4097" y="1963.7115"/><text fill="#000000" font-family="Verdana" font-size="37.5" lengthAdjust="spacing" textLength="628.0701" x="788.6597" y="2032.663">Adjust Custom Head Architecture</text><rect fill="#FFFFFF" height="1925.6866" style="stroke:#000000;stroke-width:3.125;" width="1528.8452" x="166.0233" y="2140.5365"/><path d="M598.1461,2140.5365 L598.1461,2164.2365 L566.8961,2195.4865 L166.0233,2195.4865" fill="none" style="stroke:#000000;stroke-width:3.125;"/><text fill="#000000" font-family="Verdana" font-size="37.5" lengthAdjust="spacing" textLength="400.8728" x="175.3983" y="2181.3629">Phase 2: Fine-Tuning</text><rect fill="#FFFFFF" height="153.6499" rx="39.0625" ry="39.0625" style="stroke:#000000;stroke-width:3.125;" width="611.0474" x="433.6136" y="2248.6115"/><text fill="#000000" font-family="Verdana" font-size="37.5" lengthAdjust="spacing" textLength="393.9148" x="464.8636" y="2317.5629">Unfreeze Base Model</text><text fill="#000000" font-family="Verdana" font-size="37.5" lengthAdjust="spacing" textLength="548.5474" x="464.8636" y="2363.1378">base_model.trainable = True</text><path d="M1136.6776,2457.5989 L1136.6776,2529.0863 L1074.1776,2541.5863 L1136.6776,2554.0863 L1136.6776,2625.5737 A0,0 0 0 0 1136.6776,2625.5737 L1570.3262,2625.5737 A0,0 0 0 0 1570.3262,2625.5737 L1570.3262,2488.8489 L1539.0762,2457.5989 L1136.6776,2457.5989 A0,0 0 0 0 1136.6776,2457.5989" fill="#FFFFFF" style="stroke:#000000;stroke-width:3.125;"/><path d="M1539.0762,2457.5989 L1539.0762,2488.8489 L1570.3262,2488.8489 L1539.0762,2457.5989" fill="#FFFFFF" style="stroke:#000000;stroke-width:3.125;"/><text fill="#000000" font-family="Verdana" font-size="37.5" lengthAdjust="spacing" textLength="338.324" x="1155.4276" y="2510.9253">Choose based on:</text><ellipse cx="1172.6151" cy="2540.9363" fill="#000000" rx="7.8125" ry="7.8125"/><text fill="#000000" font-family="Verdana" font-size="37.5" lengthAdjust="spacing" textLength="230.4199" x="1192.9276" y="2556.5002">Dataset size</text><ellipse cx="1172.6151" cy="2586.5112" fill="#000000" rx="7.8125" ry="7.8125"/><text fill="#000000" font-family="Verdana" font-size="37.5" lengthAdjust="spacing" textLength="330.5237" x="1192.9276" y="2602.0752">Domain similarity</text><rect fill="#FFFFFF" height="153.6499" rx="39.0625" ry="39.0625" style="stroke:#000000;stroke-width:3.125;" width="670.0806" x="404.097" y="2464.7614"/><text fill="#000000" font-family="Verdana" font-size="37.5" lengthAdjust="spacing" textLength="607.5806" x="435.347" y="2533.7128">Calculate Fine-Tune Cutoff Point</text><text fill="#000000" font-family="Verdana" font-size="37.5" lengthAdjust="spacing" textLength="583.7219" x="435.347" y="2579.2877">fine_tune_at = len(layers) // 2</text><rect fill="#FFFFFF" height="153.6499" rx="39.0625" ry="39.0625" style="stroke:#000000;stroke-width:3.125;" width="798.3459" x="339.9643" y="2688.0737"/><text fill="#000000" font-family="Verdana" font-size="37.5" lengthAdjust="spacing" textLength="386.7737" x="371.2143" y="2757.0251">Freeze Lower Layers</text><text fill="#000000" font-family="Verdana" font-size="37.5" lengthAdjust="spacing" textLength="735.8459" x="371.2143" y="2802.6001">layers[:fine_tune_at].trainable = False</text><rect fill="#FFFFFF" height="153.6499" rx="39.0625" ry="39.0625" style="stroke:#000000;stroke-width:3.125;" width="491.9373" x="493.1686" y="2904.2236"/><text fill="#000000" font-family="Verdana" font-size="37.5" lengthAdjust="spacing" textLength="429.4373" x="524.4186" y="2973.175">Unfreeze Upper Layers</text><text fill="#000000" font-family="Verdana" font-size="37.5" lengthAdjust="spacing" textLength="391.7175" x="524.4186" y="3018.75">(High-level features)</text><path d="M1026.6861,3158.786 L1026.6861,3207.486 L964.1861,3219.986 L1026.6861,3232.486 L1026.6861,3281.1859 A0,0 0 0 0 1026.6861,3281.1859 L1663.6185,3281.1859 A0,0 0 0 0 1663.6185,3281.1859 L1663.6185,3190.036 L1632.3685,3158.786 L1026.6861,3158.786 A0,0 0 0 0 1026.6861,3158.786" fill="#FFFFFF" style="stroke:#000000;stroke-width:3.125;"/><path d="M1632.3685,3158.786 L1632.3685,3190.036 L1663.6185,3190.036 L1632.3685,3158.786" fill="#FFFFFF" style="stroke:#000000;stroke-width:3.125;"/><text fill="#000000" font-family="Verdana" font-size="37.5" lengthAdjust="spacing" textLength="350.2625" x="1045.4361" y="3212.1124">Lower LR prevents</text><text fill="#000000" font-family="Verdana" font-size="37.5" lengthAdjust="spacing" textLength="571.3074" x="1045.4361" y="3257.6874">disrupting pre-trained weights</text><rect fill="#FFFFFF" height="199.2249" rx="39.0625" ry="39.0625" style="stroke:#000000;stroke-width:3.125;" width="450.0977" x="514.0884" y="3120.3735"/><text fill="#000000" font-family="Verdana" font-size="37.5" lengthAdjust="spacing" textLength="367.9138" x="545.3384" y="3189.325">Compile Model with</text><text fill="#000000" font-family="Verdana" font-size="37.5" lengthAdjust="spacing" textLength="387.5977" x="545.3384" y="3234.8999">Lower Learning Rate</text><text fill="#000000" font-family="Verdana" font-size="37.5" lengthAdjust="spacing" textLength="220.9167" x="545.3384" y="3280.4749">(e.g., 1e-5)</text><rect fill="#FFFFFF" height="153.6499" rx="39.0625" ry="39.0625" style="stroke:#000000;stroke-width:3.125;" width="373.8892" x="552.1927" y="3382.0984"/><text fill="#000000" font-family="Verdana" font-size="37.5" lengthAdjust="spacing" textLength="311.3892" x="583.4427" y="3451.0498">Fine-Tune Model</text><text fill="#000000" font-family="Verdana" font-size="37.5" lengthAdjust="spacing" textLength="290.8997" x="583.4427" y="3496.6248">(10-20 epochs)</text><rect fill="#FFFFFF" height="108.075" rx="39.0625" ry="39.0625" style="stroke:#000000;stroke-width:3.125;" width="551.062" x="463.6063" y="3598.2483"/><text fill="#000000" font-family="Verdana" font-size="37.5" lengthAdjust="spacing" textLength="488.562" x="494.8563" y="3667.1997">Monitor Validation Metrics</text><polygon fill="#FFFFFF" points="537.9044,3768.8232,940.3702,3768.8232,977.8702,3806.3232,940.3702,3843.8232,537.9044,3843.8232,500.4044,3806.3232,537.9044,3768.8232" style="stroke:#000000;stroke-width:3.125;"/><text fill="#000000" font-family="Verdana" font-size="37.5" lengthAdjust="spacing" textLength="402.4658" x="537.9044" y="3821.2372">Overfitting Detected?</text><text fill="#000000" font-family="Verdana" font-size="37.5" lengthAdjust="spacing" textLength="64.0686" x="436.3358" y="3798.4497">yes</text><text fill="#000000" font-family="Verdana" font-size="37.5" lengthAdjust="spacing" textLength="46.4905" x="977.8702" y="3798.4497">no</text><rect fill="#FFFFFF" height="153.6499" rx="39.0625" ry="39.0625" style="stroke:#000000;stroke-width:3.125;" width="481.2622" x="228.5233" y="3875.0732"/><text fill="#000000" font-family="Verdana" font-size="37.5" lengthAdjust="spacing" textLength="418.7622" x="259.7733" y="3944.0247">Freeze More Layers or</text><text fill="#000000" font-family="Verdana" font-size="37.5" lengthAdjust="spacing" textLength="353.9429" x="259.7733" y="3989.5996">Add Regularization</text><rect fill="#FFFFFF" height="108.075" rx="39.0625" ry="39.0625" style="stroke:#000000;stroke-width:3.125;" width="396.2646" x="810.9879" y="3875.0732"/><text fill="#000000" font-family="Verdana" font-size="37.5" lengthAdjust="spacing" textLength="333.7646" x="842.2379" y="3944.0247">Continue Training</text><rect fill="#FFFFFF" height="682.2998" style="stroke:#000000;stroke-width:3.125;" width="1670.7947" x="88.633" y="4097.4731"/><path d="M608.5182,4097.4731 L608.5182,4121.1731 L577.2682,4152.4231 L88.633,4152.4231" fill="none" style="stroke:#000000;stroke-width:3.125;"/><text fill="#000000" font-family="Verdana" font-size="37.5" lengthAdjust="spacing" textLength="488.6353" x="98.008" y="4138.2996">Evaluation &amp; Optimization</text><rect fill="#FFFFFF" height="108.075" rx="39.0625" ry="39.0625" style="stroke:#000000;stroke-width:3.125;" width="453.1372" x="512.5687" y="4205.5481"/><text fill="#000000" font-family="Verdana" font-size="37.5" lengthAdjust="spacing" textLength="390.6372" x="543.8187" y="4274.4995">Evaluate on Test Set</text><polygon fill="#FFFFFF" points="491.6977,4376.123,986.5768,4376.123,1024.0768,4413.623,986.5768,4451.123,491.6977,4451.123,454.1977,4413.623,491.6977,4376.123" style="stroke:#000000;stroke-width:3.125;"/><text fill="#000000" font-family="Verdana" font-size="37.5" lengthAdjust="spacing" textLength="494.8792" x="491.6977" y="4428.537">Performance Satisfactory?</text><text fill="#000000" font-family="Verdana" font-size="37.5" lengthAdjust="spacing" textLength="64.0686" x="390.1291" y="4405.7495">yes</text><text fill="#000000" font-family="Verdana" font-size="37.5" lengthAdjust="spacing" textLength="46.4905" x="1024.0768" y="4405.7495">no</text><rect fill="#FFFFFF" height="108.075" rx="39.0625" ry="39.0625" style="stroke:#000000;stroke-width:3.125;" width="380.2979" x="151.133" y="4482.373"/><text fill="#000000" font-family="Verdana" font-size="37.5" lengthAdjust="spacing" textLength="317.7979" x="182.383" y="4551.3245">Save Final Model</text><polygon fill="#FFFFFF" points="1015.1176,4482.373,1258.8676,4482.373,1296.3676,4519.873,1258.8676,4557.373,1015.1176,4557.373,977.6176,4519.873,1015.1176,4482.373" style="stroke:#000000;stroke-width:3.125;"/><text fill="#000000" font-family="Verdana" font-size="37.5" lengthAdjust="spacing" textLength="243.75" x="1015.1176" y="4534.787">Underfitting?</text><text fill="#000000" font-family="Verdana" font-size="37.5" lengthAdjust="spacing" textLength="64.0686" x="913.549" y="4511.9995">yes</text><text fill="#000000" font-family="Verdana" font-size="37.5" lengthAdjust="spacing" textLength="220.9167" x="1296.3676" y="4511.9995">Overfitting?</text><rect fill="#FFFFFF" height="108.075" rx="39.0625" ry="39.0625" style="stroke:#000000;stroke-width:3.125;" width="472.1252" x="625.1808" y="4588.623"/><text fill="#000000" font-family="Verdana" font-size="37.5" lengthAdjust="spacing" textLength="409.6252" x="656.4308" y="4657.5745">Unfreeze More Layers</text><rect fill="#FFFFFF" height="153.6499" rx="39.0625" ry="39.0625" style="stroke:#000000;stroke-width:3.125;" width="505.8716" x="1159.8061" y="4588.623"/><text fill="#000000" font-family="Verdana" font-size="37.5" lengthAdjust="spacing" textLength="418.7622" x="1191.0561" y="4657.5745">Freeze More Layers or</text><text fill="#000000" font-family="Verdana" font-size="37.5" lengthAdjust="spacing" textLength="443.3716" x="1191.0561" y="4703.1494">Increase Regularization</text><rect fill="#FFFFFF" height="108.075" rx="39.0625" ry="39.0625" style="stroke:#000000;stroke-width:3.125;" width="573.1812" x="452.5467" y="4842.2729"/><text fill="#000000" font-family="Verdana" font-size="37.5" lengthAdjust="spacing" textLength="510.6812" x="483.7967" y="4911.2244">Deploy Model for Inference</text><ellipse cx="739.1373" cy="5047.2229" fill="none" rx="34.375" ry="34.375" style="stroke:#000000;stroke-width:3.125;"/><ellipse cx="739.1373" cy="5047.2229" fill="#FFFFFF" rx="18.75" ry="18.75" style="stroke:#000000;stroke-width:3.125;"/><line style="stroke:#000000;stroke-width:3.125;" x1="739.1373" x2="739.1373" y1="78.125" y2="140.625"/><polygon fill="#000000" points="726.6373,109.375,739.1373,140.625,751.6373,109.375,739.1373,121.875" style="stroke:#000000;stroke-width:3.125;"/><line style="stroke:#000000;stroke-width:3.125;" x1="739.1373" x2="739.1373" y1="339.8499" y2="409.5123"/><polygon fill="#000000" points="726.6373,378.2623,739.1373,409.5123,751.6373,378.2623,739.1373,390.7623" style="stroke:#000000;stroke-width:3.125;"/><line style="stroke:#000000;stroke-width:3.125;" x1="739.1373" x2="739.1373" y1="563.1622" y2="647.1497"/><polygon fill="#000000" points="726.6373,615.8997,739.1373,647.1497,751.6373,615.8997,739.1373,628.3997" style="stroke:#000000;stroke-width:3.125;"/><line style="stroke:#000000;stroke-width:3.125;" x1="739.1373" x2="739.1373" y1="1146.5118" y2="1209.0118"/><polygon fill="#000000" points="726.6373,1177.7618,739.1373,1209.0118,751.6373,1177.7618,739.1373,1190.2618" style="stroke:#000000;stroke-width:3.125;"/><line style="stroke:#000000;stroke-width:3.125;" x1="739.1373" x2="739.1373" y1="1408.2367" y2="1470.7367"/><polygon fill="#000000" points="726.6373,1439.4867,739.1373,1470.7367,751.6373,1439.4867,739.1373,1451.9867" style="stroke:#000000;stroke-width:3.125;"/><line style="stroke:#000000;stroke-width:3.125;" x1="739.1373" x2="739.1373" y1="1624.3866" y2="1686.8866"/><polygon fill="#000000" points="726.6373,1655.6366,739.1373,1686.8866,751.6373,1655.6366,739.1373,1668.1366" style="stroke:#000000;stroke-width:3.125;"/><line style="stroke:#000000;stroke-width:3.125;" x1="464.2136" x2="375.5798" y1="1894.9615" y2="1894.9615"/><line style="stroke:#000000;stroke-width:3.125;" x1="375.5798" x2="375.5798" y1="1894.9615" y2="1963.7115"/><polygon fill="#000000" points="363.0798,1932.4615,375.5798,1963.7115,388.0798,1932.4615,375.5798,1944.9615" style="stroke:#000000;stroke-width:3.125;"/><line style="stroke:#000000;stroke-width:3.125;" x1="1014.061" x2="1102.6947" y1="1894.9615" y2="1894.9615"/><line style="stroke:#000000;stroke-width:3.125;" x1="1102.6947" x2="1102.6947" y1="1894.9615" y2="1963.7115"/><polygon fill="#000000" points="1090.1947,1932.4615,1102.6947,1963.7115,1115.1947,1932.4615,1102.6947,1944.9615" style="stroke:#000000;stroke-width:3.125;"/><line style="stroke:#000000;stroke-width:3.125;" x1="375.5798" x2="375.5798" y1="2071.7865" y2="2087.4115"/><line style="stroke:#000000;stroke-width:3.125;" x1="375.5798" x2="739.1373" y1="2087.4115" y2="2087.4115"/><line style="stroke:#000000;stroke-width:3.125;" x1="739.1373" x2="739.1373" y1="2087.4115" y2="2248.6115"/><polygon fill="#000000" points="726.6373,2217.3615,739.1373,2248.6115,751.6373,2217.3615,739.1373,2229.8615" style="stroke:#000000;stroke-width:3.125;"/><line style="stroke:#000000;stroke-width:3.125;" x1="739.1373" x2="739.1373" y1="1794.9615" y2="1857.4615"/><polygon fill="#000000" points="726.6373,1826.2115,739.1373,1857.4615,751.6373,1826.2115,739.1373,1838.7115" style="stroke:#000000;stroke-width:3.125;"/><line style="stroke:#000000;stroke-width:3.125;" x1="739.1373" x2="739.1373" y1="800.7996" y2="992.8619"/><polygon fill="#000000" points="726.6373,961.6119,739.1373,992.8619,751.6373,961.6119,739.1373,974.1119" style="stroke:#000000;stroke-width:3.125;"/><line style="stroke:#000000;stroke-width:3.125;" x1="739.1373" x2="739.1373" y1="2402.2614" y2="2464.7614"/><polygon fill="#000000" points="726.6373,2433.5114,739.1373,2464.7614,751.6373,2433.5114,739.1373,2446.0114" style="stroke:#000000;stroke-width:3.125;"/><line style="stroke:#000000;stroke-width:3.125;" x1="739.1373" x2="739.1373" y1="2618.4113" y2="2688.0737"/><polygon fill="#000000" points="726.6373,2656.8237,739.1373,2688.0737,751.6373,2656.8237,739.1373,2669.3237" style="stroke:#000000;stroke-width:3.125;"/><line style="stroke:#000000;stroke-width:3.125;" x1="739.1373" x2="739.1373" y1="2841.7236" y2="2904.2236"/><polygon fill="#000000" points="726.6373,2872.9736,739.1373,2904.2236,751.6373,2872.9736,739.1373,2885.4736" style="stroke:#000000;stroke-width:3.125;"/><line style="stroke:#000000;stroke-width:3.125;" x1="739.1373" x2="739.1373" y1="3057.8735" y2="3120.3735"/><polygon fill="#000000" points="726.6373,3089.1235,739.1373,3120.3735,751.6373,3089.1235,739.1373,3101.6235" style="stroke:#000000;stroke-width:3.125;"/><line style="stroke:#000000;stroke-width:3.125;" x1="739.1373" x2="739.1373" y1="3319.5984" y2="3382.0984"/><polygon fill="#000000" points="726.6373,3350.8484,739.1373,3382.0984,751.6373,3350.8484,739.1373,3363.3484" style="stroke:#000000;stroke-width:3.125;"/><line style="stroke:#000000;stroke-width:3.125;" x1="739.1373" x2="739.1373" y1="3535.7483" y2="3598.2483"/><polygon fill="#000000" points="726.6373,3566.9983,739.1373,3598.2483,751.6373,3566.9983,739.1373,3579.4983" style="stroke:#000000;stroke-width:3.125;"/><line style="stroke:#000000;stroke-width:3.125;" x1="500.4044" x2="469.1544" y1="3806.3232" y2="3806.3232"/><line style="stroke:#000000;stroke-width:3.125;" x1="469.1544" x2="469.1544" y1="3806.3232" y2="3875.0732"/><polygon fill="#000000" points="456.6544,3843.8232,469.1544,3875.0732,481.6544,3843.8232,469.1544,3856.3232" style="stroke:#000000;stroke-width:3.125;"/><line style="stroke:#000000;stroke-width:3.125;" x1="977.8702" x2="1009.1202" y1="3806.3232" y2="3806.3232"/><line style="stroke:#000000;stroke-width:3.125;" x1="1009.1202" x2="1009.1202" y1="3806.3232" y2="3875.0732"/><polygon fill="#000000" points="996.6202,3843.8232,1009.1202,3875.0732,1021.6202,3843.8232,1009.1202,3856.3232" style="stroke:#000000;stroke-width:3.125;"/><line style="stroke:#000000;stroke-width:3.125;" x1="1009.1202" x2="1009.1202" y1="3983.1482" y2="4044.3481"/><line style="stroke:#000000;stroke-width:3.125;" x1="1009.1202" x2="739.1373" y1="4044.3481" y2="4044.3481"/><line style="stroke:#000000;stroke-width:3.125;" x1="739.1373" x2="739.1373" y1="4044.3481" y2="4205.5481"/><polygon fill="#000000" points="726.6373,4174.2981,739.1373,4205.5481,751.6373,4174.2981,739.1373,4186.7981" style="stroke:#000000;stroke-width:3.125;"/><line style="stroke:#000000;stroke-width:3.125;" x1="739.1373" x2="739.1373" y1="3706.3232" y2="3768.8232"/><polygon fill="#000000" points="726.6373,3737.5732,739.1373,3768.8232,751.6373,3737.5732,739.1373,3750.0732" style="stroke:#000000;stroke-width:3.125;"/><line style="stroke:#000000;stroke-width:3.125;" x1="977.6176" x2="861.2434" y1="4519.873" y2="4519.873"/><line style="stroke:#000000;stroke-width:3.125;" x1="861.2434" x2="861.2434" y1="4519.873" y2="4588.623"/><polygon fill="#000000" points="848.7434,4557.373,861.2434,4588.623,873.7434,4557.373,861.2434,4569.873" style="stroke:#000000;stroke-width:3.125;"/><line style="stroke:#000000;stroke-width:3.125;" x1="1296.3676" x2="1412.7419" y1="4519.873" y2="4519.873"/><line style="stroke:#000000;stroke-width:3.125;" x1="1412.7419" x2="1412.7419" y1="4519.873" y2="4588.623"/><polygon fill="#000000" points="1400.2419,4557.373,1412.7419,4588.623,1425.2419,4557.373,1412.7419,4569.873" style="stroke:#000000;stroke-width:3.125;"/><line style="stroke:#000000;stroke-width:3.125;" x1="454.1977" x2="341.2819" y1="4413.623" y2="4413.623"/><line style="stroke:#000000;stroke-width:3.125;" x1="341.2819" x2="341.2819" y1="4413.623" y2="4482.373"/><polygon fill="#000000" points="328.7819,4451.123,341.2819,4482.373,353.7819,4451.123,341.2819,4463.623" style="stroke:#000000;stroke-width:3.125;"/><line style="stroke:#000000;stroke-width:3.125;" x1="1024.0768" x2="1136.9926" y1="4413.623" y2="4413.623"/><line style="stroke:#000000;stroke-width:3.125;" x1="1136.9926" x2="1136.9926" y1="4413.623" y2="4482.373"/><polygon fill="#000000" points="1124.4926,4451.123,1136.9926,4482.373,1149.4926,4451.123,1136.9926,4463.623" style="stroke:#000000;stroke-width:3.125;"/><line style="stroke:#000000;stroke-width:3.125;" x1="341.2819" x2="341.2819" y1="4590.448" y2="4757.8979"/><line style="stroke:#000000;stroke-width:3.125;" x1="341.2819" x2="739.1373" y1="4757.8979" y2="4757.8979"/><line style="stroke:#000000;stroke-width:3.125;" x1="739.1373" x2="739.1373" y1="4757.8979" y2="4842.2729"/><polygon fill="#000000" points="726.6373,4811.0229,739.1373,4842.2729,751.6373,4811.0229,739.1373,4823.5229" style="stroke:#000000;stroke-width:3.125;"/><line style="stroke:#000000;stroke-width:3.125;" x1="739.1373" x2="739.1373" y1="4313.623" y2="4376.123"/><polygon fill="#000000" points="726.6373,4344.873,739.1373,4376.123,751.6373,4344.873,739.1373,4357.373" style="stroke:#000000;stroke-width:3.125;"/><line style="stroke:#000000;stroke-width:3.125;" x1="739.1373" x2="739.1373" y1="4950.3479" y2="5012.8479"/><polygon fill="#000000" points="726.6373,4981.5979,739.1373,5012.8479,751.6373,4981.5979,739.1373,4994.0979" style="stroke:#000000;stroke-width:3.125;"/><!--SRC=[VLPHZzf647xthvZa8JNLSG4Y-W2g8WfS4eaxJi0bgghgDDXZsDvwrzfTmv6e_xspjd5y7FJDpCn-E_FDDxEyYIaHYc0n7Qz6TvzcKuWaMXi4zace30sciCReQMDqhk98IsrWlnME6dwxnLZlXTf0Wj8sFOoDkNGtMhaxJ0b6Hg0yxr-AxmJTNjEP2VZGwGJ1BquuIR0og6n21cQ4Hldhlcdpb4YzXuIp-fBYXc3ianU9YD09hO8tRajyRoPHA2x9eN51C9XfZE7UKDiPjbCCjpec6OHqlRc-WWNPEtBzpXMRrq8I_xY2QSAOWhWESgtWU4whybes3eD0QKTWn6Rh0YWX0QKXZ0yWVSeK3zZnAqpZ3Lbu1uwUNMxuCsIlv20yaB6j8cQvnQm8oj0vCeg3KX77J4CpQgpJJD8p98GLaaIEhcD8nU2pufeNbEeTawYp4uvWveE3SCwP2uLo0DrEfrFNLSg1R8iB78pY6CQvTJez1VdCPGQ-3N_gtC0AxTCf8TDdzCaMlHgZix2pCD4RMtBoIUerIXZjoFWstcijkSE5QqBALcL3sEl_1haIhY9WOdIcSmTXvxfVMkQvozXm3A_JRt31yc95-QpVtc-HiRi3k2aPv2ovjv5tleKV33YuCKIip96Ky8UFBVjQS6RPlsRRO-fjruKeSCqb_WutVX2O0GRmFM8LLGVtmctP-fb9QIfvmMrZSwN0BhK_jChJAmyASyNog8WlcERGVhlR0SfqjBLLx7I7CcSWk2V3BAUeeZ87aK3OiC4eYYXpFjMFBU09KH0Ug62KKPR8CdbDHvd_a6E8IuDGwIf-5F_3YJMpup6F_8g8FCImY8h9OUGBvow89FZtJ1Dwt0GUglOgzunKx3-efEJ_9_UNIL-P_CWvoYZter13ycR8dKuILfPGNev-wJqwTZoYuxEIL5XD3Rn_3xq2vuL-0SPRhJaBVxiV_K5XP0sYOui3onliQDAfRviLgP1eX3kKbLVw-wcgcTvx5Hp5L2Rmrw2Psz-NT5LJyv1bJP3GQwijQSTgE-w5rlz8iShXeXBxhNDSLASMa1c-IJbRjbbOasVEusIDzRedVyw-8g7kpR6nORVJxfse-bRpkFFE-8fInEMokILdH6HhRSzvQoJ25VTEo0kFuZFAhaY_rIpiaYxGfd3vlRQWJUwRzRsuurIsBpK_vWTBgBnuauIdRNX1sjL8-kztC6TcqWg_qdSziXom8XwZPV6Il1xP9P-o2O-YDeUBG-lNzwKvzO0FAgw9UWtIr5I3es7bhBau8ZTO_rWZNEOOu8kA-3Nae-UeVdb1GMM3qi64CgaFbNABvrxnNm4gDnnldYpu3m00]--></g></svg>
