<svg xmlns="http://www.w3.org/2000/svg" xmlns:xlink="http://www.w3.org/1999/xlink" contentStyleType="text/css" data-diagram-type="ACTIVITY" height="3343.75px" preserveAspectRatio="none" style="width:5621px;height:3343px;background:#FFFFFF;" version="1.1" viewBox="0 0 5621 3343" width="5621.875px" zoomAndPan="magnify"><defs/><g><ellipse cx="2794.2329" cy="46.875" fill="#FFFFFF" rx="31.25" ry="31.25" style="stroke:#000000;stroke-width:3.125;"/><path d="M3140.4945,109.375 L3140.4945,260.6186 L3077.9945,273.1186 L3140.4945,285.6186 L3140.4945,436.8622 A0,0 0 0 0 3140.4945,436.8622 L3947.6051,436.8622 A0,0 0 0 0 3947.6051,436.8622 L3947.6051,140.625 L3916.3551,109.375 L3140.4945,109.375 A0,0 0 0 0 3140.4945,109.375" fill="#FFFFFF" style="stroke:#000000;stroke-width:3.125;"/><path d="M3916.3551,109.375 L3916.3551,140.625 L3947.6051,140.625 L3916.3551,109.375" fill="#FFFFFF" style="stroke:#000000;stroke-width:3.125;"/><text fill="#000000" font-family="Verdana" font-size="40.625" font-weight="bold" lengthAdjust="spacing" textLength="643.0771" x="3159.2445" y="165.8432">Special Cases of Implication</text><text fill="#000000" font-family="Verdana" font-size="40.625" lengthAdjust="spacing" textLength="699.4125" x="3159.2445" y="215.2161">P &#8594; Q is automatically true when:</text><text fill="#000000" font-family="Verdana" font-size="40.625" lengthAdjust="spacing" textLength="591.4429" x="3159.2445" y="264.5889">&#8226; P is always false (Vacuous)</text><text fill="#000000" font-family="Verdana" font-size="40.625" lengthAdjust="spacing" textLength="540.6616" x="3159.2445" y="313.9618">&#8226; Q is always true (Trivial)</text><text fill="#000000" font-family="Verdana" font-size="40.625" lengthAdjust="spacing" textLength="14.2822" x="3159.2445" y="363.3347">&#160;</text><text fill="#000000" font-family="Verdana" font-size="40.625" lengthAdjust="spacing" textLength="741.4856" x="3159.2445" y="412.7075">These are often the simplest proofs!</text><rect fill="#FFFFFF" height="199.2249" rx="39.0625" ry="39.0625" style="stroke:#000000;stroke-width:3.125;" width="567.5232" x="2510.4713" y="173.5062"/><text fill="#000000" font-family="Verdana" font-size="37.5" lengthAdjust="spacing" textLength="505.0232" x="2541.7213" y="242.4576">Given: Statement to Prove</text><text fill="#000000" font-family="Verdana" font-size="37.5" lengthAdjust="spacing" textLength="115.9973" x="2541.7213" y="288.0325">P &#8594; Q</text><text fill="#000000" font-family="Verdana" font-size="37.5" lengthAdjust="spacing" textLength="239.2822" x="2541.7213" y="333.6075">(If P then Q)</text><polygon fill="#FFFFFF" points="888.0951,499.3622,1320.4681,499.3622,1357.9681,536.8622,1320.4681,574.3622,888.0951,574.3622,850.5951,536.8622,888.0951,499.3622" style="stroke:#000000;stroke-width:3.125;"/><text fill="#000000" font-family="Verdana" font-size="34.375" lengthAdjust="spacing" textLength="309.0561" x="1116.7816" y="608.9218">P is always FALSE</text><text fill="#000000" font-family="Verdana" font-size="34.375" lengthAdjust="spacing" textLength="432.373" x="888.0951" y="550.5333">Analyze the hypothesis P</text><path d="M33.8821,644.8593 L33.8821,972.3465 A0,0 0 0 0 33.8821,972.3465 L696.6431,972.3465 A0,0 0 0 0 696.6431,972.3465 L696.6431,821.1029 L759.1431,808.6029 L696.6431,796.1029 L696.6431,676.1093 L665.3931,644.8593 L33.8821,644.8593 A0,0 0 0 0 33.8821,644.8593" fill="#FFFFFF" style="stroke:#000000;stroke-width:3.125;"/><path d="M665.3931,644.8593 L665.3931,676.1093 L696.6431,676.1093 L665.3931,644.8593" fill="#FFFFFF" style="stroke:#000000;stroke-width:3.125;"/><text fill="#000000" font-family="Verdana" font-size="40.625" font-weight="bold" lengthAdjust="spacing" textLength="330.098" x="52.6321" y="701.3275">Vacuous Truth</text><text fill="#000000" font-family="Verdana" font-size="40.625" lengthAdjust="spacing" textLength="511.9583" x="52.6321" y="750.7004">When P is false, P &#8594; Q is</text><text fill="#000000" font-family="Verdana" font-size="40.625" lengthAdjust="spacing" textLength="597.1359" x="52.6321" y="800.0732">automatically true regardless</text><text fill="#000000" font-family="Verdana" font-size="40.625" lengthAdjust="spacing" textLength="457.4478" x="52.6321" y="849.4461">of the truth value of Q</text><text fill="#000000" font-family="Verdana" font-size="40.625" lengthAdjust="spacing" textLength="14.2822" x="52.6321" y="898.819">&#160;</text><text fill="#000000" font-family="Verdana" font-size="40.625" lengthAdjust="spacing" textLength="491.7847" x="52.6321" y="948.1918">"False implies anything"</text><rect fill="#FFFFFF" height="108.075" rx="39.0625" ry="39.0625" style="stroke:#000000;stroke-width:3.125;" width="690.2771" x="759.1431" y="754.5654"/><text fill="#000000" font-family="Verdana" font-size="37.5" lengthAdjust="spacing" textLength="155.3833" x="790.3931" y="823.5168">This is a</text><text fill="#000000" font-family="Verdana" font-size="37.5" font-weight="bold" lengthAdjust="spacing" textLength="362.0911" x="958.96" y="823.5168">VACUOUS PROOF</text><text fill="#000000" font-family="Verdana" font-size="37.5" lengthAdjust="spacing" textLength="83.9355" x="1334.2346" y="823.5168">case</text><rect fill="#FFFFFF" height="290.3748" rx="39.0625" ry="39.0625" style="stroke:#000000;stroke-width:3.125;" width="795.2881" x="706.6376" y="1034.8465"/><text fill="#000000" font-family="Verdana" font-size="37.5" lengthAdjust="spacing" textLength="529.6326" x="737.8876" y="1103.7979">Show that P is always false:</text><text fill="#000000" font-family="Verdana" font-size="37.5" lengthAdjust="spacing" textLength="522.7112" x="737.8876" y="1149.3729">&#8226; Check domain restrictions</text><text fill="#000000" font-family="Verdana" font-size="37.5" lengthAdjust="spacing" textLength="635.321" x="737.8876" y="1194.9478">&#8226; Verify logical contradictions in P</text><text fill="#000000" font-family="Verdana" font-size="37.5" lengthAdjust="spacing" textLength="665.625" x="737.8876" y="1240.5228">&#8226; Show P violates given constraints</text><text fill="#000000" font-family="Verdana" font-size="37.5" lengthAdjust="spacing" textLength="732.7881" x="737.8876" y="1286.0977">&#8226; Demonstrate P is an empty condition</text><polygon fill="#FFFFFF" points="781.4201,1432.5775,1427.1431,1432.5775,1464.6431,1470.0775,1427.1431,1507.5775,781.4201,1507.5775,743.9201,1470.0775,781.4201,1432.5775" style="stroke:#000000;stroke-width:3.125;"/><text fill="#000000" font-family="Verdana" font-size="34.375" lengthAdjust="spacing" textLength="645.723" x="781.4201" y="1483.7486">Successfully shown P is always false?</text><text fill="#000000" font-family="Verdana" font-size="34.375" lengthAdjust="spacing" textLength="59.5352" x="684.3849" y="1462.8601">Yes</text><text fill="#000000" font-family="Verdana" font-size="34.375" lengthAdjust="spacing" textLength="570.9641" x="1464.6431" y="1462.8601">No - P can be true in some cases</text><path d="M845.3003,1538.8275 L845.3003,1665.3847 L782.8003,1677.8847 L845.3003,1690.3847 L845.3003,1816.9418 A0,0 0 0 0 845.3003,1816.9418 L1468.5669,1816.9418 A0,0 0 0 0 1468.5669,1816.9418 L1468.5669,1570.0775 L1437.3169,1538.8275 L845.3003,1538.8275 A0,0 0 0 0 845.3003,1538.8275" fill="#FFFFFF" style="stroke:#000000;stroke-width:3.125;"/><path d="M1437.3169,1538.8275 L1437.3169,1570.0775 L1468.5669,1570.0775 L1437.3169,1538.8275" fill="#FFFFFF" style="stroke:#000000;stroke-width:3.125;"/><text fill="#000000" font-family="Verdana" font-size="40.625" font-weight="bold" lengthAdjust="spacing" textLength="557.6416" x="864.0503" y="1595.2957">Vacuous Proof Complete</text><text fill="#000000" font-family="Verdana" font-size="40.625" lengthAdjust="spacing" textLength="540.2054" x="864.0503" y="1644.6686">Since P can never be true,</text><text fill="#000000" font-family="Verdana" font-size="40.625" lengthAdjust="spacing" textLength="488.0951" x="864.0503" y="1694.0414">the implication P &#8594; Q is</text><text fill="#000000" font-family="Verdana" font-size="40.625" lengthAdjust="spacing" textLength="456.8527" x="864.0503" y="1743.4143">automatically satisfied</text><text fill="#000000" font-family="Verdana" font-size="40.625" lengthAdjust="spacing" textLength="243.631" x="864.0503" y="1792.7872">for all cases</text><rect fill="#FFFFFF" height="108.075" rx="39.0625" ry="39.0625" style="stroke:#000000;stroke-width:3.125;" width="764.0503" x="18.75" y="1623.8472"/><text fill="#000000" font-family="Verdana" font-size="37.5" lengthAdjust="spacing" textLength="701.5503" x="50" y="1692.7986">Conclude: P &#8594; Q is vacuously true &#8718;</text><ellipse cx="400.7751" cy="1913.8168" fill="none" rx="34.375" ry="34.375" style="stroke:#000000;stroke-width:3.125;"/><ellipse cx="400.7751" cy="1913.8168" fill="#FFFFFF" rx="18.75" ry="18.75" style="stroke:#000000;stroke-width:3.125;"/><rect fill="#FFFFFF" height="153.6499" rx="39.0625" ry="39.0625" style="stroke:#000000;stroke-width:3.125;" width="553.4424" x="1531.0669" y="1538.8275"/><text fill="#000000" font-family="Verdana" font-size="37.5" lengthAdjust="spacing" textLength="382.0679" x="1562.3169" y="1607.7789">P is not always false</text><text fill="#000000" font-family="Verdana" font-size="37.5" lengthAdjust="spacing" textLength="490.9424" x="1562.3169" y="1653.3539">Cannot use vacuous proof</text><polygon fill="#FFFFFF" points="3081.8481,499.3622,3514.7247,499.3622,3552.2247,536.8622,3514.7247,574.3622,3081.8481,574.3622,3044.3481,536.8622,3081.8481,499.3622" style="stroke:#000000;stroke-width:3.125;"/><text fill="#000000" font-family="Verdana" font-size="34.375" lengthAdjust="spacing" textLength="299.7406" x="3310.7864" y="608.9218">Q is always TRUE</text><text fill="#000000" font-family="Verdana" font-size="34.375" lengthAdjust="spacing" textLength="432.8766" x="3081.8481" y="550.5333">Analyze the conclusion Q</text><text fill="#000000" font-family="Verdana" font-size="34.375" lengthAdjust="spacing" textLength="500.2838" x="3552.2247" y="529.6448">P can be true, Q can be false</text><path d="M2178.2593,644.8593 L2178.2593,972.3465 A0,0 0 0 0 2178.2593,972.3465 L2904.0604,972.3465 A0,0 0 0 0 2904.0604,972.3465 L2904.0604,821.1029 L2966.5604,808.6029 L2904.0604,796.1029 L2904.0604,676.1093 L2872.8104,644.8593 L2178.2593,644.8593 A0,0 0 0 0 2178.2593,644.8593" fill="#FFFFFF" style="stroke:#000000;stroke-width:3.125;"/><path d="M2872.8104,644.8593 L2872.8104,676.1093 L2904.0604,676.1093 L2872.8104,644.8593" fill="#FFFFFF" style="stroke:#000000;stroke-width:3.125;"/><text fill="#000000" font-family="Verdana" font-size="40.625" font-weight="bold" lengthAdjust="spacing" textLength="281.2408" x="2197.0093" y="701.3275">Trivial Truth</text><text fill="#000000" font-family="Verdana" font-size="40.625" lengthAdjust="spacing" textLength="660.1761" x="2197.0093" y="750.7004">When Q is always true, P &#8594; Q is</text><text fill="#000000" font-family="Verdana" font-size="40.625" lengthAdjust="spacing" textLength="597.1359" x="2197.0093" y="800.0732">automatically true regardless</text><text fill="#000000" font-family="Verdana" font-size="40.625" lengthAdjust="spacing" textLength="449.9695" x="2197.0093" y="849.4461">of the truth value of P</text><text fill="#000000" font-family="Verdana" font-size="40.625" lengthAdjust="spacing" textLength="14.2822" x="2197.0093" y="898.819">&#160;</text><text fill="#000000" font-family="Verdana" font-size="40.625" lengthAdjust="spacing" textLength="491.6656" x="2197.0093" y="948.1918">"Anything implies truth"</text><rect fill="#FFFFFF" height="108.075" rx="39.0625" ry="39.0625" style="stroke:#000000;stroke-width:3.125;" width="663.4521" x="2966.5604" y="754.5654"/><text fill="#000000" font-family="Verdana" font-size="37.5" lengthAdjust="spacing" textLength="155.3833" x="2997.8104" y="823.5168">This is a</text><text fill="#000000" font-family="Verdana" font-size="37.5" font-weight="bold" lengthAdjust="spacing" textLength="335.2661" x="3166.3773" y="823.5168">TRIVIAL PROOF</text><text fill="#000000" font-family="Verdana" font-size="37.5" lengthAdjust="spacing" textLength="83.9355" x="3514.827" y="823.5168">case</text><rect fill="#FFFFFF" height="290.3748" rx="39.0625" ry="39.0625" style="stroke:#000000;stroke-width:3.125;" width="774.2493" x="2911.1618" y="1034.8465"/><text fill="#000000" font-family="Verdana" font-size="37.5" lengthAdjust="spacing" textLength="525.5127" x="2942.4118" y="1103.7979">Show that Q is always true:</text><text fill="#000000" font-family="Verdana" font-size="37.5" lengthAdjust="spacing" textLength="650.7202" x="2942.4118" y="1149.3729">&#8226; Verify Q holds for all valid inputs</text><text fill="#000000" font-family="Verdana" font-size="37.5" lengthAdjust="spacing" textLength="448.2239" x="2942.4118" y="1194.9478">&#8226; Show Q is a tautology</text><text fill="#000000" font-family="Verdana" font-size="37.5" lengthAdjust="spacing" textLength="711.7493" x="2942.4118" y="1240.5228">&#8226; Demonstrate Q follows from axioms</text><text fill="#000000" font-family="Verdana" font-size="37.5" lengthAdjust="spacing" textLength="543.4021" x="2942.4118" y="1286.0977">&#8226; Prove Q is universally valid</text><polygon fill="#FFFFFF" points="2977.3132,1432.5775,3619.2596,1432.5775,3656.7596,1470.0775,3619.2596,1507.5775,2977.3132,1507.5775,2939.8132,1470.0775,2977.3132,1432.5775" style="stroke:#000000;stroke-width:3.125;"/><text fill="#000000" font-family="Verdana" font-size="34.375" lengthAdjust="spacing" textLength="641.9464" x="2977.3132" y="1483.7486">Successfully shown Q is always true?</text><text fill="#000000" font-family="Verdana" font-size="34.375" lengthAdjust="spacing" textLength="59.5352" x="2880.278" y="1462.8601">Yes</text><text fill="#000000" font-family="Verdana" font-size="34.375" lengthAdjust="spacing" textLength="587.3962" x="3656.7596" y="1462.8601">No - Q can be false in some cases</text><path d="M3063.7337,1538.8275 L3063.7337,1665.3847 L3001.2337,1677.8847 L3063.7337,1690.3847 L3063.7337,1816.9418 A0,0 0 0 0 3063.7337,1816.9418 L3638.1432,1816.9418 A0,0 0 0 0 3638.1432,1816.9418 L3638.1432,1570.0775 L3606.8932,1538.8275 L3063.7337,1538.8275 A0,0 0 0 0 3063.7337,1538.8275" fill="#FFFFFF" style="stroke:#000000;stroke-width:3.125;"/><path d="M3606.8932,1538.8275 L3606.8932,1570.0775 L3638.1432,1570.0775 L3606.8932,1538.8275" fill="#FFFFFF" style="stroke:#000000;stroke-width:3.125;"/><text fill="#000000" font-family="Verdana" font-size="40.625" font-weight="bold" lengthAdjust="spacing" textLength="508.7845" x="3082.4837" y="1595.2957">Trivial Proof Complete</text><text fill="#000000" font-family="Verdana" font-size="40.625" lengthAdjust="spacing" textLength="467.8421" x="3082.4837" y="1644.6686">Since Q is always true,</text><text fill="#000000" font-family="Verdana" font-size="40.625" lengthAdjust="spacing" textLength="488.0951" x="3082.4837" y="1694.0414">the implication P &#8594; Q is</text><text fill="#000000" font-family="Verdana" font-size="40.625" lengthAdjust="spacing" textLength="456.8527" x="3082.4837" y="1743.4143">automatically satisfied</text><text fill="#000000" font-family="Verdana" font-size="40.625" lengthAdjust="spacing" textLength="303.5767" x="3082.4837" y="1792.7872">regardless of P</text><rect fill="#FFFFFF" height="108.075" rx="39.0625" ry="39.0625" style="stroke:#000000;stroke-width:3.125;" width="716.4063" x="2284.8274" y="1623.8472"/><text fill="#000000" font-family="Verdana" font-size="37.5" lengthAdjust="spacing" textLength="653.9063" x="2316.0774" y="1692.7986">Conclude: P &#8594; Q is trivially true &#8718;</text><ellipse cx="2643.0305" cy="1913.8168" fill="none" rx="34.375" ry="34.375" style="stroke:#000000;stroke-width:3.125;"/><ellipse cx="2643.0305" cy="1913.8168" fill="#FFFFFF" rx="18.75" ry="18.75" style="stroke:#000000;stroke-width:3.125;"/><rect fill="#FFFFFF" height="153.6499" rx="39.0625" ry="39.0625" style="stroke:#000000;stroke-width:3.125;" width="505.7983" x="3700.6432" y="1538.8275"/><text fill="#000000" font-family="Verdana" font-size="37.5" lengthAdjust="spacing" textLength="377.948" x="3731.8932" y="1607.7789">Q is not always true</text><text fill="#000000" font-family="Verdana" font-size="37.5" lengthAdjust="spacing" textLength="443.2983" x="3731.8932" y="1653.3539">Cannot use trivial proof</text><path d="M4967.4042,1042.5903 L4967.4042,1193.8339 L4904.9042,1206.3339 L4967.4042,1218.8339 L4967.4042,1370.0775 A0,0 0 0 0 4967.4042,1370.0775 L5600.9659,1370.0775 A0,0 0 0 0 5600.9659,1370.0775 L5600.9659,1073.8403 L5569.7159,1042.5903 L4967.4042,1042.5903 A0,0 0 0 0 4967.4042,1042.5903" fill="#FFFFFF" style="stroke:#000000;stroke-width:3.125;"/><path d="M5569.7159,1042.5903 L5569.7159,1073.8403 L5600.9659,1073.8403 L5569.7159,1042.5903" fill="#FFFFFF" style="stroke:#000000;stroke-width:3.125;"/><text fill="#000000" font-family="Verdana" font-size="40.625" font-weight="bold" lengthAdjust="spacing" textLength="567.9367" x="4986.1542" y="1099.0585">Standard Proof Methods:</text><text fill="#000000" font-family="Verdana" font-size="40.625" lengthAdjust="spacing" textLength="278.1265" x="4986.1542" y="1148.4314">&#8226; Direct proof</text><text fill="#000000" font-family="Verdana" font-size="40.625" lengthAdjust="spacing" textLength="451.12" x="4986.1542" y="1197.8043">&#8226; Contrapositive proof</text><text fill="#000000" font-family="Verdana" font-size="40.625" lengthAdjust="spacing" textLength="484.2072" x="4986.1542" y="1247.1771">&#8226; Proof by contradiction</text><text fill="#000000" font-family="Verdana" font-size="40.625" lengthAdjust="spacing" textLength="509.6176" x="4986.1542" y="1296.55">&#8226; Mathematical induction</text><text fill="#000000" font-family="Verdana" font-size="40.625" lengthAdjust="spacing" textLength="331.8832" x="4986.1542" y="1345.9229">&#8226; Proof by cases</text><rect fill="#FFFFFF" height="153.6499" rx="39.0625" ry="39.0625" style="stroke:#000000;stroke-width:3.125;" width="598.2483" x="4306.6559" y="1129.509"/><text fill="#000000" font-family="Verdana" font-size="37.5" lengthAdjust="spacing" textLength="499.9512" x="4337.9059" y="1198.4604">Neither vacuous nor trivial</text><text fill="#000000" font-family="Verdana" font-size="37.5" lengthAdjust="spacing" textLength="535.7483" x="4337.9059" y="1244.0353">Use standard proof methods</text><ellipse cx="4605.78" cy="1511.8088" fill="none" rx="34.375" ry="34.375" style="stroke:#000000;stroke-width:3.125;"/><ellipse cx="4605.78" cy="1511.8088" fill="#FFFFFF" rx="18.75" ry="18.75" style="stroke:#000000;stroke-width:3.125;"/><rect fill="#FFFFFF" height="108.075" rx="39.0625" ry="39.0625" style="stroke:#000000;stroke-width:3.125;" width="719.6289" x="2434.4185" y="2073.1918"/><text fill="#000000" font-family="Verdana" font-size="37.5" lengthAdjust="spacing" textLength="657.1289" x="2465.6685" y="2142.1432">Check both P and Q more carefully</text><path d="M1269.7868,2212.5168 L1269.7868,2589.3768 L2434.568,2589.3768 L2434.568,2243.7668 L2403.318,2212.5168 L1269.7868,2212.5168" fill="#FFFFFF" style="stroke:#000000;stroke-width:3.125;"/><path d="M2403.318,2212.5168 L2403.318,2243.7668 L2434.568,2243.7668 L2403.318,2212.5168" fill="#FFFFFF" style="stroke:#000000;stroke-width:3.125;"/><text fill="#000000" font-family="Verdana" font-size="40.625" font-weight="bold" lengthAdjust="spacing" textLength="775.9811" x="1288.5368" y="2268.985">When to Look for Vacuous Proofs:</text><text fill="#000000" font-family="Verdana" font-size="40.625" lengthAdjust="spacing" textLength="749.3607" x="1288.5368" y="2318.3578">&#8226; P contains contradictory conditions</text><text fill="#000000" font-family="Verdana" font-size="40.625" lengthAdjust="spacing" textLength="978.9474" x="1288.5368" y="2367.7307">&#8226; P has empty domain or impossible constraints</text><text fill="#000000" font-family="Verdana" font-size="40.625" lengthAdjust="spacing" textLength="1076.4038" x="1288.5368" y="2417.1036">&#8226; P involves division by zero or undefined operations</text><text fill="#000000" font-family="Verdana" font-size="40.625" lengthAdjust="spacing" textLength="1064.3036" x="1288.5368" y="2466.4764">&#8226; P requires satisfying mutually exclusive conditions</text><text fill="#000000" font-family="Verdana" font-size="40.625" lengthAdjust="spacing" textLength="812.6785" x="1288.5368" y="2515.8493">&#8226; Universal statements over empty sets</text><text fill="#000000" font-family="Verdana" font-size="40.625" lengthAdjust="spacing" textLength="1099.1562" x="1288.5368" y="2565.2222">&#8226; Conditional statements with impossible antecedents</text><path d="M3153.8979,2212.5168 L3153.8979,2934.9869 L4315.6242,2934.9869 L4315.6242,2243.7668 L4284.3742,2212.5168 L3153.8979,2212.5168" fill="#FFFFFF" style="stroke:#000000;stroke-width:3.125;"/><path d="M4284.3742,2212.5168 L4284.3742,2243.7668 L4315.6242,2243.7668 L4284.3742,2212.5168" fill="#FFFFFF" style="stroke:#000000;stroke-width:3.125;"/><text fill="#000000" font-family="Verdana" font-size="40.625" font-weight="bold" lengthAdjust="spacing" textLength="234.7641" x="3172.6479" y="2268.985">Examples:</text><text fill="#000000" font-family="Verdana" font-size="40.625" lengthAdjust="spacing" textLength="14.2822" x="3172.6479" y="2318.3578">&#160;</text><text fill="#000000" font-family="Verdana" font-size="40.625" font-weight="bold" lengthAdjust="spacing" textLength="345.0745" x="3172.6479" y="2367.7307">Vacuous Proof:</text><text fill="#000000" font-family="Verdana" font-size="40.625" lengthAdjust="spacing" textLength="1096.1014" x="3172.6479" y="2417.1036">Statement: "If x is both even and odd, then x &gt; 100"</text><text fill="#000000" font-family="Verdana" font-size="40.625" lengthAdjust="spacing" textLength="913.1897" x="3172.6479" y="2466.4764">Proof: No integer can be both even and odd,</text><text fill="#000000" font-family="Verdana" font-size="40.625" lengthAdjust="spacing" textLength="682.9483" x="3172.6479" y="2515.8493">so the hypothesis is always false.</text><text fill="#000000" font-family="Verdana" font-size="40.625" lengthAdjust="spacing" textLength="928.7811" x="3172.6479" y="2565.2222">Therefore, the statement is vacuously true &#8718;</text><text fill="#000000" font-family="Verdana" font-size="40.625" lengthAdjust="spacing" textLength="14.2822" x="3172.6479" y="2614.595">&#160;</text><text fill="#000000" font-family="Verdana" font-size="40.625" font-weight="bold" lengthAdjust="spacing" textLength="296.2173" x="3172.6479" y="2663.9679">Trivial Proof:</text><text fill="#000000" font-family="Verdana" font-size="40.625" lengthAdjust="spacing" textLength="894.722" x="3172.6479" y="2713.3408">Statement: "If n is an integer, then n&#178; &#8805; 0"</text><text fill="#000000" font-family="Verdana" font-size="40.625" lengthAdjust="spacing" textLength="983.0338" x="3172.6479" y="2762.7136">Proof: For any real number (including integers),</text><text fill="#000000" font-family="Verdana" font-size="40.625" lengthAdjust="spacing" textLength="716.1942" x="3172.6479" y="2812.0865">the square is always non-negative.</text><text fill="#000000" font-family="Verdana" font-size="40.625" lengthAdjust="spacing" textLength="672.9706" x="3172.6479" y="2861.4594">Therefore, n&#178; &#8805; 0 is always true,</text><text fill="#000000" font-family="Verdana" font-size="40.625" lengthAdjust="spacing" textLength="768.959" x="3172.6479" y="2910.8322">making the statement trivially true &#8718;</text><polygon fill="#FFFFFF" points="2472.068,2934.9869,3116.3979,2934.9869,3153.8979,2972.4869,3116.3979,3009.9869,2472.068,3009.9869,2434.568,2972.4869,2472.068,2934.9869" style="stroke:#000000;stroke-width:3.125;"/><text fill="#000000" font-family="Verdana" font-size="34.375" lengthAdjust="spacing" textLength="644.3298" x="2472.068" y="2986.158">Re-examine under specific conditions</text><text fill="#000000" font-family="Verdana" font-size="34.375" lengthAdjust="spacing" textLength="323.877" x="2110.6911" y="2965.2695">Found special case</text><text fill="#000000" font-family="Verdana" font-size="34.375" lengthAdjust="spacing" textLength="282.8217" x="3153.8979" y="2965.2695">No special cases</text><rect fill="#FFFFFF" height="153.6499" rx="39.0625" ry="39.0625" style="stroke:#000000;stroke-width:3.125;" width="617.2913" x="2094.6724" y="3041.2369"/><text fill="#000000" font-family="Verdana" font-size="37.5" lengthAdjust="spacing" textLength="554.7913" x="2125.9224" y="3110.1883">Apply vacuous or trivial proof</text><text fill="#000000" font-family="Verdana" font-size="37.5" lengthAdjust="spacing" textLength="359.9487" x="2125.9224" y="3155.7632">to the specific case</text><ellipse cx="2403.318" cy="3291.7618" fill="none" rx="34.375" ry="34.375" style="stroke:#000000;stroke-width:3.125;"/><ellipse cx="2403.318" cy="3291.7618" fill="#FFFFFF" rx="18.75" ry="18.75" style="stroke:#000000;stroke-width:3.125;"/><rect fill="#FFFFFF" height="153.6499" rx="39.0625" ry="39.0625" style="stroke:#000000;stroke-width:3.125;" width="598.2483" x="2886.0237" y="3041.2369"/><text fill="#000000" font-family="Verdana" font-size="37.5" lengthAdjust="spacing" textLength="535.7483" x="2917.2737" y="3110.1883">Use standard proof methods</text><text fill="#000000" font-family="Verdana" font-size="37.5" lengthAdjust="spacing" textLength="376.8677" x="2917.2737" y="3155.7632">for the general case</text><ellipse cx="3185.1479" cy="3291.7618" fill="none" rx="34.375" ry="34.375" style="stroke:#000000;stroke-width:3.125;"/><ellipse cx="3185.1479" cy="3291.7618" fill="#FFFFFF" rx="18.75" ry="18.75" style="stroke:#000000;stroke-width:3.125;"/><line style="stroke:#000000;stroke-width:3.125;" x1="2794.2329" x2="2794.2329" y1="78.125" y2="173.5062"/><polygon fill="#000000" points="2781.7329,142.2562,2794.2329,173.5062,2806.7329,142.2562,2794.2329,154.7562" style="stroke:#000000;stroke-width:3.125;"/><line style="stroke:#000000;stroke-width:3.125;" x1="1104.2816" x2="1104.2816" y1="862.6404" y2="1034.8465"/><polygon fill="#000000" points="1091.7816,1003.5965,1104.2816,1034.8465,1116.7816,1003.5965,1104.2816,1016.0965" style="stroke:#000000;stroke-width:3.125;"/><line style="stroke:#000000;stroke-width:3.125;" x1="400.7751" x2="400.7751" y1="1731.9221" y2="1879.4418"/><polygon fill="#000000" points="388.2751,1848.1918,400.7751,1879.4418,413.2751,1848.1918,400.7751,1860.6918" style="stroke:#000000;stroke-width:3.125;"/><line style="stroke:#000000;stroke-width:3.125;" x1="743.9201" x2="400.7751" y1="1470.0775" y2="1470.0775"/><line style="stroke:#000000;stroke-width:3.125;" x1="400.7751" x2="400.7751" y1="1470.0775" y2="1623.8472"/><polygon fill="#000000" points="388.2751,1592.5972,400.7751,1623.8472,413.2751,1592.5972,400.7751,1605.0972" style="stroke:#000000;stroke-width:3.125;"/><line style="stroke:#000000;stroke-width:3.125;" x1="1464.6431" x2="1807.7881" y1="1470.0775" y2="1470.0775"/><line style="stroke:#000000;stroke-width:3.125;" x1="1807.7881" x2="1807.7881" y1="1470.0775" y2="1538.8275"/><polygon fill="#000000" points="1795.2881,1507.5775,1807.7881,1538.8275,1820.2881,1507.5775,1807.7881,1520.0775" style="stroke:#000000;stroke-width:3.125;"/><line style="stroke:#000000;stroke-width:3.125;" x1="1807.7881" x2="1807.7881" y1="1692.4774" y2="1963.8168"/><line style="stroke:#000000;stroke-width:3.125;" x1="1807.7881" x2="1104.2816" y1="1963.8168" y2="1963.8168"/><line style="stroke:#000000;stroke-width:3.125;" x1="1104.2816" x2="1104.2816" y1="1963.8168" y2="2010.6918"/><polygon fill="#000000" points="1091.7816,1979.4418,1104.2816,2010.6918,1116.7816,1979.4418,1104.2816,1991.9418" style="stroke:#000000;stroke-width:3.125;"/><line style="stroke:#000000;stroke-width:3.125;" x1="1104.2816" x2="1104.2816" y1="1325.2213" y2="1432.5775"/><polygon fill="#000000" points="1091.7816,1401.3275,1104.2816,1432.5775,1116.7816,1401.3275,1104.2816,1413.8275" style="stroke:#000000;stroke-width:3.125;"/><line style="stroke:#000000;stroke-width:3.125;" x1="3298.2864" x2="3298.2864" y1="862.6404" y2="1034.8465"/><polygon fill="#000000" points="3285.7864,1003.5965,3298.2864,1034.8465,3310.7864,1003.5965,3298.2864,1016.0965" style="stroke:#000000;stroke-width:3.125;"/><line style="stroke:#000000;stroke-width:3.125;" x1="2643.0305" x2="2643.0305" y1="1731.9221" y2="1879.4418"/><polygon fill="#000000" points="2630.5305,1848.1918,2643.0305,1879.4418,2655.5305,1848.1918,2643.0305,1860.6918" style="stroke:#000000;stroke-width:3.125;"/><line style="stroke:#000000;stroke-width:3.125;" x1="2939.8132" x2="2643.0305" y1="1470.0775" y2="1470.0775"/><line style="stroke:#000000;stroke-width:3.125;" x1="2643.0305" x2="2643.0305" y1="1470.0775" y2="1623.8472"/><polygon fill="#000000" points="2630.5305,1592.5972,2643.0305,1623.8472,2655.5305,1592.5972,2643.0305,1605.0972" style="stroke:#000000;stroke-width:3.125;"/><line style="stroke:#000000;stroke-width:3.125;" x1="3656.7596" x2="3953.5423" y1="1470.0775" y2="1470.0775"/><line style="stroke:#000000;stroke-width:3.125;" x1="3953.5423" x2="3953.5423" y1="1470.0775" y2="1538.8275"/><polygon fill="#000000" points="3941.0423,1507.5775,3953.5423,1538.8275,3966.0423,1507.5775,3953.5423,1520.0775" style="stroke:#000000;stroke-width:3.125;"/><line style="stroke:#000000;stroke-width:3.125;" x1="3953.5423" x2="3953.5423" y1="1692.4774" y2="1963.8168"/><line style="stroke:#000000;stroke-width:3.125;" x1="3953.5423" x2="3298.2864" y1="1963.8168" y2="1963.8168"/><line style="stroke:#000000;stroke-width:3.125;" x1="3298.2864" x2="3298.2864" y1="1963.8168" y2="2010.6918"/><polygon fill="#000000" points="3285.7864,1979.4418,3298.2864,2010.6918,3310.7864,1979.4418,3298.2864,1991.9418" style="stroke:#000000;stroke-width:3.125;"/><line style="stroke:#000000;stroke-width:3.125;" x1="3298.2864" x2="3298.2864" y1="1325.2213" y2="1432.5775"/><polygon fill="#000000" points="3285.7864,1401.3275,3298.2864,1432.5775,3310.7864,1401.3275,3298.2864,1413.8275" style="stroke:#000000;stroke-width:3.125;"/><line style="stroke:#000000;stroke-width:3.125;" x1="4605.78" x2="4605.78" y1="1283.1589" y2="1477.4338"/><polygon fill="#000000" points="4593.28,1446.1838,4605.78,1477.4338,4618.28,1446.1838,4605.78,1458.6838" style="stroke:#000000;stroke-width:3.125;"/><line style="stroke:#000000;stroke-width:3.125;" x1="1104.2816" x2="1104.2816" y1="574.3622" y2="754.5654"/><polygon fill="#000000" points="1091.7816,723.3154,1104.2816,754.5654,1116.7816,723.3154,1104.2816,735.8154" style="stroke:#000000;stroke-width:3.125;"/><line style="stroke:#000000;stroke-width:3.125;" x1="3298.2864" x2="3298.2864" y1="574.3622" y2="754.5654"/><polygon fill="#000000" points="3285.7864,723.3154,3298.2864,754.5654,3310.7864,723.3154,3298.2864,735.8154" style="stroke:#000000;stroke-width:3.125;"/><line style="stroke:#000000;stroke-width:3.125;" x1="1357.9681" x2="3044.3481" y1="536.8622" y2="536.8622"/><polygon fill="#000000" points="3013.0981,524.3622,3044.3481,536.8622,3013.0981,549.3622,3025.5981,536.8622" style="stroke:#000000;stroke-width:3.125;"/><line style="stroke:#000000;stroke-width:3.125;" x1="2794.2329" x2="2794.2329" y1="372.731" y2="452.4872"/><line style="stroke:#000000;stroke-width:3.125;" x1="2794.2329" x2="1104.2816" y1="452.4872" y2="452.4872"/><line style="stroke:#000000;stroke-width:3.125;" x1="1104.2816" x2="1104.2816" y1="452.4872" y2="499.3622"/><polygon fill="#000000" points="1091.7816,468.1122,1104.2816,499.3622,1116.7816,468.1122,1104.2816,480.6122" style="stroke:#000000;stroke-width:3.125;"/><line style="stroke:#000000;stroke-width:3.125;" x1="3552.2247" x2="4605.78" y1="536.8622" y2="536.8622"/><line style="stroke:#000000;stroke-width:3.125;" x1="4605.78" x2="4605.78" y1="536.8622" y2="1129.509"/><polygon fill="#000000" points="4593.28,1098.259,4605.78,1129.509,4618.28,1098.259,4605.78,1110.759" style="stroke:#000000;stroke-width:3.125;"/><line style="stroke:#000000;stroke-width:3.125;" x1="1104.2816" x2="3298.2864" y1="2010.6918" y2="2010.6918"/><line style="stroke:#000000;stroke-width:3.125;" x1="2794.2329" x2="2794.2329" y1="2010.6918" y2="2073.1918"/><polygon fill="#000000" points="2781.7329,2041.9418,2794.2329,2073.1918,2806.7329,2041.9418,2794.2329,2054.4418" style="stroke:#000000;stroke-width:3.125;"/><line style="stroke:#000000;stroke-width:3.125;" x1="2403.318" x2="2403.318" y1="3194.8868" y2="3257.3868"/><polygon fill="#000000" points="2390.818,3226.1368,2403.318,3257.3868,2415.818,3226.1368,2403.318,3238.6368" style="stroke:#000000;stroke-width:3.125;"/><line style="stroke:#000000;stroke-width:3.125;" x1="3185.1479" x2="3185.1479" y1="3194.8868" y2="3257.3868"/><polygon fill="#000000" points="3172.6479,3226.1368,3185.1479,3257.3868,3197.6479,3226.1368,3185.1479,3238.6368" style="stroke:#000000;stroke-width:3.125;"/><line style="stroke:#000000;stroke-width:3.125;" x1="2434.568" x2="2403.318" y1="2972.4869" y2="2972.4869"/><line style="stroke:#000000;stroke-width:3.125;" x1="2403.318" x2="2403.318" y1="2972.4869" y2="3041.2369"/><polygon fill="#000000" points="2390.818,3009.9869,2403.318,3041.2369,2415.818,3009.9869,2403.318,3022.4869" style="stroke:#000000;stroke-width:3.125;"/><line style="stroke:#000000;stroke-width:3.125;" x1="3153.8979" x2="3185.1479" y1="2972.4869" y2="2972.4869"/><line style="stroke:#000000;stroke-width:3.125;" x1="3185.1479" x2="3185.1479" y1="2972.4869" y2="3041.2369"/><polygon fill="#000000" points="3172.6479,3009.9869,3185.1479,3041.2369,3197.6479,3009.9869,3185.1479,3022.4869" style="stroke:#000000;stroke-width:3.125;"/><line style="stroke:#000000;stroke-width:3.125;" x1="2794.2329" x2="2794.2329" y1="2181.2668" y2="2934.9869"/><polygon fill="#000000" points="2781.7329,2903.7369,2794.2329,2934.9869,2806.7329,2903.7369,2794.2329,2916.2369" style="stroke:#000000;stroke-width:3.125;"/><!--SRC=[hLVDRXit4BxlKqnygItOXOlU9225eSI50IUHBDj50L_etLc9y2wv8RcobLDFHNlfeOzGe2_GH-YZ-4awGtArFr9I7tAoiHmEPxvllfdHAxV24g4gX5J9Dqww0k5MfBMkBGYLmRMHQoaAc1cjStY7RgKp2rB16sbJWmxXdM0NmidK9lP1gaeOKK9MIVZ-z3InJXYN9ECVvHhL61PEE7fFEN2QVQxnJitW-TS_ONwd3Yzoc05vKp0_cYI9qkJUoENA9G2ZqQB2b4EP2eiMA9gBiYfaIYzhDHgHING4aaAldVOnYQBOW3CrmYFv7PFLyoz_aINR58zYOo4NXKKuZ4aVHOjvny9VFun872LaSRr2kYCCKXYEmgMOmKeA1ws3Yg6ohn8a-3Y5994v79ufKMm-eJTTRIfDVoqzCJiA2HzsGpe_kroyzG-DhrVqcKy8WDkpwSs7cmNChZvyE1-D82KW9cpbWIemPvmOgOR0QrExbOS6u2T-nJ_Y4pxkeENFzo1cS2bCHZa52qASWtVi5DQYg3bxc2V-yE3SmyWOIEJIsRYLLCi3Ecnne7mMA_r8ReJRvQ0XPxh2z04oYeRAp12YHgRCiOtdjsXale52BpbOIBLoHcJHXajp5WtzMpDOIrrGrLbOSWsoFRaatwvn-0RBy8rG354fmB9o6xRD9FlrC3EDYpfD2P2yPfGiFQ1s4_cXuVHdzFL4QK-rIeiwmt6tIDU1fWRkvz_-c0GmUuNVfpJeSAgvrXn6RW4MKgKSV4gXAroZWNlF51v70sPEjdePiZ_atz9_DfUOnTDS6qgny2KNRdHP1R1EL_mVUYszrt0IWubXC2rMKwFn3Y8e7ZZoqGFlJas5ueyrUOe81KbD_AsJrx50vfDGMp9F4dvsABBKGsuvsNb3I5VLrrStUpHsVNLnUt5s-VyQQnhZZiQ6dUEhAMqMbNOMjRKLcxVxWjA64OtxGfh3IXVKr1kEwK6P4M5LlLM8znNSWEFuINoRFUgPavEYq8_apEWIn9FKPUF3T_lWf5QaH6Dz_lwrBybh6FrBrUK2GIzILt_AVKPTEyH-7Mcrt0UINoIkUIEkCBtsgMi-K1U7t1DN16YlkEvfFWtqnIEge-ZZGGpywlWzIaB3R7MhgAJYCtVgXdpGEg0oIZSy2cNO9rg1jRJGl6ziUxl7EBBYIqyQJEF0tNwS-dbGQKkDcmgkVnXStM_wKsDxtEuoX8jKMTq_Rc_7DjZboRCKyHgtA58vy1urXr8R9iYWB-v9s0gky0IVH2aLaYWoGixoafFBj1qzjgdtSqqcmK24JkmnFwigBwE0U0juoFnEqQBbrvEjOz_HcdYRakgwzHKq_ZnTTufR1JjTea8JRqq66EI59Y2fJNKxvsZaUoJ5TAdrWsyvlSaMwGqx6dD4SzfsoDAcCvItdGLMmiQ97TS6yakIrDRA-mBtZ7mQFMgjYpLrpupGybE2UFs4HlDTvY8dKZBG5INOVypWnveApqObRpZ7idQrLpS- -Q6pnjqmRvgknx26BPZuubaTGhUu3M_QtEqRFvAwkda9vJ35ZCywssOV-7P_Vak5nXigGvpix1G1-Er-FeO3siQVk8VuAaPUdRYGTPOTXu9yWjVmtUaf3vxW0QYE26DSKagnDUpUvIhHmorui41z6rPiaWffvZYKx_Q7mzx5AIJKQ-Dx4r9nlOjXnapKl__0y-z_GpUNSvw6QaDiaqDLb_UKrA7qSyRFtk307d52Fi2FDVyUQ3DHMfqewktSXGO9RT_RCr5AyS3- -pdlphAMx_y0]--></g></svg>
